<svg width="85" height="85" viewBox="0 0 85 85" fill="none" xmlns="http://www.w3.org/2000/svg">
<path d="M29.6387 17.9307H33.5179V12.7583H28.3455V16.6375C28.3455 17.3506 28.9256 17.9307 29.6387 17.9307Z" fill="#FFC107"/>
<path d="M36.1033 12.7583H41.2757V17.9307H36.1033V12.7583Z" fill="#FFC107"/>
<path d="M42.5694 72.2412H43.8626V60.6031C43.8626 59.1488 44.3455 57.8052 45.1595 56.7239H39.9802C40.7937 57.8052 41.2771 59.1486 41.2771 60.6031V72.2412H42.5694Z" fill="#FFC107"/>
<path d="M30.9311 39.9137V45.0862C30.9311 45.5397 30.8521 45.9745 30.7088 46.3794H54.4288C54.2855 45.9745 54.2065 45.5397 54.2065 45.0862V39.9137C54.2065 37.8033 55.2235 35.9257 56.7925 34.7449L56.793 34.7412C56.793 34.0282 56.2128 33.448 55.4998 33.448H29.6382C28.9251 33.448 28.345 34.0282 28.345 34.7412V34.7449C29.9145 35.9251 30.9311 37.8028 30.9311 39.9137Z" fill="#FFC107"/>
<path d="M29.6387 30.8615H55.5003C56.2133 30.8615 56.7935 30.2814 56.7935 29.5683V21.8098C56.7935 21.0968 56.2133 20.5166 55.5003 20.5166L29.6387 20.5171C28.9256 20.5171 28.3455 21.0973 28.3455 21.8104V29.5688C28.3455 30.2819 28.9256 30.8615 29.6387 30.8615Z" fill="#FFC107"/>
<path d="M43.863 12.7583H49.0355V17.9307H43.863V12.7583Z" fill="#FFC107"/>
<path d="M56.7941 6.29324C56.7941 5.58018 56.2139 5 55.5008 5H51.6216V10.1724H56.794L56.7941 6.29324Z" fill="#FFC107"/>
<path d="M36.1033 5H41.2757V10.1724H36.1033V5Z" fill="#FFC107"/>
<path d="M56.794 16.6381V12.7583H51.6216V17.9307H55.5008C56.2139 17.9307 56.794 17.3506 56.794 16.6381Z" fill="#FFC107"/>
<path d="M58.3889 32.1553C58.7619 32.5718 59.0465 33.0688 59.2129 33.6165C59.6827 33.5077 60.1708 33.448 60.673 33.448H63.259C63.7016 33.448 64.1342 33.493 64.5522 33.5783V14.0515C64.5522 10.9294 62.3273 8.31727 59.3798 7.71606V16.638C59.3798 17.6309 59.0047 18.5376 58.3889 19.224C59.0047 19.9109 59.3798 20.8175 59.3798 21.81V29.5685C59.3798 30.5614 59.0047 31.4681 58.3889 32.1549L58.3889 32.1553Z" fill="#FFC107"/>
<path d="M43.863 5H49.0355V10.1724H43.863V5Z" fill="#FFC107"/>
<path d="M61.9662 52.8446V50.2586C61.9662 49.5455 61.3861 48.9653 60.673 48.9653H24.4668C23.7538 48.9653 23.1736 49.5455 23.1736 50.2586V52.8446C23.1736 53.5577 23.7538 54.1378 24.4668 54.1378H60.673C61.3861 54.1378 61.9662 53.5577 61.9662 52.8446Z" fill="#FFC107"/>
<path d="M33.5172 5H29.638C28.9249 5 28.3447 5.58018 28.3447 6.29324V10.1725H33.5172L33.5172 5Z" fill="#FFC107"/>
<path d="M64.5525 68.3614C64.5525 71.9267 61.6521 74.8271 58.0868 74.8271H56.5713C56.7146 75.232 56.7936 75.6667 56.7936 76.1203V77.4135H63.2593C65.3985 77.4135 67.1385 75.673 67.1385 73.5343L67.1391 56.7236H64.553L64.5525 68.3614Z" fill="#FFC107"/>
<path d="M56.794 72.2412H58.0872C60.2264 72.2412 61.9664 70.5007 61.9664 68.362V56.7239H55.4976C56.3111 57.8052 56.7945 59.1486 56.7945 60.6031L56.794 72.2412Z" fill="#FFC107"/>
<path d="M52.9141 74.8276H32.2249C31.5118 74.8276 30.9316 75.4078 30.9316 76.1209V78.7069C30.9316 79.42 31.5118 80.0001 32.2249 80.0001H52.9141C53.6272 80.0001 54.2074 79.42 54.2074 78.7069V76.1209C54.2074 75.4078 53.6272 74.8276 52.9141 74.8276Z" fill="#FFC107"/>
<path d="M50.3277 56.7246C48.1885 56.7246 46.4485 58.4651 46.4485 60.6038V72.2419H54.207V60.6038C54.2075 58.4651 52.467 56.7246 50.3277 56.7246Z" fill="#FFC107"/>
<path d="M64.3301 48.9661C64.4734 49.371 64.5524 49.8057 64.5524 50.2593V52.8453C64.5524 53.2984 64.4734 53.7337 64.3301 54.1386H67.139V48.7449C66.7346 48.8882 66.2993 48.9667 65.8457 48.9667L64.3301 48.9661Z" fill="#FFC107"/>
<path d="M63.2587 36.0339H60.6727C58.5335 36.0339 56.7935 37.7745 56.7935 39.9132V45.0856C56.7935 45.7987 57.3736 46.3789 58.0867 46.3789H65.8452C66.5582 46.3789 67.1384 45.7987 67.1384 45.0856V39.9132C67.1379 37.7745 65.3974 36.0339 63.2587 36.0339Z" fill="#FFC107"/>
<path d="M24.4664 33.4478C24.9686 33.4478 25.4567 33.5074 25.9265 33.6162C26.0929 33.0679 26.3775 32.5709 26.7505 32.1551C26.1347 31.4676 25.7596 30.561 25.7596 29.5686V21.8102C25.7596 20.8172 26.1347 19.9105 26.7505 19.2241C26.1347 18.5367 25.7596 17.6301 25.7596 16.6377V7.71582C22.8121 8.31693 20.5872 10.929 20.5872 14.0513V33.578C21.0052 33.4928 21.4373 33.4478 21.8804 33.4478L24.4664 33.4478Z" fill="#FFC107"/>
<path d="M19.2939 46.3786H27.0524C27.7654 46.3786 28.3456 45.7984 28.3456 45.0854V39.9129C28.3456 37.7737 26.6051 36.0337 24.4664 36.0337H21.88C19.7407 36.0337 18.0007 37.7742 18.0007 39.9129V45.0854C18.0007 45.7984 18.5809 46.3786 19.2939 46.3786Z" fill="#FFC107"/>
<path d="M23.1724 68.3615C23.1724 70.5007 24.9129 72.2407 27.0516 72.2407H28.3449V60.6026C28.3449 59.1483 28.8277 57.8047 29.6418 56.7234L23.1724 56.7239L23.1724 68.3615Z" fill="#FFC107"/>
<path d="M30.9312 60.6029V72.241H38.6896V60.6029C38.6896 58.4636 36.9491 56.7236 34.8104 56.7236C32.6717 56.7236 30.9312 58.4642 30.9312 60.6029Z" fill="#FFC107"/>
<path d="M20.5864 68.3615V56.7234L18 56.7239V73.5346C18 75.6738 19.7405 77.4138 21.8792 77.4138H28.3449V76.1206C28.3449 75.6675 28.4239 75.2323 28.5672 74.8273L27.0517 74.8279C23.4869 74.8279 20.5866 71.9275 20.5866 68.3622L20.5864 68.3615Z" fill="#FFC107"/>
<path d="M20.5864 52.8445V50.2585C20.5864 49.8054 20.6654 49.3701 20.8088 48.9652H19.2932C18.8402 48.9652 18.4049 48.8873 18 48.7434V54.1376H20.8089C20.665 53.7327 20.5864 53.2975 20.5864 52.8445Z" fill="#FFC107"/>
</svg>
