<svg width="85" height="85" viewBox="0 0 85 85" fill="none" xmlns="http://www.w3.org/2000/svg">
<path d="M82.3154 54.1704H71.9545L62.1638 44.7728C60.3352 43.0219 57.9496 42.0012 55.4076 41.8626V38.3608C55.4076 36.194 53.5921 34.4304 51.3616 34.4304H42.7123V27.5777H47.1475C48.068 27.5777 48.8071 26.8597 48.8071 25.9655C48.8071 25.0712 48.068 24.3533 47.1475 24.3533H34.9579C34.0374 24.3533 33.2983 25.0713 33.2983 25.9655C33.2983 26.8598 34.0374 27.5777 34.9579 27.5777H39.3931V34.4304H29.019C26.7886 34.4304 24.9731 36.194 24.9731 38.3608V41.8248H21.2121C18.2294 41.8248 15.5322 39.9979 14.5078 37.2774L12.6015 32.2387L16.7512 31.4198C17.6981 31.2435 18.5279 30.6641 19.0073 29.8453C19.4873 29.0392 19.5906 28.0567 19.2664 27.1747L15.2982 15.9757C14.2224 12.8765 10.8379 11.201 7.63502 12.1585L5.26201 12.8509L4.21189 10.0544C3.90084 9.22274 2.94088 8.79473 2.08539 9.0969C1.22928 9.39906 0.788701 10.3316 1.09974 11.1627L11.4087 38.3977C12.9131 42.3784 16.8683 45.0492 21.2251 45.0492H34.8152V63.1385H30.4194C26.3086 63.1385 22.9372 66.4014 22.9372 70.4071V72.7756H17.4776C16.5571 72.7756 15.818 73.4935 15.818 74.3878C15.818 75.282 16.5571 76 17.4776 76H63.642C64.5625 76 65.3016 75.282 65.3016 74.3878C65.3016 73.4935 64.5625 72.7756 63.642 72.7756H58.1824V70.4071C58.1824 66.3886 54.8236 63.1385 50.7002 63.1385H46.3044L46.3038 45.061H54.8367C56.7299 45.061 58.5197 45.7663 59.8551 47.0642L70.1253 56.9281L74.8583 61.4755C75.1825 61.7904 75.5974 61.9418 76.0254 61.9418C76.4535 61.9418 76.8815 61.7782 77.2057 61.4633C77.8541 60.8335 77.8409 59.8134 77.1926 59.183L75.3383 57.3944H82.3404C83.261 57.3944 84 56.6764 84 55.7822C83.9743 54.9001 83.2221 54.1694 82.3147 54.1694L82.3154 54.1704ZM28.2665 38.3615C28.2665 37.9712 28.5907 37.6563 28.9924 37.6563H51.3364C51.7382 37.6563 52.0624 37.9712 52.0624 38.3615V41.8256H28.2665V38.3615Z" fill="#FFC107"/>
</svg>
