<svg width="85" height="85" viewBox="0 0 85 85" fill="none" xmlns="http://www.w3.org/2000/svg">
<path fill-rule="evenodd" clip-rule="evenodd" d="M47.7454 40.1949C50.5373 39.8132 53.2494 39.3085 55.9965 38.9101C59.1435 38.4487 59.205 38.8556 61.5187 40.6814L72.3492 49.1366C75.211 51.6629 73.0482 54.2688 70.4787 53.8074L60.3486 46.6467C58.0978 45.06 58.4962 45.2557 55.7673 46.2833C52.665 47.4534 49.2091 49.0751 45.9196 48.9423C41.8975 48.7829 41.0111 46.4426 38.2542 44.0492C36.6241 42.7994 35.166 41.3329 33.9203 39.6972C33.2381 38.6431 32.5209 37.7833 32.0861 36.9235C31.8065 36.4412 31.6583 35.8917 31.6583 35.3339C31.6583 34.7747 31.8065 34.2253 32.0861 33.743C32.8802 32.2219 34.2782 29.8145 36.3249 30.2563L47.3917 32.6777C48.6863 32.9573 49.5083 34.2337 49.2287 35.5283C48.9491 36.8228 47.6727 37.6463 46.3781 37.3667L45.482 37.1709C46.2859 38.109 47.0394 39.117 47.7454 40.1949ZM12.5613 58.9396L19.1376 54.6756H15.6468V50.2453H34.3817L22.2049 36.7641L25.4833 33.8143L40.3289 50.262H58.2306C58.2334 50.262 58.2376 50.262 58.2404 50.262C58.8779 50.262 59.4832 50.5416 59.897 51.024L73.8465 58.948H78.5788V65H7V58.9396H12.5613ZM18.5267 58.948H67.5987L57.3261 54.6854H25.1016L18.5267 58.948ZM27.2965 21.1845C24.9031 21.8164 23.1723 23.996 23.1723 26.5474C23.1723 29.6104 25.6566 32.0947 28.7211 32.0947C31.7842 32.0947 34.2685 29.6104 34.2685 26.5474C34.2685 26.3726 34.2601 26.1951 34.2433 26.0231C33.9693 23.1739 31.5745 21 28.7127 21C28.2374 21 27.818 21.0461 27.2965 21.1845Z" fill="#FFC107"/>
</svg>
