<svg width="85" height="85" viewBox="0 0 85 85" fill="none" xmlns="http://www.w3.org/2000/svg">
<path d="M77.3421 72.9995H7.93631C7.41922 72.9995 7 72.5803 7 72.0632V63.7903C7 63.5422 7.09839 63.3036 7.27425 63.1283C7.4501 62.9524 7.68823 62.854 7.93631 62.854H77.3394C77.5885 62.853 77.8272 62.9514 78.0035 63.1272C78.1799 63.3031 78.2788 63.5417 78.2788 63.7903V72.0632C78.2788 72.5803 77.8596 72.9995 77.3425 72.9995H77.3421ZM8.87553 71.1269H76.4028V64.7276H8.87553V71.1269Z" fill="#FFC107"/>
<path d="M77.3421 72.9997H7.93631C7.41922 72.9997 7 72.5805 7 72.0634V13.9363C7 13.6882 7.09839 13.4496 7.27425 13.2743C7.4501 13.0984 7.68823 13 7.93631 13H77.3394C77.5885 12.999 77.8272 13.0974 78.0035 13.2732C78.1799 13.4491 78.2788 13.6877 78.2788 13.9363V72.0634C78.2788 72.5805 77.8596 72.9997 77.3425 72.9997H77.3421ZM8.87553 71.127H76.4028V14.8717H8.87553V71.127Z" fill="#FFC107"/>
<path d="M72.5014 28.566C71.43 28.5644 70.3838 28.2415 69.4977 27.6386C68.6122 27.0352 67.9281 26.1799 67.5346 25.1835C67.0055 26.5249 65.9562 27.5952 64.6252 28.1506C63.2948 28.7064 61.7959 28.7001 60.4701 28.1333C59.1439 27.567 58.1034 26.4878 57.5853 25.1422C57.0693 26.4821 56.0357 27.5576 54.7173 28.126C53.3989 28.6944 51.9073 28.708 50.579 28.1637C49.2506 27.6194 48.1972 26.5633 47.6565 25.2334C47.1164 26.5638 46.0633 27.6204 44.7345 28.1648C43.4057 28.7092 41.914 28.6955 40.5951 28.1271C39.2767 27.5582 38.243 26.4827 37.7271 25.1424C37.2089 26.4885 36.1685 27.5672 34.8418 28.134C33.5155 28.7002 32.0166 28.706 30.6861 28.1502C29.3552 27.5938 28.3063 26.5235 27.7772 25.1817C27.2486 26.5236 26.1993 27.5939 24.8689 28.1502C23.538 28.706 22.039 28.7002 20.7127 28.134C19.3865 27.5671 18.3461 26.4885 17.8274 25.1424C17.2261 26.7068 15.9255 27.8973 14.3145 28.3585C12.7041 28.8201 10.9702 28.4982 9.63196 27.4897C8.2937 26.4817 7.50659 24.9032 7.50659 23.2278H8.50518C8.50518 24.778 9.33211 26.2111 10.675 26.9862C12.0175 27.7613 13.6718 27.7613 15.0149 26.9862C16.3574 26.2111 17.1847 24.7782 17.1847 23.2278C17.1847 22.9515 17.4082 22.728 17.684 22.728H17.9708C18.1032 22.728 18.2304 22.7809 18.3241 22.8746C18.4178 22.9683 18.4706 23.0954 18.4706 23.2278C18.4706 24.778 19.2976 26.2111 20.6405 26.9862C21.983 27.7613 23.6373 27.7613 24.9803 26.9862C26.3228 26.2111 27.1502 24.7782 27.1502 23.2278C27.1502 22.9515 27.3737 22.728 27.65 22.728H27.9065C28.0389 22.728 28.1661 22.7809 28.2597 22.8746C28.3534 22.9683 28.4063 23.0954 28.4063 23.2278C28.4063 24.778 29.2332 26.2111 30.5761 26.9862C31.9186 27.7613 33.5729 27.7613 34.916 26.9862C36.2585 26.2111 37.0853 24.7782 37.0853 23.2278C37.0853 22.9515 37.3093 22.728 37.5851 22.728H37.8719C38.0043 22.728 38.1315 22.7809 38.2252 22.8746C38.3189 22.9683 38.3717 23.0954 38.3717 23.2278C38.3717 24.778 39.1987 26.2111 40.5416 26.9862C41.8841 27.7613 43.5384 27.7613 44.8814 26.9862C46.2239 26.2111 47.0513 24.7782 47.0513 23.2278C47.0513 22.9515 47.2748 22.728 47.5506 22.728H47.7636C47.8965 22.728 48.0237 22.7809 48.1174 22.8746C48.211 22.9683 48.2634 23.0954 48.2634 23.2278C48.2634 24.778 49.0908 26.2111 50.4332 26.9862C51.7761 27.7613 53.4306 27.7613 54.7731 26.9862C56.116 26.2111 56.9429 24.7782 56.9429 23.2278C56.9429 22.9515 57.1669 22.728 57.4427 22.728H57.7295C57.862 22.728 57.9891 22.7809 58.0828 22.8746C58.1765 22.9683 58.2288 23.0954 58.2288 23.2278C58.2288 24.778 59.0563 26.2111 60.3987 26.9862C61.7416 27.7613 63.396 27.7613 64.7385 26.9862C66.0814 26.2111 66.9084 24.7782 66.9084 23.2278C66.9084 22.9515 67.1324 22.728 67.4082 22.728H67.6647C67.7976 22.728 67.9242 22.7809 68.0179 22.8746C68.1116 22.9683 68.1645 23.0954 68.1645 23.2278C68.1645 24.778 68.9919 26.2111 70.3343 26.9862C71.6772 27.7613 73.3311 27.7613 74.6742 26.9862C76.0171 26.2111 76.844 24.7782 76.844 23.2278H77.8426C77.841 24.6435 77.2779 26.0012 76.2762 27.0019C75.275 28.0026 73.9174 28.5652 72.5011 28.5663L72.5014 28.566Z" fill="#FFC107"/>
<path d="M17.2212 14.5645H18.47V23.2283H17.2212V14.5645Z" fill="#FFC107"/>
<path d="M66.8752 14.5645H68.124V23.2283H66.8752V14.5645Z" fill="#FFC107"/>
<path d="M27.2148 14.5645H28.4636V23.2283H27.2148V14.5645Z" fill="#FFC107"/>
<path d="M37.166 14.5645H38.4148V23.2283H37.166V14.5645Z" fill="#FFC107"/>
<path d="M47.0339 14.5645H48.2827V23.2283H47.0339V14.5645Z" fill="#FFC107"/>
<path d="M56.9431 14.5645H58.1919V23.2283H56.9431V14.5645Z" fill="#FFC107"/>
<g clip-path="url(#clip0_387_99)">
<path fill-rule="evenodd" clip-rule="evenodd" d="M50.4575 50.4427L51.3852 49.8628L52.7492 46.2031C52.6554 46.1173 52.5738 46.0191 52.5066 45.9112C52.2994 45.5797 52.2472 45.1945 52.3311 44.8403C52.4146 44.4857 52.634 44.1619 52.9689 43.9525C53.3038 43.7432 53.6911 43.6881 54.0464 43.7681C54.4013 43.8481 54.7249 44.0636 54.9321 44.3951C55.0013 44.5057 55.0528 44.6218 55.0882 44.741L58.9754 45.1185L59.9031 44.5386C60.3947 44.2313 61.0486 44.3785 61.3527 44.8651L63.7887 48.7622C64.0927 49.2486 63.9387 49.901 63.447 50.2083L54.0002 56.1133C53.7548 56.2666 53.4698 56.3067 53.208 56.2477C52.9463 56.189 52.7074 56.0304 52.5546 55.787L50.1161 51.8887C49.8109 51.4004 49.9642 50.7511 50.4575 50.4427ZM55.5873 52.7071L54.8056 53.1957L54.1055 52.7237L53.9205 52.8393L54.3294 53.4934L53.6508 53.9175L52.2768 51.7194L53.396 51.0198C53.9054 50.7014 54.3205 50.799 54.6415 51.3125C54.8613 51.6642 54.8963 51.9653 54.7463 52.2156L55.5873 52.7071ZM53.3072 51.8581L53.582 52.2977C53.6827 52.2348 53.8861 52.1236 53.9475 52.0324C53.9755 51.9907 53.9699 51.9378 53.9303 51.8746L53.8402 51.7303C53.8005 51.6669 53.7556 51.6385 53.7057 51.6455C53.5984 51.6603 53.4068 51.7958 53.3072 51.8581ZM56.7388 50.8333L56.0281 51.2775L56.228 51.5972L57.0984 51.0532L57.4172 51.5633L55.836 52.5516L54.462 50.3535L56.0255 49.3762L56.2554 49.9418L55.4917 50.4192L55.7093 50.7674L56.4199 50.3232L56.7388 50.8333ZM59.0555 50.5392L57.8045 50.0007L58.398 50.9502L57.7192 51.3745L56.3452 49.1763L56.9812 48.7788L58.2324 49.3175L57.6387 48.3678L58.3173 47.9436L59.6913 50.1418L59.0555 50.5392ZM60.6057 47.296L60.0904 47.6181L61.1126 49.2534L60.402 49.6976L59.3798 48.0623L58.8645 48.3844L58.5127 47.8215L60.2539 46.7331L60.6057 47.296ZM52.3274 49.2739L58.0335 45.7072L55.1166 45.4242L55.1076 45.4658C55.024 45.8204 54.8046 46.1443 54.4697 46.3536C54.1348 46.5629 53.7475 46.618 53.3922 46.538L53.3506 46.5281L52.3274 49.2739ZM53.4019 44.6453C53.5437 44.5567 53.7074 44.5335 53.8576 44.5671C53.9347 44.5844 54.0076 44.6168 54.0719 44.6624C54.1362 44.7079 54.1907 44.7658 54.2323 44.8326C54.3198 44.9727 54.3419 45.1354 54.3065 45.2853C54.2884 45.3623 54.2553 45.4351 54.209 45.4995C54.1627 45.564 54.1041 45.6188 54.0367 45.6608C53.9694 45.703 53.8944 45.7317 53.8162 45.745C53.738 45.7584 53.658 45.7563 53.5809 45.7388C53.4306 45.7049 53.2938 45.614 53.2063 45.4739C53.1185 45.3336 53.0966 45.1705 53.132 45.0206C53.1675 44.8709 53.2601 44.7339 53.4019 44.6453ZM50.6554 50.7592L60.1009 44.8551C60.4178 44.657 60.8369 44.7513 61.033 45.0649L63.4689 48.9621C63.6649 49.2755 63.5661 49.6937 63.2492 49.8918L53.8036 55.7959C53.4874 55.9945 53.0683 55.9003 52.8722 55.5866L50.4359 51.6888C50.2398 51.3752 50.3387 50.9572 50.6554 50.7592Z" fill="#FFC107"/>
</g>
<path d="M46.0945 42.2505L45.5107 42.9509L46.0945 43.5878V42.2505Z" fill="#FFC107"/>
<path d="M40.5295 44.8358L41.5822 46.0991L42.635 44.8358L41.5822 43.6328L40.5295 44.8358Z" fill="#FFC107"/>
<path d="M43.3035 45.5996L42.6526 46.3805H43.9868L43.3035 45.5996Z" fill="#FFC107"/>
<path d="M46.0946 46.3813V45.0724L44.8629 43.729L43.9534 44.8205L45.3193 46.3814L46.0946 46.3813Z" fill="#FFC107"/>
<path d="M46.0943 39.3623H45.3191L43.8057 41.0917L44.8267 42.2059L46.0943 40.685L46.0943 39.3623Z" fill="#FFC107"/>
<path d="M42.2625 39.4079L43.1243 40.3481L43.987 39.3623H42.3043L42.2625 39.4079Z" fill="#FFC107"/>
<path d="M40.0784 52.3975H43.0865V57.411H40.0784V52.3975Z" fill="#FFC107"/>
<path d="M49.1027 49.3892C49.1027 48.2834 48.2031 47.3838 47.0972 47.3838H36.0675C34.9616 47.3838 34.062 48.2834 34.062 49.3892C34.062 50.4951 34.9616 51.3947 36.0675 51.3947H47.0972C48.2031 51.3947 49.1027 50.4949 49.1027 49.3892ZM36.7763 50.3919C36.1852 50.3919 35.6295 50.1617 35.2114 49.7436L35.9205 49.0345C36.1491 49.2631 36.453 49.3891 36.7763 49.3891H46.3884C46.7117 49.3891 47.0156 49.2631 47.2442 49.0345L47.9533 49.7436C47.5352 50.1617 46.9794 50.3919 46.3884 50.3919H36.7763Z" fill="#FFC107"/>
<path d="M44.5903 59.4162H45.593C45.8694 59.4162 46.0944 59.1913 46.0944 58.9148L46.0946 52.397H44.0891V58.9148C44.0891 59.1913 44.3138 59.4162 44.5903 59.4162Z" fill="#FFC107"/>
<path d="M40.7046 41.107L41.5823 42.11L42.4599 41.107L41.5823 40.1494L40.7046 41.107Z" fill="#FFC107"/>
<path d="M44.1795 42.9824L43.1418 41.8501L42.2485 42.871L43.285 44.0555L44.1795 42.9824Z" fill="#FFC107"/>
<path d="M37.5715 59.4162H38.5741C38.8506 59.4162 39.0755 59.1913 39.0755 58.9148V52.397H37.0701V58.9148C37.0701 59.1913 37.295 59.4162 37.5715 59.4162Z" fill="#FFC107"/>
<path d="M34.2393 51.7763C33.5225 51.2259 33.0592 50.3611 33.0592 49.3897V46.3816L31.0537 46.3813V58.9154C31.0537 59.7448 31.7285 60.4195 32.5578 60.4195H33.1095C33.0764 60.2574 33.059 60.0898 33.059 59.918V53.9018C33.0592 53.0067 33.5312 52.2201 34.2393 51.7765L34.2393 51.7763Z" fill="#FFC107"/>
<path d="M47.5984 52.3975H47.097V58.9153C47.097 59.7447 46.4222 60.4193 45.593 60.4193H44.5903C43.7609 60.4193 43.0863 59.7445 43.0863 58.9153V58.4139H40.0782V58.9153C40.0782 59.7447 39.4033 60.4193 38.5741 60.4193H37.5715C36.742 60.4193 36.0674 59.7445 36.0674 58.9153L36.067 52.3975H35.5656C34.7362 52.3975 34.0615 53.0723 34.0615 53.9015V59.9177C34.0615 60.7472 34.7364 61.4218 35.5656 61.4218H47.598C48.4274 61.4218 49.1021 60.747 49.1021 59.9177V53.9015C49.1023 53.0723 48.4274 52.3975 47.5982 52.3975H47.5984Z" fill="#FFC107"/>
<path d="M47.0972 46.381C47.8671 46.381 48.57 46.672 49.1026 47.1493V46.381C48.5497 46.381 48.1 45.9311 48.1 45.3783V44.3756C48.1 43.8227 48.5499 43.373 49.1026 43.373H50.1053V34.8498C50.1053 34.0203 49.4304 33.3457 48.6012 33.3457H47.0466C47.0797 33.5078 47.0971 33.6753 47.0971 33.8471L47.0972 46.381Z" fill="#FFC107"/>
<path d="M34.0621 45.3793L34.0615 44.3765H30.0505V45.3791H34.0615C34.0619 45.3793 34.0621 45.3793 34.0621 45.3793Z" fill="#FFC107"/>
<path d="M49.1028 44.375H53.1137V45.3777H49.1028V44.375Z" fill="#FFC107"/>
<path d="M39.1777 39.3623L40.0404 40.3481L40.9023 39.4079L40.8605 39.3623L39.1777 39.3623Z" fill="#FFC107"/>
<path d="M35.0644 44.3757V45.3783C35.0644 45.9312 34.6145 46.381 34.0617 46.381V47.1493C34.5942 46.6722 35.297 46.3812 36.067 46.3812V33.8471C36.067 33.6755 36.0844 33.5078 36.1175 33.3457H34.5629C33.7335 33.3457 33.0588 34.0205 33.0588 34.8498V43.373H34.0615C34.6144 43.3732 35.0643 43.8231 35.0643 44.3758L35.0644 44.3757Z" fill="#FFC107"/>
<path d="M50.1054 49.3897C50.1054 50.3613 49.6421 51.2259 48.9253 51.7765C49.6334 52.2199 50.1054 53.0065 50.1054 53.9018V59.918C50.1054 60.0896 50.088 60.2574 50.0549 60.4195H50.6069C51.4363 60.4195 52.1109 59.7446 52.1109 58.9154V46.3813H50.1054L50.1054 49.3897Z" fill="#FFC107"/>
<path d="M46.0949 33.8473C46.0949 33.0179 45.4201 32.3433 44.5908 32.3433H38.5746C37.7452 32.3433 37.0706 33.0181 37.0706 33.8473V38.3596H46.0949V33.8473Z" fill="#FFC107"/>
<path d="M40.512 46.3805L39.8611 45.5996L39.1777 46.3805H40.512Z" fill="#FFC107"/>
<path d="M39.8796 44.0555L40.9161 42.871L40.0228 41.8501L38.9851 42.9824L39.8796 44.0555Z" fill="#FFC107"/>
<path d="M39.2113 44.8205L38.3017 43.729L37.0701 45.0724V46.3813H37.8453L39.2113 44.8205Z" fill="#FFC107"/>
<path d="M37.0696 42.2505V43.5878L37.6533 42.9509L37.0696 42.2505Z" fill="#FFC107"/>
<path d="M39.3587 41.0917L37.8453 39.3623H37.0701V40.685L38.3376 42.2059L39.3587 41.0917Z" fill="#FFC107"/>
<defs>
<clipPath id="clip0_387_99">
<rect width="13.2512" height="10.8586" fill="white" transform="translate(47.3506 47.4644) rotate(-32.0081)"/>
</clipPath>
</defs>
</svg>
