<svg width="85" height="85" viewBox="0 0 85 85" fill="none" xmlns="http://www.w3.org/2000/svg">
<path d="M2.25573 81H82.7438C83.4378 81 84 80.4447 84 79.758C84 79.0719 83.4384 78.516 82.7438 78.516H79.9067V25.1085C79.8644 24.9842 79.9037 24.3841 79.2738 24.0315L43.7407 4.16183C43.358 3.94606 42.8871 3.94606 42.5044 4.16183L6.98366 24.0315C6.60583 24.2424 6.34346 24.7218 6.34346 25.1085V78.516H2.25623C1.56222 78.516 1 79.0713 1 79.758C1 80.4442 1.56222 81 2.25623 81H2.25573ZM74.8076 58.1406C70.6582 56.5932 66.3332 51.6784 65.5765 35.8855H70.0978C69.6087 44.775 71.1207 51.9529 74.8078 58.1406H74.8076ZM72.6137 35.8855H77.3938V57.5622C73.644 51.6241 72.1133 44.6557 72.6137 35.8855ZM77.3938 33.4022H8.85334V26.3544H77.3938V33.4022ZM16.1503 35.8855H20.6717C20.0635 48.5182 17.0444 55.8256 11.4796 58.0748C15.1383 51.9037 16.6375 44.7452 16.1503 35.8855ZM8.85473 35.8855H13.6348C14.1366 44.6572 12.6035 51.627 8.85473 57.5653V35.8855ZM23.1743 35.8855H63.0747C63.7688 50.5534 67.6885 58.7587 75.0385 60.8045C71.2367 65.204 69.3583 71.0447 69.2762 78.5151H16.9732C16.891 71.0453 15.0133 65.2034 11.2119 60.8045C18.5618 58.7586 22.4814 50.5535 23.1743 35.8855ZM71.7646 78.5151C71.8456 71.371 73.6943 65.9189 77.3946 61.9199V78.5151H71.7646ZM43.123 6.66864L73.8786 23.8652H12.3797L43.123 6.66864ZM8.85582 61.9199C12.5562 65.9184 14.4048 71.3717 14.4859 78.5151L8.85582 78.5145V61.9199Z" fill="#FFC107"/>
<path d="M28.848 29.418H32.088V30.183H28.848V29.418ZM28.929 32.217H32.601V33H28.029V26.7H32.475V27.483H28.929V32.217ZM35.7884 33L33.0164 26.7H33.9884L36.5354 32.514H35.9774L38.5424 26.7H39.4424L36.6794 33H35.7884ZM41.0648 29.418H44.3048V30.183H41.0648V29.418ZM41.1458 32.217H44.8178V33H40.2458V26.7H44.6918V27.483H41.1458V32.217ZM46.2751 33V26.7H47.0131L51.1801 31.875H50.7931V26.7H51.6931V33H50.9551L46.7881 27.825H47.1751V33H46.2751ZM54.8298 33V27.483H52.6698V26.7H57.8808V27.483H55.7208V33H54.8298Z" fill="white"/>
</svg>
