<svg width="85" height="85" viewBox="0 0 85 85" fill="none" xmlns="http://www.w3.org/2000/svg">
<g clip-path="url(#clip0_387_2)">
<path d="M47.1789 33.2808C45.2866 32.6569 43.9217 31.3451 42.9541 29.6694C41.584 27.2965 40.9924 24.1923 40.8279 21.2452C40.7776 20.3412 40.7666 19.458 40.7863 18.618C40.8475 15.9575 40.8336 12.2334 39.9348 9.17955C39.3098 7.05445 38.2655 5.25335 36.5459 4.32455C37.9472 4.50593 39.0464 5.14016 39.8955 6.09845C40.8746 7.20346 41.5372 8.74627 41.9566 10.5335C42.5094 12.8897 42.6376 15.656 42.5111 18.4101C42.3528 21.8633 42.4701 25.9626 43.8079 29.1461C44.5346 30.8761 45.6111 32.3345 47.1789 33.2808ZM64.5792 46.6356C64.8172 46.8227 65.0182 47.0844 65.1759 47.39C65.4122 47.848 65.5473 48.3962 65.5629 48.9438C65.5785 49.4845 65.478 50.0188 65.2447 50.4561C65.0737 50.7767 64.8282 51.0453 64.5018 51.2232C64.3921 51.2585 64.2818 51.2937 64.1714 51.3301L64.0657 51.3647C63.7602 51.4572 63.4465 51.5606 63.1242 51.6755L56.5652 53.8394C56.5335 53.8497 56.5034 53.8636 56.4757 53.8804C55.8022 54.0386 55.0131 54.2414 54.2373 54.4412C53.4385 54.6463 52.6546 54.8479 52.0302 54.9923C51.5334 55.1003 51.028 55.2159 50.5226 55.332C49.0826 55.6618 47.6442 55.991 46.4578 56.1251C46.3429 56.1355 46.2297 56.1464 46.1182 56.1586L46.102 56.1597C46.0893 56.1609 46.0772 56.162 46.065 56.1643C45.3419 56.2446 44.7093 56.3561 44.2293 56.4456C43.3415 56.6005 42.5409 56.8985 41.9292 57.3259C41.72 57.4721 41.5329 57.6327 41.3712 57.8071C41.1424 56.2111 40.8201 54.6215 40.3984 53.0907C43.8284 52.453 48.9515 51.4774 53.6719 50.3475C58.4126 49.213 62.7465 47.9173 64.5788 46.6367L64.5792 46.6356ZM66.0886 50.7691C66.3589 50.2128 66.4756 49.5647 66.4571 48.9195C66.4375 48.239 66.2682 47.5545 65.9719 46.9804C65.7761 46.6015 65.5242 46.267 65.221 46.0065C65.4133 45.6588 65.3527 45.3093 65.1505 44.9772C64.9374 44.6277 64.5405 44.3325 64.1697 44.1044C62.6425 43.1634 60.8085 42.6857 58.8283 42.5483C56.5872 42.3929 54.1518 42.6742 51.765 43.2109L46.943 44.2951C43.5806 41.3128 40.8513 36.9557 38.8075 32.1746C36.4306 26.6138 34.9871 20.4892 34.5538 15.283C35.5589 14.8393 36.2029 13.7539 36.4964 12.3913C36.6651 11.6086 36.7171 10.7307 36.6547 9.83646C36.5923 8.9446 36.4155 8.03373 36.1267 7.18227C35.8027 6.22745 35.3371 5.34538 34.7312 4.64017C37.0717 5.08379 38.3674 7.02168 39.0762 9.43099C39.9397 12.367 39.9524 16.0004 39.8923 18.5998C39.8721 19.4697 39.8825 20.3766 39.9339 21.2939C40.1049 24.3611 40.7288 27.6063 42.1793 30.1178C43.6638 32.6883 45.9957 34.4882 49.5596 34.5702C49.856 34.5771 50.1563 34.5725 50.4596 34.5551C51.0828 34.5205 51.6963 34.4829 52.3201 34.4448C53.2345 34.4408 54.1346 34.4696 55.0182 34.5326C59.7473 34.8688 63.7579 36.1823 66.5876 38.5789C69.3948 40.9564 71.0499 44.4193 71.0966 49.0739C71.1006 49.4835 71.092 49.9069 71.07 50.3447C70.7454 50.2997 70.4138 50.2725 70.0753 50.2621C68.8224 50.224 67.4852 50.4175 66.0879 50.7681L66.0886 50.7691ZM23.4669 39.4106C21.8131 36.9204 20.5313 33.602 19.5574 30.0449C18.3184 25.5202 17.579 20.6087 17.2047 16.515C17.2746 16.5115 17.3456 16.5075 17.4184 16.5023V16.5017L33.6713 15.4949H33.673C34.127 20.7565 35.5902 26.9227 37.9844 32.5255C39.9801 37.1945 42.6257 41.4782 45.8789 44.5345L37.5616 46.4048C35.6399 43.4179 32.9827 41.5504 29.9801 40.502C27.9266 39.7851 25.7137 39.4542 23.4667 39.4103L23.4669 39.4106ZM16.3031 16.5005C16.6786 20.6497 17.4289 25.6542 18.6957 30.2806C19.6309 33.6956 20.8474 36.9031 22.4035 39.4118C21.1576 39.4366 19.907 39.5441 18.6737 39.7185C18.6662 39.7197 18.6587 39.7202 18.6512 39.722C18.4218 39.7543 18.1931 39.7895 17.9649 39.8265C16.5867 38.189 15.7792 36.1828 15.3292 34.0213C14.8556 31.7459 14.777 29.298 14.8481 26.9221C14.8746 26.0314 14.9734 24.8992 15.0832 23.6371C15.264 21.5611 15.4754 19.131 15.4517 16.6056C15.4505 16.5097 15.4494 16.4109 15.4471 16.3098C15.6042 16.3676 15.7728 16.4121 15.9479 16.4479C16.0599 16.471 16.1783 16.4883 16.3037 16.501L16.3031 16.5005ZM43.3182 79.826L39.3117 81.1072C38.9028 81.2378 38.8479 81.2557 38.7994 81.2718C37.2409 81.7779 36.8879 81.8928 35.2446 81.4226C32.4956 80.6364 27.7348 78.7487 23.1865 76.7449C18.6024 74.7255 14.2477 72.5953 12.3987 71.362C12.0602 71.1361 11.9389 70.4776 11.9308 69.7139C11.9198 68.6673 12.1359 67.4837 12.3259 66.7883L17.8585 69.4436C17.8723 69.4615 17.8862 69.4789 17.8995 69.4968C20.2891 72.5379 23.4147 74.8763 27.9994 76.4307C30.489 77.2746 32.5626 77.5894 34.2829 77.4745L36.2092 77.9586C36.7008 78.0822 37.0497 78.1238 37.3899 78.1035C37.7319 78.0833 38.0299 78.0059 38.4354 77.8898L42.8999 76.6115L43.3187 79.826L43.3182 79.826ZM12.834 66.0408C13.3874 65.7473 14.4791 65.3297 15.1209 65.09C15.6344 66.087 16.1803 67.0342 16.7729 67.9308L12.834 66.0408ZM14.7176 64.2848C13.7403 64.6544 11.9305 65.3834 11.6868 65.8963C11.4644 66.363 11.0214 68.1959 11.0375 69.7213C11.0485 70.7547 11.2715 71.6853 11.9017 72.1052C13.7998 73.3714 18.2066 75.53 22.8265 77.565C27.4082 79.5832 32.2131 81.4871 35.0006 82.2849C36.9045 82.8296 37.306 82.699 39.0775 82.1237C39.3438 82.0371 39.539 81.9735 39.5829 81.9591L43.4473 80.7229C43.6114 81.6697 43.9066 82.6078 44.6477 83.2871C45.5384 84.1033 47.024 84.488 49.6084 83.9439C49.654 83.934 49.6996 83.9242 49.7447 83.9138C49.7736 83.9144 49.8025 83.9121 49.8319 83.9069C51.0929 83.6781 52.2424 83.2819 53.2539 82.7175C53.2608 82.7141 53.2683 82.7106 53.2752 82.7066C53.921 82.3501 54.605 81.9828 55.2681 81.6449C55.9249 81.3104 56.5436 81.0152 57.0559 80.805C57.819 80.4919 58.6034 80.3065 59.3838 80.1216C59.8984 79.9998 60.4114 79.8785 60.9295 79.7185C61.0404 79.6855 61.149 79.6503 61.2559 79.6122C61.3194 79.5902 61.3829 79.5683 61.4471 79.5446C61.5626 79.5024 61.6781 79.4608 61.7925 79.4192C62.9506 78.9999 64.0712 78.5938 65.0797 78.0352C66.1899 77.5165 67.5411 76.9164 68.8101 76.4219C69.4871 76.1579 70.1387 75.9252 70.7122 75.753C70.7169 75.7519 70.7215 75.7507 70.7267 75.7496C70.8653 75.7143 71.0016 75.6756 71.1351 75.6335C71.2408 75.6057 71.3436 75.5803 71.4418 75.5584C73.4838 75.0974 74.9186 74.5683 75.9675 73.8815C77.0534 73.171 77.7211 72.3034 78.2017 71.1874C79.3564 68.5042 79.4164 64.8443 78.8382 61.4092C78.2889 58.1427 77.1538 55.0558 75.8293 53.1895C76.8592 41.0483 70.7583 32.6897 58.8001 33.2561C56.772 33.352 54.6851 33.4045 52.7015 33.5252C52.6738 33.5218 52.6449 33.5206 52.6155 33.5224C48.2399 33.8025 45.8733 31.7375 44.6384 28.7985C43.3641 25.7653 43.255 21.7988 43.4086 18.4479C43.5386 15.6175 43.4052 12.7681 42.8327 10.3294C42.3816 8.40701 41.6555 6.73189 40.5685 5.50558C39.456 4.25038 37.9807 3.47231 36.056 3.38388C35.2917 3.34864 34.46 3.42316 33.5554 3.62072C32.89 3.21291 32.1188 2.98359 31.2425 3.00092L15.0222 3.39833C14.5214 3.40237 13.9859 3.46418 13.5198 3.59819C13.0958 3.72007 12.7169 3.90434 12.446 4.16312C12.4177 4.18507 12.39 4.20817 12.3628 4.23185L10.4757 4.32716C10.4462 4.31503 10.4167 4.3029 10.3867 4.29135C9.97369 4.1302 9.50523 4.0343 9.01483 3.99733C8.0005 3.92051 6.86489 4.0938 5.91465 4.46001C5.43868 4.64313 5.00489 4.87764 4.64848 5.15606C4.61902 5.17454 4.59303 5.19591 4.56935 5.2196C4.21526 5.51304 3.9455 5.85268 3.79762 6.23277C3.72946 6.40779 3.68672 6.58858 3.67285 6.77517C3.26793 12.1344 4.01366 22.0905 5.78464 32.7197C7.2605 41.5794 9.45088 50.9185 12.2819 58.4675C13.0635 60.551 13.8485 62.4918 14.7195 64.2825L14.7176 64.2848ZM42.7826 75.7126L38.1898 77.0273C37.838 77.1278 37.5844 77.1948 37.3407 77.2093C37.0958 77.2237 36.8254 77.189 36.4263 77.0885L36.372 77.0747C38.3031 76.4248 39.6292 75.0587 40.5079 73.2276C41.2039 71.776 41.6042 70.031 41.7937 68.1219L42.7826 75.712L42.7826 75.7126ZM64.4358 52.1888C66.2264 51.6614 67.6948 51.5557 68.9362 51.8492C70.3878 52.1923 71.5518 53.0969 72.5845 54.526C73.5578 55.873 74.4411 57.9277 75.0308 60.2358C75.6737 62.7521 75.9631 65.5524 75.6339 68.0465C75.3121 70.4876 74.4 72.63 72.6464 73.8973C72.123 74.2757 71.5211 74.5778 70.8325 74.7892C70.7343 74.8158 70.6332 74.8446 70.5299 74.8747C70.5212 74.877 70.5131 74.8793 70.5044 74.881C70.4871 74.8856 70.4704 74.8908 70.4542 74.8972C69.8546 75.0774 69.1822 75.3177 68.4867 75.5886C68.1685 75.7128 67.8444 75.8434 67.5203 75.9779C67.9709 75.3807 68.3539 74.6696 68.6525 73.8078C69.3676 71.7405 69.4323 68.4127 68.8241 65.0492C68.2834 62.0593 67.2107 59.0227 65.5899 56.7954C64.8124 55.7268 63.6976 54.858 62.3592 54.2919C61.6319 53.9841 60.8383 53.7657 59.9966 53.6531L64.4352 52.1888L64.4358 52.1888ZM74.0603 73.8524C75.4622 72.4152 76.2264 70.397 76.5211 68.1622C76.8659 65.5455 76.5679 62.6267 75.9001 60.0152C75.2844 57.6053 74.3492 55.442 73.31 54.0038C72.2928 52.5961 71.1473 51.6373 69.7501 51.1539C69.8517 51.1539 69.9528 51.155 70.0533 51.1579C70.5102 51.1718 70.9538 51.2203 71.3813 51.3069C71.3928 51.3098 71.4044 51.3121 71.416 51.3139C72.5146 51.5426 73.5093 52.0284 74.37 52.8475C74.5786 53.0456 74.7842 53.2813 74.9864 53.5487C74.9979 53.5672 75.0112 53.5845 75.0256 53.6007C76.3005 55.3209 77.4119 58.3344 77.9543 61.557C78.5071 64.8421 78.4591 68.3199 77.3772 70.8338C76.9666 71.7886 76.3976 72.5291 75.4763 73.1322C75.0766 73.3938 74.6093 73.6318 74.0611 73.8519L74.0603 73.8524ZM75.0302 52.2421C75.0157 52.2282 75.0013 52.2138 74.9868 52.1999C74.0909 51.3473 73.0736 50.8101 71.9606 50.5224C71.9872 50.0326 71.9981 49.5479 71.9935 49.0702C71.9438 44.1304 70.1733 40.4427 67.1691 37.8982C64.9914 36.0538 62.1714 34.8201 58.8946 34.1523C69.5166 34.0264 75.0306 39.8229 75.0306 52.2417L75.0302 52.2421ZM50.2909 56.3046C50.4353 56.2717 50.5797 56.2387 50.7241 56.2052C51.0776 56.1244 51.4317 56.0435 51.7817 55.9649C51.899 55.9401 52.0266 55.9118 52.1635 55.8806C53.0877 55.679 53.9773 55.5051 54.7617 55.4133C56.4322 55.2181 57.7897 55.363 58.9576 55.7969C60.125 56.2301 61.1203 56.9568 62.0629 57.9225C63.5405 59.4353 64.6732 62.5742 65.2504 65.8229C65.8488 69.19 65.8453 72.639 65.0066 74.4862C64.5301 75.5369 63.9663 76.4843 63.2552 77.2433C62.6215 77.9197 61.8654 78.45 60.9417 78.7741C60.3664 78.9688 59.7737 79.1091 59.1782 79.2501C58.3677 79.4419 57.5527 79.6348 56.714 79.9791C56.4968 80.068 56.2663 80.1691 56.0272 80.2788C57.2876 78.5483 57.9559 76.2469 57.852 73.3733C57.7659 70.9894 57.5008 68.7765 57.1155 66.7593C56.6788 64.473 56.0861 62.431 55.4236 60.6693C54.4053 57.9614 52.3974 56.7633 50.2896 56.3036L50.2909 56.3046ZM64.2683 77.4447C64.887 76.6885 65.3913 75.8083 65.824 74.8539C66.7372 72.8415 66.7603 69.1914 66.1342 65.6684C65.5294 62.2644 64.314 58.9459 62.7053 57.2985C61.6736 56.242 60.5744 55.4431 59.2702 54.9591C58.7607 54.7702 58.2223 54.6298 57.6475 54.5415C57.8353 54.5068 57.9889 54.4849 58.0987 54.4779C59.5329 54.3919 60.8667 54.631 62.0127 55.1156C63.2009 55.6182 64.1857 56.3835 64.8685 57.321C66.4045 59.4316 67.4263 62.3354 67.945 65.2068C68.5273 68.4289 68.4758 71.5863 67.8081 73.5166C67.104 75.5523 65.8193 76.6544 64.2689 77.444L64.2683 77.4447ZM49.2902 57.041C49.4178 57.0572 49.5455 57.0757 49.6726 57.097C51.6712 57.4315 53.6328 58.4504 54.586 60.9851C55.2312 62.7001 55.8082 64.6923 56.2357 66.9278C56.614 68.9086 56.8739 71.0759 56.9583 73.4055C57.0571 76.1371 56.4176 78.2917 55.2156 79.8744C54.6778 80.5831 54.0245 81.1792 53.2724 81.6644C54.2411 80.3936 54.7904 78.7161 55.0377 76.8313C55.4455 73.7219 55.0273 70.0412 54.333 66.744C53.7992 64.2105 53.1038 61.9018 52.4949 60.2543C51.9277 58.7189 50.721 57.6677 49.2902 57.041ZM40.7193 59.88L40.7412 60.0504C41.2414 64.8408 41.2339 69.6472 39.7009 72.8439C38.4451 75.4623 36.1092 76.9925 32.0802 76.4962C33.3579 76.3079 34.4496 75.8065 35.3577 75.0117C36.7042 73.8334 37.6237 72.0202 38.1234 69.638C38.7207 66.7902 38.7207 63.1085 38.1361 58.7086C37.4666 53.6717 35.524 48.0426 31.6284 44.2222C29.8927 42.5198 27.7746 41.1774 25.2156 40.4052C26.7585 40.5502 28.2637 40.8529 29.6848 41.3485C32.6826 42.3952 35.3127 44.3072 37.1363 47.4235C38.0224 48.9374 38.7399 50.6697 39.3019 52.5159C39.336 52.6274 39.3689 52.7389 39.4019 52.851C39.4047 52.8619 39.4076 52.8723 39.4111 52.8827C39.9656 54.789 40.3584 56.8106 40.6033 58.8353C40.6339 59.0883 40.6634 59.3424 40.6917 59.596C40.6952 59.689 40.7038 59.7837 40.7177 59.8802L40.7193 59.88ZM44.2422 80.0012L41.6393 60.0235C41.6226 59.8623 41.6053 59.7006 41.5879 59.5394C41.5775 58.9341 41.9056 58.4344 42.4422 58.0595C42.9465 57.7072 43.6316 57.4582 44.4062 57.3253C45.1981 57.1902 46.0755 57.1792 46.9454 57.3051C48.9684 57.598 50.9398 58.6314 51.6532 60.5629C52.2504 62.1804 52.9338 64.4452 53.4559 66.9261C54.1334 70.1424 54.543 73.7202 54.1502 76.7152C53.7707 79.6091 52.6379 81.9497 50.253 82.8305C49.9896 82.9276 49.7141 83.0073 49.4247 83.0685C47.1742 83.5428 45.9393 83.262 45.2496 82.6289C44.5685 82.0045 44.3699 80.9781 44.2428 80.0008L44.2422 80.0012ZM12.5173 5.87944V5.87656C12.5451 5.53229 12.6531 5.25503 12.8131 5.05343C12.9552 4.87437 13.14 4.75307 13.3457 4.69702C13.5554 4.63984 13.7899 4.64966 14.0261 4.73399C14.3207 4.8397 14.617 5.05804 14.877 5.40404C15.6522 6.43685 16.3245 7.90281 16.7566 9.47116C17.1644 10.9517 17.355 12.5159 17.2112 13.8837C17.1563 14.4065 17.0004 14.7629 16.7953 14.991C16.6393 15.1649 16.4528 15.2637 16.2639 15.3041C16.0692 15.3463 15.8722 15.3295 15.7013 15.2718C15.5713 15.2279 15.4621 15.1638 15.3893 15.0881C15.2519 13.0924 14.8648 10.5964 14.0186 8.4904C13.6252 7.51073 13.1314 6.61255 12.5162 5.87894L12.5173 5.87944ZM17.4492 15.6045C17.4533 15.5999 17.4573 15.5953 17.4619 15.5907C17.7837 15.2325 18.0251 14.7075 18.102 13.9756C18.2573 12.4962 18.0546 10.8177 17.6191 9.23666C17.1581 7.56273 16.4332 5.98861 15.5927 4.86861C15.4218 4.64102 15.2369 4.45041 15.0428 4.29503L31.2602 3.89762C33.2519 3.85949 34.6034 5.4809 35.28 7.47202C35.5439 8.25009 35.7057 9.08252 35.7623 9.89863C35.8195 10.7119 35.7727 11.5056 35.6213 12.208C35.3331 13.5475 34.6659 14.5382 33.6187 14.6028L17.4492 15.6045ZM14.512 15.3504C14.5114 15.374 14.5132 15.3977 14.5161 15.422C14.5409 15.8494 14.5542 16.2503 14.5576 16.6136C14.5802 19.0633 14.3693 21.4889 14.1891 23.5613C14.0805 24.809 13.9835 25.9273 13.954 26.8989C13.8807 29.3358 13.9627 31.852 14.4525 34.2047C14.8834 36.275 15.6303 38.2188 16.8618 39.8742C15.617 39.7055 14.6397 38.7975 13.8899 37.5816C12.931 36.0259 12.3396 33.9795 12.0269 32.2668C11.9501 31.8457 11.8895 31.4333 11.8438 31.0469C11.6295 29.232 11.4701 27.4615 11.4204 25.5992C11.3702 23.7299 11.4285 21.7533 11.6503 19.5242C11.8883 17.1334 11.9287 14.7662 11.5741 12.5591C11.2142 10.3219 10.4506 8.25285 9.08107 6.49285C8.54907 5.80951 7.91714 5.29195 7.24773 5.00494C7.81092 4.89288 8.39779 4.85187 8.94532 4.89346C9.35428 4.92465 9.73553 5.0009 10.0613 5.12797C11.4973 5.68771 12.4995 7.11037 13.1881 8.82305C14.0251 10.9054 14.3919 13.399 14.5109 15.3498L14.512 15.3504ZM18.0731 40.724C18.0974 40.7194 18.1211 40.7136 18.1436 40.7056C18.3527 40.6721 18.5618 40.6403 18.7715 40.6102C24.1631 40.2839 28.139 42.0537 31.0011 44.861C34.7349 48.5233 36.6018 53.9547 37.2494 58.8254C37.8212 63.1246 37.8241 66.7066 37.247 69.4568C36.7878 71.646 35.9635 73.2939 34.769 74.3395C33.5923 75.3695 32.0339 75.8258 30.0873 75.6508C28.4398 75.5029 26.5181 74.9056 24.3168 73.826C24.2925 73.8139 24.2677 73.8046 24.2429 73.7977C21.9226 72.4853 20.1093 70.8599 18.604 68.9445C16.3004 66.0124 14.7032 62.3889 13.1176 58.16C10.3097 50.6721 8.13436 41.3911 6.66597 32.5764C4.90657 22.0161 4.16424 12.1432 4.56454 6.84483C4.57205 6.7449 4.59457 6.64959 4.62981 6.55833C4.7205 6.32497 4.8938 6.10892 5.126 5.91484C5.62162 5.61621 6.15824 5.57982 6.67868 5.74617C7.28115 5.9391 7.87207 6.3989 8.37346 7.04353C9.64484 8.6765 10.3547 10.607 10.6915 12.6997C11.0329 14.822 10.9919 17.1145 10.7608 19.4371C10.5356 21.7026 10.4761 23.7151 10.5275 25.6206C10.5789 27.5338 10.7395 29.325 10.9549 31.1486C11 31.5322 11.0641 31.9613 11.1484 32.4246C11.4765 34.2263 12.1044 36.3872 13.1303 38.0513C14.1798 39.7537 15.6389 40.9458 17.6144 40.7852L17.6213 40.7928L17.7316 40.7737C17.7478 40.772 17.7646 40.7702 17.7813 40.7685C17.8668 40.7587 17.9638 40.7436 18.0736 40.7234L18.0731 40.724ZM23.4544 70.4497C23.582 70.5542 23.7704 70.5351 23.8749 70.4075C23.9795 70.2798 23.9604 70.0915 23.8327 69.987C22.4632 68.8646 21.3247 67.5874 20.3519 66.2041C19.3763 64.8154 18.5671 63.3181 17.8595 61.7615C17.7919 61.6113 17.6152 61.5443 17.4644 61.6119C17.3142 61.6795 17.2472 61.8562 17.3148 62.007C18.0369 63.5954 18.8641 65.1256 19.8633 66.5477C20.866 67.9745 22.0404 69.2921 23.4538 70.4497L23.4544 70.4497ZM16.5737 60.2712C16.6349 60.4243 16.8088 60.4982 16.9618 60.437C17.1149 60.3758 17.1889 60.2019 17.1276 60.0488C16.9613 59.6364 16.7995 59.2199 16.6424 58.8005C16.4882 58.3899 16.3351 57.9699 16.1832 57.543C16.1283 57.3877 15.9579 57.3062 15.8025 57.3605C15.6472 57.4154 15.5657 57.5858 15.62 57.7412C15.769 58.1588 15.9227 58.581 16.0844 59.0102C16.2427 59.4307 16.4056 59.8507 16.5748 60.27L16.5737 60.2712ZM40.1492 52.2282C39.5987 50.4249 38.9021 48.7231 38.0484 47.2144L51.9618 44.0854C54.2684 43.5667 56.6165 43.2946 58.7692 43.4442C60.6125 43.5719 62.3078 44.0091 63.7005 44.8669C63.9766 45.0367 64.2637 45.2429 64.3867 45.4457C64.437 45.5283 64.4237 45.6277 64.2787 45.7461C62.7491 46.9932 58.3401 48.313 53.466 49.4793C48.7392 50.6103 43.5758 51.5917 40.1486 52.2289L40.1492 52.2282Z" fill="#FFC107"/>
<path d="M0.00729659 84.9937V84.9958H0.00512695V84.9937H0.00729659Z" fill="#FFC107"/>
<path d="M0.0104704 84.9937V84.9958H0.00830078C0.00830078 84.9947 0.00884318 84.9937 0.0104704 84.9937Z" fill="#FFC107"/>
<path d="M0.0126677 84.9937V84.9958H0.010498V84.9937H0.0126677Z" fill="#FFC107"/>
<path d="M0.014865 84.9937V84.9958H0.0126953V84.9937H0.014865Z" fill="#FFC107"/>
<path d="M0.0177946 84.9937V84.9958H0.015625V84.9937H0.0177946ZM0.0177946 84.9958V84.9937H0.015625V84.9958H0.0177946Z" fill="#FFC107"/>
<path d="M0.021945 84.9958V84.9937H0.0197754V84.9958H0.021945ZM0.0197754 84.9937H0.021945V84.9958H0.0197754V84.9937Z" fill="#FFC107"/>
<path d="M0.0229492 84.9937L0.0251189 84.9958H0.0229492V84.9937Z" fill="#FFC107"/>
<path d="M0.0290251 84.9937H0.0268555V84.9958H0.0290251V84.9937ZM0.0290251 84.9937V84.9958H0.0268555V84.9937H0.0290251Z" fill="#FFC107"/>
<path d="M0.0339079 84.9937V84.9958H0.0317383V84.9937H0.0339079Z" fill="#FFC107"/>
<path d="M0.034668 84.9937H0.0368376V84.9958H0.034668V84.9937Z" fill="#FFC107"/>
<path d="M0.0397673 84.9937V84.9958H0.0375977V84.9937H0.0397673Z" fill="#FFC107"/>
<path d="M0.0422087 84.9937V84.9958H0.0400391C0.0400391 84.9947 0.0405815 84.9937 0.0422087 84.9937Z" fill="#FFC107"/>
<path d="M0.0480681 84.9937V84.9958H0.0458984V84.9937H0.0480681ZM0.0480681 84.9958V84.9937H0.0458984V84.9958H0.0480681Z" fill="#FFC107"/>
<path d="M0.0517578 84.9937H0.0539275V84.9958H0.0517578V84.9937Z" fill="#FFC107"/>
<path d="M0.0578337 84.9937V84.9958H0.0556641C0.0556641 84.9947 0.0562065 84.9937 0.0578337 84.9937Z" fill="#FFC107"/>
<path d="M0.0627165 84.9937V84.9958H0.0605469C0.0605469 84.9947 0.0610893 84.9937 0.0627165 84.9937Z" fill="#FFC107"/>
<path d="M0.0658903 84.9937V84.9958H0.0637207V84.9937H0.0658903Z" fill="#FFC107"/>
<path d="M0.0685759 84.9937H0.0664062V84.9958H0.0685759V84.9937ZM0.0685759 84.9937V84.9958H0.0664062V84.9937H0.0685759Z" fill="#FFC107"/>
<path d="M0.0686035 84.9937L0.0707732 84.9958H0.0686035V84.9937Z" fill="#FFC107"/>
<path d="M0.0737028 84.9937V84.9958H0.0715332V84.9937H0.0737028Z" fill="#FFC107"/>
<path d="M0.0739746 84.9937H0.0761442V84.9958H0.0739746V84.9937Z" fill="#FFC107"/>
<path d="M0.0766602 84.9937L0.0788298 84.9958H0.0766602V84.9937Z" fill="#FFC107"/>
<path d="M0.00216964 84.9978V85H0V84.9978H0.00216964Z" fill="#FFC107"/>
<path d="M0.00607589 84.9978H0.00390625V85H0.00607589V84.9978ZM0.00607589 84.9978V85H0.00390625V84.9978H0.00607589Z" fill="#FFC107"/>
<path d="M0.00917464 84.9978H0.0115133V85.0001H0.00917464V84.9978Z" fill="#FFC107"/>
<path d="M0.014865 84.9978V85H0.0126953V84.9978H0.014865Z" fill="#FFC107"/>
<path d="M0.0195036 84.9978V85H0.017334V84.9978H0.0195036Z" fill="#FFC107"/>
<path d="M0.0212402 84.9978H0.0234099V85L0.0212402 84.9978Z" fill="#FFC107"/>
<path d="M0.027072 84.9978H0.0249023V85H0.027072V84.9978ZM0.027072 84.9978V85H0.0249023V84.9978H0.027072Z" fill="#FFC107"/>
<path d="M0.0351562 84.9978H0.0373259V85H0.0351562V84.9978Z" fill="#FFC107"/>
<path d="M0.0424528 84.9978H0.0402832V85H0.0424528V84.9978ZM0.0424528 84.9978V85H0.0402832V84.9978H0.0424528Z" fill="#FFC107"/>
<path d="M0.0466032 84.9978V85H0.0444336V84.9978H0.0466032Z" fill="#FFC107"/>
<path d="M0.0517302 84.9978V85H0.0495605V84.9978H0.0517302Z" fill="#FFC107"/>
</g>
<defs>
<clipPath id="clip0_387_2">
<rect width="85" height="85" fill="white"/>
</clipPath>
</defs>
</svg>
