<svg width="85" height="85" viewBox="0 0 85 85" fill="none" xmlns="http://www.w3.org/2000/svg">
<path d="M72.0072 77.6844L72.0081 77.6877C72.2096 78.4267 72.0721 79.1389 71.7015 79.6441C71.2289 80.1768 70.5668 80.5001 69.8482 80.5001H14.8308C14.0519 80.5001 13.3611 80.2164 13.0045 79.6815L12.9864 79.6543L12.9649 79.6297C12.531 79.1335 12.3874 78.4322 12.5905 77.6877L12.5913 77.6844L14.6734 69.8364L14.6734 69.8364L14.6747 69.8311C15.9859 64.6636 20.3044 60.8076 25.6266 60.1136L25.6266 60.1136L25.6338 60.1126L30.5988 59.392L30.9057 59.3474L31.0022 59.0526L32.4434 54.6479L32.5548 54.3075L32.2683 54.0925L31.7877 53.732L31.3075 53.3719L31.2025 53.2931L31.0724 53.276C26.1887 52.6354 20.99 51.5223 17.959 49.8125L17.9482 49.8064L17.9371 49.8008C17.6105 49.6374 17.461 49.1924 17.7368 48.7511L17.7413 48.744L17.7456 48.7366C18.5578 47.3335 19.297 45.6111 19.9082 43.8668C20.2652 44.024 20.6567 44.1009 21.0762 44.1009H22.1174C23.8455 44.1009 25.1804 42.6652 25.1804 41.038V39.95C25.1847 39.9516 25.189 39.9532 25.1932 39.9548C25.2315 39.9691 25.2715 39.9823 25.3112 39.9926C25.3278 39.997 25.3549 40.0037 25.3884 40.0089C25.822 40.1306 26.1381 40.5215 26.1875 40.8683L26.1891 40.8797L26.1913 40.8911C27.7521 49.1057 34.4215 55.0721 42.2187 55.0721C50.0894 55.0721 56.7567 49.1147 58.3233 40.9064C58.4395 40.4602 58.7672 40.1291 59.2109 40.0084C59.3027 39.9935 59.3788 39.9616 59.4133 39.9471C59.4147 39.9465 59.4161 39.9459 59.4175 39.9453V41.038C59.4175 42.756 60.7632 44.1009 62.4805 44.1009H63.5217C63.941 44.1009 64.3325 44.024 64.6895 43.8667C65.2983 45.6052 66.035 47.3216 66.844 48.7221C67.0503 49.1476 66.9405 49.5799 66.6134 49.8268C63.5797 51.5278 58.4027 52.5566 53.5969 53.2773L53.4722 53.296L53.3713 53.3716C53.2241 53.4819 53.0558 53.5941 52.873 53.716L52.8683 53.7191C52.6919 53.8367 52.5015 53.9636 52.3297 54.0925L52.0382 54.3112L52.1572 54.6557L53.679 59.0604L53.7781 59.3475L54.0786 59.3918L58.9637 60.1124L58.9637 60.1125L58.972 60.1136C64.2942 60.8076 68.6128 64.6636 69.9239 69.8311L69.9238 69.8311L69.9252 69.8364L72.0072 77.6844ZM34.2156 56.0983L32.8871 60.1586H31.6997L32.9567 61.0642C38.5765 65.1133 46.0209 65.1159 51.563 61.0621L51.8559 60.8479L51.743 60.5031L50.3018 56.0983L50.1264 55.5622L49.6152 55.8007C47.2676 56.8961 44.857 57.5157 42.2986 57.5157C39.7347 57.5157 37.1659 56.8936 34.9082 55.8036L34.3934 55.555L34.2156 56.0983Z" stroke="#FFC107"/>
<path d="M29.4031 23.5757C29.0561 26.8363 28.6599 30.5594 26.3972 34.3279C26.0993 33.1019 25.596 31.9882 25.1805 31.15V28.5449C25.1805 27.3589 24.5044 26.3175 23.4815 25.8269C25.1964 16.5589 32.9252 9.66455 42.2989 9.66455C51.6726 9.66455 59.4026 16.559 61.1167 25.9058C60.0941 26.3893 59.3374 27.4183 59.3374 28.6249C59.3374 28.6249 59.3374 28.625 59.3374 28.625L59.3368 31.1649C59.3193 31.2056 59.3015 31.247 59.2834 31.2891C58.9292 32.1117 58.4628 33.1948 58.1517 34.3783C56.0035 30.812 55.5764 27.2888 55.195 24.1415C55.1462 23.7395 55.0983 23.3437 55.0475 22.9546L54.0841 22.8423L53.483 24.431L53.4535 24.3337L52.9562 25.8238C52.8613 26.1084 52.5851 26.3337 52.2103 26.287L52.1795 26.2832H52.1485H32.2878C31.9123 26.2832 31.6441 26.0728 31.5611 25.8238L31.5579 25.8144L31.5544 25.8051L30.4333 22.8422L29.4686 22.9651C29.4466 23.1667 29.425 23.3703 29.4031 23.5757Z" stroke="#FFC107"/>
<path d="M40.3768 32.3089C40.3768 31.6681 39.8964 31.1877 39.2557 31.1877C38.615 31.1877 38.1345 31.6682 38.1345 32.3089C38.1345 33.1898 37.4139 33.9104 36.533 33.9104C35.6521 33.9104 34.9315 33.1898 34.9315 32.3089C34.9315 31.6681 34.4511 31.1877 33.8104 31.1877C33.1696 31.1877 32.6892 31.6682 32.6892 32.3089C32.6892 34.4713 34.451 36.2331 36.6134 36.2331C38.615 36.2326 40.3768 34.4707 40.3768 32.3089Z" fill="#FFC107"/>
<path d="M52.0695 32.3089C52.0695 31.6681 51.589 31.1877 50.9483 31.1877C50.3076 31.1877 49.8272 31.6682 49.8272 32.3089C49.8272 33.1898 49.1066 33.9104 48.2256 33.9104C47.3447 33.9104 46.6241 33.1898 46.6241 32.3089C46.6241 31.6681 46.1437 31.1877 45.503 31.1877C44.8622 31.1877 44.3818 31.6682 44.3818 32.3089C44.3818 34.4713 46.1437 36.2331 48.3061 36.2331C50.3076 36.2326 52.0695 34.4707 52.0695 32.3089Z" fill="#FFC107"/>
<path d="M42.2989 47.7648C44.621 47.7648 46.8639 46.8838 48.0649 45.5224C48.4654 45.042 48.385 44.3214 47.9045 43.9209C47.4241 43.5204 46.7035 43.6008 46.303 44.0812C44.7813 45.843 39.8164 45.843 38.2147 44.0812C37.8142 43.6008 37.0936 43.5204 36.6132 43.9209C36.1328 44.3214 36.0523 45.042 36.4529 45.5224C37.7338 46.8838 39.9767 47.7648 42.2989 47.7648Z" fill="#FFC107"/>
<path d="M19.9868 41.4294L20.0164 40.942C16.9859 40.5723 14.6868 38.063 14.6094 34.8653C14.6119 32.368 16.2308 30.2204 18.4595 29.3292L18.7718 29.2043L18.7739 28.868C18.8523 16.0084 29.3612 5.5 42.2989 5.5C55.2372 5.5 65.7439 16.009 65.7439 28.8649V29.2034L66.0583 29.3292C68.2923 30.2226 69.9084 32.2944 69.9084 34.8712C69.9084 38.0527 67.5443 40.5709 64.5019 40.942L64.1219 40.9883L64.0675 41.3673C64.0169 41.7197 63.7965 41.8991 63.5212 41.8991H62.4799C62.1158 41.8991 61.7789 41.5626 61.7789 41.1981V28.6247C61.7789 28.2605 62.1155 27.9237 62.4799 27.9237H63.4738C63.4779 27.9277 63.4824 27.9322 63.4877 27.9376L64.4247 28.8745L64.3403 27.5522C63.6029 16.0006 54.018 6.82287 42.2988 6.82287C30.579 6.82287 20.9962 16.0005 20.1775 27.5486L20.0823 28.8917L21.031 27.9363C21.0354 27.9319 21.0393 27.928 21.0428 27.9245C21.043 27.9243 21.0433 27.924 21.0436 27.9237H22.0376C22.4018 27.9237 22.7386 28.2603 22.7386 28.6247L22.7392 41.1981C22.7392 41.5623 22.4026 41.8991 22.0381 41.8991H20.9969C20.8249 41.8991 20.5625 41.742 20.4364 41.3009L19.9868 41.4294Z" stroke="#FFC107"/>
</svg>
