<?xml version="1.0" standalone="no"?>
<!DOCTYPE svg PUBLIC "-//W3C//DTD SVG 20010904//EN"
 "http://www.w3.org/TR/2001/REC-SVG-20010904/DTD/svg10.dtd">
<svg version="1.0" xmlns="http://www.w3.org/2000/svg"
 width="512.000000pt" height="512.000000pt" viewBox="0 0 512.000000 512.000000"
 preserveAspectRatio="xMidYMid meet">

<g transform="translate(0.000000,512.000000) scale(0.100000,-0.100000)"
fill="#000000" stroke="none">
<path d="M1170 4934 c-133 -28 -180 -58 -180 -113 0 -18 740 -1822 755 -1839
1 -2 29 11 62 27 207 106 443 71 603 -89 136 -136 185 -348 120 -525 -12 -33
-24 -67 -26 -75 -4 -13 30 -24 178 -59 101 -24 626 -149 1168 -278 542 -129
1000 -235 1017 -236 22 -1 41 7 58 23 21 20 25 32 25 81 0 212 -122 398 -326
494 -78 37 -463 145 -1813 509 -124 33 -211 62 -222 73 -10 10 -88 174 -173
364 -315 706 -606 1315 -673 1415 -51 74 -140 157 -204 190 -103 52 -240 66
-369 38z"/>
<path d="M3035 4598 c-48 -26 -60 -87 -26 -129 18 -22 28 -24 145 -29 151 -6
162 -13 176 -107 19 -140 102 -218 251 -238 61 -8 80 -31 91 -107 10 -71 43
-134 93 -175 39 -33 79 -48 149 -58 31 -4 57 -15 72 -30 22 -23 24 -31 24
-139 0 -106 2 -117 24 -142 33 -39 89 -39 122 0 23 25 24 35 24 154 0 112 -3
133 -24 178 -26 55 -92 118 -140 133 -17 5 -52 12 -78 16 -69 9 -89 30 -99
103 -11 77 -37 129 -85 172 -46 40 -85 57 -154 66 -64 8 -100 38 -100 82 0
106 -81 217 -181 246 -61 19 -253 21 -284 4z"/>
<path d="M842 4502 c-61 -45 -107 -101 -136 -162 -17 -37 -21 -63 -20 -150 1
-137 17 -186 193 -584 76 -171 209 -476 297 -678 l159 -368 103 0 102 0 0 38
c0 52 26 149 55 199 l24 43 -353 847 c-194 466 -357 848 -363 850 -5 2 -33
-14 -61 -35z"/>
<path d="M2599 4167 c-46 -35 -50 -88 -10 -128 29 -29 31 -29 144 -29 109 0
116 -1 139 -25 18 -18 27 -40 31 -79 6 -64 33 -119 79 -163 41 -39 112 -72
156 -73 63 0 102 -32 102 -84 0 -125 124 -256 244 -256 39 0 85 -27 91 -53 2
-12 6 -70 7 -129 3 -97 5 -109 27 -132 32 -34 88 -36 119 -3 20 22 22 33 22
158 0 125 -2 139 -26 187 -14 29 -42 66 -62 82 -38 32 -115 60 -163 60 -49 0
-79 37 -89 108 -19 134 -123 232 -246 232 -55 0 -85 35 -96 110 -14 105 -74
183 -165 216 -50 17 -281 18 -304 1z"/>
<path d="M1940 2884 c-151 -55 -238 -188 -228 -349 8 -122 69 -215 180 -276
58 -32 69 -34 153 -34 76 0 99 4 145 26 70 33 132 95 167 167 24 49 28 69 28
142 0 73 -4 93 -28 142 -36 73 -98 135 -167 166 -70 33 -184 40 -250 16z"/>
<path d="M1372 2083 l3 -308 27 -51 c35 -67 115 -138 184 -163 54 -21 71 -21
974 -21 918 0 919 0 977 22 80 29 162 112 192 192 12 33 20 64 18 70 -3 6 -78
28 -168 50 -90 21 -399 94 -686 162 l-522 124 -48 -30 c-108 -69 -266 -98
-384 -70 -147 34 -287 143 -345 267 l-29 63 -98 0 -98 0 3 -307z"/>
<path d="M1966 1362 c-11 -18 17 -84 49 -116 54 -54 87 -57 576 -54 403 3 437
4 472 22 44 22 84 77 89 121 l3 30 -592 3 c-325 1 -594 -2 -597 -6z"/>
<path d="M2220 935 l0 -85 340 0 340 0 0 85 0 85 -340 0 -340 0 0 -85z"/>
<path d="M2055 661 c-35 -21 -85 -77 -85 -94 0 -7 -3 -22 -6 -34 l-6 -23 602
0 602 0 -6 23 c-3 12 -6 27 -6 34 0 18 -59 82 -91 99 -23 12 -107 14 -501 14
-443 0 -475 -1 -503 -19z"/>
<path d="M1319 327 c-27 -21 -39 -54 -39 -106 l0 -51 1280 0 1280 0 0 51 c0
52 -12 85 -39 106 -23 18 -2459 18 -2482 0z"/>
</g>
</svg>
