<svg width="512" height="512" viewBox="0 0 512 512" fill="none" xmlns="http://www.w3.org/2000/svg">
<rect width="512" height="512" fill="white"/>
<path d="M185.618 103.533C196.885 115.666 212.918 149.033 212.918 159.866C212.918 171.566 193.852 207.1 180.852 219.233C151.818 246.533 157.018 281.2 194.718 315C215.518 333.633 221.585 336.666 234.585 335.8C246.285 334.933 250.185 332.333 252.352 323.666C254.085 317.6 255.385 263.433 255.818 203.2L256.252 93.9998H216.385H176.952L185.618 103.533Z" fill="#FFC107"/>
<path d="M269.251 202.333C269.251 324.1 271.418 336.667 294.385 336.667C313.885 336.667 347.685 308.067 358.518 282.067C367.185 261.267 365.885 249.133 353.751 232.233C317.785 183.267 316.051 179.8 318.218 155.533C319.518 138.633 323.418 127.8 333.818 113.5L347.685 94.0001H308.685H269.251V202.333Z" fill="#FFC107"/>
<path d="M184.156 99.8539C148.148 116.145 118.693 144.114 100.561 179.231C82.4281 214.348 76.6796 254.557 84.246 293.348C91.8123 332.139 112.25 367.241 142.251 392.969C172.252 418.698 210.059 433.547 249.55 435.112C289.041 436.677 327.904 424.867 359.847 401.593C391.79 378.32 414.942 344.946 425.554 306.875C436.167 268.805 433.618 228.267 418.322 191.825C403.025 155.383 375.876 125.171 341.271 106.081L331.468 123.85C362.072 140.733 386.082 167.451 399.61 199.679C413.137 231.907 415.391 267.758 406.005 301.426C396.62 335.094 376.145 364.609 347.896 385.191C319.647 405.773 288.174 386.575 253.25 385.191C218.325 383.807 181.994 400.318 155.462 377.565C128.931 354.811 110.856 323.769 104.165 289.463C97.4732 255.158 102.557 219.598 118.593 188.542C134.629 157.486 160.678 132.751 192.522 118.344L184.156 99.8539Z" fill="black"/>
<path d="M43.8887 284.902C50.7854 336.529 76.2312 383.882 115.477 418.126C154.724 452.369 205.089 471.163 257.174 470.999C309.259 470.835 359.505 451.726 398.535 417.237C437.566 382.747 462.713 335.235 469.285 283.566L448.481 280.92C442.552 327.537 419.862 370.404 384.648 401.521C349.434 432.638 304.101 449.879 257.108 450.027C210.115 450.175 164.674 433.219 129.265 402.323C93.8563 371.428 70.8984 328.704 64.676 282.125L43.8887 284.902Z" fill="black"/>
</svg>
