<svg width="512" height="512" viewBox="0 0 512 512" fill="none" xmlns="http://www.w3.org/2000/svg">
<rect width="512" height="512" fill="white"/>
<path d="M253.824 377.136C271.617 350.039 300.331 344.051 331.323 345.383V345.378C331.499 344.594 331.908 343.875 332.493 343.324C334.624 341.293 333.192 331.48 332.997 328.822C332.617 323.852 330.942 319.604 330.119 314.734H330.124C328.626 303.499 327.756 292.188 327.522 280.86C327.209 275.761 326.638 270.634 326.457 265.468C326.395 262.999 324.464 250.404 326.048 248.91C325.382 249.543 324.716 250.18 323.993 250.846C322.348 252.268 320.54 253.662 318.766 255.108C316.897 256.44 314.871 257.676 312.906 258.97L312.716 259.099L312.212 259.355L311.86 259.508L311.137 259.86L309.643 260.554L309.639 260.549C308.644 261.063 307.622 261.52 306.571 261.914C304.231 262.847 301.815 263.589 299.355 264.131C291.213 265.948 282.793 266.185 274.561 264.83C272.601 264.606 270.699 264.131 268.801 263.764L268.073 263.603L267.726 263.541C267.664 263.541 266.394 263.317 266.394 263.317L264.016 263.065C260.539 262.713 256.896 262.399 253.286 261.895H253.291C249.557 261.42 245.885 260.549 242.332 259.298C240.234 258.571 238.294 257.453 236.605 256.007C236.111 255.584 235.654 255.118 235.245 254.613C234.803 254.009 234.417 253.41 234.042 252.777L233.98 252.682C233.918 252.592 233.666 251.988 233.666 251.988L233.633 251.826L233.537 251.546L233.347 250.975H233.342C233.157 250.266 233.033 249.543 232.962 248.815C232.781 246.357 233.338 243.897 234.56 241.757C235.535 240.05 236.762 238.504 238.203 237.167C240.705 234.832 243.611 232.972 246.779 231.688L247.036 231.593C247.673 231.412 248.334 231.317 248.996 231.312C249.367 231.322 249.738 231.355 250.104 231.407C250.232 231.407 250.294 231.441 250.389 231.441H250.394C263.146 222.927 275.355 213.633 286.956 203.612C289.709 201.238 292.197 198.58 294.38 195.673C293.448 190.922 291.888 186.318 289.733 181.985C287.507 178.161 284.625 174.76 281.21 171.949C279.726 170.717 278.366 169.609 277.162 168.591C275.959 167.573 274.851 166.76 273.995 166.061C272.259 164.639 271.402 163.683 271.593 163.397C271.783 163.112 273.015 163.459 275.046 164.377C276.059 164.853 277.295 165.442 278.718 166.213C280.14 166.983 281.662 167.982 283.431 169.062L283.426 169.067C287.607 171.792 291.179 175.359 293.909 179.545C295.755 182.708 297.201 186.09 298.214 189.609C299.241 187.693 300.131 185.7 300.877 183.654C300.73 181.519 300.34 179.407 299.707 177.357C298.147 172.643 296.173 168.077 293.809 163.711C289.757 156.082 287.255 151.111 287.95 150.731C288.52 150.417 292.069 154.46 297.067 161.785C299.698 165.704 301.924 169.885 303.717 174.251C304.031 172.477 304.383 170.674 304.782 168.838V168.843C304.54 165.243 304.107 161.661 303.484 158.108C302.623 152.981 301.011 148.01 298.689 143.354C298.295 142.588 297.848 141.846 297.358 141.142C297.025 140.548 296.644 139.987 296.216 139.463C295.426 138.512 295.108 137.865 295.298 137.528C295.488 137.19 296.245 137.342 297.429 137.751C299.108 138.564 300.587 139.73 301.767 141.171C304.991 145.185 307.218 149.904 308.259 154.941C313.767 134.775 320.159 113.846 313.053 94.7442C311.845 91.5385 310.114 88.5515 307.926 85.9164C307.146 85.4693 306.537 84.7749 306.19 83.9473C289.41 66.2248 252.3 62.5671 231.668 69.8497C187.125 85.5546 180.033 141.765 168.576 181.576V181.572C178.916 183.446 188.31 188.796 195.187 196.74C200.319 203.113 206.521 208.545 213.518 212.793C217.932 214.89 221.908 217.801 225.238 221.373C225.732 221.963 226.094 222.653 226.303 223.395C226.693 224.046 226.936 224.774 227.002 225.525C229.789 255.951 169.065 241.958 146.777 234.743C131.105 264.575 126.833 307.244 138.163 339.217V339.221C141.302 339.274 144.418 339.84 147.376 340.895C151.485 342.313 155.3 344.458 158.644 347.231C163.709 351.493 164.028 354.989 162.905 355.493C161.669 356.192 160.023 355.084 155.019 352.867C151.742 351.388 148.341 350.19 144.855 349.286C142.653 348.734 140.384 348.477 138.115 348.525C137.506 348.563 136.902 348.663 136.313 348.815C131.214 359.013 129.663 379.712 142.672 381.311C142.705 381.106 142.748 380.907 142.8 380.707C142.967 380.06 143.2 379.437 143.499 378.837C143.928 377.943 144.422 377.087 144.983 376.274C148.47 371.641 152.622 367.541 157.302 364.112C159.385 362.452 161.74 361.168 164.266 360.316C166.506 359.627 168.851 359.36 171.191 359.527C173.336 359.722 175.405 360.411 177.236 361.553C178.596 362.49 179.819 363.608 180.879 364.873C182.23 366.552 183.41 368.369 184.39 370.286C185.816 373.168 186.102 374.628 185.593 375.004C185.089 375.384 183.724 374.685 181.417 372.531C180.275 371.465 178.848 370.034 177.108 368.635V368.64C175.424 367.075 173.198 366.224 170.9 366.271C169.383 366.366 167.894 366.728 166.501 367.337C164.922 368.131 163.461 369.144 162.163 370.343C158.439 373.511 155.124 377.135 152.294 381.13C150.239 383.537 151.566 389.297 155.68 393.825C157.825 396.275 160.427 398.287 163.343 399.742C165.568 400.926 168.042 401.564 170.558 401.611C170.748 401.202 170.938 400.76 171.162 400.341C172.408 397.802 174.078 395.49 176.099 393.507C179.866 389.896 183.024 387.965 185.379 385.839L185.122 386.125L185.127 386.129C185.892 385.283 186.777 384.55 187.752 383.946C188.675 383.413 189.303 383.152 189.75 382.881C190.558 382.438 191.272 381.834 191.838 381.107L191.999 380.85C192.38 380.755 192.722 379.428 193.012 378.224H193.008C193.255 377.135 193.721 376.103 194.378 375.199C195.486 373.811 196.375 373.682 196.689 373.939C197.003 374.196 196.913 375.004 196.851 376.25C196.808 377.04 196.841 377.834 196.946 378.619C197.003 379.294 197.027 379.97 197.008 380.65C196.998 381.687 196.737 382.705 196.247 383.623C195.533 385.188 194.473 386.576 193.146 387.675C191.547 388.878 190.801 389.354 190.297 390.239L190.04 390.524C187.662 393.278 184.37 395.904 181.811 398.819C180.494 400.365 179.428 402.106 178.648 403.98C178.201 405.017 177.811 406.073 177.473 407.148C177.169 408.232 176.96 409.345 176.841 410.472C176.356 415.486 178.567 420.385 182.658 423.329C186.839 426.259 192.033 427.358 197.04 426.373C197.017 424.737 197.155 423.101 197.449 421.493C197.854 419.263 198.643 417.117 199.794 415.163C200.85 413.251 202.268 411.562 203.966 410.192C206.781 408.061 209.954 406.454 213.336 405.441C215.481 404.846 217.507 403.881 219.324 402.592C220.413 401.398 221.098 399.895 221.284 398.287C221.597 396.527 221.773 394.749 221.816 392.96C221.978 389.507 222.04 386.568 222.387 384.313C223.02 379.633 224.637 377.887 225.174 378.139C225.84 378.425 225.583 380.194 226.092 384.38C226.316 386.511 226.758 389.174 227.158 392.803L227.153 392.798C227.405 394.882 227.457 396.979 227.31 399.072C227.215 400.404 226.972 401.721 226.587 402.996C226.102 404.604 225.255 406.073 224.114 407.301C221.788 409.474 219.053 411.163 216.071 412.271C213.54 413.175 211.186 414.502 209.107 416.2C207.21 417.988 206.001 420.385 205.688 422.973C205.317 426.264 205.683 429.589 206.753 432.723C207.837 436.371 209.678 439.748 212.166 442.631C214.453 445.551 217.921 447.306 221.631 447.425C226.211 447.259 230.663 445.894 234.548 443.468C238.468 441.237 242.244 438.764 245.854 436.057C237.959 417.189 242.801 393.888 253.821 377.14L253.824 377.136ZM255.374 356.052C259.503 351.833 264.23 348.242 269.401 345.398C274.538 342.52 280.06 340.399 285.796 339.096C290.263 338.244 293.112 338.463 293.254 339.129C293.383 339.923 290.876 341.032 286.952 342.711C283.028 344.389 277.744 346.972 272.036 350.054C266.433 353.284 261.43 356.447 257.976 358.825C254.466 361.293 252.117 362.944 251.584 362.34C251.099 361.84 252.33 359.377 255.374 356.052ZM144.942 322.744C143.581 322.963 140.951 317.645 140.447 309.792C140.1 302.287 141.394 296.37 142.854 296.37C144.314 296.37 145.446 302.32 145.769 309.474C146.15 316.285 146.492 322.521 144.942 322.744ZM227.259 82.2025C223.782 83.0587 221.399 84.3619 220.928 83.6961C220.543 83.1919 221.846 80.8803 225.837 78.7257C230.855 76.2715 236.401 75.0966 241.98 75.3059C247.455 75.3202 252.882 76.319 257.999 78.2501C261.895 79.7674 263.983 81.4796 263.669 82.1123C263.065 83.4393 253.761 80.6854 241.951 80.6521C237.005 80.5237 232.067 81.0468 227.259 82.2025Z" fill="black"/>
<path d="M263.699 379.316C254.452 393.404 247.328 413.038 253.406 429.78C257.035 440.439 266.054 448.373 277.088 450.613C295.642 454.342 302.32 440.61 311.276 427.473C327.362 403.853 338.597 382.725 333.089 354.939C307.704 353.636 278.862 356.266 263.699 379.316Z" fill="black"/>
<path d="M242.451 248.884L242.484 249.108C242.484 248.979 242.58 248.913 242.451 248.884Z" fill="black"/>
<path d="M390.209 228.367C389.496 222.836 388.355 217.361 386.79 212.005C383.203 213.803 379.527 215.42 375.774 216.847C370.299 218.978 364.34 220.99 358.39 223.625H358.395C355.374 224.909 352.459 226.431 349.681 228.176C348.259 229.161 346.452 230.112 345.215 231.187C343.978 232.262 342.623 233.275 341.296 234.35C339.36 236.029 337.4 237.899 335.436 239.83C335.469 243.658 335.498 247.521 335.564 251.354C351.622 245 368.844 242.127 386.096 242.935C389.316 238.802 390.795 233.576 390.209 228.367Z" fill="black"/>
<path d="M124.731 340.985C123.718 338.997 122.391 337.18 120.807 335.606C118.833 333.66 116.674 331.92 114.348 330.412C113.112 329.584 111.723 328.814 110.391 328.034C109.692 327.653 109.002 327.306 108.303 326.925C107.604 326.545 106.624 326.107 105.991 325.86V325.865C102.843 324.576 99.5893 323.549 96.2694 322.792C91.827 321.808 87.6414 319.896 83.9836 317.189C83.3224 316.585 82.6566 315.953 81.9907 315.353L81.515 314.911L81.0394 314.435H81.0442C81.0109 314.397 80.9776 314.354 80.949 314.307L80.8539 314.178L80.6018 313.865L79.6791 312.694H79.6839C78.5804 311.196 77.553 309.641 76.6113 308.038C73.063 301.959 70.8133 296.642 68.3734 292.685H68.3781C66.5707 289.565 64.3447 286.711 61.762 284.2C60.9107 283.31 60.026 282.554 59.4553 281.983C58.8846 281.413 58.661 280.918 58.7894 280.556C58.9178 280.195 59.4553 280.024 60.2448 279.986C61.4434 279.938 62.6372 280.128 63.7597 280.556C67.9168 282.112 71.5887 284.732 74.4139 288.157C78.1857 292.794 81.6768 297.66 84.8588 302.721C85.7768 303.953 86.6947 305.218 87.6745 306.36L88.4356 307.216L88.5592 307.368L88.8446 307.625C89.5438 308.196 90.2049 308.766 90.8993 309.366L90.9041 309.37C93.4583 310.793 96.1932 311.844 99.0422 312.505C102.999 313.399 106.857 314.716 110.538 316.429C111.604 316.904 112.184 317.313 113.007 317.727C113.825 318.141 114.719 318.74 115.542 319.245C117.14 320.31 118.676 321.299 120.103 322.441C120.674 322.883 121.169 323.392 121.701 323.868C121.511 321.932 121.349 319.782 121.259 317.342C121.069 313.956 121.953 301.927 118.819 300.058C115.433 298.032 111.794 303.226 108.945 304.015H108.94C107.756 304.305 106.543 304.434 105.325 304.4C102.871 304.243 100.536 303.311 98.6472 301.737C97.5152 300.828 96.4403 299.858 95.4177 298.831C93.4249 296.995 91.5223 295.249 89.7482 293.603C86.7518 290.455 84.0311 287.054 81.6149 283.439C77.6244 277.489 75.6029 273.532 76.5827 272.647C77.5625 271.762 81.0489 273.941 86.1144 278.283H86.1096C87.7648 269.793 87.4033 261.032 85.0442 252.713C82.2284 253.284 79.4698 253.779 76.9061 254.207C73.7098 254.487 70.7656 254.811 68.0403 254.873C65.2246 254.839 62.7132 254.711 60.5824 254.554V254.549C58.7844 254.354 57.0009 254.016 55.2553 253.536C52.3729 252.775 50.789 251.986 50.8224 251.258C50.8557 250.53 52.5014 249.893 55.4456 249.388C56.8678 249.075 58.7703 249.008 60.6966 248.599C62.6229 248.19 64.8441 247.743 67.2508 247.362L75.1986 245.493C78.0144 244.675 81.0584 243.781 84.2547 242.829C90.6472 240.741 97.573 238.301 105.03 235.643C108.797 234.311 112.34 233.079 116.174 231.876C119.717 230.862 123.137 229.878 126.429 228.96C129.72 228.042 132.441 226.967 135.261 226.111C137.829 224.874 140.108 224.056 142.543 222.786C143.685 222.215 144.759 221.645 145.773 221.107V221.112C146.866 220.537 147.998 220.042 149.164 219.623C151.142 218.838 153.283 218.544 155.399 218.767C156.684 218.896 157.925 219.295 159.043 219.937C159.766 220.413 160.108 220.827 160.023 221.174C159.937 221.521 159.49 221.84 158.724 222.092C157.958 222.344 156.888 222.506 155.69 222.919C154.301 223.381 152.998 224.066 151.827 224.941C151.475 225.226 151.066 225.545 150.624 225.892C169.712 231.4 215.687 241.212 217.394 227.091C210.426 219.97 200.484 216.836 193.522 209.05C185.531 200.089 176.475 190.658 163.6 190.686V190.691C162.901 190.729 162.202 190.586 161.574 190.272C141.707 190.838 121.959 186.981 103.765 178.976C91.5741 173.021 80.5875 164.541 67.4834 160.612C57.8566 157.696 48.044 155.675 38.1849 153.687C37.8139 153.991 37.4097 154.248 36.9816 154.448C14.3131 164.327 13.2477 201.778 12.6291 222.849C11.9965 244.062 8.70509 267.392 13.7992 288.196C16.3295 298.579 20.225 313.809 26.2372 322.575C32.7582 332.164 43.5555 335.712 53.3671 340.744C74.8033 351.798 98.0392 361.643 122.515 361.673L123.342 361.768V361.772C123.58 358.029 124.241 354.319 125.302 350.719C125.335 350.595 125.364 350.5 125.397 350.338V350.343C125.697 349.259 125.858 348.141 125.873 347.018L125.269 346.766C125.492 346.381 125.682 346.039 125.873 345.658C125.787 344.046 125.402 342.462 124.731 340.987L124.731 340.985ZM45.6138 234.672C50.2131 234.377 54.784 233.764 59.2926 232.836C69.9468 230.368 79.0035 227.832 79.5356 229.354C79.9779 230.624 71.9349 235.376 60.4104 238.063C55.3972 239.172 50.2128 239.3 45.1523 238.439C41.4234 237.554 39.3306 236.384 39.4257 235.685C39.5208 234.986 41.942 234.801 45.6138 234.672ZM57.4238 337.409C52.1062 334.698 47.2499 331.164 43.0412 326.931C38.8461 322.75 35.2265 318.032 32.2777 312.904C30.1468 308.946 29.3382 306.254 29.909 305.879C30.4798 305.498 32.5345 307.477 35.4168 310.787C38.2992 314.097 42.2231 318.511 46.8131 323.168L46.8083 323.163C50.7941 327.068 54.994 330.749 59.3888 334.184C62.8086 336.752 65.0535 338.364 64.7159 339.121C64.4876 339.748 61.638 339.307 57.4238 337.409Z" fill="#FFC107"/>
<path d="M484.295 184.228C456.342 153.96 431.462 120.988 410.02 85.8007C404.517 78.728 399.371 71.3889 394.605 63.7982C392.864 60.1882 373.017 61.52 368.769 61.3915C358.647 61.1061 348.383 59.6174 338.28 60.093C329.343 60.8873 320.463 62.2096 311.688 64.0503C312.215 68.507 313.067 72.916 314.227 77.2493C315.982 79.2993 317.481 81.5539 318.694 83.9653C330.28 107.362 322.618 132.822 316.858 156.661C314.727 165.432 315.179 175.591 311.445 183.758H311.44C307.473 193.77 301.404 202.816 293.647 210.289C286.527 216.334 279.265 222.127 271.835 227.73C274.65 226.974 277.252 226.246 279.526 225.599C287.193 223.573 291.654 222.75 291.906 223.544C292.159 224.339 288.301 226.551 281.114 229.904C277.504 231.616 273.071 233.58 267.625 235.573C264.933 236.681 262.084 237.476 259.074 238.422C258.317 238.646 257.556 238.865 256.762 239.121L255.592 239.469C255.478 239.492 255.359 239.526 255.245 239.564C255.069 239.659 254.898 239.778 254.741 239.906C253.119 241.138 250.831 240.962 249.413 239.497C247.511 240.482 245.78 241.761 244.281 243.297C243.064 244.51 242.274 246.089 242.036 247.792C242.046 247.849 242.07 247.902 242.098 247.954L242.317 248.525C242.379 248.558 242.412 248.558 242.445 248.62C242.479 248.682 242.702 248.743 242.793 248.839C242.954 249.095 243.554 249.286 243.934 249.538L243.929 249.533C244.486 249.79 245.057 250.013 245.642 250.199C248.543 251.06 251.525 251.631 254.536 251.911C257.827 252.292 261.247 252.482 264.924 252.763L267.93 253.048L269.295 253.233L270.941 253.519C272.653 253.799 274.327 254.247 276.073 254.403L276.068 254.408C282.979 255.445 290.018 255.212 296.843 253.719C312.515 250.741 322.413 236.876 334.932 226.807C336.53 225.508 338.318 224.272 339.997 223.078L340.002 223.073C341.548 222.007 343.146 221.028 344.796 220.129C348.069 218.283 351.493 216.704 355.022 215.41C361.672 212.942 367.845 211.296 373.32 209.684C381.89 207.572 390.067 204.105 397.544 199.42C402.576 196.062 405.268 193.246 405.872 193.845C406.315 194.288 405.078 197.674 400.203 202.644V202.649C398.629 204.228 396.921 205.674 395.104 206.959C395.199 207.177 395.323 207.401 395.418 207.653C398.605 215.867 400.174 224.619 400.041 233.423C399.979 234.089 399.851 234.755 399.727 235.416C400.864 234.464 402.082 233.603 403.366 232.857C405.811 231.449 408.512 230.555 411.314 230.226C413.15 230.193 414.101 230.355 414.196 230.669C414.291 230.983 413.369 231.487 411.723 232.153V232.157C409.502 233.185 407.409 234.469 405.487 235.986C402.548 238.498 400.084 241.508 398.205 244.885C395.623 249.58 393.411 254.469 391.589 259.512C391.018 260.938 390.448 262.394 389.725 263.978C388.964 265.899 387.894 267.688 386.552 269.267C385.52 270.394 384.193 271.212 382.723 271.635C381.587 271.945 380.417 272.121 379.237 272.168C377.501 272.263 375.727 272.33 373.91 272.425C372.198 272.587 370.362 272.739 368.749 273.029C367.831 273.191 366.823 273.31 365.962 273.505C365.106 273.695 364.364 273.914 363.584 274.109C360.136 275.089 356.464 276.487 352.535 277.909C350.609 278.637 348.521 279.336 346.361 279.997C344.273 280.568 342.185 281.139 340.031 281.709L338.637 282.123C338.323 282.247 338.004 282.375 337.69 282.47C337.529 282.599 337.529 282.661 337.377 282.632C337.467 282.784 337.434 282.632 337.41 282.722V282.713C337.077 283.431 336.872 284.202 336.811 284.991C337.124 289.743 337.472 294.49 337.919 299.208C338.233 302.438 338.675 305.663 339.213 308.892C345.358 307.879 351.431 306.452 357.387 304.63C360.174 303.874 362.928 303.175 365.806 302.576C367.232 302.224 368.721 302.005 370.181 301.781C371.642 301.558 373.121 301.306 374.443 301.211L382.515 300.359C383.846 300.197 385.178 300.074 386.505 299.95L390.31 299.379C392.841 299.027 395.338 298.652 397.811 298.314L398.758 298.186L399.205 298.124L399.457 298.09L399.552 298.057C399.585 298.057 401.326 297.615 401.326 297.615L403.19 297.139L403.186 297.144C403.69 296.992 404.189 296.816 404.674 296.611C408.703 295.146 412.413 292.92 415.595 290.052C421.802 283.945 427.01 276.906 431.039 269.186C433.199 265.457 435.253 261.809 437.403 258.322C439.62 254.684 441.741 251.673 443.796 248.543L454.864 232.101C458.093 227.23 460.838 223.083 463.092 219.663C467.397 212.737 470.117 209.008 470.783 209.308C471.449 209.608 469.989 213.964 466.731 221.656C465.052 225.456 462.683 229.918 459.986 235.178C457.199 240.338 453.874 246.131 450.236 252.496C448.462 255.659 446.34 259.112 444.566 262.403C442.697 265.952 440.799 269.652 438.802 273.452L438.806 273.447C434.668 282.266 429.084 290.332 422.293 297.319C418.169 301.229 413.304 304.277 407.986 306.28C407.287 306.537 406.502 306.851 405.855 307.041L404.904 307.293C407.439 307.517 409.936 307.773 412.443 308.121C422.031 309.481 438.546 314.96 447.487 308.625V308.62C454.897 302.618 460.781 294.946 464.666 286.232C472.391 271.511 481.1 257.233 488.472 242.383C492.815 233.679 500.915 220.598 500.002 210.372C499.017 199.932 491.164 191.509 484.297 184.226L484.295 184.228ZM332.141 144.808C330.01 157.693 325.654 166.905 324.355 166.592C322.805 166.212 324.926 155.986 326.852 143.957C328.66 131.643 330.748 121.583 332.27 121.73C333.692 121.859 333.982 132.151 332.141 144.785L332.141 144.808Z" fill="#FFC107"/>
<path d="M343.794 270.826C345.696 270.322 347.594 269.76 349.559 269.085C353.454 267.848 357.378 266.521 361.492 265.537C362.558 265.351 363.675 265.128 364.75 264.904C365.825 264.681 366.653 264.685 367.633 264.557C369.726 264.305 371.59 264.243 373.554 264.176C375.386 264.176 377.193 264.21 378.967 264.21C379.519 264.229 380.071 264.195 380.613 264.115C380.927 264.053 380.836 264.148 381.117 263.891H381.122C381.94 262.954 382.62 261.912 383.143 260.79C383.842 259.458 384.537 258.069 385.236 256.671C385.935 255.277 386.596 253.822 387.324 252.409C370.353 252.219 350.948 253.475 335.812 261.846C335.908 265.451 336.036 269.033 336.164 272.643L337.62 272.257C339.675 271.806 341.739 271.321 343.794 270.826Z" fill="black"/>
</svg>
