<?xml version="1.0" encoding="utf-8"?>
<!-- Generator: Adobe Illustrator 22.0.0, SVG Export Plug-In . SVG Version: 6.00 Build 0)  -->
<svg version="1.1" id="Layer_1" xmlns="http://www.w3.org/2000/svg" xmlns:xlink="http://www.w3.org/1999/xlink" x="0px" y="0px"
	 viewBox="0 0 512 512" style="enable-background:new 0 0 512 512;" xml:space="preserve">
<style type="text/css">
	.st0{fill:#FFFFFF;}
	.st1{fill:#FFC107;}
</style>
<rect y="0" class="st0" width="512" height="512"/>
<g>
	<path class="st1" d="M197.5,221.9H28.2l0,92.7l22,0v-20.8H58v20.8h10.5v-34.5h7.8v34.5h10.5v-20.8h7.8v20.8h10.5V284l0-3.9h7.8
		v34.5h10.5v-20.8h7.8v20.8H142V284l0-3.9h7.8v34.5h10.5v-20.8h7.8v20.8h10.5v-34.5h7.8v34.5H197v-20.8h7.8v20.8h10.5v-34.5h7.8
		v34.5h10.5v-20.8h7.8v20.8h10.5v-34.5h7.8v34.5h10.5v-20.8h7.8v20.8h10.5v-34.5h7.8v34.5h10.5v-20.8h7.8v20.8h10.5l0-34.5h7.8v34.5
		h10.5v-20.8h7.8v20.8h10.5v-34.5h7.8v34.5h10.5v-20.8h7.8v20.8h10.5v-34.5h7.8v34.5h10.5v-20.8h7.8v20.8h10.5v-34.5h7.8v34.5H454
		l0-16.9v-3.9h7.8v20.8h22v-92.7H313.2v26.3h-57.8h-57.8V221.9z"/>
	<path d="M216.9,197.4l77.1,0l19.3,19.3v9.6l-115.6,0v-9.6L216.9,197.4L216.9,197.4z"/>
</g>
</svg>
