<svg width="512" height="512" viewBox="0 0 512 512" fill="none" xmlns="http://www.w3.org/2000/svg">
<rect width="512" height="512" fill="white"/>
<path d="M389.359 356H83.005C60.7238 356 43.0035 338.275 43.0035 315.999L43 197.001C43 174.72 60.7248 157 83.0015 157H389.356C411.637 157 429.357 174.725 429.357 197.001V315.999C429.361 337.771 411.636 356 389.356 356H389.359ZM83.005 173.2C69.8403 173.2 59.2056 183.836 59.2056 197V315.997C59.2056 329.161 69.8412 339.796 83.005 339.796H389.359C402.524 339.796 413.159 329.161 413.159 315.997L413.155 197C413.155 183.835 402.519 173.2 389.356 173.2H83.005Z" fill="black"/>
<path d="M83.5117 194.468H140.224V321.061H83.5117V194.468Z" fill="#FFC107"/>
<path d="M140.225 329.163H83.5124C78.9559 329.163 75.4097 325.616 75.4097 321.06V194.467C75.4097 189.911 78.956 186.365 83.5124 186.365L140.225 186.368C144.782 186.368 148.328 189.914 148.328 194.471V321.063C148.328 325.62 144.781 329.163 140.225 329.163ZM91.6152 312.961H132.63V202.065H91.6152V312.961Z" fill="#FFC107"/>
<path d="M169.594 194.468H223.778V321.061H169.594V194.468Z" fill="#FFC107"/>
<path d="M223.776 329.163H169.593C165.036 329.163 161.49 325.616 161.49 321.06V194.467C161.49 189.911 165.037 186.365 169.593 186.365H223.776C228.333 186.365 231.879 189.911 231.879 194.467V321.06C231.371 325.62 227.824 329.163 223.776 329.163ZM177.696 312.961H215.674V202.065H177.696V312.961Z" fill="#FFC107"/>
<path d="M252.133 194.468H306.316V321.061H252.133V194.468Z" fill="#FFC107"/>
<path d="M306.315 329.163H252.135C247.578 329.163 244.032 325.616 244.032 321.06V194.467C244.032 189.911 247.578 186.365 252.135 186.365H306.318C310.875 186.365 314.421 189.911 314.421 194.467V321.06C314.417 325.62 310.875 329.163 306.315 329.163ZM260.238 312.961H298.721V202.065H260.238V312.961Z" fill="#FFC107"/>
<path d="M337.203 194.468H390.372V321.061H337.203V194.468Z" fill="#FFC107"/>
<path d="M390.878 329.163H337.204C332.648 329.163 329.101 325.616 329.101 321.06V194.467C329.101 189.911 332.648 186.365 337.204 186.365H390.374C394.93 186.365 398.477 189.911 398.477 194.467V321.06C398.477 325.62 394.93 329.163 390.878 329.163ZM345.307 312.961H382.779V202.065H345.307V312.961Z" fill="#FFC107"/>
<path d="M460.251 308.908H421.26C416.703 308.908 413.157 305.362 413.157 300.805V209.152C413.157 204.596 416.703 201.049 421.26 201.049H460.251C464.807 201.049 468.354 204.596 468.354 209.152L468.35 301.311C468.35 305.363 464.302 308.909 460.251 308.909V308.908ZM429.362 293.211H452.148V217.256H429.362V293.211Z" fill="black"/>
</svg>
