<svg width="512" height="512" viewBox="0 0 512 512" fill="none" xmlns="http://www.w3.org/2000/svg">
<path opacity="0.65" d="M443.434 365.408C444.389 367.84 445.561 370.183 446.934 372.408C450.814 378.408 453.404 387.878 452.564 393.308C452.044 396.608 449.324 400.038 445.634 401.918C444.762 402.3 443.937 402.78 443.174 403.348C443.174 403.408 443.624 405.088 444.174 407.028C444.903 410.465 445.381 413.951 445.604 417.458L445.984 424.318L455.374 422.118C458.673 421.451 461.935 420.606 465.144 419.588C465.984 418.748 465.274 407.588 463.984 401.658C460.354 384.508 453.174 370.338 444.694 363.538C443.404 362.538 442.294 361.728 442.234 361.728C442.541 362.982 442.942 364.213 443.434 365.408Z" fill="#010101"/>
<path opacity="0.65" d="M201.364 74.9974C204.91 78.5653 208.892 81.673 213.214 84.2474C223.374 90.2474 235.544 98.0974 235.214 98.3574C235.084 98.5574 232.754 97.2574 230.214 95.5174C223.614 91.1774 209.214 82.4374 208.664 82.4374C208.474 82.4374 209.504 84.2474 210.994 86.4374C212.968 89.4474 214.784 92.5583 216.434 95.7574C219.024 100.937 219.084 101.007 219.734 99.2574C220.644 96.7974 223.354 95.1174 225.554 95.6274C227.011 96.2528 228.332 97.1563 229.444 98.2874C231.644 100.487 231.704 100.487 233.904 99.5774C234.498 99.2659 235.148 99.0771 235.816 99.0221C236.484 98.9672 237.157 99.0472 237.794 99.2574C239.042 99.6897 240.353 99.9094 241.674 99.9074C246.594 99.9074 250.674 103.077 254.874 110.197C255.873 112.041 257.14 113.726 258.634 115.197C261.014 116.767 274.014 128.357 276.314 131.207C283.044 139.357 285.764 145.447 287.514 156.577C288.094 160.137 289.004 163.697 289.514 164.577C290.994 166.847 294.044 168.397 298.764 169.237C309.644 171.177 316.694 173.967 327.184 180.367C331.844 183.217 331.844 183.217 334.684 182.367C336.564 181.787 336.564 181.787 331.684 178.747C325.344 174.747 321.684 173.177 311.164 169.877C299.514 166.187 298.484 165.217 296.084 155.307C292.654 141.397 287.864 134.307 273.244 121.527C252.524 103.407 231.364 88.5774 214.404 80.4274C211.419 79.1403 208.682 77.3435 206.314 75.1174C204.244 72.7874 198.674 69.5574 196.734 69.5574C196.254 69.5274 198.324 71.9974 201.364 74.9974Z" fill="#010101"/>
<path opacity="0.65" d="M60.4738 80.9975C53.3138 98.2775 46.3538 126.157 44.6538 144.897C43.6315 154.46 43.8297 164.115 45.2438 173.627C54.7638 245.627 78.9838 308.857 113.454 351.757C120.744 360.757 127.634 368.207 131.184 370.697C147.464 382.317 231.304 413.697 252.384 416.007C263.084 417.187 264.854 415.747 266.824 404.387C267.944 397.787 269.774 367.947 269.774 356.067V348.167L263.144 347.707C251.854 346.987 249.144 346.137 232.354 337.847C211.474 327.527 193.684 316.107 177.734 302.787C173.524 299.257 169.464 296.387 168.804 296.387C161.514 296.387 106.954 244.017 94.3538 224.887C89.5538 217.637 80.2338 196.417 78.0638 187.887C77.1438 184.357 77.8738 182.337 80.2338 181.807C84.6938 180.807 120.874 176.257 124.094 176.257C126.254 176.257 126.524 176.067 126.914 174.257C127.574 170.857 127.374 155.707 126.584 151.987C124.814 143.787 117.334 132.887 100.914 114.537C96.3838 109.537 88.1738 100.957 82.5938 95.5375C77.0138 90.1175 70.3838 83.6475 67.8938 81.1075C66.3064 79.4341 64.6164 77.8611 62.8338 76.3975C61.8459 77.8189 61.0522 79.3659 60.4738 80.9975Z" fill="#010101"/>
<path opacity="0.65" d="M258.064 117.497C258.75 119.179 259.527 120.821 260.394 122.417C265.394 132.417 271.334 148.827 272.234 155.297C273.534 164.097 269.394 170.577 257.484 178.467C257.354 178.537 257.744 179.377 258.324 180.287L259.324 181.897L264.324 179.377C275.134 173.937 284.584 172.447 290.324 175.297C291.944 176.077 300.614 181.967 309.614 188.437C318.614 194.907 326.214 199.997 326.284 199.897C326.354 199.797 326.934 197.497 327.574 194.847C328.166 192.367 328.969 189.941 329.974 187.597C330.47 186.732 330.881 185.821 331.204 184.877C331.204 184.427 321.204 178.537 316.574 176.207C311.944 173.877 307.774 172.577 300.134 171.207C293.854 170.037 290.034 168.207 288.744 165.637C288.224 164.637 287.254 160.527 286.544 156.447C284.144 142.277 280.264 136.057 265.834 123.247C259.614 117.697 258.064 116.527 258.064 117.497Z" fill="#010101"/>
<path opacity="0.65" d="M334.184 184.998C332.044 185.648 328.554 194.768 328.554 199.428C328.614 201.628 328.934 202.018 335.474 206.618C339.294 209.268 342.594 211.538 342.784 211.618C342.974 211.698 343.694 209.678 344.274 207.088C345.894 200.488 347.904 197.258 351.074 196.348C354.564 195.348 355.074 195.348 358.584 197.128C361.304 198.488 361.494 198.548 360.454 197.388C359.034 195.828 346.454 186.448 343.764 185.018C341.884 184.048 337.354 184.048 334.184 184.998Z" fill="#010101"/>
<path opacity="0.65" d="M347.654 199.387C345.904 200.557 343.514 206.387 342.994 210.847L342.674 213.847L346.424 216.637C358.784 225.637 370.564 236.697 375.094 243.297C377.494 246.797 379.694 252.487 379.694 255.147C379.66 256.174 379.311 257.166 378.694 257.987C377.784 258.987 377.854 259.157 380.314 259.547C383.034 259.997 383.614 260.777 381.804 261.747C380.894 262.327 380.894 262.387 382.184 262.847C383.034 263.107 383.484 263.617 383.354 264.137C383.224 264.657 384.264 265.047 387.624 265.367C389.601 265.54 391.567 265.82 393.514 266.207C394.684 266.537 394.744 266.207 394.354 259.867C393.904 251.327 392.224 246.077 388.144 239.867C384.064 233.657 368.464 216.867 359.214 208.737C348.214 199.027 348.144 198.967 349.564 199.677C353.324 201.417 377.984 225.627 384.974 234.367C392.154 243.367 395.194 251.457 395.194 261.807V266.277L399.794 267.057C401.365 267.415 402.972 267.586 404.584 267.567C404.974 267.177 402.964 252.567 401.994 249.257C399.854 241.747 392.284 232.427 372.094 212.687C359.734 200.577 355.524 197.537 351.634 198.057C350.231 198.231 348.878 198.683 347.654 199.387Z" fill="#010101"/>
<path opacity="0.65" d="M376.014 359.728C374.784 359.788 375.104 360.308 378.344 363.548C380.989 366.014 383.008 369.075 384.234 372.478C385.334 375.258 386.564 378.168 386.954 378.818C389.466 383.157 391.498 387.758 393.014 392.538C394.434 397.978 394.304 404.538 392.694 407.618C391.074 410.918 386.934 414.418 382.524 416.228C379.944 417.228 379.164 417.908 379.424 418.628C380.584 421.628 381.684 428.078 381.814 433.058C381.944 436.228 382.274 438.758 382.524 438.758C382.984 438.758 426.344 428.848 443.754 424.758C445.314 424.428 445.314 424.428 444.854 417.828C444.681 414.416 444.27 411.021 443.624 407.668C442.784 404.298 442.624 404.108 440.844 404.238C439.844 404.368 436.894 404.498 434.434 404.558C426.734 404.758 424.534 402.808 416.314 388.318C409.394 376.098 404.084 368.998 399.014 365.228C392.084 360.048 386.844 358.368 380.694 359.228C378.904 359.468 376.834 359.728 376.014 359.728Z" fill="#010101"/>
<path opacity="0.4" d="M111.954 370.548C104.314 372.358 97.3237 374.238 96.4137 374.688C94.9237 375.468 95.0537 375.528 98.6837 375.988C106.98 377.137 115.149 379.066 123.084 381.748C130.134 384.078 131.434 384.338 132.464 383.628C133.697 382.868 135.049 382.321 136.464 382.008C138.464 381.488 139.464 380.838 139.894 379.738C140.994 376.828 140.604 375.988 136.724 373.918C134.724 372.748 131.614 370.808 129.804 369.578C128.695 368.717 127.525 367.939 126.304 367.248C126.064 367.248 119.654 368.738 111.954 370.548Z" fill="#010101"/>
<path opacity="0.65" d="M267.584 371.157C267.584 372.647 267.844 372.767 272.244 373.097L286.244 374.097C297.774 375.007 306.114 376.297 311.364 378.047C322.624 381.737 334.364 394.817 339.454 409.247C341.324 414.687 344.764 429.897 346.834 441.607C347.544 445.747 348.194 447.887 348.704 447.697C349.214 447.507 356.154 445.877 364.434 444.007C377.434 441.007 379.434 440.377 379.774 439.277C380.224 437.397 379.064 426.137 378.024 422.647L377.184 419.727L372.074 419.667C368.384 419.667 366.244 419.277 364.694 418.497C360.294 416.167 354.794 409.567 343.534 393.257C335.314 381.347 332.594 378.567 325.924 375.197L320.424 372.487L306.424 372.097C298.724 371.837 288.944 371.317 284.674 370.927C280.404 370.537 275.424 370.157 273.674 370.027C271.924 369.897 269.784 369.767 268.944 369.697C267.904 369.597 267.584 369.927 267.584 371.157Z" fill="#010101"/>
<path opacity="0.5" d="M267.594 376.908C267.404 378.978 269.214 414.638 269.924 422.598C270.774 431.918 273.234 435.478 282.164 439.888C288.954 443.248 293.294 444.218 322.424 448.558C348.244 452.378 347.334 452.308 347.334 450.558C347.334 446.098 341.834 419.238 339.504 412.118C334.504 397.228 323.454 384.608 311.504 380.118C305.674 377.978 291.634 376.238 269.884 375.008C268.014 374.838 267.794 374.998 267.594 376.908Z" fill="#010101"/>
<path opacity="0.4" d="M90.7336 380.827C89.2436 385.297 85.6236 405.357 86.0736 406.587C86.7097 407.463 87.5846 408.136 88.5936 408.527C91.3136 409.827 120.594 417.527 121.094 417.077C121.566 415.209 121.867 413.301 121.994 411.377C122.774 404.577 123.484 401.927 125.814 397.327C127.564 393.997 129.014 389.237 129.014 386.847C129.014 384.457 101.634 377.077 94.0136 377.397C92.0136 377.527 91.7636 377.717 90.7336 380.827Z" fill="#010101"/>
<path opacity="0.72" d="M140.334 377.998C139.234 381.628 136.834 383.758 133.864 383.758C131.464 383.758 131.464 383.758 130.684 387.448C129.992 390.313 128.986 393.093 127.684 395.738C125.094 401.168 122.684 414.248 124.054 415.158C124.704 415.538 229.814 442.018 230.654 442.018C231.044 442.018 231.494 440.458 231.654 438.648C232.062 436.217 232.823 433.858 233.914 431.648L235.734 428.028L190.424 416.178C165.424 409.638 144.594 404.008 144.084 403.688C142.654 402.908 143.084 402.978 191.654 415.788L236.314 427.568L238.574 425.948C242.784 422.948 245.694 419.738 246.734 416.948C247.172 415.999 247.455 414.986 247.574 413.948C247.444 413.888 244.574 413.108 241.164 412.268C222.524 407.798 170.164 388.508 148.614 378.268C146.383 377.144 144.093 376.143 141.754 375.268C141.434 375.388 140.784 376.618 140.334 377.998Z" fill="#010101"/>
<path opacity="0.65" d="M265.894 406.687C264.894 411.217 262.724 413.997 259.294 414.907L256.774 415.617V422.997C256.774 431.407 256.314 430.897 262.774 430.057L265.684 429.667L265.754 426.667C265.814 423.107 266.754 420.317 268.604 418.377C269.834 417.087 269.834 416.627 269.184 405.627C268.794 399.347 268.404 393.267 268.404 392.097C268.404 390.927 267.954 392.937 267.504 396.497C267.054 400.057 266.354 404.617 265.894 406.687Z" fill="#010101"/>
<path opacity="0.65" d="M247.384 417.077C246.224 420.077 243.824 422.837 238.324 427.297C236.606 428.758 235.16 430.512 234.054 432.477C232.494 435.977 231.724 441.927 232.824 441.927C235.474 441.927 253.984 438.437 254.694 437.787C255.214 437.267 255.604 433.517 255.924 425.937L256.314 414.877L254.764 414.547C253.924 414.417 252.174 414.227 250.884 414.157C248.684 414.097 248.484 414.287 247.384 417.077Z" fill="#010101"/>
<path opacity="0.65" d="M267.064 424.608C266.354 427.518 266.414 428.428 267.514 431.608C268.106 433.468 269.001 435.219 270.164 436.788C271.784 438.528 274.954 438.858 276.164 437.368C276.814 436.588 276.494 435.878 274.354 433.478C271.764 430.568 270.994 428.478 269.954 421.638C269.634 419.118 269.504 418.988 268.664 420.018C267.904 421.459 267.365 423.006 267.064 424.608Z" fill="#010101"/>
<path d="M152.434 61.5775C162.274 62.2275 167.194 63.1375 174.894 65.6575C179.348 67.3149 184.061 68.1682 188.814 68.1775C198.814 68.6975 202.074 69.7375 206.734 74.0675C210.266 77.0124 214.161 79.4926 218.324 81.4475C236.644 90.8375 256.444 104.948 277.024 123.448C290.814 135.808 294.444 141.827 298.844 159.688C300.134 164.807 301.754 165.967 312.304 169.337C322.404 172.507 326.734 174.447 334.374 179.177C336.964 180.787 340.004 182.177 341.104 182.347C343.374 182.607 347.254 184.938 354.374 190.438C359.164 194.057 391.074 226.288 397.224 233.738C403.374 241.188 405.704 246.808 406.934 257.298C408.034 267.008 408.094 267.137 409.934 267.647C416.344 269.207 423.934 275.548 427.144 282.018C430.834 289.268 437.054 310.947 439.704 325.897C440.614 331.207 440.704 332.827 440.024 336.777C439.124 341.777 437.244 345.517 434.134 348.487L432.194 350.367L435.044 352.888C436.605 354.27 437.995 355.834 439.184 357.547C440.626 359.427 442.378 361.046 444.364 362.337C455.304 370.047 463.524 387.127 466.824 409.077C468.114 417.877 467.664 421.568 464.884 424.348C462.614 426.618 462.814 426.548 412.714 438.198C352.324 452.248 353.714 451.917 348.314 451.987C342.914 452.057 333.944 450.817 308.184 446.617C291.294 443.827 287.184 442.857 282.494 440.267C279.704 438.777 279.124 438.717 276.864 439.367C271.554 440.977 268.764 439.688 266.694 434.638C265.404 431.528 265.204 431.467 260.354 432.117L257.354 432.568V435.418C257.354 440.338 256.254 440.847 242.794 443.057L231.144 444.927L182.604 432.758C87.2537 408.758 88.0137 408.997 86.0937 405.997C85.0937 404.377 84.8637 405.868 88.6137 386.068C90.3037 377.008 91.3337 374.417 93.9237 372.857C95.8037 371.697 107.194 368.587 119.034 365.997C121.824 365.417 124.034 364.708 124.034 364.448C124.034 364.188 123.384 363.448 122.674 362.698C120.414 360.698 112.254 350.857 107.074 343.997C78.5237 305.657 57.5537 250.827 47.0637 186.497C43.1837 162.677 43.0137 150.897 46.4137 130.997C49.7137 111.677 58.7737 81.6475 63.8237 73.3575C65.6437 70.4475 70.0137 68.1775 76.5737 66.6975C79.7537 65.9775 83.6337 65.0775 85.2537 64.6975C86.8737 64.3175 91.0737 63.5975 94.6337 63.1475C98.1937 62.6975 102.274 61.9975 103.694 61.5775C106.674 60.8075 140.914 60.8075 152.434 61.5775ZM101.884 63.9975C100.204 65.3575 100.524 66.5275 103.434 70.2775L106.094 73.7075L108.424 71.2475C111.784 67.7275 116.314 66.9975 131.914 67.5975C138.454 67.7975 151.274 68.1175 160.334 68.3075C175.804 68.6375 176.704 68.6375 174.574 67.6675C166.674 64.0375 154.704 62.9375 124.664 63.0675C107.254 63.1375 102.724 63.3275 101.884 63.9975ZM91.0737 65.4675C85.0737 66.3675 84.8637 66.8875 87.5137 71.5475C89.2637 74.5475 89.7837 75.1675 90.1737 74.2675C90.8137 72.5875 93.7937 71.2675 98.1737 70.7675L102.014 70.3775L100.784 68.7675C100.106 67.9813 99.6591 67.0224 99.4937 65.9975C99.4937 64.4975 97.5437 64.4275 91.0737 65.4675ZM77.0737 68.3775C71.5137 69.6675 66.5937 72.1275 65.6837 74.1375C64.5837 76.5975 65.7537 78.2175 73.5137 85.0775C90.9937 100.477 115.514 128.077 123.224 141.077C127.824 148.717 128.224 150.858 128.224 164.188V175.897L130.294 174.997C132.08 174.372 133.922 173.916 135.794 173.637C137.794 173.317 139.164 172.797 139.094 172.337C139.024 171.877 138.774 167.338 138.644 162.048C138.254 148.908 136.764 144.248 130.164 135.048C122.084 123.588 106.484 105.657 89.7137 88.3775C82.9237 81.3775 80.7137 78.2775 80.7137 75.8875C80.7137 74.6575 82.5237 72.3875 84.2737 71.3575C85.0437 70.9675 85.1737 70.3575 84.9137 69.0875C84.4137 66.9975 83.3137 66.8875 77.0937 68.3775H77.0737ZM126.014 70.0575C125.884 72.0575 125.884 72.0575 125.624 70.3775C125.364 68.6975 125.174 68.6375 121.484 68.6375H117.614L117.484 72.6375L117.354 76.7175L117.164 72.6375C116.904 68.6375 116.904 68.6375 115.164 69.0175C112.514 69.6575 112.444 69.7275 112.444 73.4175C112.444 76.7175 112.514 76.9075 114.514 77.5575L116.654 78.2675L114.504 77.9975L112.434 77.6075V88.6375L115.024 89.3475C115.948 89.4949 116.83 89.8357 117.614 90.3475C117.614 90.5475 116.964 90.4775 116.124 90.2875C115.273 90.007 114.408 89.77 113.534 89.5775C112.694 89.3175 112.434 89.6375 112.304 91.0675C112.244 92.0675 112.044 89.3775 111.784 85.0675L111.464 77.3075L109.324 77.1075C107.384 76.9175 107.254 77.0475 107.254 78.8575C107.254 82.9375 108.614 87.3975 110.044 87.9775C111.274 88.4975 111.334 88.5675 110.234 88.5675C109.584 88.6275 109.234 88.9575 109.324 89.4075C109.414 89.8575 110.174 91.8675 110.814 93.8075C111.914 96.9775 112.044 97.1775 112.504 95.7475C112.964 94.3175 112.954 94.6475 113.014 96.8475C113.048 98.3208 113.291 99.7819 113.734 101.188C114.244 102.678 114.504 102.808 115.994 102.188C118.904 101.087 120.854 101.478 122.854 103.488C123.803 104.407 124.805 105.272 125.854 106.078C126.504 106.468 126.634 106.718 126.114 106.718C125.594 106.718 125.534 107.178 126.314 108.718C126.639 109.414 127.052 110.066 127.544 110.658C127.806 109.118 127.926 107.559 127.904 105.998C127.974 101.538 127.844 101.148 125.054 96.9375C123.184 94.2175 121.364 92.2775 120.004 91.6275C118.904 91.1175 118.584 90.8575 119.364 91.0475C121.174 91.4375 121.104 91.7575 119.554 87.5575C118.949 86.0923 118.516 84.5621 118.264 82.9975C118.264 82.4075 118.974 83.7675 119.754 86.0975C120.594 88.6275 123.114 93.0975 125.894 97.0975C130.554 103.827 132.694 106.478 142.274 117.608C149.394 125.828 158.274 138.197 160.524 142.917C162.404 146.917 162.524 147.057 164.474 146.667C165.882 146.411 167.312 146.284 168.744 146.287C169.974 146.287 176.964 145.897 184.284 145.287C191.604 144.677 198.454 144.287 199.614 144.287C201.494 144.287 201.754 144.037 202.984 140.857C203.694 139.047 204.274 137.857 204.274 138.337C204.147 139.436 203.843 140.506 203.374 141.507C202.854 142.807 202.534 143.968 202.724 144.158C202.914 144.348 204.024 143.448 205.314 142.158C206.604 140.868 207.584 140.087 207.584 140.347C207.447 140.824 207.176 141.251 206.804 141.577C205.314 143.057 206.934 143.127 209.654 141.637C213.214 139.637 215.344 136.457 215.344 133.027C215.344 130.957 214.704 129.467 212.344 126.027C210.134 122.857 209.164 121.818 208.784 122.468C208.404 123.118 208.264 122.008 208.324 120.068C208.384 118.128 208.524 117.548 208.654 118.448C208.974 120.138 214.654 128.998 215.184 128.548C215.291 126.546 215.227 124.538 214.994 122.548C214.474 116.918 214.474 116.858 211.824 114.458C210.92 113.494 209.883 112.665 208.744 111.998C208.424 111.998 208.164 112.998 208.164 114.068C208.094 115.948 207.964 115.818 207.514 113.298C207.251 111.582 207.101 109.852 207.064 108.118L207.124 105.847L207.384 107.917C207.584 109.477 208.484 110.708 210.944 112.778L214.244 115.558L213.794 110.998C213.014 102.998 212.794 102.327 209.064 98.5075L205.574 94.8175L205.894 98.3775L206.224 101.938L205.314 97.7975C204.734 95.4675 204.604 93.4575 204.864 93.2675C205.565 92.3743 206.091 91.3563 206.414 90.2675L207.514 87.6075L201.824 81.6075C198.194 77.7275 195.934 75.7175 195.414 76.0475C194.894 76.3775 195.344 77.4075 197.164 79.5375C199.874 82.8375 203.304 88.7275 204.024 91.3175C204.214 92.2275 203.174 90.4775 201.694 87.4375C199.494 83.1675 197.694 80.7075 193.274 76.2975C190.164 73.1975 188.094 70.8675 188.684 71.1875C189.789 71.9204 190.797 72.7907 191.684 73.7775C193.564 75.7175 195.314 76.4275 195.314 75.1975C194.691 74.1878 193.876 73.311 192.914 72.6175C191.554 71.5175 190.784 70.6175 191.104 70.6175C192.191 71.1898 193.174 71.9402 194.014 72.8375C195.444 74.2675 196.604 74.8375 197.124 74.5275C197.644 74.2175 197.194 73.5275 195.444 72.0675C193.244 70.2575 192.444 70.0675 189.034 70.1275L185.154 70.1875L188.554 72.9975C193.214 76.8175 198.774 84.0675 200.464 88.5375C201.174 90.4775 201.694 92.2875 201.464 92.4175C201.234 92.5475 200.884 91.5775 200.464 90.2175C198.714 84.7175 193.534 77.7875 187.324 72.7475L183.954 69.9575L170.014 69.8675C159.134 69.7975 137.134 68.8675 127.094 68.0475C126.284 67.9975 126.014 68.5075 126.014 70.0575ZM201.414 76.0575C204.962 79.6258 208.943 82.7366 213.264 85.3175C223.424 91.3175 235.594 99.1675 235.264 99.4275C235.134 99.6175 232.804 98.3275 230.264 96.5775C223.664 92.2375 209.264 83.4975 208.714 83.4975C208.524 83.4975 209.554 85.3175 211.044 87.4975C213.022 90.5049 214.838 93.616 216.484 96.8175C219.014 101.998 219.014 102.097 219.684 100.347C220.594 97.8875 223.304 96.2075 225.504 96.7275C226.959 97.3524 228.28 98.2522 229.394 99.3775C231.594 101.578 231.654 101.578 233.854 100.678C234.447 100.364 235.097 100.174 235.765 100.117C236.433 100.06 237.106 100.139 237.744 100.347C238.992 100.78 240.303 100.999 241.624 100.998C246.544 100.998 250.624 104.168 254.824 111.288C255.816 113.15 257.084 114.853 258.584 116.338C261.014 117.828 274.014 129.407 276.314 132.257C283.044 140.417 285.764 146.497 287.514 157.627C288.094 161.187 289.004 164.747 289.514 165.627C290.994 167.897 294.044 169.447 298.764 170.287C309.644 172.287 316.694 175.017 327.184 181.427C331.844 184.267 331.844 184.267 334.684 183.427C336.564 182.847 336.564 182.847 331.684 179.807C325.344 175.807 321.684 174.237 311.164 170.938C299.514 167.247 298.484 166.277 296.084 156.377C292.654 142.457 287.864 135.378 273.244 122.588C252.524 104.468 231.364 89.6475 214.404 81.4875C211.42 80.2035 208.682 78.41 206.314 76.1875C204.244 73.8575 198.674 70.6175 196.734 70.6175C196.254 70.5775 198.324 72.9975 201.364 76.0775L201.414 76.0575ZM108.944 71.9975C108.396 72.924 107.94 73.902 107.584 74.9175C107.194 76.2675 107.384 76.3975 109.454 76.3975C111.784 76.3975 111.784 76.3975 111.784 73.4875C111.784 70.1875 110.554 69.5375 108.944 71.9975ZM92.5637 73.5575C90.1737 75.3675 89.5637 77.8875 90.4937 82.5575C91.4937 87.9375 92.4937 89.6175 99.1637 96.6075L105.014 102.748L107.144 101.748C109.144 100.748 109.344 100.837 111.294 102.257C113.684 104.007 113.684 104.328 110.294 95.4675C107.844 89.2775 106.014 81.2575 106.014 77.3075C106.051 76.5744 105.939 75.8413 105.682 75.1534C105.426 74.4655 105.032 73.8373 104.524 73.3075C103.234 71.8775 102.644 71.8175 98.7637 72.0075C95.6037 72.1975 93.8637 72.6475 92.5637 73.5575ZM83.8937 73.2275C80.7237 75.4975 81.6237 78.4775 87.1937 83.8475C90.1937 86.8475 90.4237 86.9475 89.7837 85.1375C89.2808 83.4702 89.0214 81.739 89.0137 79.9975C88.9537 77.2175 87.0137 71.9075 86.0137 71.9075C85.2608 72.2685 84.5499 72.7112 83.8937 73.2275ZM197.354 75.6875C199.111 77.966 201.015 80.1272 203.054 82.1575C206.054 85.3975 209.054 88.6975 209.654 89.4775C210.494 90.5775 210.754 90.7075 210.814 89.9275C210.654 89.0778 210.251 88.2928 209.654 87.6675C208.855 86.7448 208.12 85.7693 207.454 84.7475C205.504 81.7475 199.034 75.1075 198.064 75.1075C197.544 75.1075 197.224 75.3675 197.354 75.6875ZM62.0837 81.6875C55.0137 98.7975 48.1637 126.437 46.4837 144.997C45.483 154.478 45.6778 164.046 47.0637 173.478C56.4437 244.808 80.3337 307.477 114.314 350.047C121.494 358.977 128.314 366.358 131.784 368.818C147.844 380.338 230.494 411.407 251.264 413.737C261.814 414.897 263.564 413.477 265.504 402.207C266.604 395.677 268.424 366.098 268.424 354.318V346.497L261.884 346.038C250.754 345.328 248.094 344.487 231.524 336.267C212.245 326.881 194.165 315.211 177.674 301.507C173.534 298.017 169.524 295.167 168.874 295.167C161.694 295.167 107.874 243.257 95.4737 224.298C90.7537 217.108 81.5637 196.077 79.4237 187.597C78.5237 184.097 79.2337 182.097 81.5637 181.597C85.9637 180.597 121.624 176.097 124.794 176.097C126.934 176.097 127.194 175.897 127.584 174.097C128.224 170.737 128.034 155.717 127.254 152.027C125.514 143.937 118.134 133.128 101.954 114.938C97.4837 109.938 89.3937 101.478 83.8937 96.1075C78.3937 90.7375 71.8937 84.3275 69.3937 81.8075C67.8287 80.1485 66.1586 78.5919 64.3937 77.1475C63.421 78.5561 62.644 80.09 62.0837 81.7075V81.6875ZM209.084 97.3475L212.584 100.908L212.064 97.9075C211.804 96.2275 211.544 94.3475 211.544 93.7675C211.174 92.5935 210.557 91.5125 209.734 90.5975L208.014 88.5075L206.784 91.1575L205.624 93.8775L209.084 97.3475ZM213.494 99.0375C214.264 103.828 216.494 108.548 217.494 107.318C217.884 106.738 217.944 106.798 217.684 107.578C217.424 108.358 218.394 110.488 219.954 113.078C221.514 115.668 222.474 117.027 222.284 116.507C222.094 115.987 221.374 113.277 220.534 110.507C219.624 107.507 218.784 105.648 218.394 105.908C218.004 106.168 217.884 105.908 218.074 105.328C218.264 104.748 217.884 103.057 217.234 101.507C215.944 98.6575 213.234 94.3875 212.964 94.7175C213.019 96.1754 213.189 97.6266 213.474 99.0575L213.494 99.0375ZM221.584 99.1675C220.094 101.297 220.224 102.858 221.904 102.468C222.456 102.392 223.018 102.434 223.554 102.589C224.089 102.744 224.587 103.009 225.014 103.368L226.754 104.667L228.444 103.308C230.054 102.008 230.124 101.888 229.084 100.588C226.544 97.5675 223.114 96.9175 221.564 99.1875L221.584 99.1675ZM231.394 102.998C228.094 104.678 222.464 110.238 222.464 111.798C222.616 113.187 222.921 114.555 223.374 115.878C223.824 117.488 224.924 122.278 225.704 126.548C227.124 133.798 227.644 135.158 233.474 146.618C241.174 161.758 244.404 166.807 249.714 171.987L253.794 175.987L255.674 174.887C259.294 172.817 263.114 168.417 264.214 164.987C265.834 160.197 265.314 152.047 262.914 145.307C258.514 132.627 248.804 112.688 243.914 106.308C241.654 103.308 241.264 102.228 242.914 103.588C245.624 105.858 255.724 125.078 260.644 137.438C264.644 147.438 265.884 152.437 265.954 158.277C266.014 165.467 262.844 170.967 256.114 175.497C254.684 176.407 254.624 176.597 255.594 176.987C257.014 177.567 264.074 172.647 267.374 168.767C270.224 165.467 271.974 160.097 271.374 156.207C270.014 146.237 256.514 114.328 250.494 106.998C247.774 103.698 244.924 102.078 242.594 102.538C241.707 102.766 240.769 102.674 239.944 102.278C238.254 101.258 234.184 101.578 231.394 102.998ZM128.614 104.748C128.614 107.078 128.814 107.338 131.274 108.308C132.694 108.898 133.794 109.148 133.664 108.898C132.164 106.593 130.521 104.385 128.744 102.288C128.621 103.101 128.578 103.925 128.614 104.748ZM106.744 103.128C106.224 103.718 107.744 105.787 112.564 111.347C116.124 115.427 121.364 121.647 124.154 125.137C126.944 128.627 129.264 131.287 129.264 131.027C129.264 130.117 124.534 121.968 120.724 116.208C112.504 103.908 108.874 100.548 106.744 103.128ZM220.654 103.998C220.074 105.098 220.974 109.428 221.814 109.428C222.672 108.91 223.439 108.254 224.084 107.488C225.894 105.608 225.894 105.547 224.734 104.257C223.304 102.677 221.434 102.548 220.654 103.998ZM115.734 103.648C115.019 103.832 114.342 104.14 113.734 104.558C113.734 104.688 116.514 108.958 120.004 114.068C123.241 118.813 126.203 123.741 128.874 128.827C130.364 131.827 132.434 135.757 133.474 137.567C134.729 139.649 135.874 141.796 136.904 143.997L138.394 147.237L137.934 144.317C136.934 137.317 129.264 116.228 124.934 108.468C121.754 102.808 120.334 101.998 115.734 103.648ZM215.024 110.648L215.474 112.338L216.124 110.718C216.315 110.193 216.397 109.635 216.365 109.078C216.332 108.52 216.185 107.976 215.934 107.478L215.084 105.858L214.824 107.417C214.704 108.494 214.768 109.583 215.014 110.638L215.024 110.648ZM128.614 110.648C128.614 113.648 130.884 119.648 132.614 121.198C133.254 121.788 133.514 122.368 133.124 122.498C132.284 122.758 134.034 125.857 137.654 130.387C140.314 133.687 140.654 133.887 141.024 132.527C141.394 131.167 141.414 131.298 141.474 132.978C141.544 135.378 145.104 139.708 149.054 142.368C152.734 144.758 152.994 144.827 153.384 142.887C153.644 141.657 153.644 141.717 153.774 143.267C153.834 145.217 154.944 145.857 159.144 146.507C161.474 146.827 161.474 146.827 160.894 145.147C159.894 142.237 155.974 136.278 155.194 136.478C154.814 136.538 154.484 136.147 154.484 135.567C154.484 133.887 151.964 130.257 150.484 129.747C149.704 129.547 149.484 129.158 149.834 128.908C150.184 128.658 148.834 126.448 146.344 123.398L142.194 118.288V125.397L145.434 126.887C147.184 127.727 148.544 128.507 148.434 128.637C148.324 128.767 147.004 128.307 145.524 127.637C142.284 125.957 142.344 125.957 142.024 127.707C141.764 129.057 141.764 128.997 141.634 127.507C141.504 126.017 141.014 125.528 138.014 124.298C136.014 123.458 134.514 122.748 134.644 122.548C135.794 122.743 136.907 123.114 137.944 123.648C139.634 124.358 141.184 124.948 141.314 124.948C141.564 123.755 141.651 122.534 141.574 121.318C141.574 118.018 141.314 117.438 138.784 114.458C136.454 111.678 131.084 108.118 129.084 108.118C128.814 108.118 128.614 109.218 128.614 110.638V110.648ZM216.054 112.648C215.054 116.008 215.414 116.988 219.234 122.028L222.334 126.177L223.044 124.178C223.694 122.308 223.374 118.417 222.534 118.417C221.465 117.141 220.571 115.729 219.874 114.218C219.173 112.707 218.282 111.293 217.224 110.007C216.639 110.792 216.226 111.692 216.014 112.648H216.054ZM258.054 117.498C258.74 119.179 259.517 120.821 260.384 122.417C265.384 132.417 271.324 148.828 272.224 155.298C273.524 164.098 269.384 170.577 257.474 178.467C257.344 178.537 257.734 179.377 258.314 180.287L259.314 181.897L264.314 179.377C275.124 173.937 284.574 172.448 290.314 175.298C291.934 176.078 300.604 181.968 309.604 188.438C318.604 194.907 326.214 199.997 326.284 199.897C326.354 199.797 326.934 197.498 327.574 194.848C328.166 192.367 328.969 189.942 329.974 187.597C330.47 186.732 330.882 185.821 331.204 184.877C331.204 184.427 321.204 178.537 316.574 176.207C311.944 173.877 307.774 172.577 300.134 171.207C293.854 170.037 290.034 168.207 288.744 165.637C288.224 164.637 287.254 160.527 286.544 156.447C284.144 142.277 280.264 136.058 265.834 123.248C259.614 117.698 258.064 116.528 258.064 117.498H258.054ZM216.314 125.077C216.644 129.017 217.154 131.737 217.934 132.967L219.104 134.847L220.464 131.158C220.997 129.799 221.448 128.41 221.814 126.997C221.814 126.357 216.704 119.167 216.254 119.167C216.014 119.117 216.124 121.837 216.314 125.077ZM223.114 126.438C223.213 127.428 223.595 128.368 224.214 129.147C225.214 130.377 225.214 130.317 224.794 128.247C224.609 127.218 224.479 126.18 224.404 125.137C224.404 124.617 224.084 124.428 223.764 124.618C223.444 124.808 223.114 125.658 223.114 126.438ZM220.844 131.737L219.684 135.298L223.434 140.798C225.504 143.798 227.324 146.178 227.434 146.048C227.355 143.87 227.094 141.702 226.654 139.567C225.744 133.747 223.744 128.177 222.574 128.177C222.334 128.177 221.564 129.797 220.844 131.737ZM136.444 134.137C137.744 138.407 137.744 138.407 141.364 139.767C143.304 140.477 145.054 141.127 145.254 141.127C145.454 141.127 144.254 139.567 142.464 137.697C140.673 135.864 139.002 133.917 137.464 131.868C136.464 130.508 135.524 129.537 135.394 129.667C135.594 131.189 135.945 132.686 136.444 134.137ZM214.954 138.277C214.244 139.277 213.404 140.417 213.084 140.927C212.624 141.647 212.884 142.227 214.184 143.387C214.916 143.907 215.537 144.567 216.014 145.327C216.014 145.847 224.014 155.327 224.424 155.327C224.684 155.327 225.144 154.547 225.594 153.507C226.244 151.957 226.304 151.957 225.914 153.387C225.724 154.287 225.394 155.327 225.274 155.717C225.154 156.107 225.914 157.527 227.014 158.887L229.014 161.408L228.564 155.908C228.104 150.018 227.914 149.368 227.004 150.798C226.234 152.028 226.164 151.307 226.944 149.307C227.524 147.877 227.074 146.907 223.644 141.987C219.954 136.747 219.644 136.427 218.784 137.587C217.924 138.747 217.884 138.687 218.274 137.067C218.496 135.977 218.359 134.844 217.884 133.837L217.014 132.387L216.554 134.457C216.255 135.817 215.713 137.111 214.954 138.277ZM228.294 142.097C228.554 143.847 229.294 151.477 229.974 158.987L231.074 172.647L229.584 175.167C227.704 178.167 227.514 184.357 229.264 189.277C230.424 192.647 248.264 225.457 249.134 225.787C249.295 225.899 249.427 226.049 249.517 226.223C249.608 226.397 249.655 226.591 249.654 226.787C249.654 227.177 253.344 234.297 257.874 242.577C264.084 253.907 266.414 257.578 267.124 257.268C268.354 256.818 276.834 255.847 286.734 255.137C289.419 255.025 292.092 254.721 294.734 254.227C294.934 254.037 292.404 250.278 289.104 245.878C280.694 234.618 273.254 223.288 270.334 217.208C268.208 212.291 266.505 207.203 265.244 201.997C260.844 184.847 259.944 183.097 251.594 175.457C247.254 171.457 245.764 170.457 245.704 171.317C245.644 172.177 245.374 171.637 245.054 170.537C243.909 167.851 242.523 165.274 240.914 162.837C239.448 160.582 238.113 158.245 236.914 155.837C236.464 154.417 236.394 154.477 235.914 156.027C235.434 157.577 235.464 157.517 235.394 155.577C235.334 153.897 228.274 138.237 227.824 138.747C227.906 139.873 228.063 140.992 228.294 142.097ZM139.014 144.747C139.474 147.537 140.114 150.187 140.504 150.577C141.909 151.471 143.408 152.209 144.974 152.777C147.044 153.547 148.594 154.327 148.464 154.457C147.007 154.203 145.593 153.746 144.264 153.097C142.875 152.487 141.456 151.946 140.014 151.478C139.806 152.975 139.759 154.49 139.874 155.997L139.944 160.467L146.944 167.647C152.514 173.347 154.324 174.827 155.744 174.827C159.174 174.827 169.744 176.967 175.034 178.647C176.777 179.298 178.574 179.797 180.404 180.137C180.404 179.237 173.744 168.427 172.514 167.257C169.424 165.209 166.226 163.33 162.934 161.627C158.464 159.297 155.094 157.357 155.424 157.357C158.124 158.504 160.758 159.799 163.314 161.237C167.314 163.377 170.764 165.127 171.024 165.127C171.664 165.127 167.134 158.977 162.084 153.017C158.404 148.687 156.974 147.517 154.584 146.677C152.677 146.025 150.865 145.124 149.194 143.997C147.064 142.577 138.904 139.077 138.454 139.467C138.394 139.567 138.644 141.897 139.014 144.747ZM206.334 144.747C206.204 144.877 207.494 146.557 209.244 148.567C212.244 152.197 212.354 152.197 213.194 150.707L214.094 149.217L213.644 150.837C213.504 151.493 213.331 152.14 213.124 152.777C214.375 154.863 215.758 156.867 217.264 158.777L221.474 164.408L222.384 161.747C222.834 160.327 223.384 159.297 223.484 159.417C223.423 160.451 223.182 161.466 222.774 162.417L221.774 165.207L224.884 169.667C226.564 172.067 228.184 174.007 228.574 173.877C229.574 173.617 229.934 170.188 229.354 166.048C228.704 161.648 225.354 156.468 224.234 158.048C223.784 158.628 223.724 158.557 223.984 157.717C224.244 156.877 223.074 154.997 220.034 151.377C215.824 146.377 215.694 146.268 214.854 147.688C214.014 149.107 214.074 149.107 214.404 147.237C214.554 146.577 214.542 145.889 214.368 145.234C214.194 144.579 213.863 143.976 213.404 143.478L212.014 141.777L209.294 143.127C207.834 143.907 206.484 144.617 206.354 144.747H206.334ZM179.404 146.887C169.764 147.597 161.024 147.987 160.054 147.787C158.374 147.467 158.564 147.787 162.644 152.707C168.481 159.563 173.66 166.952 178.114 174.777C181.544 180.777 181.804 181.057 185.234 182.487L188.724 183.978L199.724 182.487C205.814 181.647 211.124 180.797 211.504 180.537C211.884 180.277 211.764 178.088 210.794 173.228C210.205 170.739 209.817 168.208 209.634 165.658C209.764 165.268 210.534 168.507 211.374 172.777C212.994 181.317 213.194 181.517 215.914 176.527L217.464 173.677L215.524 170.837C212.024 165.837 209.634 163.067 209.374 163.837C209.244 164.217 208.594 161.757 207.944 158.327C207.457 156.157 207.155 153.949 207.044 151.728C207.234 151.598 207.754 153.667 208.204 156.327C208.794 159.757 209.204 160.988 209.634 160.408C210.064 159.828 210.144 159.888 209.894 160.728C209.644 161.568 210.894 163.637 213.644 167.397C217.334 172.247 217.914 172.768 218.494 171.728C219.074 170.688 219.144 170.887 218.824 172.307C218.364 174.447 220.694 178.658 222.314 178.658C223.934 178.658 227.624 176.257 227.624 175.357C227.624 174.897 226.264 172.567 224.624 170.177L221.624 165.707L220.464 168.167C219.034 171.167 218.904 170.567 220.264 167.327L221.264 164.938L217.544 159.997C215.544 157.207 213.474 154.557 212.954 153.997C212.434 153.437 210.884 151.477 209.394 149.597C207.514 147.267 206.544 146.487 206.154 147.007C205.764 147.527 205.634 147.338 205.634 146.368C205.634 144.878 205.504 144.877 201.234 145.257C198.844 145.527 189.014 146.237 179.424 146.887H179.404ZM139.944 169.347C140.06 170.674 140.553 171.941 141.364 172.997C142.364 173.777 151.274 174.877 151.274 174.167C151.274 174.037 148.744 171.317 145.574 168.167L139.944 162.467L139.744 164.607C139.631 166.19 139.698 167.78 139.944 169.347ZM131.534 175.347L128.294 176.347L127.514 181.527C127.124 184.377 126.514 190.067 126.284 194.217L125.834 201.717L131.594 202.438C143.054 203.918 157.594 208.257 167.124 213.117C174.054 216.547 188.124 226.057 202.404 236.867C210.944 243.407 222.664 251.428 228.934 255.188C238.644 260.948 245.934 262.688 258.194 262.188C264.794 261.928 264.734 262.057 262.144 255.717C254.574 236.627 230.624 211.717 202.404 193.447C183.764 181.347 170.754 176.877 150.554 175.397C146.024 175.137 141.884 174.547 141.234 174.167C139.814 173.487 135.934 173.938 131.534 175.368V175.347ZM276.444 176.057C271.134 177.417 260.654 182.057 260.654 183.057C261.071 184.628 261.612 186.163 262.274 187.647C263.706 191.678 264.914 195.784 265.894 199.947L267.834 208.238L270.684 209.598C273.404 210.888 273.684 210.887 275.994 209.977C279.036 208.931 282.151 208.109 285.314 207.518C289.134 206.808 292.314 205.907 292.314 205.647C292.314 205.387 288.824 202.537 284.424 199.427C276.004 193.427 274.424 191.597 275.034 188.877C275.624 186.677 278.464 185.577 289.344 183.377L297.954 181.637L294.394 179.048C288.014 174.458 284.864 173.937 276.444 176.077V176.057ZM215.804 177.737C214.444 180.007 214.244 180.647 215.024 180.327C215.823 180.09 216.65 179.959 217.484 179.938C220.264 179.938 220.784 179.037 219.484 176.767C219.115 175.998 218.587 175.316 217.934 174.767C217.083 175.656 216.365 176.663 215.804 177.757V177.737ZM113.734 178.317C94.8937 180.647 81.6237 182.657 80.9137 183.317C79.6837 184.317 79.9137 185.838 81.9137 191.798C87.4737 207.798 93.4337 219.887 99.5837 227.977C113.494 246.227 139.454 272.048 161.134 289.208C168.254 294.838 169.804 295.098 172.914 291.018C174.534 288.818 174.594 288.748 173.494 287.068C172.714 285.838 172.074 285.517 171.034 285.777C169.994 286.037 169.934 286.027 170.584 285.577C171.234 285.127 171.234 284.867 170.254 284.577C168.904 284.117 161.324 274.577 151.034 260.497C130.714 232.667 121.714 211.107 123.144 193.697L123.594 188.327L118.154 188.717C115.154 188.907 107.934 189.367 102.104 189.717C96.2737 190.067 91.4237 190.427 91.2937 190.557C91.3118 191.573 91.4631 192.581 91.7437 193.557C92.0737 195.107 92.2637 196.557 92.0737 196.667C91.8837 196.777 91.3637 194.977 90.7737 192.587C90.4118 191.07 90.1314 189.535 89.9337 187.987C90.0037 187.927 97.9337 187.407 107.544 186.757C117.154 186.107 125.214 185.467 125.474 185.267C125.734 185.067 126.184 183.007 126.374 180.737L126.824 176.667L124.304 177.048C123.014 177.178 118.194 177.827 113.734 178.337V178.317ZM220.524 180.587C218.877 181.015 217.208 181.349 215.524 181.587C214.624 181.615 213.74 181.837 212.934 182.237C212.674 182.497 213.934 183.987 215.654 185.537C217.374 187.087 218.954 188.257 219.084 188.127C218.973 187.205 218.713 186.307 218.314 185.467C217.858 184.654 217.591 183.748 217.534 182.817C217.664 182.627 218.634 184.627 219.534 187.217C223.424 197.767 235.074 216.858 242.904 225.598C245.754 228.768 249.504 233.237 251.254 235.438C253.974 238.938 255.594 240.617 254.684 238.997C250.284 231.297 229.444 192.997 228.684 191.227C227.879 188.689 227.402 186.057 227.264 183.397L226.874 178.097L225.194 178.938C223.693 179.639 222.129 180.198 220.524 180.607V180.587ZM203.174 183.497C203.388 184.481 203.759 185.423 204.274 186.287C205.504 188.617 209.844 192.817 210.424 192.177C210.825 190.818 211.129 189.431 211.334 188.027L212.044 184.147L211.654 188.027C211.144 193.917 210.814 196.378 210.494 196.708C210.294 196.838 210.164 196.118 210.164 195.018C210.21 194.416 210.083 193.814 209.797 193.282C209.512 192.751 209.08 192.312 208.554 192.018C207.644 191.438 206.934 191.018 206.934 191.238C206.934 192.408 210.554 197.517 212.244 198.747C213.404 199.587 215.244 200.947 216.384 201.747C218.384 203.237 218.454 203.237 218.774 201.947C219.034 200.947 218.324 199.948 215.344 197.548C213.274 195.928 211.654 194.437 211.784 194.247C211.914 194.057 213.474 195.248 215.214 196.708C216.357 197.678 217.57 198.564 218.844 199.357C219.034 199.357 219.234 197.087 219.234 194.357V189.357L214.954 185.728L210.684 182.107L207.064 182.688C205.745 182.846 204.443 183.124 203.174 183.517V183.497ZM287.514 184.997C279.814 186.547 276.254 187.997 275.674 189.587C275.094 191.177 280.784 195.677 296.254 206.287C334.824 232.697 334.374 232.438 338.584 232.438C342.204 232.438 348.294 230.948 354.504 228.488L359.684 226.488L354.684 222.488C351.904 220.288 339.864 211.547 327.954 203.007C316.044 194.467 304.794 186.367 303.014 184.997C299.424 182.227 300.524 182.287 287.514 184.997ZM191.394 185.188C192.735 186.305 194.19 187.281 195.734 188.097C198.194 189.457 201.734 191.658 203.734 192.958C205.734 194.258 207.684 195.548 208.134 195.798C208.584 196.048 207.814 194.058 206.264 191.268C201.664 182.668 202.704 183.437 196.684 184.147C193.794 184.427 191.394 184.877 191.394 185.137V185.188ZM333.594 184.927C331.464 185.577 327.964 194.697 327.964 199.357C328.034 201.567 328.354 201.948 334.894 206.548C338.714 209.198 342.014 211.468 342.204 211.598C342.394 211.728 343.114 209.658 343.694 207.068C345.314 200.458 347.314 197.228 350.494 196.318C353.984 195.318 354.494 195.318 357.994 197.098C360.714 198.458 360.914 198.517 359.874 197.357C358.454 195.797 345.874 186.417 343.174 184.997C341.304 183.907 336.764 183.907 333.594 184.877V184.927ZM106.284 187.408C98.7737 187.918 92.1137 188.408 91.4637 188.408C90.6237 188.408 90.3637 188.598 90.8137 189.048C91.5937 189.828 123.434 188.047 124.344 187.107C125.254 186.167 122.724 186.238 106.284 187.408ZM123.824 193.677C122.404 211.807 132.304 234.517 154.704 264.427C161.884 273.937 170.174 284.228 170.494 283.908C170.814 283.588 169.064 281.448 166.994 278.908C136.774 241.768 123.504 214.517 125.184 192.997C125.444 189.307 125.384 187.617 124.924 187.877C124.464 188.137 124.084 190.767 123.824 193.677ZM220.394 200.798C221.761 202.158 223.21 203.434 224.734 204.617C226.674 206.177 228.094 207.527 227.964 207.617C227.834 207.707 225.964 206.457 223.894 204.617C222.57 203.39 221.137 202.285 219.614 201.318C219.424 201.318 219.234 201.898 219.234 202.548C219.234 203.198 220.974 205.268 223.894 207.548C226.414 209.618 229.134 211.888 229.894 212.658C230.654 213.428 232.354 214.988 233.714 216.158L236.174 218.287L234.014 214.997C232.909 213.19 231.604 211.513 230.124 209.997C229.024 209.087 228.384 208.057 228.574 207.727C228.764 207.397 227.664 204.888 226.054 202.098C224.444 199.308 222.494 195.628 221.654 193.878L220.164 190.708L219.834 195.177C219.614 198.407 219.814 199.998 220.394 200.798ZM349.014 198.337C347.264 199.507 344.874 205.338 344.354 209.798L344.024 212.798L347.784 215.587C360.144 224.587 371.924 235.647 376.454 242.247C378.854 245.747 381.054 251.438 381.054 254.098C381.02 255.124 380.671 256.116 380.054 256.938C379.144 257.938 379.204 258.107 381.664 258.497C384.384 258.947 384.964 259.727 383.154 260.697C382.254 261.277 382.254 261.338 383.544 261.798C384.384 262.058 384.834 262.567 384.714 263.087C384.594 263.607 385.614 263.998 388.984 264.318C390.961 264.49 392.927 264.77 394.874 265.158C396.034 265.488 396.104 265.158 395.714 258.818C395.264 250.278 393.574 245.028 389.494 238.818C385.414 232.608 369.824 215.818 360.564 207.688C349.564 197.977 349.504 197.918 350.924 198.628C354.674 200.368 379.334 224.628 386.324 233.318C393.514 242.318 396.554 250.407 396.554 260.757V265.227L401.154 266.007C402.722 266.364 404.326 266.535 405.934 266.518C406.324 266.128 404.324 251.568 403.354 248.208C401.214 240.698 393.644 231.377 373.444 211.637C361.084 199.527 356.874 196.487 352.994 197.007C351.591 197.178 350.237 197.63 349.014 198.337ZM126.744 206.107C127.514 210.767 131.274 221.578 134.744 229.018C141.154 242.618 152.744 259.437 171.504 282.677C175.286 287.529 179.652 291.895 184.504 295.677C199.394 307.257 217.444 317.428 240.614 327.198C250.844 331.468 254.984 332.507 262.944 332.827L268.774 333.017L268.964 317.487C269.294 294.767 267.804 274.768 265.214 264.738L264.564 262.408L259.564 262.857C250.434 263.707 240.214 261.958 233.154 258.458C228.564 256.128 215.034 247.137 205.584 240.077C181.184 221.827 170.894 215.158 160.584 210.958C150.584 206.878 134.824 202.857 127.894 202.667C126.224 202.617 126.224 202.617 126.744 206.107ZM286.474 208.438C278.327 210.058 274.25 211.481 274.244 212.708C274.244 214.978 279.554 218.468 299.484 229.348C321.684 241.448 329.004 243.778 341.554 242.738C345.314 242.418 351.134 241.738 354.504 241.188C361.504 240.028 363.754 239.898 362.274 240.738C359.874 242.028 346.024 243.738 337.354 243.738C329.454 243.738 327.704 243.537 323.764 242.177C317.094 239.847 310.104 236.547 297.154 229.427C277.934 218.947 272.954 215.517 272.954 212.667C272.954 211.757 272.234 210.918 270.684 210.208C269.134 209.498 268.424 209.368 268.424 209.878C269.214 212.145 270.163 214.353 271.264 216.488C274.264 222.698 281.434 233.768 290.624 246.128C295.734 252.928 296.384 253.638 298.624 253.958C301.214 254.348 309.244 253.637 314.674 252.537C321.92 250.956 329.273 249.916 336.674 249.427C350.974 248.647 374.534 253.187 374.534 256.677C374.534 257.387 374.924 257.677 375.634 257.387C379.784 256.287 379.714 256.287 379.714 254.027C379.714 248.457 375.384 241.468 366.254 232.598L360.884 227.298L356.574 228.997C354.184 229.897 349.454 231.388 346.024 232.298C336.124 234.888 336.764 235.148 314.444 220.068C303.894 213.008 294.824 207.188 294.244 207.188C293.664 207.188 290.164 207.728 286.474 208.438ZM329.904 251.087L326.994 251.548L330.234 251.997C337.544 252.997 343.754 256.207 346.414 260.217C347.124 261.217 348.034 262.158 348.414 262.158C350.024 262.158 371.414 257.628 372.484 257.048C373.554 256.468 373.194 256.267 371.124 255.367C367.894 254.007 359.124 251.997 353.524 251.217C347.924 250.437 333.924 250.447 329.904 251.087ZM316.834 252.997C314.834 253.447 314.954 253.507 318.324 253.837C320.302 254.075 322.239 254.576 324.084 255.327C326.674 256.677 327.514 255.967 325.374 254.227C324.474 253.447 324.214 252.997 324.734 253.227C325.683 253.766 326.471 254.55 327.014 255.497C327.953 256.727 329.238 257.65 330.704 258.147C333.484 259.047 339.894 262.807 339.374 263.257C339.184 263.457 338.214 262.997 337.114 262.257C334.974 260.697 329.994 258.367 328.894 258.307C328.184 258.307 328.184 258.758 328.954 263.548L329.284 265.947L334.334 264.947C337.044 264.437 339.574 263.787 339.894 263.467C340.214 263.147 340.224 261.197 339.964 258.997L339.504 255.117L336.504 254.117C334.814 253.597 332.874 253.017 332.164 252.887C330.104 252.447 319.164 252.577 316.834 252.997ZM315.084 256.227C316.238 257.564 317.705 258.594 319.354 259.227C321.387 260.116 323.318 261.223 325.114 262.527C328.424 265.047 328.544 265.117 328.294 263.527C328.164 262.937 327.834 261.317 327.644 260.027C327.324 258.087 326.804 257.307 325.184 256.537C322.636 255.052 319.722 254.31 316.774 254.397L313.664 254.327L315.084 256.227ZM306.934 254.997C310.164 256.357 315.024 257.457 315.024 256.938C315.024 255.938 311.024 254.477 308.224 254.477C306.284 254.457 306.014 254.587 306.934 254.997ZM293.334 255.637C292.334 256.027 292.824 256.357 295.604 256.997C297.551 257.464 299.473 258.028 301.364 258.688C303.434 259.587 303.504 259.528 303.114 258.098C302.937 257.485 302.806 256.86 302.724 256.227C302.724 255.167 295.674 254.717 293.334 255.617V255.637ZM340.654 259.848C340.914 262.048 341.424 263.477 341.884 263.477C343.884 263.477 346.734 262.628 346.734 261.988C346.734 261.348 340.914 255.517 340.524 255.897C340.324 255.997 340.394 257.827 340.654 259.827V259.848ZM303.374 256.158C303.434 258.488 304.534 259.847 307.834 261.527C309.896 262.542 311.867 263.733 313.724 265.087L315.994 266.777L316.184 264.708C316.574 261.078 315.794 258.487 314.184 257.967C307.194 255.747 303.374 255.107 303.374 256.137V256.158ZM292.014 258.857C293.123 260.511 294.7 261.796 296.544 262.548C298.611 263.62 300.525 264.965 302.234 266.548L304.374 268.878L301.914 266.807C299.584 264.807 294.404 261.807 294.014 262.277C293.775 263.69 293.625 265.116 293.564 266.548L293.304 270.628L297.514 270.177C304.374 269.467 304.694 269.177 304.694 265.257C304.694 261.337 304.304 260.527 301.784 259.497C299.264 258.467 291.494 256.498 291.234 256.708C291.347 257.469 291.612 258.2 292.014 258.857ZM279.774 256.717C279.064 256.977 281.074 257.717 284.954 258.717C287.103 259.375 289.315 259.811 291.554 260.018C291.684 259.818 291.364 258.918 290.784 258.018C289.784 256.468 289.294 256.337 285.274 256.337C283.423 256.292 281.571 256.42 279.744 256.717H279.774ZM264.504 257.827C265.154 258.407 265.214 258.337 264.824 257.438C264.634 256.788 264.244 256.438 264.054 256.658C263.864 256.878 264.014 257.367 264.474 257.827H264.504ZM269.094 257.887C270.146 258.513 271.28 258.991 272.464 259.307C274.097 259.801 275.678 260.454 277.184 261.257C278.874 262.417 279.454 262.417 279.454 261.057C279.454 258.727 277.514 257.628 273.174 257.628C271.798 257.551 270.419 257.638 269.064 257.887H269.094ZM356.794 261.768C338.544 265.528 326.574 267.528 311.034 269.598C299.584 271.088 270.524 274.458 269.094 274.458C268.714 274.458 268.454 274.908 268.454 275.458C268.454 276.008 269.094 276.458 270.324 276.458C275.504 276.458 294.014 274.197 309.874 271.607C319.644 269.987 332.724 268.107 338.874 267.397C356.734 265.327 375.184 262.348 379.774 260.798L382.014 259.997L378.774 259.158C374.694 258.148 374.014 258.208 356.764 261.768H356.794ZM279.714 260.477C279.774 261.707 279.844 262.607 279.974 262.477C280.104 262.347 280.814 262.857 281.594 263.577C283.488 265.059 285.476 266.419 287.544 267.647C290.714 269.647 292.204 270.237 292.544 269.717C293.264 268.617 293.194 263.317 292.414 262.147C291.904 261.367 282.834 258.457 280.414 258.327C279.944 258.277 279.684 259.247 279.684 260.477H279.714ZM316.864 263.197L317.124 267.467L321.074 267.077C323.274 266.817 325.734 266.428 326.504 266.238C327.864 265.918 327.804 265.848 325.794 264.098C324.044 262.488 317.964 258.987 316.994 258.927C316.774 258.927 316.774 260.867 316.834 263.197H316.864ZM265.404 260.348C265.534 261.188 266.254 264.347 266.894 267.467C268.254 274.007 267.354 273.547 277.514 272.467C284.514 271.627 284.764 271.467 283.074 268.137C280.554 263.277 273.304 259.137 267.224 259.007C265.314 258.927 265.014 259.118 265.374 260.348H265.404ZM305.214 265.137C305.474 269.137 305.534 269.347 306.834 269.137C308.543 268.773 310.273 268.512 312.014 268.357C315.114 267.967 315.634 267.707 315.014 266.938C314.394 266.168 306.084 260.938 305.374 260.938C305.114 260.867 305.114 262.807 305.184 265.137H305.214ZM368.574 263.717C355.954 265.917 347.414 267.147 336.794 268.307C331.884 268.827 319.904 270.577 310.264 272.188C300.624 273.798 287.484 275.557 281.074 276.137C269.744 277.137 266.964 277.817 269.424 278.727C271.364 279.507 293.244 277.107 311.164 274.137C320.614 272.577 332.524 270.827 337.704 270.247C356.604 268.117 382.624 263.718 381.974 262.738C381.324 261.758 378.454 261.997 368.544 263.717H368.574ZM364.574 267.598C357.064 268.828 345.744 270.447 339.394 271.217C333.044 271.987 319.914 273.807 310.274 275.427C295.644 277.817 275.384 280.277 270.144 280.277C267.034 280.277 270.534 281.448 275.904 282.158C285.544 283.518 292.794 285.267 295.454 286.947C298.944 289.147 303.454 294.257 305.874 298.857C313.874 313.857 321.344 355.427 317.394 362.997C316.394 364.937 312.084 368.887 310.854 368.997C309.726 369.301 308.638 369.737 307.614 370.297L305.014 371.547L310.514 371.217C322.034 370.567 328.184 367.598 331.094 361.318C332.514 358.148 332.714 356.788 332.714 351.158C332.714 343.708 331.544 337.107 327.984 323.327C322.874 303.517 318.474 292.777 313.684 288.117C309.229 284.152 303.72 281.564 297.824 280.667C295.044 280.217 293.164 279.667 293.684 279.507C294.204 279.347 298.404 278.667 303.064 278.147C307.724 277.627 315.814 276.467 321.064 275.688L330.704 274.268L337.894 275.688C354.264 278.928 362.094 286.167 367.664 303.257C375.434 326.947 376.784 347.258 371.284 356.658C370.054 358.658 370.054 358.918 371.024 359.658C371.994 360.398 373.424 360.368 382.024 359.198C385.974 358.688 386.814 358.298 388.624 356.418C391.474 353.308 392.314 349.878 392.244 340.818C392.184 321.078 383.384 292.537 374.194 282.307C371.014 278.817 365.384 275.578 358.784 273.438C356.264 272.668 354.124 271.697 353.994 271.367C353.864 271.037 355.424 270.528 357.554 270.268C359.684 270.008 364.994 269.267 369.554 268.587C379.254 267.167 384.824 267.038 394.014 268.268C405.794 269.878 412.134 273.267 417.184 280.757C425.794 293.637 432.464 322.368 430.324 338.038C430.028 340.782 429.465 343.492 428.644 346.128C426.764 350.528 429.544 350.847 433.364 346.707C439.964 339.587 440.094 333.567 434.364 310.397C430.024 292.727 425.814 281.988 421.414 277.068C416.114 271.178 408.924 268.267 395.274 266.387C390.804 265.807 386.724 265.217 386.204 265.087C384.214 264.557 377.744 265.328 364.534 267.598H364.574ZM283.994 268.598C285.224 271.058 285.544 271.247 287.874 271.247C289.304 271.247 290.464 270.988 290.464 270.738C290.464 270.148 283.214 265.357 282.824 265.688C283.024 266.708 283.407 267.683 283.954 268.568L283.994 268.598ZM364.254 270.477L356.804 271.637L361.014 272.807C365.484 274.037 365.284 274.037 378.164 271.637C384.444 270.477 388.004 270.348 393.054 271.318C405.544 273.648 415.124 283.227 420.824 299.147C423.734 307.297 426.454 320.567 426.714 328.207L426.974 334.357L426.384 328.527C424.764 310.667 419.204 293.317 412.144 283.997C409.473 280.401 406.052 277.428 402.119 275.283C398.186 273.139 393.834 271.875 389.364 271.577C385.094 271.187 376.934 271.967 376.034 272.867C375.834 272.997 376.034 274.357 376.484 275.717C376.924 277.378 378.002 278.797 379.484 279.667C385.634 283.417 390.874 294.878 395.794 315.268C399.224 329.568 399.484 344.647 396.374 352.807C396.114 353.517 397.024 354.357 399.484 355.647C403.044 357.587 403.044 357.588 408.604 356.818C416.374 355.818 420.604 353.708 423.104 349.888C425.268 346.259 426.408 342.112 426.404 337.888C426.326 336.908 426.506 335.926 426.924 335.038C427.574 334.648 426.604 343.708 425.764 345.978C424.924 348.248 425.564 348.977 426.764 347.337C428.184 345.397 429.674 337.688 429.674 332.258C429.674 322.418 427.344 308.627 423.784 297.757C416.214 274.457 406.894 268.178 381.134 268.958C375.864 269.148 368.294 269.797 364.214 270.447L364.254 270.477ZM369.174 273.837C368.454 273.837 368.174 274.038 368.334 274.298C368.974 274.878 375.454 277.138 375.704 276.818C375.812 276.146 375.746 275.457 375.514 274.818C375.124 273.198 374.864 273.078 372.734 273.458C371.541 273.64 370.339 273.757 369.134 273.807L369.174 273.837ZM369.564 277.007C374.564 280.247 377.714 284.067 381.404 291.637C387.014 303.568 390.832 316.262 392.734 329.307C393.444 334.037 393.374 349.758 392.664 352.158C392.534 352.738 392.924 353.158 393.764 353.318C396.164 353.648 397.394 348.857 397.764 338.237C398.024 330.237 397.894 328.237 396.344 320.957C395.434 316.367 393.684 309.377 392.524 305.427C386.894 286.427 382.744 280.637 371.744 276.427C367.014 274.587 366.084 274.847 369.524 276.997L369.564 277.007ZM318.944 277.077C314.154 277.847 308.004 278.757 305.354 279.147L300.564 279.857L303.734 280.857C306.844 281.767 309.884 281.697 317.654 280.667C319.264 280.407 320.244 280.468 319.784 280.798C318.554 281.698 319.784 286.618 321.664 288.048C328.014 292.998 339.014 331.217 339.014 348.497C339.014 353.547 337.654 360.087 336.354 361.497C335.454 362.407 335.644 362.988 337.064 363.438C338.582 364.168 340.017 365.06 341.344 366.098L344.344 368.357L348.944 367.647C363.504 365.447 368.944 356.198 367.944 335.288C366.944 313.478 359.334 292.288 350.334 286.098C345.094 282.478 339.334 280.918 328.334 280.268L320.564 279.818L326.514 279.757C336.744 279.557 346.904 282.217 351.764 286.417C359.394 292.957 365.484 308.037 367.874 326.487C369.234 336.577 368.874 348.297 367.034 353.607C365.744 357.297 365.744 357.358 366.974 358.008C368.714 358.908 369.754 357.938 371.504 353.538C372.794 350.238 372.994 348.748 372.994 339.168C372.924 327.328 371.994 321.827 367.744 307.587C362.374 289.717 356.094 281.888 344.184 278.268C334.894 275.488 330.814 275.298 318.904 277.048L318.944 277.077ZM312.344 282.188C311.504 282.518 312.214 283.027 315.064 284.327L318.944 286.007V284.518C318.944 281.608 318.364 281.028 315.834 281.408C314.642 281.583 313.463 281.834 312.304 282.158L312.344 282.188ZM269.944 298.887C270.404 310.407 270.404 324.128 269.944 341.888C269.564 356.258 269.564 368.097 269.824 368.357C270.594 368.817 294.284 370.557 300.494 370.557C305.154 370.557 306.194 370.307 310.204 368.297C312.664 367.067 315.254 365.298 315.904 364.348C318.814 360.348 318.364 348.487 314.734 330.438C310.854 311.077 307.484 301.497 301.794 293.997C297.584 288.357 293.574 285.998 286.134 284.548C280.694 283.548 269.494 281.697 269.364 281.827C269.234 281.957 269.524 289.537 269.904 298.857L269.944 298.887ZM310.494 283.997C316.574 288.137 319.744 293.188 323.954 305.488C327.585 316.603 330.547 327.927 332.824 339.397C333.924 345.807 334.054 354.938 333.144 358.878C332.754 360.698 332.754 361.597 333.334 361.927C334.694 362.827 335.154 362.507 336.574 359.337C338.644 354.737 338.844 346.068 337.024 335.908C333.724 316.618 326.734 294.547 322.594 290.077C320.137 287.529 317.126 285.582 313.794 284.387C309.524 282.607 308.224 282.487 310.494 283.997ZM173.404 292.277C171.274 295.127 171.274 295.197 172.504 296.277C186.174 308.239 201.028 318.776 216.834 327.728C226.354 333.168 242.664 341.188 247.964 343.008C251.724 344.298 267.384 346.237 268.094 345.467C268.528 343.552 268.789 341.6 268.874 339.638L269.264 334.138L263.504 333.688C254.824 333.038 251.394 332.198 242.504 328.638C227.164 322.418 210.074 313.817 198.164 306.177C192.274 302.417 179.844 293.097 177.844 290.967C177.28 290.318 176.627 289.753 175.904 289.287C174.952 290.193 174.112 291.211 173.404 292.318V292.277ZM422.464 351.698C419.944 354.548 415.344 356.487 408.874 357.397L403.694 358.107L407.184 361.797C412.257 367.396 416.43 373.748 419.554 380.628L422.074 386.198L427.314 387.038C435.604 388.398 444.474 391.887 444.474 393.827C444.474 394.347 444.794 394.827 445.184 394.827C445.764 394.827 445.824 392.368 445.574 385.888C445.054 373.398 442.654 365.377 437.354 358.057C435.354 355.207 429.454 350.487 427.354 349.967C424.794 349.407 424.344 349.537 422.464 351.737V351.698ZM389.514 357.397C388.674 358.397 388.094 359.337 388.224 359.467C388.354 359.597 389.844 360.108 391.594 360.758C400.264 363.998 408.034 372.477 417.484 389.297C419.484 392.857 421.684 396.617 422.484 397.717L423.774 399.658V397.388C423.774 390.728 417.564 376.168 410.894 367.228C406.694 361.538 403.064 358.297 398.534 355.967C394.004 353.637 392.534 353.377 391.744 354.547C391.334 355.107 390.364 356.398 389.514 357.438V357.397ZM362.784 361.467C359.094 365.677 355.604 367.227 347.194 368.587L344.794 368.978L346.864 371.978C348.034 373.668 350.864 378.778 353.274 383.438L357.614 391.848L364.614 393.848C367.877 394.722 371.094 395.76 374.254 396.957C380.204 399.477 384.254 403.617 383.314 406.337C382.994 407.437 384.674 408.867 385.384 408.087C386.094 407.307 387.524 400.517 387.914 396.307C388.814 386.147 384.154 371.388 378.134 365.568C375.354 362.848 368.134 358.508 366.224 358.508C365.764 358.598 364.214 359.888 362.784 361.508V361.467ZM375.994 361.077C374.764 361.147 375.084 361.667 378.324 364.897C380.969 367.368 382.988 370.432 384.214 373.837C385.314 376.617 386.544 379.527 386.934 380.177C389.457 384.528 391.496 389.142 393.014 393.938C394.434 399.378 394.304 405.937 392.694 409.017C391.074 412.317 386.934 415.818 382.524 417.628C379.944 418.628 379.164 419.307 379.424 420.017C380.584 423.017 381.684 429.467 381.814 434.457C381.944 437.627 382.274 440.147 382.524 440.147C382.984 440.147 426.344 430.247 443.754 426.147C445.314 425.827 445.314 425.828 444.854 419.228C444.682 415.816 444.27 412.421 443.624 409.068C442.784 405.698 442.624 405.508 440.844 405.628C439.844 405.758 436.894 405.887 434.434 405.957C426.734 406.147 424.534 404.207 416.314 389.707C409.394 377.477 404.084 370.357 399.034 366.607C392.104 361.427 386.864 359.747 380.714 360.607C378.904 360.867 376.834 361.117 376.014 361.117L375.994 361.077ZM329.134 365.997C327.424 367.79 325.387 369.239 323.134 370.267L320.674 371.047L325.594 373.177C334.784 377.127 336.404 378.808 348.594 396.478C351.594 400.758 355.004 405.477 356.234 407.027C358.234 409.427 358.634 409.687 359.144 408.717C361.024 405.417 357.854 393.638 352.144 382.628C348.004 374.798 345.804 371.498 342.504 368.198C340.364 366.058 334.404 362.497 333.054 362.497C331.607 363.497 330.29 364.673 329.134 365.997ZM443.434 366.837C444.39 369.27 445.561 371.613 446.934 373.837C450.814 379.837 453.404 389.307 452.564 394.747C452.044 398.047 449.324 401.478 445.634 403.348C444.765 403.735 443.94 404.214 443.174 404.777C443.174 404.837 443.624 406.527 444.174 408.467C444.904 411.901 445.382 415.384 445.604 418.888L445.984 425.747L455.374 423.547C458.664 422.873 461.915 422.022 465.114 420.997C465.954 420.157 465.244 408.997 463.954 403.077C460.324 385.917 453.144 371.748 444.664 364.948C443.374 363.948 442.264 363.138 442.204 363.138C442.521 364.393 442.932 365.623 443.434 366.818V366.837ZM111.784 369.668C104.154 371.478 97.1637 373.357 96.2537 373.807C94.7637 374.587 94.8937 374.647 98.5237 375.107C106.821 376.252 114.991 378.181 122.924 380.867C129.924 383.197 131.274 383.447 132.304 382.737C133.522 381.983 134.857 381.436 136.254 381.117C138.254 380.607 139.254 379.957 139.684 378.857C140.784 375.947 140.394 375.107 136.514 373.027C134.514 371.867 131.404 369.928 129.584 368.698C128.482 367.832 127.315 367.053 126.094 366.367C125.894 366.367 119.494 367.858 111.784 369.668ZM269.064 371.158C269.064 372.648 269.324 372.768 273.724 373.098L287.724 374.098C299.244 375.008 307.594 376.297 312.834 378.047C324.094 381.737 335.834 394.817 340.924 409.247C342.804 414.687 346.234 429.897 348.304 441.607C349.014 445.747 349.664 447.888 350.184 447.698C350.704 447.508 357.624 445.878 365.914 444.008C378.914 441.008 380.914 440.377 381.244 439.277C381.704 437.397 380.534 426.137 379.504 422.647L378.664 419.728L373.544 419.668C369.854 419.668 367.724 419.277 366.164 418.497C361.764 416.167 356.264 409.568 345.004 393.258C336.784 381.348 334.064 378.568 327.394 375.198L321.894 372.487L307.894 372.098C300.194 371.838 290.424 371.317 286.154 370.927C281.884 370.537 276.894 370.157 275.154 370.027C273.414 369.897 271.274 369.768 270.434 369.698C269.394 369.598 269.064 369.928 269.064 371.158ZM268.934 375.557C268.744 377.627 270.554 413.287 271.264 421.247C272.114 430.567 274.574 434.127 283.504 438.527C290.294 441.897 294.634 442.867 323.764 447.207C349.584 451.027 348.674 450.957 348.674 449.207C348.674 444.747 343.174 417.887 340.844 410.767C335.844 395.877 324.794 383.257 312.844 378.767C307.014 376.627 292.974 374.888 271.224 373.658C269.324 373.488 269.134 373.677 268.934 375.557ZM446.414 379.307C446.821 382.766 447.035 386.245 447.054 389.728C447.054 395.818 447.124 395.948 448.744 396.728C449.744 397.118 450.614 397.377 450.744 397.188C451.594 396.408 451.654 390.577 450.944 386.957C450.164 383.007 446.674 374.267 446.084 374.857C446.02 376.349 446.131 377.842 446.414 379.307ZM92.2437 379.047C90.7537 383.517 87.1237 403.577 87.5837 404.807C88.2184 405.687 89.0934 406.364 90.1037 406.758C92.8237 408.048 122.104 415.757 122.594 415.297C123.078 413.431 123.382 411.522 123.504 409.598C124.284 402.808 124.994 400.148 127.324 395.598C129.074 392.228 130.494 387.507 130.554 385.107C130.614 382.707 103.184 375.338 95.6037 375.658C93.4737 375.748 93.2737 375.997 92.2437 379.047ZM140.334 378.728C139.234 382.348 136.834 384.487 133.864 384.487C131.464 384.487 131.464 384.487 130.684 388.177C129.993 391.04 128.987 393.817 127.684 396.457C125.094 401.897 122.684 414.968 124.054 415.878C124.704 416.268 229.814 442.737 230.654 442.737C231.044 442.737 231.494 441.188 231.654 439.378C232.062 436.947 232.823 434.588 233.914 432.378L235.734 428.747L190.424 416.908C165.424 410.368 144.594 404.738 144.084 404.408C142.654 403.638 143.084 403.697 191.654 416.517L236.314 428.297L238.574 426.677C242.784 423.677 245.694 420.467 246.734 417.677C247.173 416.729 247.457 415.716 247.574 414.677C247.444 414.607 244.574 413.827 241.164 412.987C222.524 408.527 170.164 389.237 148.614 378.987C146.382 377.867 144.092 376.865 141.754 375.987C141.434 376.077 140.784 377.308 140.334 378.728ZM135.474 381.897C134.713 382.058 134.002 382.401 133.404 382.897C132.244 383.807 132.244 383.807 133.864 383.897C135.061 383.811 136.196 383.333 137.094 382.538C138.324 381.538 138.394 381.308 137.484 381.538C136.83 381.736 136.155 381.857 135.474 381.897ZM388.544 390.767C388.934 396.077 388.484 399.767 386.544 407.207C386.154 408.697 386.344 409.018 388.224 409.668C390.874 410.568 390.554 410.668 391.594 408.568C393.854 404.098 393.404 397.688 390.234 389.568C389.71 388.059 389.081 386.589 388.354 385.168C388.289 387.036 388.352 388.907 388.544 390.767ZM422.724 388.497C422.984 389.337 423.494 391.667 423.884 393.677L424.604 397.367L427.904 398.147C433.074 399.247 442.464 397.047 443.434 394.457C444.144 392.707 437.484 389.667 429.264 387.987C423.014 386.757 422.274 386.817 422.724 388.497ZM265.894 406.688C264.894 411.218 262.724 413.998 259.294 414.908L256.774 415.617V422.997C256.774 431.407 256.314 430.897 262.774 430.057L265.684 429.668L265.754 426.668C265.814 423.108 266.754 420.318 268.604 418.378C269.834 417.088 269.834 416.628 269.184 405.628C268.794 399.348 268.404 393.268 268.404 392.098C268.404 390.928 267.954 392.937 267.504 396.497C267.054 400.057 266.354 404.618 265.894 406.688ZM358.064 393.997C359.66 398.256 360.364 402.796 360.134 407.337L359.874 411.737L363.044 414.587C367.254 418.337 370.234 419.177 376.044 418.207C381.854 417.237 389.444 413.358 389.444 411.418C389.444 411.028 387.824 410.057 385.824 409.337C382.324 407.977 382.194 407.977 379.214 409.087C374.044 411.027 366.014 412.087 362.844 411.087C361.414 410.637 360.314 410.187 360.444 410.087C360.574 409.987 361.804 410.148 363.104 410.538C367.634 411.958 381.544 408.788 382.584 406.068C383.874 402.768 377.664 398.628 366.144 395.068C358.124 392.578 357.414 392.517 358.064 393.997ZM441.494 396.848C437.494 398.788 430.944 399.698 427.494 398.848C424.324 398.008 424.064 398.138 424.644 400.138C425.224 402.138 428.724 404.477 432.214 404.927C437.584 405.637 448.914 401.567 449.494 398.647C449.624 397.807 446.844 396.067 444.494 395.547C443.44 395.843 442.43 396.281 441.494 396.848ZM247.384 417.848C246.224 420.848 243.824 423.608 238.324 428.068C236.606 429.529 235.16 431.282 234.054 433.247C232.494 436.747 231.724 442.698 232.824 442.698C235.474 442.698 253.984 439.207 254.694 438.557C255.214 438.037 255.604 434.287 255.924 426.707L256.314 415.647L254.764 415.318C253.924 415.188 252.174 414.997 250.884 414.927C248.684 414.907 248.484 415.098 247.384 417.888V417.848ZM267.064 424.448C266.354 427.358 266.414 428.268 267.514 431.448C268.101 433.31 268.997 435.061 270.164 436.628C271.784 438.378 274.954 438.697 276.164 437.207C276.814 436.427 276.494 435.717 274.354 433.327C271.764 430.407 270.994 428.278 269.954 421.478C269.634 418.958 269.504 418.827 268.664 419.857C267.9 421.311 267.361 422.872 267.064 424.487V424.448ZM406.934 435.297C376.514 442.297 351.074 448.107 350.494 448.297C348.874 448.747 349.774 450.558 351.494 450.168C359.844 448.488 372.014 445.707 407.544 437.487C460.684 425.127 461.984 424.797 463.544 423.177L464.834 421.888L463.544 422.277C462.854 422.477 437.354 428.307 406.934 435.297Z" fill="#010101"/>
</svg>
