<svg width="424" height="391" viewBox="0 0 424 391" fill="none" xmlns="http://www.w3.org/2000/svg">
<path d="M108.42 0.582575C118.258 1.22981 123.177 2.13595 130.88 4.66019C136.187 6.47246 138.711 6.92552 144.795 7.18442C154.763 7.70221 158.064 8.7378 162.724 13.0743C165.183 15.3396 169.196 17.8639 174.309 20.4528C192.626 29.8378 212.432 43.9476 233.014 62.4587C246.8 74.821 250.425 80.8403 254.826 98.7041C256.121 103.817 257.739 104.982 268.289 108.348C278.386 111.519 282.722 113.461 290.36 118.186C292.948 119.804 295.99 121.228 297.091 121.358C299.356 121.616 303.24 123.946 310.359 129.448C315.149 133.073 347.058 165.305 353.206 172.748C359.355 180.127 361.685 185.823 362.915 196.308C364.015 206.016 364.08 206.146 365.957 206.664C372.365 208.217 379.937 214.56 383.174 221.032C386.863 228.282 393.076 249.964 395.73 264.915C396.636 270.223 396.701 271.841 396.054 275.789C395.148 280.773 393.271 284.527 390.164 287.504L388.222 289.381L391.07 291.905C392.623 293.264 394.5 295.4 395.212 296.565C395.924 297.73 398.254 299.931 400.39 301.355C411.329 309.057 419.549 326.144 422.849 348.086C424.144 356.888 423.691 360.577 420.908 363.36C418.642 365.626 418.837 365.561 368.74 377.211C308.353 391.256 309.777 390.933 304.34 390.998C298.903 391.062 289.971 389.833 264.211 385.626C247.318 382.842 243.176 381.872 238.516 379.283C235.732 377.794 235.15 377.729 232.885 378.376C227.577 379.995 224.794 378.7 222.723 373.652C221.428 370.545 221.234 370.48 216.38 371.127L213.403 371.58V374.428C213.403 379.347 212.302 379.865 198.84 382.066L187.189 383.943L138.647 371.775C43.2434 347.762 43.9553 347.956 42.0783 345.044C41.0427 343.425 40.8486 344.914 44.6026 325.109C46.2854 316.047 47.321 313.458 49.9099 311.905C51.7869 310.74 63.1783 307.633 75.0228 305.044C77.806 304.462 80.0713 303.75 80.0713 303.491C80.0713 303.167 79.4241 302.455 78.7121 301.743C76.4468 299.737 68.2915 289.899 63.1136 283.038C34.5056 244.657 13.535 189.835 3.04976 125.5C-0.833682 101.681 -0.96313 89.9017 2.40252 70.0314C5.70344 50.6789 14.7648 20.647 19.8133 12.3623C21.6255 9.44976 25.962 7.18442 32.5639 5.69577C35.7354 4.98381 39.6188 4.07767 41.2369 3.68933C42.855 3.30098 47.0621 2.58902 50.6219 2.13595C54.1817 1.68288 58.2593 0.970919 59.6832 0.582575C62.6605 -0.194113 96.8995 -0.194113 108.42 0.582575ZM57.871 3.04209C56.1881 4.40129 56.5118 5.56632 59.4243 9.32031L62.078 12.7507L64.4081 10.2912C67.7737 6.73135 72.3044 6.01939 87.9029 6.6019C94.44 6.79608 107.255 7.1197 116.317 7.31387C131.786 7.63749 132.692 7.63749 130.556 6.66663C122.66 3.04209 110.686 1.94178 80.6538 2.07123C63.2431 2.13595 58.7124 2.33012 57.871 3.04209ZM47.0621 4.46601C41.1075 5.37215 40.8486 5.88994 43.5022 10.5501C45.2498 13.5921 45.7676 14.1746 46.1559 13.2685C46.8032 11.5857 49.7805 10.2912 54.117 9.77338L58.0004 9.38504L56.7707 7.76694C56.0587 6.92552 55.4762 5.63105 55.4762 4.98381C55.4762 3.49515 53.5345 3.43043 47.0621 4.46601ZM33.0817 7.37859C27.5154 8.67307 22.5964 11.1326 21.6903 13.139C20.59 15.5985 21.755 17.2166 29.5219 24.0774C46.9973 39.4817 71.5277 67.1188 79.2299 80.0636C83.8253 87.701 84.2784 89.8369 84.2784 103.17V114.885L86.3495 113.979C87.5146 113.526 89.9741 112.879 91.8511 112.62C93.8575 112.296 95.2167 111.778 95.152 111.325C95.0225 110.937 94.8284 106.277 94.6989 101.034C94.3106 87.8952 92.8219 83.2351 86.2201 73.9796C78.0649 62.5881 62.4664 44.6596 45.7029 27.3783C38.9068 20.3881 36.7062 17.2814 36.7062 14.8866C36.7062 13.6568 38.5185 11.3915 40.266 10.3559C41.0427 9.96755 41.1722 9.32031 40.9133 8.09056C40.3955 6.01939 39.2952 5.88994 33.0817 7.37859ZM81.9483 9.06142C81.8188 11.0679 81.8188 11.0679 81.5599 9.38504C81.3011 7.70221 81.1069 7.63749 77.4176 7.63749H73.5989L73.4695 11.6504L73.34 15.728L73.1458 11.6504C72.8869 7.63749 72.8869 7.63749 71.1394 8.02583C68.4857 8.67307 68.421 8.7378 68.421 12.4271C68.421 15.728 68.4857 15.9222 70.4921 16.5694L72.628 17.2814L70.4921 16.9577L68.421 16.5694V22.1357V27.6372L71.0099 28.3492C72.4339 28.7375 73.5989 29.1906 73.5989 29.3847C73.5989 29.5789 72.9517 29.5142 72.1102 29.32C71.3336 29.0611 70.1685 28.7375 69.5213 28.6081C68.6799 28.3492 68.421 28.6728 68.2915 30.0967C68.2268 31.0676 68.0326 28.4139 67.7737 24.1421L67.4501 16.3752L65.3142 16.1811C63.3725 15.9869 63.2431 16.1163 63.2431 17.9286C63.2431 22.0062 64.6023 26.4722 66.0262 27.0547C67.2559 27.5725 67.3207 27.6372 66.2204 27.6372C65.5731 27.7019 65.1848 28.0255 65.3142 28.4786C65.5084 28.9317 66.1556 30.9381 66.8029 32.8798C67.9032 36.0513 68.0326 36.2455 68.4857 34.8216C68.874 33.5271 68.9388 33.7213 69.0035 35.9219C69.0682 37.4105 69.3271 39.3522 69.7155 40.2584C70.2333 41.747 70.4921 41.8765 71.9808 41.294C74.8934 40.1936 76.8351 40.582 78.8415 42.5884C79.9418 43.624 81.3011 44.7891 81.8836 45.1774C82.5308 45.5657 82.6603 45.8246 82.1425 45.8246C81.4952 45.8246 81.5599 46.2777 82.3366 47.7664C82.9192 48.8019 83.4369 49.7081 83.5664 49.7081C83.6958 49.7081 83.8253 47.5722 83.89 44.9832C83.9547 40.5173 83.8253 40.1289 81.0422 35.9219C79.1652 33.2035 77.3529 31.2617 75.9937 30.6145C74.8934 30.0967 74.5698 29.8378 75.3464 30.032C77.1587 30.4203 77.094 30.7439 75.5406 26.5369C74.8287 24.6599 74.2461 22.6535 74.2461 22.0062C74.2461 21.4237 74.9581 22.7829 75.7348 25.113C76.5762 27.6372 79.1004 32.1032 81.8836 36.116C86.5437 42.8473 88.6796 45.501 98.2587 56.6335C105.378 64.8535 114.246 77.2158 116.511 81.9406C118.388 85.9535 118.517 86.0829 120.459 85.6946C121.559 85.4357 123.501 85.3063 124.731 85.3063C125.961 85.3063 132.951 84.9179 140.265 84.3354C147.578 83.8176 154.439 83.3645 155.604 83.3645C157.481 83.3645 157.74 83.1056 158.97 79.9342C159.682 78.1219 160.264 76.9569 160.264 77.4099C160.329 77.863 159.876 79.2869 159.358 80.5814C158.84 81.8759 158.517 83.0409 158.711 83.2351C158.84 83.4293 160.005 82.5231 161.3 81.2286C162.53 79.9989 163.565 79.1575 163.565 79.4164C163.565 79.6753 163.242 80.1931 162.789 80.6461C161.3 82.1348 162.918 82.1995 165.636 80.7109C169.196 78.7044 171.332 75.5329 171.332 72.1026C171.332 70.0314 170.685 68.5427 168.355 65.0477C166.154 61.8762 165.183 60.8406 164.795 61.4878C164.471 62.0056 164.277 61.0348 164.342 59.093C164.342 57.2808 164.536 56.5688 164.666 57.475C164.989 59.1578 170.685 68.025 171.203 67.5719C171.332 67.3777 171.267 64.724 171.008 61.5526C170.491 55.9216 170.491 55.8569 167.837 53.4621C166.413 52.1029 164.989 51.0026 164.73 51.0026C164.407 51.0026 164.148 51.9734 164.148 53.0737C164.083 54.9507 163.954 54.8213 163.5 52.297C163.242 50.6789 163.047 48.3489 163.047 47.1191L163.112 44.8538L163.371 46.9249C163.565 48.4783 164.471 49.7081 166.931 51.7792L170.232 54.5624L169.779 50.0317C169.002 42.0059 168.808 41.3587 165.054 37.54L161.559 33.8507L161.882 37.4105L162.206 40.9703L161.3 36.828C160.717 34.4979 160.588 32.4915 160.847 32.2973C161.17 32.1032 161.882 30.7439 162.4 29.2553L163.5 26.6016L157.805 20.5823C154.18 16.6988 151.915 14.6924 151.397 15.016C150.815 15.3396 151.332 16.3752 153.145 18.5111C155.863 21.812 159.293 27.7019 160.005 30.2909C160.2 31.197 159.164 29.4495 157.675 26.4074C155.475 22.1357 153.662 19.6761 149.261 15.2749C146.154 12.1682 144.083 9.8381 144.666 10.1617C145.313 10.4853 146.608 11.6504 147.643 12.7507C149.52 14.6924 151.268 15.4044 151.268 14.1746C151.268 13.851 150.167 12.686 148.873 11.5857C147.514 10.4853 146.737 9.57921 147.061 9.57921C147.384 9.57921 148.679 10.6148 149.973 11.8445C151.397 13.2685 152.562 13.851 153.08 13.5274C153.662 13.2038 153.145 12.4918 151.397 11.0679C149.197 9.25559 148.42 9.06142 144.989 9.12614L141.106 9.19086L144.536 11.974C149.197 15.7927 154.763 23.0418 156.446 27.5077C157.158 29.4495 157.675 31.2617 157.481 31.3912C157.352 31.5206 156.899 30.5498 156.446 29.1906C154.698 23.689 149.52 16.7636 143.307 11.7151L139.941 8.93197L126.025 8.86724C115.152 8.80252 93.1455 7.89638 83.1133 7.05497C82.2719 6.99025 82.013 7.50804 81.9483 9.06142ZM157.352 15.0807C161.106 18.8347 164.795 21.6826 169.196 24.3363C179.358 30.3556 191.526 38.1872 191.202 38.4461C191.073 38.6403 188.743 37.3458 186.154 35.5982C179.552 31.2617 165.183 22.524 164.601 22.524C164.407 22.524 165.442 24.3363 166.931 26.5369C168.484 28.8022 170.879 32.9446 172.368 35.8571C174.957 41.0351 175.021 41.0998 175.669 39.3522C176.575 36.8927 179.293 35.2099 181.494 35.7277C182.4 35.9866 184.212 37.2163 185.377 38.3814C187.578 40.582 187.643 40.582 189.843 39.6759C191.461 39.0286 192.562 38.8992 193.727 39.3522C194.633 39.7406 196.38 39.9995 197.61 39.9995C202.529 39.9995 206.607 43.171 210.814 50.2906C212.173 52.6207 213.856 54.886 214.568 55.3391C217.027 56.8277 229.972 68.4133 232.302 71.2612C239.033 79.4164 241.752 85.5004 243.499 96.633C244.082 100.193 244.988 103.753 245.506 104.594C246.994 106.859 250.036 108.413 254.761 109.254C265.635 111.196 272.69 113.979 283.175 120.387C287.835 123.235 287.835 123.235 290.683 122.393C292.56 121.811 292.56 121.811 287.641 118.769C281.298 114.756 277.674 113.202 267.124 109.901C255.473 106.212 254.438 105.241 252.043 95.3385C248.613 81.4228 243.823 74.3032 229.195 61.5526C208.484 43.4298 187.319 28.6081 170.361 20.4528C166.672 18.7053 163.759 16.7636 162.271 15.1455C160.2 12.8154 154.633 9.57921 152.692 9.57921C152.239 9.57921 154.31 12.0387 157.352 15.0807ZM64.9259 11.0031C64.4081 11.8445 63.8256 13.139 63.5667 13.9157C63.1783 15.2749 63.3725 15.4044 65.4437 15.4044C67.7737 15.4044 67.7737 15.4044 67.7737 12.4918C67.7737 9.19086 66.544 8.54362 64.9259 11.0031ZM48.5507 12.5565C46.1559 14.3688 45.5734 16.893 46.4795 21.5531C47.4504 26.9252 48.486 28.6081 55.1526 35.5982L60.9777 41.747L63.1136 40.7762C65.0553 39.8053 65.3142 39.87 67.2559 41.294C69.6507 43.0415 69.6507 43.3651 66.2204 34.4979C63.8256 28.2844 61.9486 20.2587 61.9486 16.3105C61.9486 14.6924 61.4955 13.3332 60.4599 12.2976C59.1655 10.8737 58.5829 10.809 54.6995 11.0031C51.5927 11.1973 49.8452 11.6504 48.5507 12.5565ZM39.8777 12.2329C36.7062 14.4982 37.6124 17.4755 43.1786 22.8476C46.2207 25.8249 46.4148 25.9544 45.7676 24.1421C45.3792 23.1065 44.9909 20.7765 44.9909 18.9642C44.9262 16.1811 42.9845 10.8737 42.0136 10.8737C41.8841 10.8737 40.9133 11.4562 39.8777 12.2329ZM153.339 14.6924C153.404 15.016 155.993 17.9286 159.035 21.1648C162.077 24.401 165.054 27.7019 165.636 28.4786C166.478 29.5789 166.737 29.7084 166.801 28.9317C166.801 28.4139 166.284 27.3783 165.636 26.6663C165.054 26.0191 164.018 24.6599 163.436 23.7538C161.494 20.7765 155.022 14.1099 154.051 14.1099C153.533 14.1099 153.209 14.3688 153.339 14.6924ZM18.0657 20.7117C11.0108 37.7989 4.15006 65.436 2.46724 84.0118C1.49638 94.6265 1.62583 101.746 3.04976 112.49C12.4347 183.816 36.3179 246.534 70.298 289.057C77.4823 297.989 84.2784 305.368 87.7735 307.827C103.825 319.348 186.478 350.416 207.254 352.746C217.804 353.911 219.551 352.487 221.493 341.225C222.593 334.688 224.406 305.109 224.406 293.329V285.498L217.869 285.044C206.736 284.332 204.082 283.491 187.513 275.271C166.931 265.045 149.391 253.718 133.663 240.514C129.52 237.019 125.508 234.171 124.86 234.171C117.676 234.171 63.8903 182.263 51.4633 163.299C46.7384 156.114 37.5476 135.079 35.4117 126.6C34.5056 123.105 35.2176 121.099 37.5476 120.581C41.9489 119.61 77.6118 115.079 80.7833 115.079C82.9192 115.079 83.178 114.885 83.5664 113.073C84.2136 109.707 84.0195 94.6912 83.2428 91.002C81.4952 82.9115 74.1167 72.1026 57.9357 53.9151C53.4697 48.9314 45.3792 40.4525 39.8777 35.0805C34.3762 29.7084 27.839 23.3007 25.3795 20.7765C22.8553 18.2522 20.6547 16.1811 20.3958 16.1163C20.2016 16.1163 19.1013 18.1875 18.0657 20.7117ZM165.054 36.3749L168.549 39.9348L168.031 36.8927C167.772 35.2099 167.513 33.3329 167.513 32.7504C167.449 32.1679 166.672 30.7439 165.701 29.5789L163.954 27.5077L162.724 30.1614L161.559 32.8798L165.054 36.3749ZM169.455 38.0578C170.232 42.8473 172.497 47.5722 173.468 46.3424C173.856 45.7599 173.921 45.8246 173.662 46.6013C173.468 47.3133 174.374 49.5139 175.928 52.1029C177.416 54.5624 178.452 56.051 178.258 55.5332C178.128 55.0154 177.351 52.297 176.51 49.5786C175.604 46.6013 174.762 44.7243 174.374 44.9832C173.986 45.2421 173.856 44.9832 174.051 44.4007C174.309 43.8829 173.856 42.1354 173.209 40.582C171.915 37.7341 169.261 33.4624 168.937 33.786C168.873 33.8507 169.067 35.7924 169.455 38.0578ZM177.546 38.1872C176.057 40.3231 176.186 41.8765 177.869 41.4881C178.646 41.2292 179.876 41.6176 180.976 42.3943L182.724 43.6887L184.406 42.3295C186.024 41.0351 186.089 40.9056 185.054 39.6111C182.529 36.5691 179.099 35.9219 177.546 38.1872ZM187.384 42.0059C184.083 43.6887 178.452 49.255 178.452 50.8084C178.452 51.4556 178.84 53.2679 179.358 54.886C179.811 56.5041 180.911 61.2937 181.688 65.5654C183.112 72.8145 183.63 74.1737 189.455 85.6299C197.157 100.775 200.393 105.824 205.701 111.002L209.778 115.015L211.655 113.914C215.28 111.843 219.098 107.442 220.199 104.011C221.817 99.2219 221.299 91.0667 218.904 84.3354C214.503 71.6495 204.794 51.7145 199.94 45.3716C197.675 42.3295 197.286 41.294 198.905 42.6532C201.623 44.9185 211.72 64.1415 216.639 76.5038C220.652 86.4713 221.882 91.5198 221.946 97.3449C222.011 104.529 218.84 110.031 212.108 114.561C210.684 115.468 210.62 115.662 211.59 116.05C213.014 116.633 220.069 111.714 223.37 107.83C226.218 104.529 227.966 99.1572 227.383 95.2738C226.024 85.2415 212.497 53.3326 206.477 45.9541C203.759 42.6532 200.911 41.0351 198.581 41.4881C197.61 41.6823 196.445 41.6176 195.927 41.2292C194.244 40.2584 190.167 40.582 187.384 42.0059ZM84.602 43.7535C84.602 46.0835 84.7961 46.3424 87.2557 47.3133C88.6796 47.8958 89.7799 48.1547 89.6504 47.8958C89.3916 47.2486 84.9903 41.3587 84.7314 41.294C84.6667 41.294 84.602 42.3943 84.602 43.7535ZM62.7253 42.1354C62.2075 42.7179 63.6961 44.7891 68.5504 50.3553C72.1102 54.4329 77.3529 60.6464 80.136 64.1415C82.9839 67.6366 85.2492 70.2903 85.2492 70.0314C85.2492 69.1253 80.5244 60.97 76.7057 55.2096C68.4857 42.9121 64.8612 39.5464 62.7253 42.1354ZM176.639 42.9768C176.057 44.0771 176.963 48.4136 177.804 48.4136C177.999 48.4136 179.034 47.5722 180.07 46.4719C181.882 44.5949 181.882 44.5302 180.717 43.2357C179.293 41.6823 177.416 41.5529 176.639 42.9768ZM71.7219 42.6532C70.6216 43.0415 69.7155 43.4298 69.7155 43.5593C69.7155 43.6887 72.4986 47.9605 75.9937 53.0737C79.4241 58.1869 83.4369 64.7888 84.8609 67.8308C86.3495 70.8728 88.4207 74.7563 89.4563 76.5685C90.5566 78.3161 92.0452 81.2286 92.8866 83.0409L94.3753 86.2771L93.9222 83.3645C92.8866 76.3096 85.2492 55.2743 80.9127 47.5075C77.7412 41.8117 76.3173 41.0351 71.7219 42.6532ZM171.008 49.6433L171.462 51.3262L172.109 49.7081C172.497 48.6078 172.432 47.5722 171.915 46.4719L171.073 44.8538L170.814 46.4072C170.685 47.1838 170.75 48.6725 171.008 49.6433ZM84.602 49.6433C84.602 52.6207 86.8673 58.64 88.6149 60.1934C89.2621 60.7759 89.521 61.3584 89.1327 61.4878C88.2912 61.7467 90.0388 64.8535 93.6633 69.3842C96.317 72.6851 96.6406 72.8793 97.029 71.5201C97.3526 70.2256 97.4173 70.2903 97.482 71.9731C97.5468 74.3679 101.107 78.7044 105.055 81.3581C108.744 83.7529 109.003 83.8176 109.391 81.8759C109.65 80.6461 109.65 80.7109 109.78 82.2642C109.844 84.206 110.945 84.8532 115.152 85.5004C117.482 85.8241 117.482 85.8241 116.899 84.1412C115.864 81.2286 111.98 75.274 111.204 75.4682C110.815 75.5329 110.492 75.1446 110.492 74.5621C110.492 72.8793 107.967 69.2547 106.479 68.7369C105.702 68.5427 105.443 68.1544 105.831 67.8955C106.22 67.6366 104.796 65.436 102.336 62.394L98.194 57.2808V60.8406V64.4004L101.43 65.8891C103.178 66.7305 104.537 67.5072 104.408 67.6366C104.278 67.8308 102.984 67.313 101.495 66.601C98.2587 64.9182 98.3235 64.9182 97.9998 66.6658C97.7409 68.025 97.7409 67.9602 97.6115 66.4716C97.5468 65.0477 96.9643 64.5299 93.987 63.3001C91.9805 62.4587 90.4919 61.7467 90.6213 61.5526C90.7508 61.4231 92.2394 61.9409 93.9222 62.6529C95.6051 63.3648 97.1584 63.9473 97.2879 63.9473C97.4173 63.9473 97.5468 62.3292 97.5468 60.3228C97.5468 57.0219 97.2879 56.4394 94.7636 53.4621C92.4336 50.6789 87.0615 47.1191 85.055 47.1191C84.7961 47.1191 84.602 48.2194 84.602 49.6433ZM172.044 51.6498C171.073 55.0154 171.397 55.9863 175.216 61.0348L178.322 65.1771L179.034 63.2354C179.681 61.3584 179.358 57.475 178.516 57.475C178.322 57.475 177.093 55.598 175.863 53.2679C174.633 50.9378 173.403 49.0608 173.209 49.0608C173.015 49.0608 172.497 50.2259 172.044 51.6498ZM214.05 56.5041C214.05 56.6983 215.086 58.8989 216.38 61.4231C221.364 71.3906 227.318 87.8305 228.224 94.3029C229.519 103.105 225.377 109.578 213.467 117.474C213.338 117.539 213.726 118.38 214.309 119.286L215.344 120.904L220.393 118.38C231.202 112.943 240.651 111.455 246.412 114.303C248.03 115.079 256.703 120.969 265.7 127.442C274.761 133.849 282.204 139.027 282.269 138.898C282.334 138.833 282.916 136.503 283.563 133.849C284.211 131.196 285.311 127.895 285.958 126.6C286.67 125.241 287.188 124.076 287.188 123.882C287.188 123.429 277.221 117.539 272.56 115.209C268.03 112.943 263.758 111.584 256.121 110.16C249.842 108.995 246.024 107.118 244.729 104.594C244.211 103.623 243.24 99.4808 242.528 95.4032C240.134 81.2286 236.25 75.0151 221.817 62.1998C215.603 56.6983 214.05 55.5332 214.05 56.5041ZM172.303 64.0768C172.627 68.025 173.144 70.7434 173.921 71.9731L175.086 73.8501L176.445 70.1608C177.157 68.1544 177.804 66.2774 177.804 65.9538C177.804 65.3066 172.691 58.1222 172.238 58.1222C172.044 58.1222 172.109 60.8406 172.303 64.0768ZM179.099 65.436C179.099 66.2127 179.617 67.4424 180.199 68.1544C181.17 69.3842 181.17 69.3194 180.782 67.2483C180.588 66.0832 180.393 64.6593 180.393 64.1415C180.393 63.6237 180.07 63.4296 179.746 63.6237C179.358 63.8179 179.099 64.6593 179.099 65.436ZM176.834 70.7434L175.669 74.3032L179.423 79.8047C181.494 82.8467 183.306 85.1768 183.435 85.0474C183.565 84.9179 183.241 82.0053 182.659 78.575C181.753 72.7498 179.746 67.1835 178.581 67.1835C178.322 67.1835 177.546 68.8016 176.834 70.7434ZM92.4336 73.1382C93.7281 77.4099 93.7281 77.4099 97.3526 78.7691C99.2943 79.4811 101.042 80.1283 101.236 80.1283C101.43 80.1283 100.2 78.575 98.4529 76.698C96.6406 74.8857 94.3753 72.232 93.4044 70.8728C92.3689 69.5136 91.4627 68.5427 91.3333 68.6722C91.2038 68.7369 91.7216 70.7434 92.4336 73.1382ZM170.944 77.2805C170.232 78.2513 169.39 79.4164 169.067 79.9342C168.614 80.6461 168.873 81.2286 170.167 82.3937C171.203 83.2351 171.979 84.1412 171.979 84.3354C171.979 84.8532 179.94 94.3676 180.393 94.3676C180.652 94.3676 181.105 93.5909 181.558 92.5553C182.206 91.002 182.27 91.002 181.882 92.4259C181.688 93.332 181.364 94.3676 181.235 94.756C181.105 95.1443 181.882 96.5682 182.982 97.9274L184.989 100.452L184.536 94.9501C184.083 89.0603 183.889 88.413 182.982 89.8369C182.206 91.0667 182.141 90.3547 182.918 88.3483C183.5 86.9244 183.047 85.9535 179.617 81.0345C175.928 75.7918 175.604 75.4682 174.762 76.6332C173.921 77.7983 173.856 77.7336 174.245 76.1155C174.504 75.1446 174.309 73.7854 173.856 72.8793L173.015 71.3906L172.562 73.4618C172.368 74.6268 171.591 76.3096 170.944 77.2805ZM184.277 81.0992C184.536 82.8467 185.312 90.4842 185.96 97.9922L187.06 111.649L185.571 114.173C183.694 117.215 183.5 123.364 185.248 128.283C186.413 131.649 204.277 164.464 205.118 164.787C205.377 164.917 205.636 165.37 205.636 165.758C205.636 166.147 209.325 173.266 213.856 181.551C220.069 192.878 222.399 196.567 223.111 196.243C224.341 195.79 232.82 194.819 242.723 194.107C246.93 193.784 250.554 193.395 250.684 193.201C250.878 193.007 248.354 189.253 245.053 184.852C236.639 173.59 229.195 162.263 226.283 156.179C224.794 153.072 222.723 146.923 221.234 140.969C216.833 123.817 215.927 122.069 207.578 114.432C203.241 110.484 201.752 109.448 201.688 110.29C201.688 111.002 201.364 110.613 201.04 109.513C200.717 108.348 198.84 104.918 196.898 101.811C194.956 98.7041 193.209 95.5326 192.95 94.8207C192.497 93.3968 192.432 93.4615 191.979 95.0149C191.526 96.5035 191.526 96.5035 191.461 94.5618C191.397 92.879 184.342 77.2158 183.889 77.7336C183.824 77.7983 184.018 79.2869 184.277 81.0992ZM95.0225 83.7529C95.4756 86.536 96.1228 89.1897 96.5112 89.578C96.8995 89.9664 98.906 90.9372 100.977 91.7787C103.048 92.5553 104.602 93.332 104.472 93.4615C104.343 93.5909 102.466 93.0084 100.265 92.1023C98.0646 91.1961 96.1876 90.4842 95.9934 90.4842C95.8639 90.4842 95.7992 92.4906 95.8639 94.9501L95.9287 99.4161L102.919 106.6C108.485 112.296 110.297 113.785 111.721 113.785C115.152 113.785 125.766 115.921 131.009 117.604C133.986 118.574 136.381 119.222 136.381 119.092C136.381 118.186 129.715 107.377 128.485 106.212C127.643 105.5 123.372 102.976 118.906 100.581C114.44 98.2511 111.074 96.3093 111.398 96.3093C111.721 96.3093 115.281 98.0569 119.294 100.193C123.307 102.329 126.737 104.076 126.996 104.076C127.643 104.076 123.113 97.9274 118.064 91.9728C114.375 87.6363 112.951 86.4713 110.556 85.6299C108.873 85.1121 106.479 83.9471 105.184 83.0409C103.048 81.617 94.8931 78.1219 94.44 78.5102C94.3753 78.575 94.6342 80.905 95.0225 83.7529ZM162.335 83.7529C162.206 83.8823 163.5 85.5652 165.248 87.5716C168.29 91.1961 168.355 91.1961 169.196 89.7075L170.102 88.2188L169.649 89.8369C169.455 90.7431 169.196 91.5845 169.131 91.7787C169.131 91.9728 170.944 94.6912 173.274 97.798L177.481 103.429L178.387 100.775C178.84 99.3514 179.358 98.3158 179.487 98.4452C179.617 98.5747 179.293 99.9339 178.775 101.423L177.804 104.206L180.911 108.672C182.594 111.066 184.212 113.008 184.601 112.879C185.636 112.62 185.96 109.189 185.377 105.047C184.73 100.646 181.364 95.4679 180.264 97.086C179.811 97.6685 179.746 97.6038 180.005 96.7624C180.264 95.921 179.099 94.044 176.057 90.4195C171.85 85.371 171.72 85.3063 170.879 86.7302C170.102 88.1541 170.102 88.1541 170.426 86.2771C170.685 84.8532 170.426 83.8176 169.39 82.5231L168.031 80.7756L165.313 82.1348C163.824 82.9115 162.465 83.6234 162.335 83.7529ZM135.41 85.8888C125.766 86.6007 117.029 86.9891 116.058 86.7949C114.375 86.4713 114.569 86.7949 118.647 91.7139C124.925 99.2219 130.038 106.471 134.116 113.785C137.546 119.739 137.805 120.063 141.235 121.487L144.731 122.976L155.734 121.487C161.818 120.646 167.125 119.804 167.513 119.545C168.031 119.286 167.772 117.086 166.801 112.231C166.025 108.413 165.507 104.982 165.636 104.659C165.766 104.27 166.543 107.507 167.384 111.778C169.002 120.322 169.196 120.516 171.915 115.532L173.468 112.685L171.526 109.837C168.031 104.788 165.636 102.07 165.377 102.846C165.248 103.235 164.601 100.775 163.954 97.3449C163.306 93.9145 162.918 90.9372 163.047 90.7431C163.242 90.6136 163.759 92.6848 164.212 95.3385C164.795 98.7688 165.248 99.9986 165.636 99.4161C166.089 98.8336 166.154 98.8983 165.895 99.7397C165.636 100.516 166.866 102.652 169.649 106.406C173.339 111.261 173.921 111.778 174.504 110.743C175.086 109.772 175.151 109.901 174.827 111.325C174.374 113.461 176.704 117.668 178.322 117.668C179.811 117.668 183.63 115.273 183.63 114.367C183.63 113.914 182.27 111.584 180.588 109.189L177.61 104.723L176.445 107.183C175.021 110.16 174.892 109.578 176.251 106.342L177.222 103.947L173.533 99.0277C171.526 96.2446 169.455 93.5909 168.937 93.0731C168.484 92.5553 166.866 90.5489 165.377 88.6719C163.5 86.3418 162.53 85.5652 162.141 86.0829C161.818 86.6655 161.624 86.4066 161.624 85.4357C161.624 83.9471 161.494 83.9471 157.222 84.3354C154.827 84.5296 144.989 85.2415 135.41 85.8888ZM95.9287 108.348C96.1228 109.837 96.7701 111.455 97.3526 111.973C98.3235 112.749 107.255 113.85 107.255 113.138C107.255 113.008 104.731 110.29 101.56 107.118L95.9287 101.423L95.7345 103.558C95.6051 104.723 95.6698 106.859 95.9287 108.348ZM87.5146 114.367L84.2784 115.403L83.5017 120.581C83.1133 123.429 82.5308 129.124 82.2719 133.267L81.8188 140.775L87.5793 141.487C99.0354 142.975 113.534 147.312 123.113 152.166C130.038 155.596 144.148 165.111 158.387 175.92C166.931 182.457 178.646 190.483 184.924 194.237C194.633 199.997 201.947 201.745 214.179 201.292C220.781 201.033 220.716 201.162 218.128 194.819C210.555 175.726 186.607 150.807 158.387 132.555C139.747 120.451 126.737 115.985 106.543 114.497C102.013 114.238 97.8704 113.655 97.2232 113.267C95.7992 112.49 91.9158 112.943 87.5146 114.367ZM232.432 115.079C227.124 116.438 216.639 121.034 216.639 122.069C216.639 122.393 217.351 124.464 218.257 126.665C219.163 128.865 220.781 134.432 221.882 138.962L223.823 147.247L226.671 148.606C229.39 149.901 229.648 149.901 231.978 148.995C233.273 148.412 237.48 147.312 241.299 146.535C245.117 145.823 248.289 144.917 248.354 144.658C248.354 144.335 244.859 141.551 240.457 138.445C232.043 132.425 230.425 130.613 231.072 127.895C231.655 125.694 234.503 124.594 245.376 122.393L253.985 120.646L250.425 118.057C244.017 113.461 240.846 112.943 232.432 115.079ZM171.785 116.762C170.426 119.027 170.232 119.675 171.008 119.351C171.591 119.157 172.691 118.963 173.468 118.963C176.251 118.963 176.769 118.057 175.474 115.791C174.827 114.691 174.115 113.785 173.921 113.785C173.727 113.785 172.756 115.144 171.785 116.762ZM69.7155 117.345C50.8808 119.675 37.6124 121.681 36.9004 122.328C35.6706 123.299 35.8648 124.853 37.936 130.807C43.5022 146.794 49.4569 158.897 55.6056 166.988C69.5213 185.24 95.4756 211.065 117.158 228.217C124.278 233.848 125.831 234.107 128.938 230.029C130.556 227.828 130.621 227.764 129.52 226.081C128.744 224.851 128.096 224.528 127.061 224.786C126.09 225.11 125.961 225.045 126.608 224.592C127.32 224.074 127.255 223.88 126.284 223.557C124.925 223.104 117.352 213.589 107.061 199.479C86.7379 171.648 77.7412 150.095 79.1652 132.684L79.6182 127.312L74.1814 127.7C71.2041 127.895 63.955 128.348 58.1299 128.671C52.3047 128.995 47.4504 129.383 47.321 129.513C47.1915 129.577 47.4504 130.937 47.774 132.49C48.0976 134.043 48.2918 135.467 48.0976 135.597C47.9682 135.726 47.3857 133.914 46.8032 131.519C46.2854 129.06 45.897 127.053 45.9618 126.924C46.0265 126.859 53.9875 126.341 63.5667 125.694C73.2106 125.112 81.2363 124.4 81.4952 124.205C81.8188 123.946 82.2072 121.94 82.4014 119.675L82.8544 115.597L80.3302 115.985C78.971 116.18 74.1814 116.827 69.7155 117.345ZM176.51 119.61C174.957 119.998 172.691 120.451 171.462 120.581C170.297 120.71 169.067 120.969 168.873 121.228C168.614 121.487 169.843 122.976 171.591 124.529C173.403 126.082 174.892 127.247 175.021 127.118C175.151 127.053 174.762 125.823 174.245 124.464C173.662 123.17 173.339 121.94 173.468 121.811C173.597 121.616 174.568 123.623 175.474 126.212C179.358 136.762 191.008 155.855 198.84 164.593C201.688 167.765 205.442 172.231 207.189 174.431C209.908 177.926 211.526 179.609 210.62 177.991C206.218 170.289 185.377 132.037 184.601 130.225C184.018 128.865 183.371 125.306 183.177 122.393L182.788 117.086L181.105 117.927C180.199 118.445 178.128 119.157 176.51 119.61ZM159.164 122.523C159.035 122.587 159.552 123.882 160.264 125.306C161.494 127.636 165.831 131.843 166.413 131.196C166.543 131.066 166.931 129.189 167.319 127.053L168.031 123.17L167.643 127.053C167.125 132.943 166.801 135.403 166.478 135.726C166.284 135.856 166.154 135.144 166.154 134.043C166.154 132.619 165.701 131.713 164.536 131.001C163.63 130.419 162.918 130.031 162.918 130.225C162.918 131.39 166.543 136.503 168.225 137.733C169.39 138.574 171.267 139.933 172.368 140.775C174.374 142.263 174.439 142.263 174.762 140.969C175.021 139.933 174.309 138.962 171.332 136.568C169.261 134.95 167.643 133.461 167.772 133.267C167.902 133.137 169.455 134.238 171.203 135.726C173.015 137.15 174.633 138.38 174.827 138.38C175.021 138.38 175.216 136.115 175.216 133.331V128.348L170.944 124.723L166.672 121.099L163.047 121.681C161.041 122.005 159.293 122.393 159.164 122.523ZM243.499 123.946C235.797 125.5 232.237 126.924 231.655 128.542C231.137 130.095 236.768 134.626 252.237 145.241C290.813 171.648 290.36 171.389 294.567 171.389C298.191 171.389 304.275 169.9 310.489 167.441L315.667 165.435L310.683 161.422C307.9 159.221 295.861 150.483 283.952 141.94C272.043 133.461 260.781 125.37 259.033 124.011C255.409 121.228 256.509 121.293 243.499 123.946ZM147.384 124.141C147.384 124.335 149.326 125.629 151.721 127.053C154.18 128.412 157.74 130.613 159.682 131.908C161.624 133.202 163.63 134.496 164.083 134.755C164.601 135.079 163.759 133.008 162.206 130.225C157.611 121.616 158.646 122.393 152.627 123.105C149.779 123.429 147.384 123.882 147.384 124.141ZM289.583 123.882C287.447 124.529 283.952 133.655 283.952 138.315C284.017 140.516 284.34 140.904 290.877 145.5C294.696 148.153 297.997 150.419 298.191 150.548C298.385 150.613 299.097 148.606 299.68 146.017C301.298 139.416 303.304 136.179 306.476 135.273C309.971 134.238 310.489 134.302 313.984 136.05C316.702 137.409 316.896 137.474 315.861 136.309C314.437 134.755 301.816 125.37 299.162 123.946C297.285 122.911 292.754 122.911 289.583 123.882ZM62.2722 126.406C54.7642 126.924 48.0976 127.377 47.4504 127.377C46.609 127.377 46.3501 127.571 46.8032 128.024C47.5799 128.801 79.4241 126.989 80.3302 126.082C81.1716 125.241 78.7121 125.241 62.2722 126.406ZM79.8124 132.684C78.3885 150.807 88.2912 173.525 110.686 203.428C117.87 212.942 126.155 223.233 126.478 222.909C126.673 222.715 125.054 220.45 122.983 217.861C92.7572 180.774 79.4888 153.525 81.1716 132.037C81.4305 128.348 81.3658 126.665 80.9127 126.924C80.5244 127.183 80.0713 129.772 79.8124 132.684ZM176.381 139.804C176.834 140.386 178.84 142.069 180.717 143.623C182.659 145.176 184.083 146.535 183.953 146.665C183.824 146.859 181.947 145.5 179.876 143.623C177.74 141.81 175.863 140.322 175.604 140.322C175.41 140.322 175.216 140.904 175.216 141.551C175.216 142.328 176.963 144.27 179.876 146.6C182.4 148.671 185.118 150.936 185.83 151.713C186.607 152.425 188.29 154.043 189.649 155.208L192.108 157.344L190.037 154.043C188.937 152.231 187.189 150.03 186.154 149.059C185.054 148.153 184.406 147.118 184.601 146.794C184.795 146.47 183.694 143.946 182.076 141.163C180.523 138.38 178.516 134.691 177.675 132.943L176.186 129.772L175.863 134.238C175.604 137.409 175.798 139.027 176.381 139.804ZM304.987 137.344C303.24 138.509 300.845 144.335 300.327 148.8L300.003 151.843L303.757 154.626C316.12 163.622 327.899 174.69 332.43 181.292C334.825 184.787 337.025 190.483 337.025 193.136C337.025 194.107 336.572 195.402 336.055 195.984C335.149 197.02 335.213 197.149 337.673 197.538C340.391 197.991 340.974 198.767 339.161 199.738C338.255 200.321 338.255 200.385 339.55 200.839C340.391 201.097 340.844 201.615 340.715 202.133C340.456 202.716 341.621 203.039 344.987 203.363C347.576 203.622 350.229 204.01 350.876 204.204C352.041 204.528 352.106 204.204 351.718 197.861C351.265 189.318 349.582 184.075 345.504 177.862C341.491 171.713 325.828 154.885 316.573 146.729C305.57 137.021 305.505 136.956 306.929 137.668C310.683 139.416 335.343 163.622 342.333 172.36C349.517 181.357 352.559 189.447 352.559 199.803V204.269L357.155 205.046C359.679 205.499 361.815 205.693 361.944 205.563C362.333 205.175 360.326 190.612 359.355 187.247C357.219 179.739 349.647 170.418 329.453 150.677C317.091 138.574 312.883 135.532 309 136.05C307.641 136.179 305.893 136.762 304.987 137.344ZM82.725 145.111C83.5017 149.771 87.2557 160.58 90.7508 168.024C97.1584 181.616 108.744 198.444 127.514 221.68C132.239 227.505 135.54 230.806 140.459 234.689C155.345 246.275 173.403 256.436 196.574 266.21C206.801 270.482 210.943 271.517 218.904 271.841L224.729 272.035L224.924 256.501C225.247 233.783 223.759 213.783 221.17 203.751L220.522 201.421L215.539 201.874C206.412 202.716 196.186 200.968 189.131 197.473C184.536 195.143 171.008 186.146 161.559 179.091C137.158 160.839 126.867 154.173 116.576 149.966C106.608 145.888 90.8155 141.875 83.89 141.681C82.2072 141.616 82.2072 141.616 82.725 145.111ZM242.464 147.441C234.309 149.059 230.231 150.483 230.231 151.713C230.231 153.978 235.538 157.473 255.473 168.347C277.674 180.451 284.987 182.781 297.544 181.745C301.298 181.421 307.123 180.709 310.489 180.192C317.479 179.027 319.744 178.897 318.256 179.739C315.861 181.033 302.01 182.716 293.337 182.716C285.44 182.716 283.693 182.522 279.745 181.162C273.078 178.832 266.088 175.531 253.143 168.412C233.92 157.927 228.936 154.496 228.936 151.648C228.936 150.742 228.224 149.901 226.671 149.189C225.182 148.477 224.406 148.347 224.406 148.865C224.406 149.254 225.7 152.231 227.254 155.467C230.231 161.681 237.415 172.748 246.606 185.111C251.719 191.907 252.367 192.619 254.632 192.942C257.221 193.331 265.247 192.619 270.683 191.518C279.292 189.771 286.8 188.67 292.69 188.412C306.994 187.635 330.553 192.166 330.553 195.661C330.553 196.373 330.941 196.631 331.653 196.373C335.796 195.272 335.731 195.272 335.731 193.007C335.731 187.441 331.395 180.451 322.268 171.583L316.896 166.276L312.56 167.959C310.165 168.865 305.44 170.354 302.01 171.26C292.107 173.849 292.754 174.108 270.425 159.027C259.875 151.972 250.813 146.147 250.231 146.147C249.648 146.147 246.153 146.729 242.464 147.441ZM285.894 190.094L282.981 190.547L286.217 191.001C293.531 192.036 299.744 195.208 302.398 199.22C303.11 200.256 304.016 201.162 304.405 201.162C306.023 201.162 327.446 196.631 328.482 196.049C329.388 195.531 329.194 195.272 327.123 194.366C323.887 193.007 315.149 191.001 309.518 190.224C304.016 189.577 289.906 189.447 285.894 190.094ZM272.819 192.036C270.813 192.489 270.942 192.554 274.308 192.878C276.314 193.136 278.903 193.784 280.068 194.366C282.657 195.725 283.499 195.013 281.363 193.266C280.457 192.489 280.198 192.036 280.716 192.23C281.233 192.36 282.269 193.395 282.981 194.496C283.758 195.596 285.246 196.696 286.67 197.149C289.453 198.055 295.861 201.809 295.343 202.262C295.149 202.457 294.178 202.004 293.078 201.227C290.942 199.674 285.958 197.343 284.858 197.279C284.146 197.279 284.146 197.732 284.923 202.521L285.246 204.916L290.295 203.945C293.013 203.428 295.537 202.78 295.861 202.457C296.12 202.198 296.185 200.191 295.926 197.991L295.473 194.107L292.495 193.136C290.813 192.619 288.871 192.036 288.159 191.907C286.088 191.454 275.149 191.583 272.819 192.036ZM271.072 195.272C271.848 196.308 273.725 197.667 275.344 198.25C276.897 198.897 279.486 200.321 281.104 201.551C284.405 204.075 284.534 204.139 284.275 202.586C284.146 202.004 283.822 200.385 283.628 199.091C283.305 197.149 282.787 196.373 281.169 195.596C278.127 193.978 276.25 193.525 272.755 193.46L269.648 193.395L271.072 195.272ZM262.917 193.978C266.153 195.337 271.007 196.437 271.007 195.92C271.007 194.884 266.994 193.46 264.211 193.46C262.269 193.46 261.946 193.589 262.917 193.978ZM249.324 194.625C248.354 195.013 248.807 195.337 251.59 195.984C253.532 196.437 256.121 197.214 257.35 197.667C259.421 198.573 259.486 198.508 259.098 197.085C258.904 196.308 258.709 195.466 258.709 195.208C258.709 194.172 251.655 193.719 249.324 194.625ZM296.638 198.832C296.897 201.033 297.414 202.457 297.867 202.457C299.874 202.457 302.722 201.615 302.722 200.968C302.722 200.191 296.897 194.496 296.508 194.884C296.314 195.013 296.379 196.826 296.638 198.832ZM259.357 195.143C259.421 197.473 260.522 198.832 263.823 200.515C265.829 201.486 268.483 203.104 269.713 204.075L271.978 205.758L272.172 203.686C272.56 200.062 271.784 197.473 270.166 196.955C263.175 194.755 259.357 194.107 259.357 195.143ZM247.965 197.861C248.677 199.156 250.231 200.45 252.496 201.551C254.438 202.521 256.962 204.334 258.192 205.563L260.328 207.893L257.868 205.822C255.538 203.816 250.36 200.839 249.972 201.292C249.907 201.421 249.648 203.298 249.519 205.563L249.26 209.641L253.467 209.188C260.328 208.476 260.651 208.217 260.651 204.269C260.651 200.256 260.263 199.544 257.739 198.508C255.344 197.602 247.448 195.466 247.189 195.725C247.059 195.79 247.448 196.761 247.965 197.861ZM235.732 195.725C235.02 195.984 237.027 196.761 240.91 197.732C244.341 198.638 247.318 199.156 247.512 199.026C247.642 198.832 247.318 197.926 246.736 197.02C245.7 195.466 245.247 195.337 241.234 195.337C238.774 195.337 236.315 195.531 235.732 195.725ZM220.458 196.826C221.105 197.408 221.17 197.343 220.781 196.437C220.587 195.79 220.199 195.466 220.005 195.661C219.81 195.855 220.005 196.373 220.458 196.826ZM225.053 196.89C225.053 197.085 226.606 197.667 228.419 198.314C230.296 198.897 232.432 199.803 233.144 200.256C234.826 201.421 235.409 201.421 235.409 200.062C235.409 197.732 233.467 196.631 229.131 196.631C226.93 196.631 225.053 196.761 225.053 196.89ZM312.754 200.774C294.502 204.528 282.528 206.534 266.994 208.605C255.538 210.094 226.477 213.46 225.053 213.46C224.665 213.46 224.406 213.913 224.406 214.431C224.406 215.078 225.053 215.401 226.283 215.401C231.461 215.401 249.972 213.136 265.829 210.547C275.602 208.929 288.677 207.052 294.825 206.34C312.689 204.269 331.136 201.292 335.731 199.738L337.996 198.962L334.76 198.12C330.683 197.149 329.971 197.214 312.754 200.774ZM235.668 199.479C235.732 200.709 235.797 201.615 235.927 201.486C236.056 201.356 236.768 201.874 237.545 202.586C238.321 203.298 240.975 205.11 243.499 206.664C246.671 208.67 248.159 209.253 248.483 208.735C249.195 207.635 249.13 202.327 248.354 201.162C247.836 200.385 238.774 197.473 236.315 197.343C235.927 197.279 235.668 198.25 235.668 199.479ZM272.819 202.198L273.078 206.47L277.026 206.081C279.227 205.822 281.686 205.434 282.463 205.24C283.822 204.916 283.758 204.851 281.751 203.104C280.004 201.486 273.92 197.991 272.949 197.926C272.755 197.926 272.755 199.868 272.819 202.198ZM221.364 199.35C221.493 200.191 222.205 203.363 222.852 206.47C224.212 213.007 223.305 212.554 233.467 211.453C240.457 210.612 240.716 210.418 239.033 207.117C236.509 202.262 229.26 198.12 223.176 197.991C221.299 197.926 221.04 198.12 221.364 199.35ZM261.169 204.139C261.428 208.152 261.493 208.347 262.787 208.088C263.564 207.893 265.894 207.505 267.965 207.311C271.072 206.923 271.59 206.664 270.942 205.887C270.23 205.046 262.01 199.868 261.298 199.868C261.104 199.868 261.104 201.809 261.169 204.139ZM324.534 202.716C311.913 204.916 303.369 206.146 292.754 207.311C287.835 207.829 275.861 209.576 266.217 211.194C256.574 212.748 243.435 214.56 237.027 215.143C225.7 216.178 222.917 216.825 225.377 217.732C227.318 218.508 249.195 216.113 267.124 213.136C276.573 211.583 288.483 209.835 293.66 209.253C312.56 207.117 338.579 202.716 337.932 201.745C337.414 200.839 334.437 201.033 324.534 202.716ZM320.521 206.599C313.013 207.829 301.686 209.447 295.343 210.224C288.936 210.935 275.861 212.812 266.217 214.431C251.59 216.825 231.331 219.285 226.089 219.285C222.982 219.285 226.477 220.45 231.849 221.162C241.493 222.521 248.742 224.269 251.396 225.951C254.891 228.152 259.357 233.265 261.816 237.861C269.777 252.877 277.285 294.429 273.337 302.002C272.302 303.944 268.03 307.892 266.8 308.021C266.476 308.021 264.988 308.604 263.564 309.316L260.975 310.546L266.476 310.222C277.997 309.575 284.146 306.598 287.059 300.319C288.483 297.148 288.677 295.789 288.677 290.158C288.677 282.714 287.512 276.113 283.952 262.326C278.839 242.521 274.437 231.777 269.648 227.116C265.764 223.427 260.004 220.709 253.79 219.673C251.007 219.22 249.13 218.702 249.648 218.508C250.166 218.314 254.373 217.667 259.033 217.149C263.628 216.566 271.784 215.466 277.026 214.689L286.67 213.266L293.855 214.689C310.23 217.926 318.061 225.175 323.628 242.262C331.395 265.951 332.754 286.274 327.252 295.659C326.022 297.666 326.022 297.925 326.993 298.636C328.029 299.413 329.388 299.348 337.996 298.183C341.945 297.666 342.786 297.277 344.598 295.4C347.446 292.294 348.287 288.863 348.223 279.802C348.158 260.061 339.356 231.518 330.165 221.291C326.993 217.796 321.362 214.56 314.76 212.424C312.236 211.647 310.1 210.677 309.971 210.353C309.841 209.965 311.395 209.512 313.531 209.253C315.602 208.994 320.974 208.282 325.505 207.57C335.213 206.146 340.779 206.016 349.97 207.246C361.75 208.864 368.093 212.295 373.141 219.738C381.75 232.618 388.416 261.355 386.28 277.019C385.892 280.19 385.115 283.879 384.598 285.109C382.721 289.51 385.504 289.834 389.322 285.692C395.924 278.572 396.054 272.553 390.358 249.382C386.022 231.712 381.814 220.968 377.413 216.049C372.106 210.159 364.922 207.246 351.265 205.369C346.799 204.787 342.721 204.204 342.203 204.075C340.197 203.557 333.725 204.334 320.521 206.599ZM239.94 207.57C241.169 210.029 241.493 210.224 243.823 210.224C245.247 210.224 246.412 209.965 246.412 209.706C246.412 209.123 239.163 204.334 238.774 204.657C238.645 204.787 239.163 206.081 239.94 207.57ZM320.197 209.447L312.754 210.612L316.961 211.777C321.427 213.007 321.233 213.007 334.113 210.612C340.391 209.447 343.951 209.317 348.999 210.288C361.491 212.618 371.07 222.197 376.766 238.12C379.679 246.275 382.397 259.543 382.656 267.181L382.915 273.329L382.332 267.504C380.714 249.64 375.148 232.294 368.093 222.974C362.591 215.66 354.695 211.324 345.31 210.547C341.038 210.159 332.883 210.935 331.977 211.842C331.783 211.971 331.977 213.33 332.43 214.689C332.948 216.437 333.854 217.667 335.407 218.638C341.556 222.392 346.799 233.848 351.718 254.236C355.148 268.54 355.407 283.621 352.3 291.776C352.041 292.488 352.948 293.329 355.407 294.624C358.967 296.565 358.967 296.565 364.533 295.789C372.3 294.753 376.572 292.682 379.031 288.863C381.103 285.627 382.332 281.032 382.332 276.889C382.332 275.53 382.591 274.236 382.85 274.041C383.497 273.653 382.526 282.714 381.685 284.98C380.844 287.18 381.491 288.022 382.656 286.339C384.08 284.397 385.568 276.695 385.568 271.258C385.568 261.42 383.238 247.634 379.679 236.76C372.106 213.46 362.786 207.182 337.025 207.958C331.848 208.152 324.275 208.8 320.197 209.447ZM325.116 212.812C324.404 212.812 324.081 213.007 324.275 213.266C324.922 213.848 331.395 216.113 331.653 215.79C331.783 215.66 331.718 214.754 331.459 213.783C331.071 212.165 330.812 212.036 328.676 212.424C327.382 212.618 325.764 212.812 325.116 212.812ZM325.505 215.984C330.553 219.22 333.66 223.039 337.349 230.612C342.592 241.42 346.864 255.401 348.676 268.281C349.388 273.006 349.323 288.734 348.611 291.129C348.482 291.711 348.87 292.164 349.711 292.294C352.106 292.617 353.336 287.828 353.66 277.213C353.918 269.252 353.789 267.181 352.236 259.932C351.329 255.336 349.582 248.346 348.417 244.398C342.786 225.369 338.644 219.609 327.641 215.401C322.98 213.589 322.074 213.848 325.505 215.984ZM274.89 216.049C270.101 216.825 263.952 217.732 261.298 218.12L256.509 218.832L259.68 219.803C262.787 220.709 265.829 220.644 273.596 219.609C275.214 219.35 276.185 219.414 275.732 219.738C274.502 220.644 275.732 225.563 277.609 226.987C284.017 232.036 294.955 270.223 294.955 287.504C294.955 292.552 293.596 299.09 292.301 300.513C291.395 301.42 291.589 302.002 293.013 302.455C293.725 302.714 295.667 303.879 297.285 305.109L300.262 307.374L304.858 306.662C319.421 304.462 324.857 295.206 323.887 274.3C322.851 252.488 315.278 231.259 306.282 225.11C301.039 221.486 295.279 219.932 284.275 219.285L276.509 218.832L282.463 218.767C292.69 218.573 302.851 221.227 307.706 225.434C315.343 231.971 321.427 247.051 323.822 265.498C325.181 275.595 324.793 287.31 322.98 292.617C321.686 296.306 321.686 296.371 322.916 297.018C324.663 297.925 325.699 296.954 327.446 292.552C328.741 289.252 328.935 287.763 328.935 278.184C328.87 266.339 327.964 260.838 323.692 246.598C318.32 228.735 312.042 220.903 300.133 217.278C290.877 214.495 286.8 214.301 274.89 216.049ZM268.289 221.162C267.447 221.486 268.159 222.003 271.007 223.298L274.89 224.981V223.492C274.89 220.579 274.308 219.997 271.784 220.385C270.489 220.579 268.871 220.968 268.289 221.162ZM225.894 237.861C226.347 249.382 226.347 263.103 225.894 280.902C225.506 295.271 225.506 307.115 225.765 307.374C226.542 307.827 250.231 309.575 256.444 309.575C261.104 309.575 262.14 309.316 266.153 307.309C268.612 306.08 271.201 304.267 271.848 303.361C274.761 299.348 274.308 287.504 270.683 269.446C266.8 250.094 263.434 240.514 257.739 233.006C253.532 227.375 249.519 224.981 242.075 223.557C236.639 222.521 225.441 220.709 225.312 220.838C225.247 220.903 225.506 228.54 225.894 237.861ZM266.476 223.039C272.56 227.181 275.732 232.23 279.939 244.527C282.916 253.2 287.382 270.158 288.806 278.443C289.906 284.85 290.036 293.976 289.13 297.925C288.741 299.737 288.741 300.643 289.324 300.967C290.683 301.873 291.136 301.549 292.56 298.378C294.631 293.782 294.825 285.109 293.013 274.948C289.712 255.66 282.722 233.589 278.58 229.123C276.379 226.728 273.725 225.045 269.777 223.427C265.505 221.615 264.211 221.486 266.476 223.039ZM129.391 231.324C127.255 234.171 127.255 234.236 128.485 235.336C142.918 247.828 155.928 257.084 172.821 266.792C182.335 272.229 198.646 280.255 203.953 282.067C207.707 283.362 223.37 285.303 224.082 284.527C224.276 284.332 224.6 281.679 224.859 278.701L225.247 273.2L219.487 272.747C210.814 272.1 207.383 271.258 198.516 267.698C183.177 261.485 166.089 252.877 154.18 245.239C148.29 241.485 135.863 232.165 133.857 230.029C132.951 229.123 132.109 228.346 131.915 228.346C131.721 228.411 130.556 229.705 129.391 231.324ZM378.449 290.74C375.925 293.588 371.329 295.53 364.857 296.436L359.679 297.148L363.174 300.837C367.64 305.497 372.235 312.552 375.536 319.672L378.061 325.238L383.303 326.079C391.588 327.439 400.455 330.934 400.455 332.875C400.455 333.393 400.779 333.846 401.167 333.846C401.749 333.846 401.814 331.387 401.555 324.914C401.038 312.423 398.643 304.397 393.335 297.083C391.329 294.235 385.439 289.51 383.303 288.993C380.779 288.41 380.326 288.54 378.449 290.74ZM345.504 296.436C344.663 297.471 344.08 298.378 344.21 298.507C344.339 298.572 345.828 299.154 347.576 299.802C356.249 303.038 364.015 311.517 373.465 328.345C375.472 331.905 377.672 335.659 378.449 336.759L379.743 338.701V336.435C379.743 329.769 373.53 315.206 366.863 306.274C362.656 300.578 359.032 297.342 354.501 295.012C350.1 292.747 348.482 292.423 347.705 293.588C347.317 294.106 346.346 295.4 345.504 296.436ZM318.773 300.513C315.084 304.721 311.589 306.274 303.175 307.633L300.78 308.021L302.851 311.063C304.016 312.746 306.864 317.86 309.259 322.52L313.595 330.934L320.586 332.94C324.469 334.04 328.806 335.4 330.229 336.047C336.184 338.571 340.197 342.714 339.291 345.432C338.967 346.532 340.65 347.956 341.362 347.179C342.009 346.532 343.498 339.607 343.886 335.4C344.792 325.238 340.132 310.481 334.113 304.656C331.33 301.937 324.081 297.601 322.204 297.601C321.751 297.601 320.197 298.895 318.773 300.513ZM331.977 300.125C330.747 300.19 331.071 300.708 334.307 303.944C337.284 306.921 338.579 308.863 340.197 312.876C341.297 315.659 342.527 318.571 342.915 319.219C345.634 324.008 348.158 329.704 348.999 332.94C350.423 338.377 350.294 344.979 348.676 348.021C347.058 351.322 342.915 354.817 338.514 356.629C335.925 357.665 335.149 358.312 335.407 359.024C336.572 362.001 337.673 368.474 337.802 373.457C337.932 376.629 338.255 379.153 338.514 379.153C338.967 379.153 382.332 369.25 399.743 365.173C401.296 364.849 401.296 364.849 400.843 358.247C400.649 354.623 400.067 350.027 399.614 348.086C398.772 344.72 398.643 344.526 396.83 344.655C395.795 344.785 392.882 344.914 390.423 344.979C382.721 345.173 380.52 343.231 372.3 328.733C365.375 316.5 360.067 309.381 355.019 305.627C348.093 300.449 342.851 298.766 336.702 299.607C334.89 299.866 332.818 300.125 331.977 300.125ZM285.117 304.979C283.175 306.921 280.586 308.798 279.162 309.251L276.703 310.028L281.622 312.164C290.813 316.112 292.431 317.795 304.664 335.464C307.641 339.736 311.071 344.461 312.301 346.014C314.307 348.409 314.696 348.668 315.214 347.697C317.091 344.396 313.919 332.617 308.159 321.613C304.016 313.782 301.816 310.481 298.515 307.18C296.379 305.044 290.424 301.484 289.065 301.484C288.806 301.484 286.994 303.038 285.117 304.979ZM399.419 305.821C400.196 307.892 401.749 310.999 402.915 312.811C406.798 318.766 409.387 328.28 408.545 333.717C408.028 337.018 405.309 340.448 401.62 342.325C400.261 343.037 399.161 343.62 399.161 343.749C399.161 343.814 399.614 345.497 400.131 347.438C400.649 349.38 401.296 354.105 401.555 357.859L401.944 364.72L411.329 362.519C416.507 361.354 420.908 360.189 421.102 359.995C421.943 359.153 421.231 348.021 419.937 342.066C416.312 324.914 409.128 310.74 400.649 303.944C399.355 302.973 398.254 302.132 398.19 302.132C398.125 302.132 398.643 303.814 399.419 305.821ZM67.7737 308.669C60.1363 310.481 53.1461 312.358 52.24 312.811C50.7513 313.588 50.8808 313.652 54.5053 314.106C61.3013 314.882 70.4274 317.083 78.9063 319.866C85.9612 322.196 87.2557 322.455 88.2912 321.743C88.9385 321.225 90.686 320.513 92.2394 320.125C94.2458 319.607 95.2167 318.96 95.6698 317.86C96.7701 314.947 96.3817 314.106 92.4983 312.034C90.4919 310.869 87.3851 308.928 85.5728 307.698C83.8253 306.403 82.2072 305.368 82.0777 305.368C81.8836 305.368 75.4759 306.856 67.7737 308.669ZM225.053 310.157C225.053 311.646 225.312 311.775 229.713 312.099C232.302 312.293 238.645 312.746 243.758 313.135C255.279 314.041 263.628 315.335 268.871 317.083C280.133 320.772 291.913 333.846 296.961 348.28C298.838 353.717 302.269 368.927 304.34 380.642C305.052 384.784 305.699 386.92 306.217 386.726C306.605 386.596 313.66 384.914 321.945 383.037C334.954 380.059 336.961 379.412 337.284 378.312C337.737 376.435 336.572 365.173 335.537 361.678L334.695 358.765L329.582 358.7C325.893 358.7 323.757 358.312 322.204 357.535C317.802 355.205 312.301 348.603 301.039 332.293C292.819 320.384 290.101 317.601 283.434 314.235L277.932 311.517L263.952 311.128C256.25 310.869 246.477 310.352 242.205 309.963C237.933 309.575 232.949 309.186 231.202 309.057C229.39 308.928 227.318 308.798 226.477 308.733C225.377 308.604 225.053 308.928 225.053 310.157ZM224.924 314.559C224.729 316.63 226.542 352.293 227.254 360.254C228.095 369.574 230.555 373.134 239.486 377.535C246.282 380.901 250.619 381.872 279.745 386.208C305.57 390.027 304.664 389.962 304.664 388.214C304.664 383.749 299.162 356.888 296.832 349.768C291.848 334.882 280.78 322.261 268.806 317.73C262.981 315.594 248.936 313.847 227.189 312.617C225.312 312.487 225.118 312.682 224.924 314.559ZM402.397 318.313C402.72 320.643 403.044 325.303 403.044 328.733C403.044 334.817 403.109 334.947 404.727 335.723C405.698 336.112 406.604 336.371 406.733 336.176C407.575 335.4 407.639 329.575 406.927 325.95C406.151 322.002 402.656 313.264 402.073 313.847C401.944 314.041 402.073 316.047 402.397 318.313ZM48.2271 318.054C46.7384 322.52 43.1139 342.584 43.567 343.814C43.7611 344.332 44.9262 345.238 46.0912 345.756C48.8096 347.05 78.1296 354.752 78.5826 354.299C78.7768 354.105 79.1652 351.581 79.4888 348.603C80.2655 341.807 80.9774 339.154 83.3075 334.558C85.055 331.193 86.479 326.468 86.5437 324.073C86.5437 321.743 59.1655 314.3 51.5927 314.623C49.4569 314.753 49.2627 314.947 48.2271 318.054ZM96.317 317.73C95.2167 321.355 92.8219 323.49 89.8446 323.49C87.4498 323.49 87.4498 323.49 86.6731 327.18C86.2848 329.251 84.9256 332.94 83.6958 335.464C81.1069 340.901 78.6474 353.975 80.0713 354.882C80.7185 355.27 185.83 381.742 186.672 381.742C187.06 381.742 187.513 380.189 187.707 378.376C187.966 376.499 188.937 373.328 189.973 371.386L191.785 367.762L146.478 355.917C121.495 349.38 100.654 343.749 100.136 343.425C98.7118 342.649 99.1649 342.714 147.708 355.529L192.367 367.309L194.633 365.691C198.84 362.648 201.752 359.477 202.788 356.694C203.37 355.141 203.759 353.781 203.629 353.717C203.5 353.652 200.587 352.875 197.222 352.034C178.581 347.568 126.219 328.28 104.666 318.054C101.301 316.436 98.194 315.141 97.8057 315.076C97.4173 315.076 96.7701 316.306 96.317 317.73ZM91.4627 320.902C91.0097 320.902 90.1035 321.355 89.3916 321.872C88.2265 322.779 88.2265 322.779 89.8446 322.843C90.8155 322.843 92.2394 322.261 93.0808 321.484C94.3106 320.448 94.3753 320.254 93.4692 320.513C92.8219 320.707 91.9158 320.902 91.4627 320.902ZM344.533 329.769C344.922 335.076 344.469 338.765 342.527 346.209C342.139 347.697 342.333 348.021 344.21 348.668C346.864 349.574 346.54 349.639 347.576 347.568C349.841 343.102 349.388 336.694 346.216 328.539C345.31 326.079 344.404 324.138 344.339 324.138C344.21 324.138 344.339 326.662 344.533 329.769ZM378.708 327.503C378.967 328.345 379.484 330.675 379.873 332.681L380.585 336.371L383.886 337.147C389.064 338.248 398.449 336.047 399.419 333.458C400.131 331.71 393.465 328.668 385.245 326.986C379.031 325.756 378.255 325.821 378.708 327.503ZM221.882 345.691C220.911 350.221 218.71 353.005 215.28 353.911L212.755 354.623V362.001C212.755 370.415 212.302 369.898 218.71 369.056L221.623 368.668L221.687 365.626C221.752 362.066 222.723 359.283 224.535 357.341C225.765 356.047 225.765 355.594 225.118 344.591C224.729 338.312 224.341 332.228 224.341 331.063C224.276 329.898 223.888 331.905 223.435 335.464C223.047 339.024 222.335 343.62 221.882 345.691ZM314.048 333.005C315.602 337.018 316.443 342.325 316.12 346.338L315.861 350.739L319.032 353.587C323.239 357.341 326.217 358.183 332.042 357.212C337.737 356.306 345.44 352.357 345.44 350.416C345.44 350.027 343.822 349.056 341.815 348.344C338.32 346.985 338.191 346.985 335.213 348.086C330.035 350.027 322.01 351.063 318.838 350.092C317.414 349.639 316.314 349.186 316.443 349.056C316.573 348.862 317.802 349.121 319.097 349.51C323.628 350.933 337.543 347.762 338.579 345.044C339.873 341.743 333.66 337.6 322.139 334.04C314.113 331.581 313.401 331.516 314.048 333.005ZM397.478 335.853C393.465 337.794 386.928 338.701 383.497 337.859C380.326 337.018 380.067 337.147 380.649 339.154C381.167 341.225 384.727 343.49 388.222 343.943C393.594 344.655 404.921 340.578 405.503 337.665C405.633 336.824 402.85 335.076 400.52 334.558C400.326 334.494 398.966 335.076 397.478 335.853ZM203.37 356.888C202.205 359.93 199.811 362.648 194.309 367.114C192.626 368.538 190.685 370.868 190.037 372.292C188.484 375.787 187.707 381.742 188.808 381.742C191.461 381.742 209.972 378.247 210.684 377.6C211.202 377.082 211.59 373.328 211.914 365.755L212.302 354.687L210.749 354.364C209.908 354.234 208.16 354.04 206.866 353.975C204.665 353.911 204.471 354.105 203.37 356.888ZM223.047 363.49C222.335 366.402 222.399 367.309 223.5 370.48C224.147 372.487 225.377 374.817 226.153 375.658C227.771 377.406 230.943 377.729 232.173 376.241C232.82 375.464 232.496 374.752 230.36 372.357C227.771 369.445 226.995 367.309 225.959 360.513C225.636 357.988 225.506 357.859 224.665 358.895C224.212 359.542 223.435 361.613 223.047 363.49ZM362.915 374.299C332.495 381.289 307.058 387.114 306.476 387.308C304.858 387.761 305.764 389.574 307.511 389.185C315.861 387.503 328.029 384.719 363.562 376.499C416.701 364.137 417.995 363.814 419.549 362.195L420.843 360.901L419.549 361.289C418.837 361.483 393.335 367.309 362.915 374.299Z" fill="black"/>
<path d="M83.1133 15.5337C83.5663 17.7343 83.7605 19.676 83.631 19.8055C83.3074 20.1938 81.8188 13.0742 82.0777 12.2328C82.2718 11.7797 82.7249 13.2684 83.1133 15.5337Z" fill="black"/>
<path d="M74.2463 18.5758C74.2463 19.6761 74.1169 20.5823 73.9874 20.5823C73.4697 20.5823 73.146 17.2814 73.6638 16.9577C73.9874 16.7636 74.2463 17.5402 74.2463 18.5758Z" fill="black"/>
<path d="M86.5438 25.6308C88.1619 29.1906 92.8867 36.1161 103.372 50.1612C116.64 67.8955 121.559 74.9504 120.589 74.9504C120.394 74.9504 119.812 74.109 119.229 73.0087C118.712 71.9731 111.657 62.2645 103.566 51.5204C93.534 38.0578 88.0972 30.2262 86.3496 26.5369C84.9257 23.6243 83.8901 21.1001 84.0195 20.9059C84.2137 20.7765 85.314 22.9124 86.5438 25.6308Z" fill="black"/>
<path d="M159.035 35.4686C159.488 37.2809 159.682 38.899 159.552 39.0284C159.358 39.2226 158.905 37.8634 158.517 35.9864C158.064 34.1741 157.805 32.556 157.999 32.4266C158.129 32.2971 158.582 33.6563 159.035 35.4686Z" fill="black"/>
<path d="M160.2 41.6173C160.2 42.6529 160.07 43.0413 159.876 42.394C159.747 41.8115 159.747 40.9054 159.876 40.4523C160.07 40.064 160.2 40.517 160.2 41.6173Z" fill="black"/>
<path d="M162.789 42.912C162.789 43.9476 162.659 44.3359 162.465 43.6887C162.336 43.1062 162.336 42.2 162.465 41.747C162.659 41.3586 162.789 41.8117 162.789 42.912Z" fill="black"/>
<path d="M160.782 46.4721C160.782 48.0902 160.653 48.7375 160.523 47.8961C160.394 47.1194 160.394 45.8249 160.523 44.9835C160.653 44.2068 160.782 44.854 160.782 46.4721Z" fill="black"/>
<path d="M161.429 53.5915C161.429 55.5332 161.3 56.3746 161.17 55.339C161.041 54.3681 161.041 52.8148 161.17 51.7792C161.3 50.8083 161.429 51.6497 161.429 53.5915Z" fill="black"/>
<path d="M162.141 63.6237C162.141 64.6593 162.012 65.0476 161.817 64.4004C161.688 63.8179 161.688 62.9117 161.817 62.4586C162.012 62.0703 162.141 62.5234 162.141 63.6237Z" fill="black"/>
<path d="M165.377 68.1546C165.377 71.0025 165.183 74.0445 164.924 74.9506C164.601 75.8568 164.536 73.7856 164.665 70.42C165.054 62.5884 165.377 61.4233 165.377 68.1546Z" fill="black"/>
<path d="M161.429 69.4489C161.429 71.1964 161.3 71.9084 161.17 70.8728C161.041 69.902 161.041 68.478 161.17 67.6366C161.3 66.8599 161.429 67.6366 161.429 69.4489Z" fill="black"/>
<path d="M160.847 74.6271C160.847 75.6627 160.717 76.051 160.523 75.4038C160.394 74.8213 160.394 73.9151 160.523 73.4621C160.717 73.0737 160.847 73.5268 160.847 74.6271Z" fill="black"/>
<path d="M122.401 78.1867C122.983 79.6107 123.436 81.4229 123.372 82.2644C123.372 83.041 122.983 82.4585 122.53 80.7757C122.077 79.1576 121.495 77.3453 121.171 76.6981C120.912 76.1156 120.848 75.5978 121.042 75.5978C121.236 75.5978 121.818 76.7628 122.401 78.1867Z" fill="black"/>
<path d="M110.362 78.1863C110.362 79.4161 110.233 79.9339 110.038 79.2866C109.909 78.7041 109.909 77.6685 110.038 77.0213C110.233 76.4388 110.362 76.9566 110.362 78.1863Z" fill="black"/>
<path d="M173.533 79.4812C173.339 80.3873 172.821 81.5523 172.497 82.0701C172.109 82.7174 172.044 82.5232 172.368 81.4229C172.562 80.5168 173.08 79.3517 173.403 78.8339C173.792 78.1867 173.856 78.3809 173.533 79.4812Z" fill="black"/>
<path d="M192.497 100.84C192.497 102.781 192.367 103.623 192.238 102.587C192.108 101.616 192.108 100.063 192.238 99.0275C192.367 98.0566 192.497 98.898 192.497 100.84Z" fill="black"/>
<path d="M193.144 107.96C193.144 109.578 193.015 110.225 192.885 109.384C192.756 108.607 192.756 107.312 192.885 106.471C193.015 105.694 193.144 106.342 193.144 107.96Z" fill="black"/>
<path d="M202.659 114.173C202.917 115.468 202.982 116.633 202.853 116.762C202.659 116.956 202.335 116.05 202.141 114.691C201.882 113.397 201.817 112.231 201.947 112.102C202.141 111.908 202.464 112.814 202.659 114.173Z" fill="black"/>
<path d="M193.791 114.432C193.791 116.05 193.662 116.697 193.532 115.856C193.403 115.079 193.403 113.785 193.532 112.943C193.662 112.167 193.791 112.814 193.791 114.432Z" fill="black"/>
<path d="M203.565 119.287C203.565 120.322 203.435 120.71 203.241 120.063C203.112 119.481 203.112 118.575 203.241 118.121C203.435 117.733 203.565 118.186 203.565 119.287Z" fill="black"/>
<path d="M194.438 121.228C194.438 123.364 194.309 124.14 194.18 122.975C194.05 121.81 194.05 120.063 194.18 119.092C194.309 118.121 194.438 119.092 194.438 121.228Z" fill="black"/>
<path d="M204.212 123.17C204.212 124.206 204.082 124.594 203.888 123.947C203.759 123.364 203.759 122.458 203.888 122.005C204.082 121.617 204.212 122.07 204.212 123.17Z" fill="black"/>
<path d="M205.312 129.642C205.571 131.972 205.636 134.043 205.506 134.238C205.312 134.367 204.989 132.62 204.73 130.225C204.471 127.83 204.406 125.759 204.6 125.629C204.73 125.435 205.053 127.247 205.312 129.642Z" fill="black"/>
<path d="M195.086 130.289C195.086 132.749 194.956 133.72 194.827 132.36C194.698 131.066 194.698 128.995 194.827 127.83C194.956 126.729 195.086 127.765 195.086 130.289Z" fill="black"/>
<path d="M206.089 139.351C206.089 141.487 205.959 142.263 205.83 141.098C205.701 139.933 205.701 138.186 205.83 137.215C205.959 136.244 206.089 137.215 206.089 139.351Z" fill="black"/>
<path d="M195.733 142.587C195.733 144.334 195.603 145.046 195.474 144.011C195.345 143.04 195.345 141.616 195.474 140.775C195.603 139.998 195.733 140.775 195.733 142.587Z" fill="black"/>
<path d="M206.672 151.001C206.672 154.561 206.607 155.92 206.477 154.043C206.348 152.166 206.348 149.253 206.477 147.571C206.607 145.888 206.672 147.441 206.672 151.001Z" fill="black"/>
<path d="M206.089 161.357C206.089 163.105 205.959 163.817 205.83 162.781C205.701 161.81 205.701 160.386 205.83 159.545C205.959 158.768 206.089 159.545 206.089 161.357Z" fill="black"/>
<path d="M108.55 95.0146C109.78 95.7266 110.492 96.2444 110.168 96.2444C109.78 96.2444 108.485 95.7266 107.255 95.0146C106.026 94.3027 105.249 93.7849 105.637 93.7849C105.961 93.7849 107.32 94.3027 108.55 95.0146Z" fill="black"/>
<path d="M162.789 88.5425C162.789 89.4486 162.659 89.7722 162.465 89.3191C162.336 88.9308 162.336 88.1541 162.465 87.701C162.659 87.3127 162.789 87.6363 162.789 88.5425Z" fill="black"/>
<path d="M167.708 95.0146C167.513 95.9208 166.996 97.0858 166.672 97.6036C166.284 98.2508 166.219 98.0567 166.543 96.9563C166.737 96.0502 167.255 94.8852 167.578 94.3674C167.966 93.7201 168.031 93.9143 167.708 95.0146Z" fill="black"/>
<path d="M50.6219 143.363C53.2109 153.396 55.0879 158.12 58.3241 162.457C66.6087 173.654 95.152 203.945 108.032 215.207C117.223 223.298 120.33 225.369 123.307 225.304C125.378 225.239 125.508 225.304 124.213 225.822C121.042 227.051 115.67 223.362 101.301 210.094C92.8867 202.262 71.9161 179.932 62.79 168.994C57.5474 162.651 55.1526 159.221 53.9228 156.179C52.1106 151.648 48.0977 137.15 48.5508 136.697C48.6802 136.567 49.5863 139.545 50.6219 143.363Z" fill="black"/>
</svg>
