<svg width="512" height="512" viewBox="0 0 512 512" fill="none" xmlns="http://www.w3.org/2000/svg">
<g clip-path="url(#clip0_585_320)">
<path d="M1.94287 500H511.054C515.444 500 519 496.481 519 492.129C519 487.78 515.448 484.257 511.054 484.257H493.109V145.779C492.841 144.991 493.09 141.188 489.105 138.953L264.348 13.0256C261.927 11.6581 258.948 11.6581 256.528 13.0256L31.8485 138.953C29.4585 140.29 27.799 143.328 27.799 145.779V484.257H1.946C-2.44382 484.257 -6 487.776 -6 492.129C-6 496.477 -2.44382 500 1.946 500H1.94287ZM460.856 355.125C434.609 345.318 407.252 314.17 402.466 214.08H431.064C427.971 270.418 437.534 315.91 460.857 355.125H460.856ZM446.979 214.08H477.214V351.459C453.495 313.826 443.813 269.662 446.979 214.08ZM477.214 198.341H43.6747V153.674H477.214V198.341ZM89.8303 214.08H118.429C114.582 294.141 95.4855 340.453 60.2868 354.708C83.4292 315.597 92.9119 270.229 89.8303 214.08ZM43.6836 214.08H73.9191C77.093 269.672 67.3956 313.844 43.6836 351.479V214.08ZM134.259 214.08H386.641C391.031 307.04 415.825 359.042 462.316 372.007C438.268 399.891 426.387 436.907 425.867 484.252H95.0352C94.5151 436.91 82.6383 399.887 58.5933 372.007C105.084 359.041 129.877 307.04 134.259 214.08ZM441.607 484.252C442.12 438.975 453.813 404.421 477.219 379.077V484.252H441.607ZM260.441 28.9129L454.979 137.899H65.9802L260.441 28.9129ZM43.6904 379.077C67.0961 404.418 78.7892 438.979 79.3022 484.252L43.6904 484.248V379.077Z" fill="black"/>
<path d="M192.189 175.896H209.469V179.976H192.189V175.896ZM192.621 190.824H212.205V195H187.821V161.4H211.533V165.576H192.621V190.824ZM229.205 195L214.421 161.4H219.605L233.189 192.408H230.213L243.893 161.4H248.693L233.957 195H229.205ZM257.346 175.896H274.626V179.976H257.346V175.896ZM257.778 190.824H277.362V195H252.978V161.4H276.69V165.576H257.778V190.824ZM285.134 195V161.4H289.07L311.294 189H309.23V161.4H314.03V195H310.094L287.87 167.4H289.934V195H285.134ZM330.759 195V165.576H319.239V161.4H347.031V165.576H335.511V195H330.759Z" fill="black"/>
<path opacity="0.65" d="M144.364 412.947C143.834 414.297 143.183 415.597 142.422 416.832C140.268 420.162 138.831 425.418 139.297 428.431C139.585 430.263 141.095 432.166 143.143 433.21C143.627 433.422 144.085 433.688 144.508 434.003C144.508 434.037 144.259 434.969 143.953 436.046C143.549 437.954 143.283 439.888 143.16 441.834L142.949 445.642L137.737 444.421C135.906 444.051 134.096 443.582 132.315 443.017C131.849 442.55 132.243 436.357 132.959 433.065C134.973 423.547 138.958 415.683 143.665 411.909C144.381 411.354 144.997 410.904 145.03 410.904C144.859 411.601 144.637 412.284 144.364 412.947Z" fill="#010101"/>
<path opacity="0.65" d="M278.713 251.769C276.745 253.749 274.535 255.474 272.136 256.902C266.498 260.232 259.743 264.589 259.926 264.733C259.999 264.844 261.292 264.123 262.701 263.157C266.364 260.749 274.357 255.898 274.662 255.898C274.767 255.898 274.196 256.902 273.369 258.118C272.273 259.788 271.265 261.515 270.349 263.29C268.912 266.165 268.879 266.204 268.518 265.233C268.013 263.868 266.509 262.935 265.288 263.218C264.479 263.565 263.746 264.067 263.129 264.695C261.908 265.916 261.875 265.916 260.654 265.411C260.324 265.238 259.963 265.133 259.592 265.102C259.221 265.072 258.848 265.116 258.495 265.233C257.802 265.473 257.074 265.595 256.341 265.594C253.611 265.594 251.346 267.353 249.015 271.305C248.461 272.328 247.757 273.263 246.928 274.08C245.607 274.951 238.392 281.383 237.116 282.965C233.381 287.488 231.871 290.868 230.9 297.046C230.578 299.021 230.073 300.997 229.79 301.486C228.969 302.745 227.276 303.606 224.656 304.072C218.618 305.149 214.705 306.697 208.883 310.249C206.297 311.831 206.297 311.831 204.721 311.359C203.677 311.037 203.677 311.037 206.386 309.35C209.904 307.13 211.936 306.259 217.774 304.427C224.24 302.379 224.812 301.841 226.144 296.341C228.047 288.621 230.706 284.686 238.82 277.593C250.319 267.536 262.063 259.306 271.476 254.782C273.132 254.068 274.652 253.071 275.966 251.835C277.115 250.542 280.206 248.749 281.283 248.749C281.549 248.733 280.4 250.104 278.713 251.769Z" fill="#010101"/>
<path opacity="0.65" d="M356.907 255.098C360.881 264.689 364.744 280.162 365.687 290.563C366.255 295.87 366.145 301.228 365.36 306.508C360.076 346.468 346.634 381.561 327.503 405.37C323.457 410.366 319.633 414.5 317.663 415.882C308.628 422.331 262.096 439.747 250.397 441.029C244.458 441.684 243.476 440.885 242.383 434.58C241.761 430.917 240.746 414.356 240.746 407.763V403.378L244.425 403.123C250.691 402.723 252.195 402.251 261.514 397.65C273.102 391.923 282.976 385.585 291.828 378.192C294.164 376.233 296.418 374.64 296.784 374.64C300.83 374.64 331.111 345.575 338.104 334.958C340.768 330.934 345.94 319.157 347.145 314.422C347.655 312.463 347.25 311.342 345.94 311.048C343.465 310.493 323.385 307.968 321.598 307.968C320.399 307.968 320.249 307.862 320.033 306.858C319.667 304.971 319.778 296.563 320.216 294.498C321.198 289.947 325.35 283.897 334.463 273.713C336.977 270.938 341.534 266.176 344.631 263.168C347.727 260.16 351.407 256.569 352.789 255.159C353.67 254.231 354.608 253.358 355.597 252.545C356.146 253.334 356.586 254.193 356.907 255.098Z" fill="#010101"/>
<path opacity="0.65" d="M247.245 275.356C246.864 276.289 246.432 277.201 245.952 278.087C243.177 283.637 239.88 292.744 239.38 296.335C238.659 301.219 240.957 304.816 247.567 309.195C247.639 309.233 247.422 309.7 247.1 310.205L246.545 311.098L243.77 309.7C237.771 306.68 232.526 305.853 229.34 307.435C228.441 307.868 223.629 311.137 218.634 314.728C213.639 318.319 209.421 321.144 209.383 321.088C209.344 321.033 209.022 319.756 208.667 318.286C208.338 316.909 207.892 315.563 207.335 314.262C207.059 313.782 206.831 313.276 206.652 312.752C206.652 312.502 212.202 309.233 214.772 307.94C217.341 306.647 219.656 305.926 223.896 305.165C227.381 304.516 229.501 303.5 230.217 302.074C230.506 301.519 231.044 299.238 231.438 296.973C232.77 289.109 234.924 285.657 242.932 278.547C246.385 275.467 247.245 274.818 247.245 275.356Z" fill="#010101"/>
<path opacity="0.65" d="M204.998 312.819C206.186 313.179 208.123 318.241 208.123 320.827C208.089 322.048 207.912 322.265 204.282 324.818C202.162 326.288 200.33 327.548 200.225 327.593C200.119 327.637 199.72 326.516 199.398 325.079C198.499 321.416 197.383 319.623 195.624 319.118C193.687 318.563 193.404 318.563 191.456 319.551C189.946 320.306 189.841 320.339 190.418 319.695C191.206 318.829 198.188 313.623 199.681 312.83C200.724 312.291 203.239 312.291 204.998 312.819Z" fill="#010101"/>
<path opacity="0.65" d="M197.522 320.805C198.493 321.455 199.82 324.69 200.109 327.166L200.286 328.831L198.205 330.379C191.345 335.374 184.807 341.512 182.293 345.175C180.961 347.118 179.74 350.276 179.74 351.752C179.759 352.322 179.952 352.872 180.295 353.328C180.8 353.883 180.761 353.978 179.396 354.194C177.886 354.444 177.564 354.877 178.569 355.415C179.074 355.737 179.074 355.77 178.358 356.026C177.886 356.17 177.637 356.453 177.709 356.742C177.781 357.03 177.204 357.247 175.339 357.424C174.241 357.52 173.15 357.675 172.07 357.89C171.421 358.074 171.387 357.89 171.604 354.372C171.853 349.632 172.786 346.718 175.05 343.272C177.315 339.825 185.973 330.507 191.106 325.995C197.211 320.605 197.25 320.572 196.462 320.966C194.375 321.932 180.689 335.369 176.81 340.219C172.825 345.214 171.137 349.704 171.137 355.448V357.929L168.584 358.362C167.713 358.561 166.82 358.656 165.926 358.645C165.71 358.429 166.825 350.32 167.363 348.483C168.551 344.315 172.753 339.143 183.958 328.187C190.818 321.466 193.154 319.779 195.313 320.067C196.092 320.163 196.843 320.414 197.522 320.805Z" fill="#010101"/>
<path opacity="0.65" d="M181.782 409.794C182.465 409.827 182.287 410.116 180.489 411.914C179.021 413.283 177.901 414.982 177.22 416.87C176.61 418.413 175.927 420.028 175.711 420.389C174.316 422.798 173.188 425.351 172.347 428.004C171.559 431.023 171.631 434.664 172.525 436.373C173.424 438.205 175.722 440.147 178.169 441.152C179.601 441.707 180.034 442.084 179.89 442.484C179.246 444.149 178.635 447.728 178.563 450.492C178.491 452.252 178.308 453.656 178.169 453.656C177.914 453.656 153.849 448.156 144.186 445.886C143.321 445.703 143.321 445.703 143.576 442.04C143.672 440.147 143.9 438.262 144.259 436.401C144.725 434.531 144.814 434.425 145.802 434.497C146.357 434.569 147.994 434.642 149.359 434.675C153.633 434.786 154.854 433.704 159.416 425.662C163.256 418.88 166.203 414.939 169.017 412.847C172.863 409.972 175.772 409.039 179.185 409.517C180.178 409.65 181.327 409.794 181.782 409.794Z" fill="#010101"/>
<path opacity="0.4" d="M328.336 415.799C332.576 416.804 336.455 417.847 336.961 418.097C337.787 418.53 337.715 418.563 335.701 418.818C331.096 419.457 326.562 420.527 322.159 422.015C318.246 423.308 317.524 423.453 316.953 423.059C316.268 422.637 315.518 422.334 314.733 422.16C313.623 421.871 313.068 421.51 312.829 420.9C312.219 419.285 312.435 418.818 314.588 417.67C315.698 417.02 317.424 415.944 318.429 415.261C319.044 414.783 319.694 414.351 320.372 413.968C320.505 413.968 324.062 414.795 328.336 415.799Z" fill="#010101"/>
<path opacity="0.65" d="M241.961 416.138C241.961 416.965 241.817 417.032 239.375 417.215L231.605 417.77C225.206 418.275 220.577 418.991 217.663 419.962C211.414 422.01 204.898 429.269 202.073 437.278C201.035 440.297 199.126 448.739 197.977 455.238C197.583 457.535 197.223 458.723 196.94 458.618C196.656 458.512 192.805 457.608 188.209 456.57C180.994 454.905 179.884 454.555 179.696 453.945C179.446 452.901 180.09 446.652 180.667 444.715L181.133 443.094L183.969 443.061C186.017 443.061 187.205 442.845 188.065 442.412C190.507 441.119 193.56 437.456 199.809 428.403C204.371 421.793 205.881 420.251 209.582 418.38L212.635 416.876L220.405 416.66C224.678 416.515 230.106 416.227 232.476 416.01C234.846 415.794 237.61 415.583 238.581 415.511C239.552 415.439 240.74 415.367 241.206 415.328C241.784 415.272 241.961 415.455 241.961 416.138Z" fill="#010101"/>
<path opacity="0.5" d="M241.955 419.329C242.061 420.478 241.056 440.269 240.662 444.687C240.191 449.859 238.825 451.835 233.869 454.283C230.101 456.147 227.692 456.686 211.525 459.094C197.195 461.215 197.7 461.176 197.7 460.204C197.7 457.729 200.752 442.822 202.045 438.87C204.82 430.606 210.953 423.602 217.585 421.11C220.821 419.923 228.613 418.957 240.684 418.274C241.722 418.18 241.844 418.269 241.955 419.329Z" fill="#010101"/>
<path opacity="0.4" d="M340.113 421.504C340.94 423.985 342.949 435.119 342.699 435.801C342.346 436.287 341.861 436.661 341.301 436.878C339.791 437.6 323.541 441.873 323.263 441.623C323.001 440.586 322.834 439.527 322.764 438.46C322.331 434.686 321.937 433.215 320.644 430.662C319.672 428.814 318.868 426.172 318.868 424.846C318.868 423.519 334.064 419.423 338.293 419.601C339.403 419.673 339.541 419.778 340.113 421.504Z" fill="#010101"/>
<path opacity="0.72" d="M312.585 419.934C313.195 421.949 314.527 423.131 316.176 423.131C317.508 423.131 317.508 423.131 317.941 425.179C318.324 426.769 318.883 428.312 319.606 429.78C321.043 432.793 322.381 440.053 321.62 440.558C321.26 440.769 262.923 455.465 262.457 455.465C262.241 455.465 261.991 454.599 261.902 453.595C261.676 452.246 261.253 450.937 260.648 449.71L259.638 447.701L284.785 441.124C298.66 437.494 310.221 434.37 310.504 434.192C311.297 433.759 311.059 433.798 284.102 440.908L259.316 447.446L258.062 446.546C255.725 444.881 254.11 443.1 253.533 441.551C253.29 441.025 253.132 440.463 253.067 439.886C253.139 439.853 254.732 439.42 256.624 438.954C266.969 436.473 296.029 425.767 307.99 420.084C309.228 419.46 310.499 418.905 311.797 418.419C311.974 418.486 312.335 419.168 312.585 419.934Z" fill="#010101"/>
<path opacity="0.65" d="M242.899 435.857C243.454 438.371 244.658 439.914 246.562 440.419L247.961 440.813V444.909C247.961 449.577 248.216 449.294 244.631 448.827L243.016 448.611L242.977 446.946C242.943 444.97 242.422 443.422 241.395 442.345C240.712 441.629 240.712 441.374 241.073 435.269C241.29 431.783 241.506 428.409 241.506 427.759C241.506 427.11 241.756 428.226 242.005 430.201C242.255 432.177 242.644 434.708 242.899 435.857Z" fill="#010101"/>
<path opacity="0.65" d="M253.172 441.623C253.816 443.288 255.148 444.82 258.2 447.295C259.154 448.106 259.956 449.08 260.57 450.17C261.436 452.113 261.863 455.415 261.253 455.415C259.782 455.415 249.509 453.478 249.115 453.117C248.826 452.829 248.61 450.748 248.432 446.541L248.216 440.402L249.076 440.219C249.542 440.147 250.514 440.042 251.23 440.003C252.451 439.969 252.562 440.075 253.172 441.623Z" fill="#010101"/>
<path opacity="0.65" d="M242.25 445.802C242.644 447.417 242.61 447.923 242 449.687C241.671 450.72 241.174 451.692 240.529 452.562C239.63 453.528 237.871 453.711 237.199 452.884C236.838 452.451 237.016 452.057 238.204 450.725C239.641 449.11 240.069 447.95 240.646 444.154C240.823 442.755 240.895 442.683 241.362 443.255C241.783 444.055 242.083 444.914 242.25 445.802Z" fill="#010101"/>
<path d="M305.869 244.321C300.408 244.681 297.678 245.186 293.404 246.585C290.932 247.505 288.316 247.978 285.679 247.984C280.129 248.272 278.319 248.849 275.733 251.252C273.773 252.887 271.611 254.263 269.3 255.348C259.133 260.56 248.144 268.391 236.722 278.658C229.068 285.518 227.054 288.859 224.612 298.772C223.896 301.613 222.997 302.257 217.141 304.127C211.536 305.887 209.133 306.963 204.893 309.589C203.455 310.482 201.768 311.254 201.157 311.348C199.898 311.492 197.744 312.785 193.793 315.838C191.134 317.847 173.424 335.735 170.011 339.869C166.598 344.004 165.304 347.123 164.622 352.945C164.011 358.334 163.978 358.407 162.957 358.69C159.399 359.555 155.187 363.074 153.405 366.665C151.357 370.689 147.905 382.721 146.434 391.018C145.929 393.965 145.879 394.865 146.257 397.057C146.756 399.832 147.8 401.907 149.526 403.556L150.602 404.599L149.021 405.998C148.154 406.765 147.383 407.633 146.723 408.584C145.922 409.627 144.95 410.526 143.848 411.243C137.776 415.522 133.214 425.001 131.383 437.183C130.667 442.067 130.917 444.115 132.459 445.658C133.719 446.918 133.608 446.879 161.414 453.345C194.93 461.143 194.159 460.96 197.156 460.998C200.153 461.037 205.131 460.349 219.428 458.018C228.802 456.47 231.083 455.931 233.686 454.494C235.235 453.667 235.556 453.634 236.811 453.994C239.758 454.888 241.306 454.172 242.455 451.369C243.171 449.643 243.282 449.61 245.974 449.971L247.639 450.22V451.802C247.639 454.533 248.249 454.816 255.72 456.042L262.185 457.08L289.125 450.326C342.044 437.006 341.623 437.139 342.688 435.474C343.243 434.575 343.371 435.402 341.29 424.413C340.352 419.384 339.78 417.947 338.343 417.081C337.299 416.437 330.978 414.711 324.407 413.274C322.858 412.952 321.632 412.558 321.632 412.414C321.632 412.269 321.992 411.859 322.386 411.442C323.641 410.332 328.169 404.871 331.044 401.064C346.89 379.785 358.528 349.354 364.35 313.651C366.503 300.431 366.598 293.893 364.711 282.849C362.879 272.126 357.851 255.459 355.048 250.858C354.038 249.243 351.613 247.984 347.972 247.162C346.207 246.763 344.054 246.263 343.154 246.052C342.255 245.841 339.924 245.442 337.949 245.192C335.973 244.942 333.708 244.554 332.92 244.321C331.266 243.893 312.263 243.893 305.869 244.321ZM333.925 245.664C334.857 246.418 334.68 247.068 333.065 249.149L331.588 251.053L330.295 249.687C328.43 247.734 325.916 247.329 317.258 247.662C313.628 247.773 306.513 247.95 301.485 248.056C292.899 248.239 292.4 248.239 293.582 247.7C297.966 245.686 304.61 245.075 321.282 245.147C330.944 245.186 333.459 245.292 333.925 245.664ZM339.924 246.479C343.254 246.979 343.371 247.268 341.9 249.854C340.929 251.519 340.64 251.863 340.424 251.363C340.069 250.431 338.415 249.698 335.984 249.421L333.853 249.205L334.535 248.311C334.912 247.875 335.159 247.342 335.251 246.774C335.251 245.941 336.334 245.902 339.924 246.479ZM347.694 248.095C350.78 248.81 353.511 250.176 354.016 251.291C354.626 252.657 353.977 253.556 349.67 257.363C339.969 265.91 326.36 281.228 322.081 288.443C319.528 292.683 319.306 293.871 319.306 301.269V307.768L318.157 307.269C317.166 306.921 316.144 306.669 315.105 306.514C313.995 306.336 313.234 306.048 313.273 305.792C313.312 305.537 313.451 303.017 313.523 300.081C313.739 292.789 314.566 290.202 318.229 285.096C322.714 278.736 331.372 268.785 340.679 259.195C344.448 255.31 345.674 253.589 345.674 252.263C345.674 251.58 344.67 250.32 343.698 249.748C343.271 249.532 343.199 249.193 343.343 248.489C343.621 247.329 344.231 247.268 347.683 248.095H347.694ZM320.533 249.027C320.605 250.137 320.605 250.137 320.749 249.205C320.893 248.272 320.999 248.239 323.047 248.239H325.195L325.267 250.459L325.339 252.723L325.444 250.459C325.589 248.239 325.589 248.239 326.554 248.45C328.025 248.805 328.064 248.844 328.064 250.892C328.064 252.723 328.025 252.829 326.915 253.189L325.727 253.583L326.921 253.434L328.07 253.217V259.339L326.632 259.733C326.119 259.815 325.629 260.004 325.195 260.288C325.195 260.399 325.555 260.36 326.022 260.255C326.494 260.099 326.974 259.967 327.459 259.861C327.925 259.716 328.07 259.894 328.142 260.687C328.175 261.242 328.286 259.75 328.43 257.357L328.608 253.051L329.796 252.94C330.872 252.834 330.944 252.906 330.944 253.911C330.944 256.175 330.19 258.651 329.396 258.973C328.713 259.261 328.68 259.3 329.291 259.3C329.651 259.333 329.846 259.516 329.796 259.766C329.746 260.016 329.324 261.131 328.969 262.208C328.358 263.968 328.286 264.079 328.031 263.285C327.775 262.491 327.781 262.674 327.748 263.895C327.728 264.713 327.594 265.524 327.348 266.304C327.065 267.131 326.921 267.203 326.094 266.859C324.479 266.249 323.396 266.465 322.286 267.581C321.759 268.091 321.203 268.571 320.621 269.018C320.261 269.235 320.189 269.373 320.477 269.373C320.766 269.373 320.799 269.629 320.366 270.483C320.185 270.87 319.956 271.232 319.683 271.56C319.538 270.706 319.471 269.84 319.484 268.974C319.445 266.498 319.517 266.282 321.065 263.945C322.103 262.436 323.113 261.359 323.868 260.998C324.479 260.715 324.656 260.571 324.223 260.676C323.219 260.893 323.258 261.07 324.118 258.739C324.453 257.926 324.694 257.077 324.834 256.209C324.834 255.881 324.44 256.636 324.007 257.929C323.541 259.333 322.142 261.814 320.599 264.034C318.013 267.769 316.825 269.24 311.508 275.417C307.557 279.979 302.628 286.845 301.38 289.464C300.336 291.684 300.27 291.762 299.187 291.546C298.405 291.403 297.612 291.333 296.817 291.335C296.135 291.335 292.255 291.118 288.193 290.78C284.13 290.441 280.328 290.225 279.685 290.225C278.641 290.225 278.497 290.086 277.814 288.321C277.42 287.316 277.098 286.656 277.098 286.922C277.169 287.532 277.337 288.126 277.598 288.682C277.886 289.403 278.064 290.047 277.958 290.152C277.853 290.258 277.237 289.758 276.521 289.042C275.805 288.327 275.261 287.894 275.261 288.038C275.337 288.302 275.487 288.539 275.694 288.721C276.521 289.542 275.622 289.581 274.112 288.754C272.137 287.644 270.954 285.879 270.954 283.975C270.954 282.826 271.31 282 272.619 280.09C273.846 278.331 274.384 277.754 274.595 278.115C274.806 278.475 274.884 277.859 274.85 276.783C274.817 275.706 274.739 275.384 274.667 275.883C274.49 276.821 271.337 281.739 271.043 281.489C270.984 280.378 271.019 279.264 271.149 278.159C271.437 275.034 271.437 275.001 272.908 273.669C273.409 273.134 273.985 272.674 274.617 272.304C274.795 272.304 274.939 272.859 274.939 273.453C274.978 274.496 275.05 274.424 275.3 273.025C275.446 272.073 275.529 271.113 275.55 270.15L275.516 268.89L275.372 270.039C275.261 270.905 274.762 271.588 273.396 272.737L271.565 274.279L271.815 271.749C272.248 267.309 272.37 266.937 274.44 264.817L276.377 262.769L276.199 264.745L276.016 266.72L276.521 264.423C276.843 263.129 276.915 262.014 276.771 261.908C276.382 261.413 276.09 260.848 275.911 260.243L275.3 258.767L278.458 255.437C280.473 253.284 281.727 252.168 282.016 252.351C282.304 252.535 282.054 253.106 281.044 254.288C279.54 256.12 277.637 259.389 277.237 260.826C277.132 261.331 277.709 260.36 278.53 258.673C279.751 256.303 280.75 254.938 283.203 252.49C284.929 250.77 286.078 249.476 285.751 249.654C285.137 250.061 284.578 250.544 284.086 251.092C283.042 252.168 282.071 252.562 282.071 251.88C282.416 251.319 282.869 250.833 283.403 250.448C284.158 249.837 284.585 249.338 284.408 249.338C283.804 249.655 283.258 250.072 282.793 250.57C281.999 251.363 281.355 251.68 281.067 251.508C280.778 251.336 281.028 250.953 281.999 250.142C283.22 249.138 283.664 249.032 285.556 249.066L287.71 249.099L285.823 250.659C283.237 252.779 280.151 256.802 279.213 259.283C278.819 260.36 278.53 261.365 278.658 261.437C278.785 261.509 278.98 260.971 279.213 260.216C280.184 257.163 283.059 253.317 286.506 250.52L288.376 248.971L296.113 248.921C302.151 248.883 314.361 248.366 319.933 247.911C320.383 247.884 320.533 248.167 320.533 249.027ZM278.686 252.357C276.716 254.337 274.507 256.064 272.109 257.496C266.47 260.826 259.716 265.183 259.899 265.327C259.971 265.433 261.264 264.717 262.674 263.746C266.337 261.337 274.329 256.486 274.634 256.486C274.739 256.486 274.168 257.496 273.341 258.706C272.243 260.375 271.235 262.102 270.322 263.879C268.918 266.754 268.918 266.809 268.546 265.838C268.041 264.473 266.537 263.54 265.316 263.829C264.508 264.176 263.775 264.675 263.157 265.3C261.936 266.521 261.902 266.521 260.681 266.021C260.352 265.847 259.991 265.742 259.62 265.71C259.25 265.679 258.876 265.722 258.522 265.838C257.83 266.078 257.102 266.2 256.369 266.199C253.638 266.199 251.374 267.958 249.043 271.91C248.492 272.943 247.789 273.888 246.956 274.712C245.607 275.539 238.392 281.966 237.116 283.548C233.381 288.077 231.871 291.451 230.9 297.628C230.578 299.604 230.073 301.58 229.79 302.068C228.969 303.328 227.276 304.188 224.656 304.655C218.618 305.765 214.705 307.28 208.883 310.837C206.297 312.414 206.297 312.414 204.721 311.947C203.677 311.625 203.677 311.625 206.386 309.938C209.904 307.718 211.936 306.847 217.774 305.015C224.24 302.967 224.812 302.429 226.144 296.935C228.047 289.209 230.706 285.28 238.82 278.181C250.319 268.125 262.063 259.899 271.476 255.371C273.132 254.658 274.651 253.663 275.966 252.429C277.115 251.136 280.206 249.338 281.283 249.338C281.549 249.316 280.401 250.659 278.713 252.368L278.686 252.357ZM330.006 250.104C330.31 250.618 330.563 251.161 330.761 251.724C330.978 252.473 330.872 252.546 329.723 252.546C328.43 252.546 328.43 252.546 328.43 250.931C328.43 249.099 329.113 248.738 330.006 250.104ZM339.097 250.969C340.424 251.974 340.762 253.373 340.246 255.964C339.691 258.95 339.136 259.883 335.434 263.762L332.188 267.17L331.005 266.615C329.895 266.06 329.784 266.11 328.702 266.898C327.376 267.869 327.376 268.047 329.257 263.129C330.617 259.694 331.633 255.243 331.633 253.051C331.612 252.644 331.674 252.237 331.817 251.855C331.959 251.473 332.178 251.125 332.46 250.831C333.176 250.037 333.503 250.004 335.656 250.109C337.41 250.215 338.376 250.464 339.097 250.969ZM343.909 250.786C345.669 252.046 345.169 253.7 342.078 256.68C340.413 258.345 340.285 258.401 340.64 257.396C340.919 256.471 341.063 255.51 341.068 254.544C341.101 253.001 342.178 250.054 342.733 250.054C343.151 250.254 343.545 250.5 343.909 250.786ZM280.939 252.152C279.964 253.416 278.907 254.616 277.775 255.742C276.11 257.541 274.445 259.372 274.112 259.805C273.646 260.416 273.502 260.488 273.469 260.055C273.557 259.583 273.781 259.148 274.112 258.8C274.555 258.288 274.963 257.747 275.333 257.18C276.416 255.515 280.006 251.83 280.545 251.83C280.833 251.83 281.011 251.974 280.939 252.152ZM356.014 255.482C359.938 264.978 363.739 280.318 364.672 290.619C365.227 295.88 365.119 301.191 364.35 306.425C359.144 346.013 345.885 380.795 327.026 404.422C323.041 409.378 319.256 413.474 317.33 414.839C308.417 421.233 262.546 438.477 251.019 439.77C245.163 440.413 244.192 439.625 243.116 433.371C242.505 429.746 241.495 413.329 241.495 406.792V402.451L245.125 402.196C251.302 401.802 252.778 401.336 261.974 396.774C272.674 391.564 282.708 385.087 291.861 377.482C294.159 375.545 296.385 373.963 296.745 373.963C300.73 373.963 330.6 345.153 337.482 334.63C340.102 330.64 345.202 318.968 346.39 314.262C346.89 312.319 346.496 311.209 345.202 310.932C342.76 310.377 322.969 307.879 321.21 307.879C320.022 307.879 319.878 307.768 319.661 306.769C319.306 304.904 319.412 296.568 319.844 294.52C320.81 290.03 324.906 284.031 333.886 273.935C336.367 271.16 340.857 266.465 343.909 263.485C346.962 260.504 350.569 256.947 351.957 255.548C352.825 254.627 353.752 253.764 354.732 252.962C355.272 253.744 355.703 254.595 356.014 255.493V255.482ZM274.429 264.173L272.486 266.149L272.775 264.484C272.919 263.551 273.063 262.508 273.063 262.186C273.268 261.534 273.611 260.934 274.068 260.427L275.023 259.267L275.705 260.737L276.349 262.247L274.429 264.173ZM271.981 265.111C271.554 267.769 270.316 270.389 269.761 269.706C269.545 269.384 269.511 269.418 269.656 269.851C269.8 270.283 269.262 271.466 268.396 272.903C267.53 274.341 266.997 275.095 267.103 274.807C267.208 274.518 267.608 273.014 268.074 271.477C268.579 269.812 269.045 268.779 269.262 268.924C269.478 269.068 269.545 268.924 269.439 268.602C269.334 268.28 269.545 267.342 269.905 266.482C270.621 264.9 272.125 262.53 272.275 262.713C272.245 263.522 272.15 264.328 271.992 265.122L271.981 265.111ZM267.491 265.183C268.318 266.365 268.246 267.231 267.314 267.015C267.007 266.973 266.695 266.996 266.398 267.082C266.101 267.168 265.825 267.315 265.588 267.514L264.622 268.236L263.684 267.481C262.79 266.759 262.751 266.693 263.329 265.971C264.738 264.295 266.642 263.934 267.502 265.194L267.491 265.183ZM262.047 267.309C263.878 268.241 267.003 271.327 267.003 272.193C266.918 272.964 266.749 273.723 266.498 274.457C266.248 275.351 265.637 278.009 265.205 280.379C264.416 284.403 264.128 285.157 260.892 291.518C256.619 299.921 254.826 302.723 251.879 305.598L249.615 307.818L248.571 307.208C246.562 306.059 244.442 303.617 243.831 301.713C242.932 299.055 243.221 294.531 244.553 290.791C246.995 283.753 252.384 272.687 255.098 269.146C256.352 267.481 256.569 266.881 255.653 267.636C254.149 268.896 248.543 279.563 245.813 286.423C243.593 291.973 242.905 294.748 242.866 297.989C242.832 301.98 244.592 305.032 248.327 307.546C249.121 308.051 249.154 308.157 248.616 308.373C247.827 308.695 243.909 305.964 242.078 303.811C240.496 301.98 239.525 298.999 239.858 296.84C240.612 291.307 248.105 273.597 251.446 269.529C252.956 267.697 254.537 266.798 255.831 267.053C256.323 267.18 256.843 267.129 257.301 266.909C258.239 266.343 260.498 266.521 262.047 267.309ZM319.09 268.28C319.09 269.573 318.979 269.717 317.613 270.256C316.825 270.583 316.215 270.722 316.287 270.583C317.119 269.304 318.031 268.079 319.017 266.915C319.085 267.366 319.11 267.824 319.09 268.28ZM331.227 267.381C331.516 267.708 330.672 268.857 327.997 271.943C326.022 274.207 323.113 277.659 321.565 279.596C320.016 281.533 318.729 283.01 318.729 282.865C318.729 282.36 321.354 277.837 323.469 274.64C328.031 267.814 330.045 265.949 331.227 267.381ZM268.007 267.864C268.329 268.474 267.83 270.877 267.364 270.877C266.887 270.59 266.462 270.226 266.104 269.801C265.099 268.757 265.099 268.724 265.743 268.008C266.537 267.131 267.574 267.059 268.007 267.864ZM326.238 267.669C326.635 267.772 327.01 267.943 327.348 268.174C327.348 268.247 325.805 270.616 323.868 273.453C322.071 276.086 320.428 278.821 318.945 281.644C318.118 283.309 316.97 285.49 316.392 286.495C315.696 287.65 315.06 288.842 314.489 290.064L313.662 291.862L313.917 290.241C314.472 286.356 318.729 274.651 321.132 270.345C322.897 267.203 323.685 266.754 326.238 267.669ZM271.132 271.554L270.882 272.492L270.521 271.593C270.415 271.302 270.37 270.993 270.388 270.683C270.406 270.374 270.487 270.072 270.627 269.795L271.099 268.896L271.243 269.762C271.309 270.359 271.274 270.963 271.138 271.549L271.132 271.554ZM319.09 271.554C319.09 273.219 317.83 276.549 316.87 277.41C316.514 277.737 316.37 278.059 316.587 278.131C317.053 278.275 316.082 279.996 314.072 282.51C312.596 284.342 312.407 284.453 312.202 283.698C311.997 282.943 311.986 283.015 311.952 283.948C311.913 285.28 309.938 287.683 307.745 289.159C305.703 290.485 305.559 290.524 305.342 289.448C305.198 288.765 305.198 288.798 305.126 289.659C305.092 290.741 304.476 291.096 302.145 291.457C300.852 291.634 300.852 291.634 301.174 290.702C301.729 289.087 303.905 285.779 304.338 285.89C304.549 285.923 304.732 285.707 304.732 285.385C304.732 284.453 306.13 282.438 306.952 282.155C307.385 282.044 307.507 281.827 307.313 281.689C307.118 281.55 307.868 280.323 309.249 278.631L311.553 275.795V279.741L309.755 280.568C308.783 281.034 308.028 281.467 308.09 281.539C308.151 281.611 308.883 281.356 309.705 280.984C311.503 280.051 311.469 280.051 311.647 281.023C311.791 281.772 311.791 281.739 311.864 280.912C311.936 280.085 312.208 279.813 313.873 279.13C314.983 278.664 315.815 278.27 315.743 278.159C315.105 278.267 314.487 278.473 313.911 278.769C312.974 279.163 312.113 279.491 312.041 279.491C311.902 278.829 311.854 278.151 311.897 277.476C311.897 275.645 312.041 275.323 313.445 273.669C314.738 272.126 317.719 270.15 318.829 270.15C318.979 270.15 319.09 270.761 319.09 271.549V271.554ZM270.56 272.664C271.115 274.529 270.916 275.073 268.795 277.87L267.075 280.174L266.681 279.064C266.32 278.026 266.498 275.867 266.964 275.867C267.557 275.159 268.053 274.375 268.44 273.536C268.829 272.698 269.324 271.913 269.911 271.199C270.236 271.635 270.465 272.134 270.583 272.664H270.56ZM247.25 275.356C246.87 276.289 246.438 277.201 245.957 278.087C243.182 283.637 239.885 292.744 239.386 296.335C238.664 301.219 240.962 304.816 247.572 309.195C247.644 309.233 247.428 309.7 247.106 310.205L246.551 311.098L243.776 309.7C237.776 306.68 232.532 305.853 229.346 307.435C228.447 307.868 223.635 311.137 218.64 314.728C213.645 318.319 209.421 321.144 209.383 321.088C209.344 321.033 209.022 319.756 208.667 318.286C208.338 316.909 207.892 315.563 207.335 314.262C207.059 313.782 206.831 313.276 206.652 312.752C206.652 312.502 212.202 309.233 214.772 307.94C217.341 306.647 219.656 305.926 223.896 305.165C227.381 304.516 229.501 303.5 230.217 302.074C230.506 301.519 231.044 299.238 231.438 296.973C232.77 289.109 234.924 285.657 242.932 278.547C246.384 275.467 247.245 274.818 247.245 275.356H247.25ZM270.416 279.563C270.233 281.75 269.95 283.259 269.517 283.942L268.868 284.985L268.113 282.937C267.817 282.184 267.567 281.413 267.364 280.629C267.364 280.273 270.2 276.283 270.449 276.283C270.583 276.255 270.521 277.765 270.416 279.563ZM266.642 280.318C266.587 280.867 266.375 281.389 266.032 281.822C265.477 282.505 265.477 282.471 265.71 281.322C265.812 280.751 265.884 280.175 265.926 279.596C265.926 279.308 266.104 279.202 266.281 279.308C266.459 279.413 266.642 279.885 266.642 280.318ZM267.902 283.259L268.546 285.235L266.464 288.288C265.316 289.953 264.305 291.274 264.244 291.201C264.288 289.993 264.433 288.79 264.677 287.605C265.182 284.375 266.292 281.284 266.942 281.284C267.075 281.284 267.502 282.183 267.902 283.259ZM314.744 284.591C314.022 286.961 314.022 286.961 312.013 287.716C310.937 288.11 309.965 288.471 309.854 288.471C309.743 288.471 310.409 287.605 311.403 286.567C312.397 285.55 313.324 284.469 314.178 283.332C314.733 282.577 315.255 282.038 315.327 282.111C315.216 282.955 315.02 283.786 314.744 284.591ZM271.171 286.889C271.565 287.444 272.031 288.077 272.209 288.36C272.464 288.759 272.32 289.081 271.598 289.725C271.192 290.014 270.847 290.38 270.583 290.802C270.583 291.09 266.143 296.352 265.915 296.352C265.771 296.352 265.515 295.919 265.266 295.342C264.905 294.482 264.872 294.482 265.088 295.275C265.193 295.775 265.377 296.352 265.443 296.568C265.51 296.785 265.088 297.573 264.478 298.328L263.368 299.726L263.617 296.674C263.873 293.405 263.978 293.044 264.483 293.838C264.91 294.52 264.949 294.121 264.516 293.011C264.194 292.217 264.444 291.679 266.348 288.948C268.396 286.04 268.568 285.862 269.045 286.506C269.522 287.15 269.545 287.117 269.328 286.218C269.205 285.612 269.281 284.983 269.545 284.425L270.028 283.62L270.283 284.769C270.449 285.523 270.749 286.242 271.171 286.889ZM263.767 289.009C263.623 289.98 263.212 294.215 262.835 298.383L262.224 305.964L263.051 307.363C264.095 309.028 264.2 312.464 263.229 315.194C262.585 317.064 252.684 335.274 252.201 335.457C252.111 335.519 252.038 335.602 251.988 335.699C251.938 335.796 251.912 335.903 251.912 336.012C251.912 336.229 249.864 340.18 247.35 344.776C243.904 351.064 242.61 353.101 242.216 352.929C241.534 352.679 236.827 352.141 231.333 351.747C229.843 351.684 228.359 351.515 226.893 351.241C226.782 351.136 228.186 349.049 230.018 346.607C234.685 340.358 238.814 334.07 240.435 330.695C241.615 327.967 242.56 325.143 243.26 322.254C245.702 312.735 246.201 311.764 250.836 307.524C253.244 305.304 254.071 304.749 254.105 305.226C254.138 305.704 254.288 305.404 254.465 304.793C255.101 303.303 255.87 301.872 256.763 300.52C257.576 299.268 258.318 297.971 258.983 296.635C259.233 295.847 259.272 295.88 259.538 296.74C259.804 297.601 259.788 297.567 259.827 296.491C259.86 295.558 263.778 286.867 264.028 287.15C263.982 287.775 263.895 288.396 263.767 289.009ZM313.318 290.48C313.062 292.028 312.707 293.499 312.491 293.716C311.711 294.211 310.879 294.621 310.01 294.937C308.861 295.364 308.001 295.797 308.073 295.869C308.881 295.728 309.666 295.474 310.404 295.114C311.175 294.775 311.962 294.475 312.763 294.215C312.878 295.046 312.904 295.887 312.84 296.724L312.801 299.205L308.916 303.189C305.825 306.353 304.821 307.174 304.032 307.174C302.129 307.174 296.262 308.362 293.326 309.294C292.359 309.656 291.362 309.932 290.346 310.121C290.346 309.622 294.042 303.622 294.725 302.973C296.44 301.836 298.215 300.793 300.042 299.848C302.523 298.555 304.393 297.479 304.21 297.479C302.712 298.115 301.25 298.834 299.831 299.632C297.611 300.82 295.696 301.791 295.552 301.791C295.197 301.791 297.711 298.378 300.514 295.07C302.556 292.667 303.35 292.017 304.676 291.551C305.734 291.189 306.74 290.689 307.668 290.064C308.85 289.276 313.379 287.333 313.628 287.55C313.662 287.605 313.523 288.898 313.318 290.48ZM275.955 290.48C276.027 290.552 275.311 291.484 274.34 292.6C272.675 294.615 272.614 294.615 272.148 293.788L271.648 292.961L271.898 293.86C271.975 294.224 272.072 294.583 272.186 294.937C271.492 296.094 270.725 297.206 269.889 298.267L267.552 301.391L267.047 299.915C266.797 299.127 266.492 298.555 266.437 298.622C266.471 299.195 266.604 299.759 266.831 300.287L267.386 301.835L265.66 304.311C264.727 305.643 263.828 306.719 263.612 306.647C263.057 306.503 262.857 304.599 263.179 302.301C263.54 299.859 265.399 296.985 266.02 297.861C266.27 298.183 266.303 298.145 266.159 297.678C266.015 297.212 266.664 296.169 268.351 294.16C270.688 291.385 270.76 291.324 271.226 292.112C271.693 292.9 271.659 292.9 271.476 291.862C271.392 291.495 271.399 291.114 271.496 290.75C271.593 290.386 271.776 290.052 272.031 289.775L272.803 288.832L274.312 289.581C275.122 290.014 275.872 290.408 275.944 290.48H275.955ZM290.901 291.668C296.251 292.062 301.102 292.278 301.64 292.167C302.573 291.99 302.467 292.167 300.203 294.898C296.963 298.703 294.089 302.804 291.617 307.147C289.713 310.477 289.569 310.632 287.665 311.426L285.729 312.253L279.624 311.426C276.244 310.959 273.296 310.488 273.086 310.343C272.875 310.199 272.941 308.984 273.48 306.286C273.806 304.905 274.022 303.5 274.123 302.085C274.051 301.869 273.624 303.667 273.158 306.037C272.259 310.776 272.148 310.887 270.638 308.118L269.778 306.536L270.854 304.96C272.797 302.185 274.123 300.648 274.268 301.075C274.34 301.286 274.701 299.921 275.061 298.017C275.332 296.812 275.499 295.587 275.561 294.354C275.455 294.282 275.167 295.431 274.917 296.907C274.59 298.811 274.362 299.493 274.123 299.171C273.885 298.849 273.84 298.883 273.979 299.349C274.118 299.815 273.424 300.964 271.898 303.051C269.85 305.742 269.528 306.031 269.206 305.454C268.884 304.877 268.845 304.988 269.023 305.776C269.278 306.963 267.985 309.3 267.086 309.3C266.187 309.3 264.139 307.968 264.139 307.469C264.139 307.213 264.894 305.92 265.804 304.594L267.469 302.113L268.113 303.478C268.906 305.143 268.979 304.81 268.224 303.012L267.669 301.685L269.733 298.944C270.843 297.395 271.992 295.925 272.281 295.614C272.569 295.303 273.43 294.215 274.257 293.172C275.3 291.879 275.838 291.446 276.055 291.734C276.271 292.023 276.343 291.917 276.343 291.379C276.343 290.552 276.416 290.552 278.785 290.763C280.112 290.913 285.568 291.307 290.89 291.668H290.901ZM312.801 304.133C312.737 304.869 312.463 305.572 312.013 306.159C311.458 306.592 306.513 307.202 306.513 306.808C306.513 306.736 307.917 305.226 309.677 303.478L312.801 300.315L312.912 301.502C312.975 302.381 312.938 303.263 312.801 304.133ZM317.469 307.463L319.267 308.018L319.7 310.893C319.917 312.475 320.255 315.633 320.383 317.936L320.633 322.098L317.436 322.498C311.075 323.319 303.006 325.728 297.717 328.425C293.87 330.329 286.062 335.607 278.136 341.607C273.396 345.236 266.892 349.687 263.412 351.774C258.023 354.971 253.977 355.937 247.173 355.659C243.51 355.515 243.543 355.587 244.98 352.068C249.182 341.473 262.474 327.648 278.136 317.508C288.481 310.793 295.702 308.312 306.913 307.491C309.427 307.346 311.725 307.019 312.086 306.808C312.874 306.431 315.027 306.68 317.469 307.474V307.463ZM237.044 307.857C239.991 308.612 245.807 311.187 245.807 311.742C245.576 312.614 245.275 313.466 244.908 314.289C244.113 316.526 243.443 318.805 242.899 321.116L241.822 325.717L240.241 326.472C238.731 327.188 238.576 327.188 237.294 326.683C235.605 326.102 233.876 325.646 232.121 325.317C230.001 324.923 228.236 324.424 228.236 324.28C228.236 324.135 230.173 322.553 232.615 320.827C237.288 317.497 238.165 316.482 237.826 314.972C237.499 313.751 235.923 313.141 229.884 311.92L225.106 310.954L227.082 309.516C230.622 306.969 232.371 306.68 237.044 307.868V307.857ZM270.699 308.789C271.454 310.049 271.565 310.404 271.132 310.227C270.688 310.095 270.229 310.022 269.767 310.01C268.224 310.01 267.935 309.511 268.657 308.251C268.861 307.824 269.155 307.446 269.517 307.141C269.989 307.634 270.387 308.193 270.699 308.801V308.789ZM327.348 309.111C337.804 310.404 345.169 311.52 345.563 311.886C346.246 312.441 346.118 313.285 345.008 316.593C341.922 325.473 338.615 332.183 335.201 336.673C327.481 346.801 313.073 361.132 301.041 370.655C297.089 373.78 296.229 373.924 294.503 371.66C293.604 370.439 293.571 370.4 294.181 369.468C294.614 368.785 294.969 368.607 295.546 368.752C296.124 368.896 296.157 368.89 295.796 368.641C295.435 368.391 295.435 368.247 295.979 368.086C296.729 367.83 300.936 362.536 306.647 354.721C317.924 339.276 322.919 327.31 322.125 317.647L321.876 314.667L324.895 314.883C326.56 314.989 330.567 315.244 333.803 315.438C337.038 315.633 339.73 315.832 339.802 315.905C339.792 316.468 339.708 317.028 339.553 317.57C339.369 318.43 339.264 319.235 339.369 319.296C339.475 319.357 339.763 318.358 340.091 317.031C340.292 316.189 340.447 315.337 340.557 314.478C340.518 314.445 336.117 314.156 330.783 313.796C325.45 313.435 320.977 313.08 320.832 312.969C320.688 312.858 320.438 311.714 320.333 310.454L320.083 308.196L321.482 308.406C322.198 308.479 324.873 308.839 327.348 309.122V309.111ZM268.079 310.371C268.993 310.608 269.92 310.794 270.854 310.926C271.354 310.942 271.844 311.065 272.292 311.287C272.436 311.431 271.737 312.258 270.782 313.118C269.828 313.979 268.951 314.628 268.879 314.556C268.94 314.044 269.085 313.545 269.306 313.08C269.559 312.628 269.707 312.125 269.739 311.609C269.667 311.503 269.128 312.613 268.629 314.051C266.47 319.906 260.004 330.501 255.659 335.352C254.077 337.111 251.996 339.592 251.024 340.813C249.515 342.755 248.616 343.688 249.121 342.789C251.563 338.515 263.129 317.259 263.551 316.276C263.997 314.867 264.262 313.407 264.339 311.931L264.555 308.989L265.488 309.455C266.321 309.845 267.188 310.155 268.079 310.382V310.371ZM277.709 311.986C277.59 312.532 277.384 313.055 277.098 313.535C276.416 314.828 274.007 317.159 273.685 316.804C273.462 316.049 273.293 315.279 273.18 314.5L272.786 312.347L273.002 314.5C273.285 317.769 273.469 319.135 273.646 319.318C273.757 319.39 273.829 318.99 273.829 318.38C273.804 318.046 273.874 317.712 274.033 317.417C274.191 317.122 274.431 316.878 274.723 316.715C275.228 316.393 275.622 316.16 275.622 316.282C275.622 316.931 273.613 319.767 272.675 320.45C272.031 320.916 271.01 321.671 270.377 322.115C269.267 322.942 269.228 322.942 269.051 322.226C268.906 321.671 269.3 321.116 270.954 319.784C272.103 318.885 273.002 318.058 272.93 317.952C272.858 317.847 271.992 318.508 271.027 319.318C270.392 319.857 269.719 320.348 269.012 320.789C268.906 320.789 268.795 319.529 268.795 318.014V315.239L271.171 313.224L273.541 311.215L275.55 311.537C276.282 311.625 277.005 311.779 277.709 311.997V311.986ZM230.9 312.819C235.173 313.679 237.149 314.484 237.471 315.366C237.793 316.249 234.635 318.746 226.049 324.635C204.643 339.292 204.893 339.148 202.556 339.148C200.547 339.148 197.167 338.321 193.72 336.956L190.846 335.846L193.621 333.626C195.163 332.405 201.846 327.554 208.456 322.814C215.066 318.075 221.31 313.579 222.297 312.819C224.29 311.281 223.679 311.315 230.9 312.819ZM284.247 312.924C283.502 313.545 282.695 314.086 281.838 314.539C280.473 315.294 278.508 316.515 277.398 317.237C276.288 317.958 275.206 318.674 274.956 318.813C274.706 318.952 275.134 317.847 275.994 316.299C278.547 311.526 277.97 311.953 281.311 312.347C282.915 312.502 284.247 312.752 284.247 312.896V312.924ZM205.326 312.78C206.508 313.141 208.45 318.202 208.45 320.789C208.411 322.015 208.234 322.226 204.604 324.779C202.484 326.25 200.652 327.51 200.547 327.582C200.441 327.654 200.042 326.505 199.72 325.068C198.821 321.399 197.711 319.606 195.946 319.101C194.009 318.546 193.726 318.546 191.783 319.534C190.274 320.289 190.163 320.322 190.74 319.679C191.528 318.813 198.51 313.607 200.009 312.819C201.046 312.214 203.566 312.214 205.326 312.752V312.78ZM331.483 314.156C335.651 314.439 339.347 314.711 339.708 314.711C340.174 314.711 340.318 314.817 340.069 315.066C339.636 315.499 321.965 314.511 321.459 313.99C320.954 313.468 322.359 313.507 331.483 314.156ZM321.748 317.636C322.536 327.698 317.042 340.302 304.61 356.902C300.625 362.181 296.024 367.891 295.846 367.714C295.669 367.536 296.64 366.349 297.789 364.939C314.561 344.326 321.926 329.202 320.993 317.259C320.849 315.211 320.882 314.273 321.138 314.417C321.393 314.561 321.604 316.021 321.748 317.636ZM268.152 321.588C267.393 322.343 266.588 323.051 265.743 323.708C264.666 324.574 263.878 325.323 263.95 325.373C264.022 325.423 265.06 324.729 266.209 323.708C266.944 323.027 267.739 322.414 268.585 321.876C268.69 321.876 268.795 322.198 268.795 322.559C268.795 322.92 267.83 324.069 266.209 325.334C264.811 326.483 263.301 327.743 262.879 328.17C262.457 328.597 261.514 329.463 260.759 330.113L259.394 331.295L260.593 329.469C261.206 328.466 261.93 327.535 262.751 326.694C263.362 326.189 263.717 325.617 263.612 325.434C263.506 325.251 264.117 323.858 265.01 322.309C265.904 320.761 266.986 318.718 267.452 317.747L268.279 315.988L268.462 318.469C268.585 320.261 268.474 321.144 268.152 321.588ZM196.767 320.222C197.739 320.872 199.065 324.107 199.354 326.583L199.537 328.248L197.45 329.796C190.59 334.791 184.052 340.93 181.538 344.593C180.206 346.535 178.985 349.693 178.985 351.169C179.004 351.739 179.198 352.29 179.54 352.746C180.045 353.301 180.012 353.395 178.647 353.611C177.137 353.861 176.815 354.294 177.82 354.832C178.319 355.154 178.319 355.188 177.603 355.443C177.137 355.587 176.887 355.87 176.954 356.159C177.02 356.447 176.454 356.664 174.584 356.841C173.487 356.937 172.395 357.093 171.315 357.308C170.671 357.491 170.632 357.308 170.849 353.789C171.099 349.049 172.037 346.135 174.301 342.689C176.565 339.242 185.218 329.924 190.357 325.412C196.462 320.023 196.495 319.989 195.707 320.383C193.626 321.349 179.94 334.813 176.06 339.636C172.07 344.631 170.383 349.121 170.383 354.866V357.346L167.83 357.779C166.959 357.977 166.069 358.072 165.177 358.062C164.96 357.846 166.07 349.765 166.609 347.9C167.796 343.732 171.998 338.56 183.209 327.604C190.069 320.883 192.405 319.196 194.558 319.484C195.337 319.579 196.088 319.83 196.767 320.222ZM320.127 324.535C319.7 327.121 317.613 333.121 315.687 337.25C312.13 344.798 305.697 354.133 295.286 367.031C293.186 369.724 290.763 372.147 288.071 374.246C279.807 380.673 269.789 386.318 256.93 391.74C251.252 394.11 248.954 394.687 244.536 394.865L241.301 394.97L241.195 386.351C241.012 373.741 241.839 362.641 243.276 357.075L243.637 355.781L246.412 356.031C251.479 356.503 257.152 355.532 261.07 353.589C263.617 352.296 271.126 347.307 276.371 343.388C289.913 333.259 295.624 329.558 301.346 327.227C306.896 324.962 315.643 322.731 319.489 322.626C320.416 322.598 320.416 322.598 320.127 324.535ZM231.477 325.828C235.999 326.727 238.261 327.517 238.265 328.198C238.265 329.458 235.318 331.395 224.257 337.433C211.936 344.149 207.873 345.442 200.908 344.864C198.821 344.687 195.591 344.309 193.72 344.004C189.835 343.36 188.587 343.288 189.408 343.754C190.74 344.47 198.427 345.42 203.239 345.42C207.623 345.42 208.594 345.308 210.781 344.554C214.483 343.261 218.362 341.429 225.55 337.477C236.217 331.661 238.981 329.757 238.981 328.176C238.981 327.671 239.38 327.204 240.241 326.81C241.101 326.416 241.495 326.344 241.495 326.627C241.056 327.885 240.529 329.111 239.919 330.296C238.254 333.742 234.274 339.886 229.174 346.746C226.338 350.52 225.977 350.914 224.734 351.092C223.296 351.308 218.84 350.914 215.826 350.304C211.805 349.425 207.723 348.849 203.616 348.577C195.68 348.145 182.604 350.664 182.604 352.601C182.604 352.995 182.387 353.156 181.993 352.995C179.69 352.385 179.729 352.385 179.729 351.13C179.729 348.039 182.132 344.16 187.199 339.237L190.18 336.295L192.572 337.239C193.898 337.738 196.523 338.565 198.427 339.07C203.921 340.508 203.566 340.652 215.954 332.283C221.809 328.364 226.843 325.134 227.165 325.134C227.487 325.134 229.429 325.434 231.477 325.828ZM207.373 349.499L208.989 349.754L207.19 350.004C203.133 350.559 199.687 352.34 198.21 354.566C197.816 355.121 197.311 355.643 197.1 355.643C196.207 355.643 184.335 353.128 183.742 352.807C183.148 352.485 183.347 352.374 184.496 351.874C186.289 351.119 191.156 350.004 194.264 349.571C197.372 349.138 205.142 349.144 207.373 349.499ZM214.627 350.559C215.737 350.809 215.671 350.842 213.8 351.025C212.703 351.157 211.627 351.435 210.604 351.852C209.166 352.601 208.7 352.207 209.888 351.241C210.387 350.809 210.531 350.559 210.243 350.686C209.716 350.985 209.279 351.421 208.977 351.946C208.456 352.629 207.743 353.141 206.929 353.417C205.387 353.917 201.829 356.003 202.118 356.253C202.223 356.364 202.761 356.109 203.372 355.698C204.56 354.832 207.324 353.539 207.934 353.506C208.328 353.506 208.328 353.756 207.901 356.414L207.718 357.746L204.915 357.191C203.411 356.908 202.007 356.547 201.829 356.37C201.651 356.192 201.646 355.11 201.79 353.889L202.045 351.735L203.71 351.18C204.648 350.892 205.725 350.57 206.119 350.498C207.262 350.254 213.334 350.326 214.627 350.559ZM215.599 352.351C214.958 353.093 214.144 353.665 213.229 354.016C212.1 354.51 211.028 355.124 210.032 355.848C208.195 357.247 208.128 357.285 208.267 356.403C208.339 356.076 208.522 355.176 208.628 354.46C208.805 353.384 209.094 352.951 209.993 352.524C211.407 351.699 213.024 351.287 214.661 351.336L216.387 351.297L215.599 352.351ZM220.122 351.669C218.329 352.424 215.632 353.034 215.632 352.746C215.632 352.191 217.852 351.38 219.406 351.38C220.483 351.369 220.632 351.441 220.122 351.669ZM227.67 352.024C228.225 352.24 227.953 352.424 226.41 352.779C225.329 353.038 224.262 353.351 223.213 353.717C222.064 354.216 222.025 354.183 222.242 353.389C222.34 353.049 222.412 352.702 222.458 352.351C222.458 351.763 226.371 351.513 227.67 352.013V352.024ZM201.407 354.361C201.263 355.582 200.98 356.375 200.725 356.375C199.615 356.375 198.033 355.903 198.033 355.548C198.033 355.193 201.263 351.957 201.479 352.168C201.59 352.224 201.551 353.239 201.407 354.349V354.361ZM222.098 352.313C222.064 353.606 221.454 354.361 219.622 355.293C218.478 355.856 217.384 356.517 216.353 357.269L215.094 358.207L214.988 357.058C214.772 355.043 215.205 353.606 216.098 353.317C219.978 352.085 222.098 351.73 222.098 352.302V352.313ZM228.402 353.811C227.787 354.729 226.912 355.442 225.888 355.859C224.741 356.454 223.679 357.201 222.73 358.079L221.543 359.372L222.908 358.223C224.201 357.113 227.076 355.448 227.292 355.709C227.425 356.493 227.508 357.285 227.542 358.079L227.687 360.343L225.35 360.094C221.543 359.7 221.365 359.539 221.365 357.363C221.365 355.188 221.581 354.738 222.98 354.166C224.379 353.595 228.691 352.501 228.835 352.618C228.773 353.041 228.625 353.446 228.402 353.811ZM235.196 352.623C235.59 352.768 234.474 353.178 232.321 353.733C231.128 354.098 229.9 354.34 228.658 354.455C228.586 354.344 228.763 353.844 229.085 353.345C229.64 352.485 229.912 352.413 232.143 352.413C233.171 352.387 234.198 352.458 235.212 352.623H235.196ZM243.671 353.239C243.31 353.561 243.276 353.523 243.493 353.023C243.598 352.662 243.815 352.468 243.92 352.59C244.026 352.712 243.942 352.984 243.687 353.239H243.671ZM241.123 353.273C240.539 353.62 239.909 353.885 239.253 354.061C238.346 354.335 237.469 354.697 236.633 355.143C235.695 355.787 235.373 355.787 235.373 355.032C235.373 353.739 236.45 353.128 238.859 353.128C239.622 353.086 240.388 353.135 241.14 353.273H241.123ZM192.449 355.426C202.578 357.513 209.222 358.623 217.846 359.772C224.201 360.599 240.329 362.469 241.123 362.469C241.334 362.469 241.478 362.719 241.478 363.024C241.478 363.329 241.123 363.579 240.44 363.579C237.566 363.579 227.292 362.325 218.49 360.887C213.068 359.988 205.808 358.945 202.395 358.551C192.483 357.402 182.243 355.748 179.696 354.888L178.452 354.444L180.251 353.978C182.515 353.417 182.892 353.45 192.466 355.426H192.449ZM235.229 354.71C235.196 355.393 235.157 355.892 235.085 355.82C235.013 355.748 234.618 356.031 234.186 356.431C233.134 357.253 232.031 358.008 230.883 358.69C229.124 359.8 228.297 360.127 228.108 359.838C227.709 359.228 227.748 356.286 228.18 355.637C228.464 355.204 233.497 353.589 234.84 353.517C235.101 353.489 235.246 354.028 235.246 354.71H235.229ZM214.611 356.22L214.466 358.59L212.274 358.373C211.053 358.229 209.688 358.012 209.26 357.907C208.506 357.729 208.539 357.691 209.655 356.719C210.626 355.826 214 353.883 214.539 353.85C214.661 353.85 214.661 354.927 214.627 356.22H214.611ZM243.171 354.638C243.099 355.104 242.699 356.858 242.344 358.59C241.589 362.219 242.089 361.964 236.45 361.365C232.565 360.898 232.426 360.81 233.364 358.962C234.763 356.264 238.787 353.967 242.161 353.894C243.221 353.85 243.387 353.955 243.188 354.638H243.171ZM221.076 357.297C220.932 359.517 220.899 359.633 220.177 359.517C219.229 359.314 218.269 359.17 217.302 359.084C215.582 358.867 215.293 358.723 215.637 358.296C215.982 357.868 220.594 354.966 220.988 354.966C221.132 354.927 221.132 356.003 221.093 357.297H221.076ZM185.912 356.508C192.916 357.729 197.655 358.412 203.55 359.056C206.275 359.344 212.923 360.316 218.274 361.209C223.624 362.103 230.917 363.08 234.474 363.402C240.762 363.957 242.305 364.334 240.94 364.839C239.863 365.272 227.72 363.94 217.774 362.292C212.529 361.426 205.919 360.454 203.044 360.133C192.555 358.95 178.114 356.508 178.475 355.965C178.835 355.421 180.428 355.554 185.928 356.508H185.912ZM188.132 358.662C192.3 359.344 198.582 360.244 202.107 360.671C205.631 361.098 212.918 362.108 218.268 363.007C226.388 364.334 237.632 365.699 240.54 365.699C242.266 365.699 240.324 366.349 237.344 366.743C231.993 367.497 227.97 368.469 226.493 369.401C224.556 370.622 222.053 373.458 220.71 376.011C216.27 384.336 212.124 407.408 214.317 411.609C214.872 412.686 217.264 414.878 217.946 414.939C218.572 415.107 219.176 415.35 219.744 415.66L221.187 416.354L218.135 416.171C211.741 415.81 208.328 414.162 206.713 410.677C205.925 408.917 205.814 408.162 205.814 405.038C205.814 400.903 206.463 397.24 208.439 389.592C211.275 378.597 213.717 372.637 216.376 370.05C218.848 367.85 221.906 366.413 225.178 365.916C226.721 365.666 227.764 365.361 227.476 365.272C227.187 365.183 224.856 364.806 222.27 364.517C219.683 364.228 215.193 363.585 212.28 363.152L206.929 362.364L202.939 363.152C193.854 364.95 189.508 368.968 186.417 378.453C182.104 391.601 181.355 402.873 184.408 408.09C185.09 409.2 185.09 409.345 184.552 409.755C184.013 410.166 183.22 410.149 178.447 409.5C176.255 409.217 175.788 409 174.784 407.957C173.202 406.231 172.736 404.327 172.775 399.299C172.808 388.343 177.692 372.504 182.792 366.826C184.557 364.889 187.682 363.091 191.345 361.903C192.744 361.476 193.931 360.937 194.003 360.754C194.076 360.571 193.21 360.288 192.028 360.144C190.846 359.999 187.898 359.589 185.368 359.211C179.984 358.423 176.893 358.351 171.792 359.034C165.254 359.927 161.736 361.809 158.933 365.966C154.154 373.114 150.453 389.059 151.64 397.756C151.804 399.28 152.117 400.783 152.573 402.246C153.616 404.688 152.073 404.866 149.953 402.568C146.29 398.616 146.218 395.275 149.398 382.416C151.807 372.609 154.143 366.648 156.585 363.918C159.527 360.649 163.517 359.034 171.093 357.99C173.574 357.668 175.838 357.341 176.127 357.269C177.231 356.975 180.822 357.402 188.154 358.662H188.132ZM232.854 359.217C232.171 360.582 231.993 360.688 230.7 360.688C229.907 360.688 229.263 360.543 229.263 360.405C229.263 360.077 233.286 357.419 233.503 357.602C233.392 358.168 233.179 358.71 232.876 359.2L232.854 359.217ZM188.309 360.26L192.444 360.904L190.107 361.553C187.627 362.236 187.738 362.236 180.589 360.904C177.104 360.26 175.128 360.188 172.325 360.726C165.393 362.02 160.076 367.336 156.913 376.172C155.298 380.695 153.788 388.06 153.644 392.3L153.5 395.714L153.827 392.478C154.726 382.566 157.812 372.936 161.73 367.764C163.213 365.768 165.111 364.118 167.294 362.928C169.477 361.737 171.892 361.036 174.373 360.871C176.743 360.654 181.272 361.087 181.771 361.587C181.882 361.659 181.771 362.414 181.522 363.168C181.277 364.09 180.679 364.878 179.857 365.361C176.443 367.442 173.535 373.802 170.804 385.119C168.901 393.055 168.757 401.425 170.483 405.953C170.627 406.348 170.122 406.814 168.756 407.53C166.781 408.606 166.781 408.606 163.695 408.179C159.383 407.624 157.035 406.453 155.647 404.333C154.446 402.319 153.813 400.018 153.816 397.673C153.859 397.129 153.759 396.584 153.527 396.091C153.167 395.875 153.705 400.903 154.171 402.163C154.637 403.423 154.282 403.828 153.616 402.918C152.828 401.841 152.001 397.562 152.001 394.548C152.001 389.087 153.294 381.434 155.27 375.401C159.471 362.469 164.644 358.984 178.941 359.417C181.866 359.522 186.067 359.883 188.331 360.244L188.309 360.26ZM185.579 362.125C185.978 362.125 186.134 362.236 186.045 362.38C185.69 362.702 182.093 363.957 181.954 363.779C181.895 363.406 181.931 363.024 182.06 362.669C182.276 361.77 182.421 361.703 183.603 361.914C184.265 362.015 184.932 362.08 185.601 362.108L185.579 362.125ZM185.362 363.884C182.587 365.683 180.839 367.803 178.791 372.004C175.677 378.625 173.558 385.67 172.503 392.911C172.109 395.536 172.148 404.261 172.542 405.593C172.614 405.915 172.397 406.148 171.931 406.237C170.599 406.42 169.916 403.761 169.711 397.867C169.567 393.427 169.639 392.317 170.499 388.277C171.004 385.729 171.975 381.85 172.619 379.658C175.744 369.112 178.047 365.899 184.152 363.562C186.777 362.541 187.294 362.686 185.384 363.879L185.362 363.884ZM213.456 363.923C216.115 364.351 219.528 364.856 220.999 365.072L223.657 365.466L221.898 366.021C220.172 366.526 218.485 366.487 214.172 365.916C213.279 365.771 212.735 365.805 212.99 365.988C213.673 366.487 212.99 369.218 211.947 370.012C208.422 372.759 202.317 393.971 202.317 403.561C202.317 406.364 203.072 409.994 203.794 410.776C204.293 411.281 204.188 411.603 203.4 411.853C202.557 412.259 201.761 412.753 201.024 413.329L199.359 414.584L196.806 414.19C188.725 412.969 185.706 407.835 186.261 396.23C186.816 384.125 191.04 372.365 196.035 368.929C198.943 366.92 202.14 366.054 208.245 365.694L212.557 365.444L209.255 365.411C203.577 365.3 197.938 366.776 195.241 369.107C191.006 372.737 187.627 381.106 186.3 391.346C185.545 396.946 185.745 403.45 186.766 406.397C187.482 408.445 187.482 408.479 186.8 408.839C185.834 409.339 185.257 408.801 184.285 406.359C183.569 404.527 183.458 403.7 183.458 398.383C183.497 391.812 184.013 388.76 186.372 380.856C189.353 370.938 192.838 366.593 199.448 364.584C204.604 363.041 206.868 362.935 213.478 363.907L213.456 363.923ZM217.119 366.759C217.585 366.942 217.191 367.225 215.61 367.947L213.456 368.879V368.052C213.456 366.437 213.778 366.115 215.182 366.326C215.843 366.424 216.498 366.563 217.141 366.743L217.119 366.759ZM240.651 376.028C240.396 382.421 240.396 390.036 240.651 399.893C240.862 407.868 240.862 414.439 240.718 414.584C240.291 414.839 227.143 415.805 223.696 415.805C221.11 415.805 220.533 415.666 218.307 414.55C216.942 413.868 215.504 412.885 215.143 412.358C213.528 410.138 213.778 403.556 215.793 393.538C217.946 382.793 219.817 377.476 222.975 373.314C225.311 370.184 227.537 368.874 231.666 368.069C234.685 367.514 240.901 366.487 240.973 366.559C241.045 366.632 240.884 370.839 240.674 376.011L240.651 376.028ZM218.146 367.764C214.772 370.062 213.012 372.864 210.676 379.691C208.66 385.86 207.016 392.145 205.753 398.511C205.142 402.068 205.07 407.136 205.575 409.322C205.792 410.332 205.792 410.832 205.47 411.015C204.715 411.515 204.46 411.337 203.672 409.578C202.523 407.025 202.412 402.213 203.422 396.574C205.253 385.868 209.133 373.619 211.431 371.138C212.794 369.724 214.465 368.643 216.315 367.98C218.684 366.992 219.406 366.926 218.146 367.764ZM294.231 372.359C295.413 373.941 295.413 373.98 294.731 374.579C287.143 381.218 278.9 387.066 270.127 392.034C264.844 395.053 255.792 399.504 252.85 400.514C250.763 401.23 242.072 402.307 241.678 401.88C241.437 400.816 241.292 399.733 241.245 398.644L241.029 395.592L244.226 395.342C249.043 394.981 250.947 394.515 255.881 392.539C264.394 389.087 273.879 384.314 280.489 380.074C283.758 377.987 290.657 372.814 291.767 371.632C292.08 371.272 292.442 370.958 292.844 370.7C293.372 371.203 293.838 371.767 294.231 372.381V372.359ZM156.003 405.337C157.401 406.919 159.954 407.996 163.545 408.501L166.42 408.895L164.483 410.943C161.667 414.05 159.351 417.575 157.618 421.394L156.219 424.485L153.311 424.951C148.71 425.706 143.787 427.643 143.787 428.72C143.787 429.008 143.609 429.275 143.393 429.275C143.071 429.275 143.038 427.909 143.176 424.313C143.465 417.381 144.797 412.93 147.739 408.867C148.849 407.285 152.123 404.666 153.289 404.377C154.709 404.066 154.959 404.139 156.003 405.36V405.337ZM174.29 408.501C174.756 409.056 175.078 409.578 175.006 409.65C174.934 409.722 174.107 410.005 173.135 410.366C168.324 412.164 164.011 416.87 158.766 426.205C157.656 428.181 156.435 430.268 155.991 430.879L155.276 431.955V430.695C155.276 426.999 158.722 418.918 162.424 413.957C164.755 410.799 166.77 409 169.284 407.707C171.798 406.414 172.614 406.27 173.052 406.919C173.28 407.23 173.818 407.946 174.29 408.523V408.501ZM189.125 410.76C191.173 413.096 193.11 413.957 197.777 414.711L199.109 414.928L197.961 416.593C197.311 417.531 195.741 420.367 194.403 422.953L191.994 427.621L188.109 428.731C186.298 429.216 184.513 429.792 182.759 430.457C179.457 431.855 177.209 434.153 177.731 435.663C177.908 436.273 176.976 437.067 176.582 436.634C176.188 436.201 175.394 432.433 175.178 430.096C174.678 424.457 177.265 416.265 180.606 413.035C182.149 411.526 186.156 409.117 187.216 409.117C187.471 409.167 188.331 409.883 189.125 410.782V410.76ZM181.793 410.543C182.476 410.582 182.299 410.871 180.5 412.663C179.032 414.034 177.912 415.735 177.231 417.625C176.621 419.168 175.938 420.783 175.722 421.144C174.321 423.558 173.19 426.119 172.347 428.781C171.559 431.8 171.631 435.441 172.525 437.15C173.424 438.982 175.722 440.924 178.169 441.929C179.601 442.484 180.034 442.861 179.89 443.255C179.246 444.92 178.636 448.5 178.563 451.269C178.491 453.029 178.308 454.427 178.169 454.427C177.914 454.427 153.849 448.933 144.187 446.657C143.321 446.48 143.321 446.48 143.576 442.817C143.672 440.923 143.9 439.039 144.259 437.178C144.725 435.307 144.814 435.202 145.802 435.269C146.357 435.341 147.994 435.413 149.359 435.452C153.633 435.557 154.854 434.481 159.416 426.433C163.256 419.645 166.203 415.694 169.006 413.612C172.852 410.738 175.761 409.805 179.174 410.282C180.178 410.427 181.327 410.566 181.782 410.566L181.793 410.543ZM207.801 413.274C208.75 414.269 209.88 415.073 211.131 415.644L212.496 416.077L209.766 417.259C204.665 419.451 203.766 420.383 197.001 430.19C195.335 432.566 193.443 435.185 192.76 436.046C191.65 437.378 191.428 437.522 191.145 436.984C190.102 435.152 191.861 428.614 195.03 422.504C197.328 418.158 198.549 416.326 200.38 414.495C201.568 413.307 204.876 411.331 205.625 411.331C206.428 411.886 207.159 412.539 207.801 413.274ZM144.364 413.74C143.834 415.09 143.184 416.391 142.422 417.625C140.268 420.955 138.831 426.211 139.297 429.23C139.586 431.062 141.095 432.965 143.143 434.003C143.625 434.218 144.083 434.484 144.508 434.797C144.508 434.83 144.259 435.768 143.953 436.845C143.548 438.751 143.283 440.683 143.16 442.628L142.949 446.435L137.737 445.214C135.911 444.84 134.107 444.368 132.332 443.799C131.866 443.333 132.26 437.139 132.976 433.853C134.99 424.33 138.975 416.465 143.682 412.691C144.398 412.136 145.014 411.687 145.047 411.687C144.871 412.384 144.643 413.066 144.364 413.729V413.74ZM328.43 415.311C332.665 416.315 336.544 417.359 337.049 417.608C337.876 418.041 337.804 418.075 335.79 418.33C331.185 418.965 326.65 420.036 322.248 421.527C318.363 422.82 317.613 422.959 317.042 422.565C316.365 422.146 315.625 421.842 314.849 421.666C313.739 421.382 313.184 421.022 312.946 420.411C312.335 418.796 312.552 418.33 314.705 417.176C315.815 416.532 317.541 415.455 318.551 414.772C319.163 414.292 319.81 413.86 320.488 413.479C320.599 413.479 324.151 414.306 328.43 415.311ZM241.14 416.138C241.14 416.965 240.995 417.031 238.553 417.214L230.783 417.769C224.39 418.274 219.756 418.99 216.847 419.962C210.598 422.01 204.082 429.269 201.257 437.278C200.214 440.297 198.31 448.738 197.161 455.238C196.767 457.535 196.407 458.723 196.118 458.618C195.829 458.512 191.989 457.607 187.388 456.57C180.173 454.905 179.063 454.555 178.88 453.944C178.624 452.901 179.274 446.652 179.845 444.715L180.312 443.094L183.153 443.061C185.201 443.061 186.383 442.844 187.249 442.411C189.691 441.118 192.744 437.455 198.993 428.403C203.555 421.793 205.065 420.25 208.767 418.38L211.819 416.876L219.589 416.659C223.863 416.515 229.285 416.227 231.655 416.01C234.025 415.794 236.794 415.583 237.76 415.511C238.725 415.438 239.913 415.366 240.379 415.327C240.957 415.272 241.14 415.455 241.14 416.138ZM241.212 418.58C241.317 419.729 240.313 439.52 239.919 443.938C239.447 449.11 238.082 451.086 233.126 453.528C229.357 455.398 226.948 455.937 210.781 458.346C196.451 460.466 196.956 460.427 196.956 459.456C196.956 456.98 200.009 442.073 201.302 438.121C204.077 429.857 210.21 422.853 216.842 420.361C220.077 419.174 227.87 418.208 239.941 417.525C240.995 417.431 241.101 417.536 241.212 418.58ZM142.71 420.661C142.484 422.581 142.366 424.511 142.355 426.444C142.355 429.824 142.316 429.896 141.417 430.329C140.862 430.546 140.379 430.69 140.307 430.584C139.835 430.152 139.802 426.916 140.196 424.907C140.629 422.714 142.566 417.864 142.893 418.191C142.929 419.019 142.867 419.848 142.71 420.661ZM339.275 420.517C340.102 422.998 342.117 434.131 341.861 434.814C341.509 435.301 341.023 435.677 340.463 435.896C338.953 436.612 322.703 440.891 322.431 440.635C322.162 439.599 321.993 438.54 321.926 437.472C321.493 433.704 321.099 432.227 319.806 429.702C318.834 427.832 318.046 425.212 318.013 423.88C317.98 422.548 333.203 418.458 337.41 418.635C338.592 418.685 338.703 418.824 339.275 420.517ZM312.585 420.339C313.196 422.348 314.528 423.536 316.176 423.536C317.508 423.536 317.508 423.536 317.941 425.584C318.324 427.173 318.882 428.714 319.606 430.179C321.043 433.198 322.381 440.452 321.62 440.957C321.26 441.174 262.924 455.865 262.457 455.865C262.241 455.865 261.991 455.004 261.902 454C261.676 452.651 261.253 451.342 260.648 450.115L259.638 448.1L284.785 441.529C298.66 437.899 310.221 434.775 310.504 434.592C311.297 434.164 311.059 434.197 284.102 441.313L259.316 447.85L258.062 446.951C255.725 445.286 254.11 443.505 253.533 441.956C253.289 441.43 253.132 440.868 253.067 440.291C253.139 440.253 254.732 439.82 256.624 439.353C266.969 436.878 296.029 426.172 307.99 420.483C309.228 419.861 310.499 419.306 311.797 418.818C311.975 418.868 312.335 419.551 312.585 420.339ZM315.282 422.098C315.705 422.187 316.099 422.378 316.431 422.653C317.075 423.158 317.075 423.158 316.176 423.208C315.512 423.161 314.882 422.895 314.383 422.454C313.701 421.899 313.662 421.771 314.167 421.899C314.529 422.009 314.904 422.076 315.282 422.098ZM174.828 427.021C174.612 429.968 174.862 432.016 175.938 436.146C176.155 436.972 176.049 437.15 175.006 437.511C173.535 438.01 173.713 438.066 173.135 436.9C171.881 434.419 172.131 430.862 173.89 426.355C174.181 425.518 174.53 424.702 174.934 423.913C174.97 424.95 174.935 425.989 174.828 427.021ZM155.858 425.761C155.714 426.228 155.431 427.521 155.214 428.636L154.815 430.684L152.983 431.117C150.114 431.728 144.903 430.507 144.364 429.069C143.97 428.098 147.666 426.411 152.229 425.478C155.697 424.796 156.108 424.829 155.858 425.761ZM242.899 435.857C243.454 438.371 244.658 439.914 246.562 440.419L247.961 440.813V444.909C247.961 449.577 248.216 449.293 244.631 448.827L243.016 448.611L242.977 446.946C242.943 444.97 242.422 443.422 241.395 442.345C240.712 441.629 240.712 441.374 241.073 435.269C241.29 431.783 241.506 428.409 241.506 427.759C241.506 427.11 241.756 428.226 242.006 430.201C242.255 432.177 242.644 434.708 242.899 435.857ZM191.745 428.814C190.859 431.177 190.468 433.697 190.596 436.218L190.74 438.66L188.981 440.241C186.644 442.323 184.99 442.789 181.766 442.251C178.541 441.712 174.329 439.559 174.329 438.482C174.329 438.266 175.228 437.727 176.338 437.328C178.28 436.573 178.352 436.573 180.006 437.189C182.876 438.266 187.332 438.854 189.092 438.299C189.885 438.049 190.496 437.799 190.424 437.744C190.352 437.688 189.669 437.777 188.947 437.994C186.433 438.782 178.713 437.022 178.136 435.513C177.42 433.681 180.867 431.384 187.26 429.408C191.711 428.026 192.105 427.993 191.745 428.814ZM145.441 430.396C147.661 431.472 151.296 431.977 153.211 431.506C154.97 431.04 155.115 431.112 154.793 432.222C154.471 433.332 152.528 434.63 150.591 434.88C147.611 435.274 141.323 433.015 141.001 431.395C140.929 430.929 142.472 429.963 143.776 429.674C144.361 429.838 144.921 430.081 145.441 430.396ZM253.172 442.051C253.816 443.716 255.148 445.248 258.2 447.723C259.154 448.534 259.956 449.507 260.57 450.598C261.436 452.54 261.863 455.843 261.253 455.843C259.782 455.843 249.509 453.906 249.115 453.545C248.827 453.256 248.61 451.175 248.432 446.968L248.216 440.83L249.076 440.647C249.542 440.574 250.514 440.469 251.23 440.43C252.451 440.419 252.562 440.524 253.172 442.073V442.051ZM242.25 445.714C242.644 447.329 242.61 447.834 242 449.599C241.674 450.632 241.177 451.604 240.529 452.474C239.63 453.445 237.871 453.622 237.199 452.796C236.838 452.363 237.016 451.969 238.204 450.642C239.641 449.022 240.069 447.839 240.646 444.065C240.823 442.667 240.896 442.595 241.362 443.166C241.786 443.973 242.085 444.84 242.25 445.736V445.714ZM164.622 451.735C181.505 455.62 195.624 458.845 195.946 458.95C196.845 459.2 196.346 460.205 195.391 459.988C190.757 459.056 184.002 457.513 164.283 452.951C134.79 446.091 134.069 445.908 133.203 445.009L132.487 444.293L133.203 444.509C133.586 444.62 147.739 447.856 164.622 451.735Z" fill="#010101"/>
</g>
<defs>
<clipPath id="clip0_585_320">
<rect width="512" height="512" fill="white"/>
</clipPath>
</defs>
</svg>
