<svg width="512" height="512" viewBox="0 0 512 512" fill="none" xmlns="http://www.w3.org/2000/svg">
<rect width="512" height="512" fill="white"/>
<path d="M429.519 94.163C422.185 101.498 374.051 139.546 356.173 151.465C350.672 155.132 334.628 166.592 320.417 177.136C305.748 187.221 291.079 197.306 287.411 199.139C283.744 200.973 272.284 207.391 262.199 213.35C252.114 219.768 239.278 226.644 233.319 229.395C227.818 231.687 214.065 238.105 203.064 243.147C174.184 255.983 116.882 265.151 88.4604 260.567C75.6249 258.733 52.2458 255.983 36.6598 254.149C10.0718 251.399 7.77979 251.857 7.77979 259.65C8.2382 270.193 27.9499 297.24 46.7449 312.826C54.5379 318.785 71.9575 328.87 85.7099 334.83C118.257 349.04 180.601 349.957 217.733 337.58C244.779 328.412 253.947 328.87 309.874 343.998C392.388 366.002 435.02 335.288 443.272 248.19C446.939 211.517 450.606 197.306 457.483 197.306C459.775 197.306 461.608 194.555 461.608 190.888C461.608 184.47 485.904 161.091 501.49 151.923C508.825 147.797 506.533 144.13 479.945 117.542C449.231 86.37 440.98 82.2443 429.519 94.163Z" fill="#FFC107"/>
<rect x="310.332" y="390.552" width="127.209" height="58.4476" rx="8" fill="black"/>
<line x1="352.213" y1="359.61" x2="352.213" y2="414.619" stroke="black" stroke-width="9"/>
<line x1="376.28" y1="359.61" x2="376.28" y2="414.619" stroke="black" stroke-width="9"/>
<line x1="400.346" y1="359.61" x2="400.346" y2="414.619" stroke="black" stroke-width="9"/>
</svg>
