<svg width="512" height="512" viewBox="0 0 512 512" fill="none" xmlns="http://www.w3.org/2000/svg">
<rect width="512" height="512" fill="white"/>
<path d="M488.448 162.438C471.106 158.866 455.802 157.336 439.477 157.336H434.887C424.173 157.336 413.463 158.357 402.75 160.396C404.789 149.682 405.81 138.972 405.81 128.259C405.81 110.404 404.789 93.5741 400.708 75.2107V74.1895C398.669 67.5572 391.528 63.9885 384.896 66.0272C367.041 71.6384 351.742 79.2887 336.438 88.4722C327.258 94.0835 318.583 100.715 310.424 107.345C306.343 97.1439 301.753 86.9429 296.65 77.2502C287.979 61.4381 278.287 47.6646 265.535 33.8902L265.026 33.3814C259.923 28.7914 252.273 28.7914 247.171 33.8902C234.418 47.6637 224.725 61.9464 216.055 77.7584C210.952 87.4511 206.362 97.143 202.281 107.344C194.119 100.203 184.939 93.5705 175.755 87.9594C160.452 78.7795 145.148 71.6346 127.297 65.5143L126.283 64.5002C119.651 62.9702 113.022 67.0514 111.492 73.6801V74.1889C107.92 91.5313 106.39 107.343 106.39 124.177V127.75C106.39 138.464 107.411 149.174 109.45 159.887C98.7361 157.848 88.0259 157.335 76.8038 156.827C58.9487 156.827 41.6063 157.848 23.7557 161.929H22.7345C16.1022 163.968 12.5336 171.109 14.5722 177.233V177.742C20.1834 195.597 27.8338 210.896 37.0173 226.2C46.1972 241.504 56.911 255.785 69.6634 268.029C81.3947 279.251 95.1682 288.431 109.959 295.064L146.686 291.492C137.506 289.453 128.831 286.39 120.672 282.312C106.389 275.68 94.1461 265.987 83.436 254.256C72.7221 242.525 64.0514 229.26 56.9101 214.978C51.8077 205.285 47.2174 194.063 43.6485 183.862C54.3624 181.823 66.0936 180.29 77.3157 179.781C90.0681 179.272 102.311 179.781 114.552 181.311C119.654 198.144 127.813 213.957 138.526 227.73C149.748 242.013 163.01 253.235 177.804 262.928C180.864 264.967 184.437 263.949 186.476 261.398C188.514 258.338 188.006 254.257 184.946 252.218C172.193 242.525 160.462 230.794 151.791 218.042C142.611 205.289 137 190.498 133.428 175.194C129.855 159.891 128.838 143.569 129.855 127.757C130.364 116.535 131.894 104.804 133.937 94.0902C144.65 97.6626 155.361 102.253 165.052 107.352C176.275 112.963 186.985 119.595 196.168 127.245C192.596 144.079 191.066 161.93 193.617 179.276C196.168 197.131 201.779 213.961 209.942 229.264C211.472 232.325 215.044 233.855 218.104 232.325C221.164 230.795 223.207 227.222 221.677 223.653C215.557 208.862 210.963 193.046 209.945 177.234C208.924 161.422 210.967 145.609 215.557 130.814C220.147 115.51 227.288 101.229 235.959 87.9671C242.079 78.7872 249.22 69.0945 256.361 60.9321C263.502 69.0944 270.643 78.7872 276.763 87.9671C285.434 101.229 292.575 116.023 297.165 130.814C301.755 146.118 303.797 161.422 302.776 177.234C301.755 193.046 297.165 208.859 291.045 223.653C289.514 226.713 291.045 230.795 294.105 232.325C297.165 233.855 301.246 232.833 302.776 229.264C310.426 213.452 316.549 197.128 319.101 179.276C321.652 161.934 320.631 144.079 316.549 127.245C326.242 119.596 336.443 112.963 347.665 107.352C357.358 102.249 368.067 97.659 378.781 94.0902C380.82 104.804 382.353 116.535 382.862 127.757C383.883 143.569 382.862 159.894 379.29 175.194C375.717 190.498 370.11 205.289 360.926 218.042C352.255 231.303 340.524 242.525 327.772 252.218C325.221 254.257 324.2 258.338 326.242 260.889C328.281 263.949 332.362 264.97 335.422 262.928C350.213 253.235 363.478 241.504 374.7 227.73C385.414 213.957 393.064 198.145 398.166 181.824C410.41 179.785 422.65 179.272 434.893 180.294C446.115 180.802 457.847 182.332 468.56 184.375C464.988 195.089 460.398 205.799 455.299 215.491C450.709 224.162 446.119 232.324 439.995 239.974C446.627 243.034 452.747 246.607 457.85 251.706C463.97 244.056 470.093 235.381 475.193 226.71C484.372 211.406 491.517 196.102 497.638 177.739L498.146 176.718C499.16 170.601 495.079 163.969 488.447 162.439L488.448 162.438Z" fill="#FABE30"/>
<path d="M247.091 180.591C228.99 185.231 217.748 202.329 220.641 220.485C222.542 232.047 230.973 242.712 241.801 247.109C246.761 249.144 248.579 249.47 255.77 249.47C262.962 249.47 264.78 249.144 269.74 247.109C276.683 244.259 284.453 237.094 287.759 230.418C294.454 217.066 291.478 199.968 280.733 189.546C275.691 184.743 270.566 181.975 263.458 180.346C256.845 178.799 253.787 178.881 247.091 180.591Z" fill="black"/>
<path d="M230.56 269.174C217.914 270.558 207.251 275.443 198.241 284.154C194.77 287.492 190.885 292.052 189.645 294.332C188.405 296.53 182.95 305.567 177.659 314.279C161.459 340.821 153.937 353.604 152.449 357.023C151.54 359.059 150.961 362.315 150.961 365.654C150.961 375.261 157.656 385.764 166.501 389.997C172.617 392.928 178.569 392.603 195.017 388.532C202.539 386.659 209.978 385.031 211.549 384.95L214.442 384.705L214.69 388.858L214.938 393.091L205.598 401.07C200.39 405.548 193.778 411.166 190.885 413.609C187.992 416.051 185.264 418.412 184.768 418.901C184.272 419.308 179.726 423.134 174.766 427.368C153.772 445.036 151.54 448.13 150.713 459.854C150.217 466.449 150.3 467.507 152.118 471.008C154.35 475.486 157.574 478.336 162.616 480.453C165.757 481.837 168.485 482 183.528 482H200.803V464.169C200.803 443.815 201.547 439.988 206.424 435.184C212.376 429.404 214.111 428.997 235.685 428.834C259.738 428.671 268.913 430.055 290.487 437.057C294.619 438.36 300.653 440.314 303.96 441.291C307.183 442.349 309.911 443.489 309.911 443.815C309.911 444.222 308.341 444.547 306.439 444.547C299.909 444.629 237.669 446.908 228.742 447.478L219.815 448.048V464.983V482H282.717H345.536L350 479.964C352.397 478.824 355.62 476.707 357.026 475.242C363.803 468.647 365.953 457.004 361.985 449.107C359.423 444.14 356.86 441.535 342.478 429.485C336.196 424.111 330.575 419.389 330.079 418.901C328.013 417.028 322.971 412.713 312.143 403.513L300.819 393.906V389.835C300.819 386.008 300.984 385.764 302.72 386.089C303.712 386.334 310.324 387.881 317.35 389.59C332.476 393.254 336.857 393.743 341.982 392.359C350.33 390.16 355.703 386.415 360.084 379.657C366.449 369.887 365.374 360.361 356.364 345.299C331.815 304.346 322.558 290.098 317.267 284.887C310.986 278.699 303.96 274.384 295.115 271.29C288.833 269.174 288.751 269.174 261.143 269.011C245.934 268.929 232.131 269.011 230.56 269.174ZM278.419 336.262C280.981 345.706 283.378 356.942 282.965 357.349C282.634 357.593 282.221 357.43 282.056 356.86C281.808 356.29 279.08 351.975 275.856 347.253L270.07 338.704L271.393 334.878C272.137 332.679 272.963 329.178 273.211 326.98L273.79 322.991L275.774 328.201C276.848 331.051 278.005 334.715 278.419 336.262Z" fill="black"/>
</svg>
