<svg width="512" height="512" viewBox="0 0 512 512" fill="none" xmlns="http://www.w3.org/2000/svg">
<rect width="512" height="512" fill="white"/>
<path d="M424.289 356.817C424.158 351.926 425.218 346.108 422.629 342.512C420.04 338.917 413.947 340.434 409.554 339.126C398.832 336.001 387.679 334.367 377.219 330.313C371.061 327.019 364.366 324.979 357.973 322.259C348.062 318.062 338.164 313.852 328.175 309.864C319.937 306.569 319.872 306.373 322.356 297.678C322.461 297.432 322.515 297.168 322.515 296.9C322.515 296.633 322.461 296.368 322.356 296.122C316.747 298.646 312.838 303.967 306.771 305.706C296.449 312.202 286.505 319.278 276.986 326.901C252.627 346.304 224.83 359.092 196.156 370.362C185.696 374.455 175.419 378.77 165.05 382.98C160.16 380.156 157.545 375.135 153.819 371.212C150.093 367.29 146.798 362.805 143.228 358.66C142.261 357.536 141.411 356.359 141.921 354.738C143.83 351.992 146.928 351.194 149.766 350.188C158.447 347.128 165.09 341.218 171.601 335.06C178.335 328.705 185.055 322.312 192.155 316.349C193.19 315.308 194.452 314.521 195.842 314.048C201.19 312.309 205.518 308.74 210.107 305.732C220.724 298.75 231.498 292.004 242.036 284.904C252.575 277.804 264.081 272.901 277.339 277.177C279.253 277.88 281.32 278.061 283.327 277.7C281.371 275.733 279.127 274.075 276.672 272.783C271.442 269.488 265.859 266.743 260.681 263.33C259.086 262.271 257.19 261.486 256.327 259.551C257.426 255.864 256.929 251.406 261.27 249.261C294.951 250.569 328.135 246.646 361.045 239.873C363.386 239.403 365.713 238.252 368.184 239.403C373.414 246.123 377.193 253.694 381.612 260.885C376.055 262.192 370.721 260.179 365.295 259.734C360.62 259.133 355.887 259.133 351.213 259.734C349.905 259.97 347.931 260.074 347.983 261.931C347.983 263.369 349.761 263.709 350.991 264.01C359.076 265.847 367.313 266.932 375.598 267.253C378.997 267.436 382.41 267.396 385.809 267.736C387.054 269.214 388.683 270.318 390.516 270.927C404.467 277.072 418.458 283.178 432.356 289.519C445.686 295.688 457.527 304.662 467.071 315.826C468.192 316.997 469.041 318.401 469.557 319.938C470.072 321.475 470.241 323.107 470.052 324.717C468.98 334.733 467.986 344.761 466.966 354.79C466.546 355.584 465.967 356.282 465.265 356.843C464.564 357.403 463.754 357.812 462.887 358.046C452.228 361.984 440.724 363.062 429.519 361.171C426.8 360.713 424.904 359.615 424.289 356.817Z" fill="#FABE30"/>
<path d="M142.221 354.816C147.569 362.936 154.512 369.748 160.527 377.292C162.043 379.175 163.534 381.084 165.037 382.98C153.414 388.027 141.764 393.021 130.166 398.134C111.443 406.384 95.2037 418.792 77.9969 429.579C69.3282 435.031 60.8817 440.837 52.1475 446.184C50.8891 446.915 49.8181 447.929 49.0192 449.145C48.2204 450.362 47.7157 451.747 47.5451 453.193C46.7867 457.664 46.2376 462.162 45.4269 466.621C45.2907 468.076 44.6596 469.441 43.6389 470.488C42.6182 471.535 41.2696 472.201 39.8178 472.374C34.4962 473.511 29.1224 473.001 23.8009 473.681C20.0352 474.152 17.2633 472.073 17.1456 467.719C17.1808 466.906 17.1016 466.091 16.9103 465.3C14.4783 458.03 17.0541 452.539 23.0294 448.407C42.2235 435.123 57.2206 417.511 72.8976 400.566C79.5005 393.413 86.0772 386.183 94.3014 379.855C91.6864 379.005 89.1368 378.73 88.5877 375.841C88.0385 372.951 89.8952 371.304 91.778 369.695C100.604 362.02 109.207 354.071 118.373 346.814C126.963 339.989 131.801 330.549 137.279 321.592C148.811 302.725 160.67 284.093 174.164 266.533C176.095 263.918 177.571 260.996 178.531 257.891C184.441 239.83 190.416 221.795 196.457 203.786C199.804 193.784 206.433 185.612 211.807 176.747C213.337 176.08 214.317 177.139 215.154 178.055C220.92 184.147 227.431 189.456 233.459 195.287C234.766 196.27 235.657 197.707 235.956 199.315C232.949 208.101 228.281 216.181 224.882 224.798C214.422 251.222 198.379 274.483 183.408 298.332C177.812 307.236 169.836 314.532 163.05 322.651C153.897 333.621 143.725 343.833 135.422 355.953C137.946 356.045 139.776 353.129 142.221 354.816Z" fill="#FABE30"/>
<path d="M294.846 120.237C304.287 126.147 311.242 134.515 317.427 143.51C331.358 164.129 342.544 186.475 350.703 209.984C350.54 210.532 350.263 211.04 349.888 211.473C349.514 211.906 349.052 212.254 348.532 212.494C333.967 220.941 318.957 228.289 302.168 231.231C289.263 233.48 276.241 232.891 263.231 232.826C262.081 232.846 260.945 232.581 259.923 232.054C259.228 231.569 258.703 230.877 258.421 230.078C258.14 229.278 258.116 228.41 258.354 227.596C260.616 224.589 264.133 224.981 267.245 224.432C277.849 222.784 288.518 221.477 299.03 219.202C301.92 218.703 304.744 217.883 307.451 216.757C308.758 216.155 310.393 215.567 310.314 213.815C310.236 212.063 308.64 211.448 307.228 211.2C302.639 210.167 297.984 209.055 293.251 209.605C287.917 210.232 282.595 210.912 277.287 211.697C272.295 212.602 267.159 212.284 262.318 210.77C257.477 209.255 253.075 206.59 249.489 203.002C243.971 197.772 238.506 192.346 233.289 186.749C227.105 180.133 223.091 172.472 223.326 163.097C223.322 162.114 223.57 161.146 224.045 160.286C225.169 158.887 226.895 158.913 228.438 158.494C233.673 157.105 238.164 153.74 240.969 149.107C243.773 144.474 244.671 138.934 243.475 133.652C242.867 130.942 241.507 128.458 239.552 126.487C238.375 125.179 236.767 124.107 237.172 121.989C238.916 119.034 240.624 116.079 242.298 113.124C243.527 110.509 245.972 110.653 248.182 110.875C260.577 112.091 273.024 113.006 285.197 115.896C288.74 116.733 292.231 117.622 294.846 120.237Z" fill="#FABE30"/>
<path d="M294.846 120.237C279.666 114.915 263.78 113.817 247.959 112.287C246.063 112.104 244.037 111.699 242.35 113.15C242.141 111.11 240.598 110.195 239.147 109.097C220.057 94.7141 200.798 80.6193 182.035 65.8445C176.177 61.229 169.601 61.242 163.233 60.549C145.179 58.52 127.32 55.0217 109.835 50.089C101.113 47.6571 93.8961 48.5723 86.6525 53.6454C83.2138 56.0512 79.1736 57.5679 75.4341 59.5684C73.2506 60.719 71.3155 60.5491 69.8249 58.4963C68.3344 56.4435 69.1842 54.5738 70.8709 52.9263C71.8777 51.9326 73.7736 51.1089 73.4206 49.6183C72.9891 47.8009 70.9232 48.7162 69.5895 48.4808C62.0844 47.1733 54.5794 45.8658 47.0874 44.5583C43.0734 43.8392 39.8177 42.1002 39.7784 37.4586C39.7784 33.536 43.531 30.6987 48.4734 31.0256C65.6409 32.1631 82.7954 33.5753 99.9629 34.6605C106.134 35.0527 112.345 34.7258 118.542 34.8958C138.992 35.4319 159.572 35.7719 179.485 40.7535C203.857 46.8464 226.412 56.9403 245.187 74.4086C260.42 88.5819 276.162 102.219 291.63 116.144C292.937 117.321 294.624 118.236 294.846 120.237Z" fill="#FABE30"/>
<path d="M424.289 356.816C424.558 357.57 425.035 358.233 425.664 358.728C426.293 359.223 427.049 359.53 427.846 359.614C441.378 361.758 454.519 360.791 467.071 354.829C465.541 369.499 463.972 384.169 462.494 398.839C461.383 409.809 460.415 420.792 459.33 431.775C458.742 437.737 458.127 443.713 457.356 449.662C456.938 452.97 458.075 454.565 461.37 455.559C470.222 458.252 478.969 461.338 487.742 464.306C489.285 464.804 490.788 465.416 492.24 466.136C495.326 467.692 496.986 470.32 496.385 473.707C496.186 475.336 495.454 476.853 494.302 478.021C493.15 479.19 491.643 479.944 490.017 480.166C484.867 480.96 479.645 481.188 474.445 480.846C463.88 480.624 453.29 481.67 442.751 480.088C434.54 478.872 428.369 470.634 430.853 462.724C434.226 451.989 430.931 441.477 430.709 430.899C430.513 421.524 428.931 412.189 428.094 402.827C426.813 387.49 425.597 372.153 424.289 356.816Z" fill="#FABE30"/>
<path d="M169.692 90.7C173.421 90.1421 177.232 90.5936 180.727 92.0075C183.228 92.9774 185.895 93.4443 188.576 93.3814C191.257 93.3186 193.9 92.7273 196.352 91.6414C199.568 90.3339 201.399 90.8177 202.327 94.4918C202.994 97.1068 204.092 99.7218 207.414 100.402C218.41 102.585 223.823 110.077 226.229 120.406C226.503 121.609 226.229 123.1 227.536 123.937C230.151 128.042 228.53 132.213 227.118 136.018C224.607 142.83 221.064 149.093 214.736 153.329C207.936 159.122 199.464 160.73 191.2 162.835C187.121 159.004 185.97 153.682 183.761 148.792C183.552 148.361 183.368 147.929 183.199 147.485C181.503 142.841 180.071 138.104 178.91 133.298C178.727 132.841 178.57 132.383 178.426 131.913C175.811 123.597 173.85 115.124 171.679 106.691C171.405 105.449 170.908 104.259 170.647 103.004C170.385 98.898 167.665 94.9756 169.692 90.7Z" fill="black"/>
<path d="M350.567 210.64C356.716 219.843 362.413 229.341 367.638 239.099C352.882 243.476 337.667 245.546 322.415 247.339L322.41 247.34C304.849 249.605 287.152 250.652 269.446 250.474L269.433 250.474L269.419 250.474C266.628 250.598 263.833 250.325 261.119 249.662C258.909 243.86 259.328 237.932 260.405 231.88C262.232 231.907 264.061 231.941 265.891 231.975C280.161 232.242 294.519 232.51 308.603 229.036C323.258 225.438 336.428 218.302 349.503 211.217C349.857 211.024 350.212 210.832 350.567 210.64Z" fill="#FABE30" stroke="black"/>
<path d="M227.479 132.221L227.48 132.219C227.721 130.8 227.803 129.407 227.856 128.04C227.868 127.713 227.879 127.387 227.89 127.063C227.92 126.153 227.95 125.256 228.017 124.353L237.08 122.546C240.943 126.569 244.494 130.493 244.792 136.409L244.792 136.41C245.126 142.833 243.248 148.397 239.712 152.481C236.191 156.547 230.999 159.179 224.624 159.715L217.229 157.81L215.317 153.385C216.405 151.811 217.573 150.285 218.75 148.748L218.794 148.691C220.038 147.064 221.292 145.425 222.448 143.724C224.763 140.319 226.711 136.64 227.479 132.221Z" fill="#FABE30" stroke="black"/>
<path d="M168.595 106.207C162.293 108.757 163.155 117.033 158.135 121.897C151.153 128.735 146.72 129.716 144.406 138.895C144.171 139.823 137.398 139.967 136.326 140.477C136.326 133.861 134.155 127.402 135.332 120.629C137.358 109.097 141.412 98.9897 152.565 93.2759C156.683 91.1578 160.959 89.7587 165.64 90.6609L168.595 106.207Z" fill="#040404" fill-opacity="0.77"/>
<path d="M306.81 305.706C311.844 301.941 316.852 298.162 321.925 294.449C322.5 294.017 323.376 293.376 324.043 294.187C324.323 294.76 324.383 295.416 324.213 296.031C324.01 296.813 323.756 297.582 323.455 298.332C321.036 305.902 321.088 305.798 328.292 308.7C343.982 315.068 359.672 321.553 375.441 328.025C376.44 328.499 377.405 329.041 378.33 329.647C378.33 329.647 378.33 330 378.174 330.039C377.871 330.152 377.561 330.244 377.245 330.313C366.851 327.908 356.887 324.129 346.82 320.677C333.352 316.062 319.911 311.328 306.81 305.706Z" fill="#FABE30"/>
<path d="M385.992 267.776C385.666 268.286 385.313 269.24 385.012 269.227C373.467 268.456 361.882 267.92 350.52 265.474C349.593 265.206 348.712 264.801 347.905 264.272C346.833 263.67 345.185 263.382 345.355 261.748C345.525 260.114 346.872 259.421 348.349 258.963C352.1 257.926 356.008 257.584 359.882 257.956C367.263 258.368 374.603 259.348 381.835 260.885L385.992 267.776Z" fill="#FABE30"/>
<path d="M161.077 162.116L154.212 155.238C157.912 152.192 162.279 154.402 165.98 153.277C171.053 151.721 177.107 151.551 179.708 146.086L187.174 162.835C178.401 164.169 169.706 165.11 161.077 162.116Z" fill="#040404" fill-opacity="0.77"/>
<path d="M196.143 314.519C207.112 303.478 219.353 293.778 232.609 285.623C243.069 279.085 250.914 270.247 257.216 259.917L283.366 275.607C284.465 276.261 286.047 277.072 285.615 278.418C285.04 280.236 283.079 279.478 281.784 279.308C278.905 278.909 276.054 278.332 273.246 277.582C261.727 274.561 252.392 279.778 243.304 285.597C228.844 294.854 214.539 304.333 200.052 313.59C199.085 314.27 198.013 316.754 196.143 314.519Z" fill="#FABE30"/>
<path d="M176 132.332C168.921 139.964 160.269 145.209 150.739 149.293C148.707 150.167 146.465 152.163 144.499 150.089C142.008 147.479 138.311 144.44 139.111 140.839C142.428 125.769 148.851 112.657 164.7 106.695C166.069 106.204 167.518 105.969 168.973 106.003C171.324 114.779 173.667 123.556 176 132.332Z" fill="#040404" fill-opacity="0.77"/>
<path d="M180.362 147.393C172.687 154.153 163.09 155.029 153.585 156.153C151.728 156.376 149.584 156.153 149.035 154.192C148.433 151.983 149.034 149.354 150.29 148.701C156.827 145.34 162.842 142.242 168.595 137.587C171.105 135.56 174.492 135.809 174.478 132.357L180.362 147.393Z" fill="#040404" fill-opacity="0.77"/>
<path d="M212 176.597L223.496 164.496L242.368 192.5L236.246 199.097L212 176.597Z" fill="#FABE30"/>
</svg>
