<svg width="512" height="512" viewBox="0 0 512 512" fill="none" xmlns="http://www.w3.org/2000/svg">
<g clip-path="url(#clip0_587_403)">
<rect width="512" height="512" fill="white"/>
<path d="M406.289 361.817C406.158 356.926 407.217 351.108 404.629 347.512C402.04 343.917 395.947 345.434 391.554 344.126C380.832 341.001 369.679 339.367 359.219 335.313C353.061 332.019 346.366 329.979 339.973 327.259C330.062 323.062 320.164 318.852 310.175 314.864C301.937 311.569 301.872 311.373 304.356 302.678C304.461 302.432 304.515 302.168 304.515 301.9C304.515 301.633 304.461 301.368 304.356 301.122C298.747 303.646 294.838 308.967 288.771 310.706C278.449 317.202 268.505 324.278 258.986 331.901C234.627 351.304 206.83 364.092 178.156 375.362C167.696 379.455 157.419 383.77 147.05 387.98C142.16 385.156 139.545 380.135 135.819 376.212C132.093 372.29 128.798 367.805 125.228 363.66C124.261 362.536 123.411 361.359 123.921 359.738C125.83 356.992 128.928 356.194 131.766 355.188C140.447 352.128 147.09 346.218 153.601 340.06C160.335 333.705 167.055 327.312 174.155 321.349C175.19 320.308 176.452 319.521 177.842 319.048C183.19 317.309 187.518 313.74 192.107 310.732C202.724 303.75 213.498 297.004 224.036 289.904C234.575 282.804 246.081 277.901 259.339 282.177C261.253 282.88 263.32 283.061 265.327 282.7C263.371 280.733 261.127 279.075 258.672 277.783C253.442 274.488 247.859 271.743 242.681 268.33C241.086 267.271 239.19 266.486 238.327 264.551C239.426 260.864 238.929 256.406 243.27 254.261C276.951 255.569 310.135 251.646 343.045 244.873C345.386 244.403 347.713 243.252 350.184 244.403C355.414 251.123 359.193 258.694 363.612 265.885C358.055 267.192 352.721 265.179 347.295 264.734C342.62 264.133 337.887 264.133 333.213 264.734C331.905 264.97 329.931 265.074 329.983 266.931C329.983 268.369 331.761 268.709 332.991 269.01C341.076 270.847 349.313 271.932 357.598 272.253C360.997 272.436 364.41 272.396 367.809 272.736C369.054 274.214 370.683 275.318 372.516 275.927C386.467 282.072 400.458 288.178 414.356 294.519C427.686 300.688 439.527 309.662 449.071 320.826C450.192 321.997 451.041 323.401 451.557 324.938C452.072 326.475 452.241 328.107 452.052 329.717C450.98 339.733 449.986 349.761 448.966 359.79C448.546 360.584 447.967 361.282 447.265 361.843C446.564 362.403 445.754 362.812 444.887 363.046C434.228 366.984 422.724 368.062 411.519 366.171C408.8 365.713 406.904 364.615 406.289 361.817Z" fill="#FABE30"/>
<path d="M124.221 359.816C129.569 367.936 136.512 374.748 142.527 382.292C144.043 384.175 145.534 386.084 147.037 387.98C135.414 393.027 123.764 398.021 112.166 403.134C93.4428 411.384 77.2037 423.792 59.9969 434.579C51.3282 440.031 42.8817 445.837 34.1475 451.184C32.8891 451.915 31.8181 452.929 31.0192 454.145C30.2204 455.362 29.7157 456.747 29.5451 458.193C28.7867 462.664 28.2376 467.162 27.4269 471.621C27.2907 473.076 26.6596 474.441 25.6389 475.488C24.6182 476.535 23.2696 477.201 21.8178 477.374C16.4962 478.511 11.1224 478.001 5.80085 478.681C2.03524 479.152 -0.736703 477.073 -0.854379 472.719C-0.819203 471.906 -0.898418 471.091 -1.08972 470.3C-3.52168 463.03 -0.945904 457.539 5.02939 453.407C24.2235 440.123 39.2206 422.511 54.8976 405.566C61.5005 398.413 68.0772 391.183 76.3014 384.855C73.6864 384.005 71.1368 383.73 70.5877 380.841C70.0385 377.951 71.8952 376.304 73.778 374.695C82.6036 367.02 91.207 359.071 100.373 351.814C108.963 344.989 113.801 335.549 119.279 326.592C130.811 307.725 142.67 289.093 156.164 271.533C158.095 268.918 159.571 265.996 160.531 262.891C166.441 244.83 172.416 226.795 178.457 208.786C181.804 198.784 188.433 190.612 193.807 181.747C195.337 181.08 196.317 182.139 197.154 183.055C202.92 189.147 209.431 194.456 215.459 200.287C216.766 201.27 217.657 202.707 217.956 204.315C214.949 213.101 210.281 221.181 206.882 229.798C196.422 256.222 180.379 279.483 165.408 303.332C159.812 312.236 151.836 319.532 145.05 327.651C135.897 338.621 125.725 348.833 117.422 360.953C119.946 361.045 121.776 358.129 124.221 359.816Z" fill="#FABE30"/>
<path d="M276.846 125.237C286.287 131.147 293.242 139.515 299.427 148.51C313.358 169.129 324.544 191.475 332.703 214.984C332.54 215.532 332.263 216.04 331.888 216.473C331.514 216.906 331.052 217.254 330.532 217.494C315.967 225.941 300.957 233.289 284.168 236.231C271.263 238.48 258.241 237.891 245.231 237.826C244.081 237.846 242.945 237.581 241.923 237.054C241.228 236.569 240.703 235.877 240.421 235.078C240.14 234.278 240.116 233.41 240.354 232.596C242.616 229.589 246.133 229.981 249.245 229.432C259.849 227.784 270.518 226.477 281.03 224.202C283.92 223.703 286.744 222.883 289.451 221.757C290.758 221.155 292.393 220.567 292.314 218.815C292.236 217.063 290.64 216.448 289.228 216.2C284.639 215.167 279.984 214.055 275.251 214.605C269.917 215.232 264.595 215.912 259.287 216.697C254.295 217.602 249.159 217.284 244.318 215.77C239.477 214.255 235.075 211.59 231.489 208.002C225.971 202.772 220.506 197.346 215.289 191.749C209.105 185.133 205.091 177.472 205.326 168.097C205.322 167.114 205.57 166.146 206.045 165.286C207.169 163.887 208.895 163.913 210.438 163.494C215.673 162.105 220.164 158.74 222.969 154.107C225.773 149.474 226.671 143.934 225.475 138.652C224.867 135.942 223.507 133.458 221.552 131.487C220.375 130.179 218.767 129.107 219.172 126.989C220.916 124.034 222.624 121.079 224.298 118.124C225.527 115.509 227.972 115.653 230.182 115.875C242.577 117.091 255.024 118.006 267.197 120.896C270.74 121.733 274.231 122.622 276.846 125.237Z" fill="#FABE30"/>
<path d="M276.846 125.237C261.666 119.915 245.78 118.817 229.959 117.287C228.063 117.104 226.037 116.699 224.35 118.15C224.141 116.11 222.598 115.195 221.147 114.097C202.057 99.7141 182.798 85.6193 164.035 70.8445C158.177 66.229 151.601 66.242 145.233 65.549C127.179 63.52 109.32 60.0217 91.8345 55.089C83.1135 52.6571 75.8961 53.5723 68.6525 58.6454C65.2138 61.0512 61.1736 62.5679 57.4341 64.5684C55.2506 65.719 53.3155 65.5491 51.8249 63.4963C50.3344 61.4435 51.1842 59.5738 52.8709 57.9263C53.8777 56.9326 55.7736 56.1089 55.4206 54.6183C54.9891 52.8009 52.9232 53.7162 51.5895 53.4808C44.0844 52.1733 36.5794 50.8658 29.0874 49.5583C25.0734 48.8392 21.8177 47.1002 21.7784 42.4586C21.7784 38.536 25.531 35.6987 30.4734 36.0256C47.6409 37.1631 64.7954 38.5753 81.9629 39.6605C88.1343 40.0527 94.3449 39.7258 100.542 39.8958C120.992 40.4319 141.572 40.7719 161.485 45.7535C185.857 51.8464 208.412 61.9403 227.187 79.4086C242.42 93.5819 258.162 107.219 273.63 121.144C274.937 122.321 276.624 123.236 276.846 125.237Z" fill="#FABE30"/>
<path d="M406.289 361.816C406.558 362.57 407.035 363.233 407.664 363.728C408.293 364.223 409.049 364.53 409.846 364.614C423.378 366.758 436.519 365.791 449.071 359.829C447.541 374.499 445.972 389.169 444.494 403.839C443.383 414.809 442.416 425.792 441.33 436.775C440.742 442.737 440.127 448.713 439.356 454.662C438.938 457.97 440.075 459.565 443.37 460.559C452.222 463.252 460.969 466.338 469.742 469.306C471.285 469.804 472.788 470.416 474.24 471.136C477.326 472.692 478.986 475.32 478.385 478.707C478.186 480.336 477.454 481.853 476.302 483.021C475.15 484.19 473.643 484.944 472.017 485.166C466.867 485.96 461.645 486.188 456.445 485.846C445.88 485.624 435.29 486.67 424.751 485.088C416.54 483.872 410.369 475.634 412.853 467.724C416.226 456.989 412.931 446.477 412.709 435.899C412.513 426.524 410.931 417.189 410.094 407.827C408.813 392.49 407.597 377.153 406.289 361.816Z" fill="#FABE30"/>
<path d="M151.692 95.7C155.421 95.1421 159.232 95.5936 162.727 97.0075C165.228 97.9774 167.895 98.4443 170.576 98.3814C173.257 98.3186 175.9 97.7273 178.352 96.6414C181.568 95.3339 183.399 95.8177 184.327 99.4918C184.994 102.107 186.092 104.722 189.414 105.402C200.41 107.585 205.823 115.077 208.229 125.406C208.503 126.609 208.229 128.1 209.536 128.937C212.151 133.042 210.53 137.213 209.118 141.018C206.607 147.83 203.064 154.093 196.736 158.329C189.936 164.122 181.464 165.73 173.2 167.835C169.121 164.004 167.97 158.682 165.761 153.792C165.552 153.361 165.368 152.929 165.199 152.485C163.503 147.841 162.071 143.104 160.91 138.298C160.727 137.841 160.57 137.383 160.426 136.913C157.811 128.597 155.85 120.124 153.679 111.691C153.405 110.449 152.908 109.259 152.647 108.004C152.385 103.898 149.665 99.9756 151.692 95.7Z" fill="#FABE30"/>
<path d="M332.567 215.64C338.716 224.843 344.413 234.341 349.638 244.099C334.882 248.476 319.667 250.546 304.415 252.339L304.41 252.34C286.849 254.605 269.152 255.652 251.446 255.474L251.433 255.474L251.419 255.474C248.628 255.598 245.833 255.325 243.119 254.662C240.909 248.86 241.328 242.932 242.405 236.88C244.232 236.907 246.061 236.941 247.891 236.975C262.161 237.242 276.519 237.51 290.603 234.036C305.257 230.439 318.427 223.302 331.502 216.217C331.857 216.024 332.212 215.832 332.567 215.64Z" fill="#FABE30" stroke="#020202"/>
<path d="M209.479 137.221L209.48 137.219C209.721 135.8 209.803 134.407 209.856 133.04C209.868 132.713 209.879 132.387 209.89 132.063C209.92 131.153 209.95 130.256 210.017 129.353L219.08 127.546C222.943 131.569 226.494 135.493 226.792 141.409L226.792 141.41C227.126 147.833 225.248 153.397 221.712 157.481C218.191 161.547 212.999 164.179 206.624 164.715L199.229 162.81L197.317 158.385C198.405 156.811 199.573 155.285 200.75 153.748L200.794 153.691C202.038 152.064 203.292 150.425 204.448 148.724C206.763 145.319 208.711 141.64 209.479 137.221Z" fill="#FABE30" stroke="#FABE30"/>
<path d="M150.595 111.207C144.293 113.757 145.155 122.033 140.135 126.897C133.153 133.735 128.72 134.716 126.406 143.895C126.171 144.823 119.398 144.967 118.326 145.477C118.326 138.861 116.155 132.402 117.332 125.629C119.358 114.097 123.412 103.99 134.565 98.2759C138.683 96.1578 142.959 94.7587 147.64 95.6609L150.595 111.207Z" fill="#FABE30"/>
<path d="M288.81 310.706C293.844 306.941 298.852 303.162 303.925 299.449C304.5 299.017 305.376 298.376 306.043 299.187C306.323 299.76 306.383 300.416 306.213 301.031C306.01 301.813 305.756 302.582 305.455 303.332C303.036 310.902 303.088 310.798 310.292 313.7C325.982 320.068 341.672 326.553 357.441 333.025C358.44 333.499 359.405 334.041 360.33 334.647C360.33 334.647 360.33 335 360.174 335.039C359.871 335.152 359.561 335.244 359.245 335.313C348.851 332.908 338.887 329.129 328.82 325.677C315.352 321.062 301.911 316.328 288.81 310.706Z" fill="#FABE30"/>
<path d="M367.992 272.776C367.666 273.286 367.313 274.24 367.012 274.227C355.467 273.456 343.882 272.92 332.52 270.474C331.593 270.206 330.712 269.801 329.905 269.272C328.833 268.67 327.185 268.382 327.355 266.748C327.525 265.114 328.872 264.421 330.349 263.963C334.1 262.926 338.008 262.584 341.882 262.956C349.263 263.368 356.603 264.348 363.835 265.885L367.992 272.776Z" fill="#FABE30"/>
<path d="M143.077 167.116L136.212 160.238C139.912 157.192 144.279 159.402 147.98 158.277C153.053 156.721 159.107 156.551 161.708 151.086L169.174 167.835C160.401 169.169 151.706 170.11 143.077 167.116Z" fill="#FABE30"/>
<path d="M178.143 319.519C189.112 308.478 201.353 298.778 214.609 290.623C225.069 284.085 232.914 275.247 239.216 264.917L265.366 280.607C266.465 281.261 268.047 282.072 267.615 283.418C267.04 285.236 265.079 284.478 263.784 284.308C260.905 283.909 258.054 283.332 255.246 282.582C243.727 279.561 234.392 284.778 225.304 290.597C210.844 299.854 196.539 309.333 182.052 318.59C181.085 319.27 180.013 321.754 178.143 319.519Z" fill="#FABE30"/>
<path d="M158 137.332C150.921 144.964 142.269 150.209 132.739 154.293C130.707 155.167 128.465 157.163 126.499 155.089C124.008 152.479 120.311 149.44 121.111 145.839C124.428 130.769 130.851 117.657 146.7 111.695C148.069 111.204 149.518 110.969 150.973 111.003C153.324 119.779 155.667 128.556 158 137.332Z" fill="#FABE30"/>
<path d="M162.362 152.393C154.687 159.153 145.09 160.029 135.585 161.153C133.728 161.376 131.584 161.153 131.035 159.192C130.433 156.983 131.034 154.354 132.29 153.701C138.827 150.34 144.842 147.242 150.595 142.587C153.105 140.56 156.492 140.809 156.478 137.357L162.362 152.393Z" fill="#FABE30"/>
<mask id="mask0_587_403" style="mask-type:alpha" maskUnits="userSpaceOnUse" x="410" y="450" width="102" height="105">
<rect x="410" y="450.979" width="102" height="103.041" fill="#D9D9D9"/>
</mask>
<g mask="url(#mask0_587_403)">
<path d="M405.837 357.293C406.117 358.078 406.613 358.768 407.268 359.283C407.923 359.798 408.71 360.118 409.538 360.205C423.623 362.437 437.3 361.43 450.364 355.225C448.772 370.494 447.139 385.763 445.601 401.032C444.445 412.449 443.438 423.881 442.308 435.312C441.696 441.517 441.056 447.737 440.253 453.929C439.818 457.372 441.002 459.032 444.431 460.066C453.644 462.87 462.748 466.081 471.88 469.17C473.485 469.689 475.05 470.325 476.561 471.076C479.773 472.695 481.501 475.43 480.875 478.955C480.668 480.65 479.906 482.229 478.707 483.446C477.508 484.662 475.94 485.447 474.248 485.678C468.887 486.504 463.452 486.741 458.04 486.385C447.044 486.154 436.021 487.243 425.052 485.596C416.506 484.33 410.083 475.757 412.668 467.524C416.179 456.351 412.75 445.41 412.519 434.4C412.315 424.643 410.668 414.926 409.797 405.182C408.463 389.219 407.198 373.256 405.837 357.293Z" fill="black"/>
</g>
<mask id="mask1_587_403" style="mask-type:alpha" maskUnits="userSpaceOnUse" x="-2" y="182" width="220" height="298">
<path d="M124.221 360.278C129.569 368.398 136.512 375.21 142.527 382.754C144.043 384.637 145.534 386.546 147.037 388.442C135.414 393.489 123.764 398.484 112.166 403.596C93.4428 411.846 77.2037 424.255 59.9969 435.041C51.3282 440.494 42.8817 446.299 34.1475 451.647C32.8891 452.378 31.8181 453.391 31.0192 454.608C30.2204 455.824 29.7157 457.21 29.5451 458.655C28.7867 463.127 28.2376 467.624 27.4269 472.083C27.2907 473.539 26.6596 474.904 25.6389 475.951C24.6182 476.998 23.2696 477.663 21.8178 477.836C16.4962 478.974 11.1224 478.464 5.80085 479.144C2.03524 479.614 -0.736703 477.535 -0.854379 473.181C-0.819203 472.368 -0.898418 471.554 -1.08972 470.762C-3.52168 463.493 -0.945904 458.001 5.02939 453.869C24.2235 440.585 39.2206 422.973 54.8976 406.028C61.5005 398.876 68.0772 391.645 76.3014 385.317C73.6864 384.467 71.1368 384.193 70.5877 381.303C70.0385 378.413 71.8952 376.766 73.778 375.158C82.6036 367.483 91.207 359.533 100.373 352.276C108.963 345.451 113.801 336.011 119.279 327.055C130.811 308.187 142.67 289.555 156.164 271.996C158.095 269.381 159.571 266.459 160.531 263.353C166.441 245.292 172.416 227.257 178.457 209.249C181.804 199.246 188.433 191.074 193.807 182.209C195.337 181.543 196.317 182.602 197.154 183.517C202.92 189.61 209.431 194.918 215.459 200.75C216.766 201.733 217.657 203.169 217.956 204.777C214.949 213.563 210.281 221.644 206.882 230.26C196.422 256.685 180.379 279.945 165.408 303.794C159.812 312.698 151.836 319.994 145.05 328.114C135.897 339.084 125.725 349.295 117.422 361.416C119.946 361.507 121.776 358.592 124.221 360.278Z" fill="black"/>
</mask>
<g mask="url(#mask1_587_403)">
<rect x="-26" y="419" width="64" height="73" fill="black"/>
</g>
</g>
<defs>
<clipPath id="clip0_587_403">
<rect width="512" height="512" fill="white"/>
</clipPath>
</defs>
</svg>
