<?xml version="1.0" encoding="utf-8"?>
<!-- Generator: Adobe Illustrator 22.0.0, SVG Export Plug-In . SVG Version: 6.00 Build 0)  -->
<svg version="1.1" id="Layer_1" xmlns="http://www.w3.org/2000/svg" xmlns:xlink="http://www.w3.org/1999/xlink" x="0px" y="0px"
	 viewBox="0 0 512 512" style="enable-background:new 0 0 512 512;" xml:space="preserve">
<style type="text/css">
	.st0{fill:none;}
	.st1{fill:none;stroke:#000000;stroke-width:4;}
	.st2{fill:none;stroke:#000000;stroke-width:6;}
	.st3{fill:none;stroke:#000000;stroke-width:0.5;stroke-miterlimit:10;}
</style>
<rect y="0" class="st0" width="512" height="512"/>
<g>
	<path d="M75,131.6h11.9v11.9H75V131.6z M104.8,131.6h11.9v11.9h-11.9V131.6z M134.6,131.6h11.9v11.9h-11.9V131.6z"/>
	<path class="st1" d="M177.4,53.1v136.3c0,2.1,1.7,3.8,3.8,3.8h17v8.1h-175v-8.1h17c2.1,0,3.8-1.7,3.8-3.8V53.1h23
		c2.1,0,3.8-1.7,3.8-3.8v-23h79.6v23c0,2.1,1.7,3.8,3.8,3.8H177.4z M138.6,34.4H82.9c-2.1,0-3.8,1.7-3.8,3.8V94
		c0,2.1,1.7,3.8,3.8,3.8h55.8c2.1,0,3.8-1.7,3.8-3.8V38.2C142.5,36.1,140.8,34.4,138.6,34.4z M118.6,193.1h46.8
		c2.1,0,3.8-1.7,3.8-3.8V65c0-2.1-1.7-3.8-3.8-3.8h-11.1c-2.1,0-3.8,1.7-3.8,3.8v40.9H70.9V65c0-2.1-1.7-3.8-3.8-3.8H56
		c-2.1,0-3.8,1.7-3.8,3.8v124.3c0,2.1,1.7,3.8,3.8,3.8h46.8c2.1,0,3.8-1.7,3.8-3.8v-20h8.1v20C114.8,191.4,116.5,193.1,118.6,193.1z
		"/>
	<path d="M116.7,48.2h-11.9v11.9H92.9V72h11.9v11.9h11.9V72h11.9V60.1h-11.9V48.2z"/>
</g>
<g>
	<path class="st1" d="M450.6,42.2v-2h-2H335.4h-2v2v145.5v2h2h48.5h2v-2v-26.3h12.2v26.3v2h2h48.5h2v-2V42.2z M321.3,201.9V28.1
		h141.5v173.8H321.3z"/>
	<path d="M443,56v132h-43.7v-25.7h-14.6V188H341V56H443z M413.9,85.3h14.6V70.7h-14.6V85.3z M384.7,85.3h14.6V70.7h-14.6V85.3z
		 M355.6,85.3h14.6V70.7h-14.6V85.3z M413.9,114.7h14.6V100h-14.6V114.7z M384.7,114.7h14.6V100h-14.6V114.7z M355.6,114.7h14.6V100
		h-14.6V114.7z M413.9,144h14.6v-14.7h-14.6V144z M384.7,144h14.6v-14.7h-14.6V144z M355.6,144h14.6v-14.7h-14.6V144z M413.9,173.3
		h14.6v-14.7h-14.6V173.3z M355.6,173.3h14.6v-14.7h-14.6V173.3z"/>
</g>
<g>
	<path d="M459.3,305.8c-4.2,1.4-7.5,4.7-8.9,8.6l-0.6,1.8l-2.2-0.1c-4.8-0.3-8.8,3.6-8.8,8.8v2.4l-2.3,1c-3,1.2-5.9,4.1-7.4,7.2
		c-0.9,1.9-1.1,2.9-1.1,5.8c0,3.1,0.1,3.7,1.3,6.2c1.6,3.3,4.5,6.1,7.5,7.2l2.1,0.8l0.1,2.5c0.1,3,1.5,5.7,3.9,7.3
		c1.4,0.9,2.1,1.1,4.4,1.1h2.7l1.3,2.7c1.6,3.3,4.6,6.1,7.7,7.2c2.7,1,6.9,1.1,9.8,0.2c3.8-1.2,7.5-4.8,8.9-8.7
		c0.5-1.3,0.7-1.5,1.7-1.4c5.5,0.3,10.2-4,9.9-9.3l-0.1-2.1l2.2-0.8c3.1-1.1,6.5-4.6,7.7-7.8c2.5-6.4,0.2-13.7-5.4-17.3
		c-1.3-0.9-2.9-1.7-3.5-1.8c-1.2-0.2-1.2-0.3-1.2-2.7c0-5.3-4.2-9.3-9.4-8.8c-1.6,0.1-1.7,0.1-2.3-1.6
		C474.4,307,466.4,303.3,459.3,305.8z M468.6,312.1c2.3,1.6,3.7,4.2,3.7,6.9c0,1.7-0.4,2.8-2.9,7.5l-2.9,5.5v-2.8
		c0-3.3-0.6-4.3-2.6-4.3c-2.2,0-3.1,1.3-3.1,4.4v2l-2.7-5.1c-1.5-2.8-2.8-5.6-2.9-6.2c-0.3-1.6,0.6-4.5,2-6.1
		C460,310.4,465.1,309.7,468.6,312.1z M482.2,322.2c1,0.9,1.2,2.7,0.5,4c-0.3,0.6-8.4,5.3-9.1,5.3c-0.1,0,0.8-2,2-4.4
		C478.5,321.3,480,320.1,482.2,322.2z M449,322.1c0.7,0.4,5.4,8.9,5.1,9.2c-0.2,0.3-7.7-3.5-8.7-4.5c-1.2-1.1-1.3-3.2-0.1-4.4
		C446.2,321.6,447.8,321.4,449,322.1z M489.8,333.3c1.8,0.9,3.7,3.3,4.4,5.7c1.3,5-3,10.5-8.1,10.5c-1.5,0-2.8-0.5-7-2.7L474,344
		h2.2c1.7,0,2.4-0.2,3.1-1c1.1-1.1,1.3-2.5,0.4-3.7c-0.4-0.6-1.2-0.8-3.6-1l-3-0.2l5.5-2.9c5-2.7,5.7-3,7.5-2.8
		C487.3,332.4,488.9,332.8,489.8,333.3z M449.1,335.4l5.4,2.8l-2.5,0.2c-2.9,0.2-4.2,1.1-4.2,2.9c0,1.9,1.3,2.8,3.9,2.8
		c1.4,0,2.2,0.2,2,0.4c-0.2,0.2-2.5,1.5-5.1,2.8c-3.8,2-5.1,2.5-6.6,2.5c-4.4,0-8.4-4-8.4-8.5c0-3,2.3-6.5,5-7.8
		C441.6,332.1,443.1,332.4,449.1,335.4z M466.8,338.5c1.4,1.6,1.2,3.9-0.4,5.2c-2.2,1.9-5.2,1.1-6.1-1.5c-0.5-1.7,0-3.1,1.5-4.3
		C463.3,336.8,465.4,337,466.8,338.5z M452.6,354.7c-1.1,2.3-2.4,4.6-2.9,5.1c-1.5,1.7-4.4,0.9-4.9-1.3c-0.5-2,0.6-3.1,5.3-5.6
		c2.4-1.3,4.4-2.3,4.5-2.3C454.6,350.5,453.7,352.4,452.6,354.7z M471.4,358.9c1.3,2.7,1.5,3.5,1.3,4.8c-0.7,4.6-4.1,7.6-8.5,7.6
		c-1.2,0-2.7-0.2-3.2-0.4c-1.6-0.6-4-3-4.8-4.7c-1.3-2.8-1.1-4.1,2-10l2.7-5.3l0.1,2.4c0.1,2.1,0.3,2.6,1.2,3.3
		c1.4,1.1,2.4,1,3.6-0.2c0.9-0.8,1-1.4,1-3.5v-2.6l1.5,2.6C469.1,354.4,470.5,357.1,471.4,358.9z M483.3,356.3
		c0.5,1.6,0,3.1-1.4,3.8c-1.5,0.8-2.8,0.3-4-1.3c-0.8-1.1-4.1-7.6-4.1-8c0-0.1,2.1,0.8,4.6,2.1C481.9,354.7,483,355.5,483.3,356.3z"
		/>
	<path d="M365,346.2c-5.7,1.8-11.5,6.6-13.9,11.7c-3.5,7.1-3.4,14.6,0.3,21.4l1.6,3h-8.7c-8.2,0-8.8,0-9.6,0.8
		c-0.4,0.4-0.8,1.2-0.8,1.6c0,1.7,4.1,19.5,5,22.1c1.9,5.1,5.8,10.2,10,13.3l2.5,1.8l-6,0.2c-6.5,0.3-8.5,0.8-13.1,3.2
		c-7.2,3.9-12.5,12.1-13.3,20.7c-0.6,7.2,2.3,15,7.4,20.2c3.2,3.2,6.1,5,10.3,6.6l3,1.1l69.3,0.1c75.9,0.1,72.1,0.2,78.7-2.3
		c4.4-1.7,7.9-4.1,11.6-7.8c8.7-8.7,11.9-21.7,8.1-33.1c-1.9-5.6-3.9-8.8-8.7-13.5c-4.4-4.4-8.1-6.8-13.2-8.6
		c-5.3-1.9-7.4-2.2-20.5-2.2c-11.5,0-12.4,0-14,0.8c-2.5,1.2-4.9,4-5.6,6.5c-0.8,2.6-0.8,3.8-0.1,6.2l0.6,1.9l-7.8,0h-7.8l1.2-0.9
		c2.4-1.7,7.8-7.4,9.1-9.8c2.1-3.6,3-6.5,5.3-17.1l2.1-9.7l-0.8-1.1l-0.8-1.1l-7.4-0.1l-7.4-0.1l0.2-0.9c1.5-5.2,1.7-8.1,0.9-12.3
		c-1.5-7.3-7-14.2-13.1-16.5c-1.7-0.7-8.5-1.7-25.1-3.9C371.6,345.6,367.9,345.3,365,346.2z M393.2,354.2c12,1.6,22.4,3,23.3,3.3
		c2.1,0.6,4.6,2.9,5.4,5.1c1.1,2.7,0.7,6.2-0.9,8.5c-1.3,1.9-4.8,3.9-6.7,3.9c-1.6,0-44.2-5.6-46.4-6.1c-3.3-0.7-6-3.7-6.7-7.3
		c-0.3-1.8,0.4-4.6,1.7-6.5c1.3-1.9,4.5-3.6,6.8-3.6C370.7,351.3,381.2,352.6,393.2,354.2z M358,368.1c1.6,2.5,4.2,4.6,6.8,5.6
		c3,1.1,47.8,7,50.8,6.7c4.4-0.5,8.6-3.3,10.5-6.8c0.6-1.1,1.3-2,1.5-2c0.6,0-0.1,5.7-1.1,8.1l-0.9,2.3l-32.4,0.1l-32.4,0.1l-2-2.1
		c-1.1-1.2-2.5-3.3-3.2-4.8c-1.2-2.4-1.3-3-1.2-6.9c0-2.6,0.2-4.8,0.5-5.5l0.5-1.2l0.6,2.2C356.4,365.2,357.3,367,358,368.1z
		 M441.5,388.8c-0.1,0.5-0.9,3.9-1.7,7.6c-1.8,8.4-3.5,12.1-7.1,16c-4.3,4.6-9.6,7.4-16.2,8.7c-4.7,0.9-47.3,0.8-51.7-0.1
		c-10.1-2.1-17.8-8.3-20.8-16.9c-0.7-2-3.7-14.8-3.7-15.8c0-0.2,19.7-0.4,50.7-0.4h50.7L441.5,388.8z M482.9,413.8
		c13.1,4.7,21.2,16.1,20.5,28.5c-0.8,12.6-10.3,23.4-22.8,25.7c-1.7,0.3-23.3,0.4-70.2,0.4c-59.9,0-68-0.1-70.1-0.7
		c-8.1-2.1-14.1-8.7-15.3-16.8c-1.5-10,5.1-20,14.9-22.6c2.1-0.5,10.4-0.6,68.5-0.6c58.8,0,66.4,0.1,68,0.6
		c4.3,1.4,7.4,5.9,7.4,10.5c0,1.3-0.2,3.2-0.5,4.1c-0.9,2.4-3.8,5.4-6.4,6.3c-2.2,0.8-2.9,0.8-56.3,0.8h-54.1l-1-1
		c-1.3-1.3-1.3-2.7,0-4.1l1-1.1l33.7-0.1c30.5-0.1,33.7-0.2,34.4-0.8c1-0.9,0.9-3-0.1-4c-0.8-0.7-2-0.8-34.9-0.8h-34l-1.7,0.9
		c-6.5,3.5-6.5,12.3-0.2,15.7l2.2,1.1l55.5-0.1l55.5-0.1l2.7-1.3c5.3-2.5,8.7-7,9.7-12.6c1.3-7.2-2.8-14.9-9.7-18.1l-2.8-1.3
		l-11.4-0.2c-12.4-0.2-12.6-0.3-14-2.6c-1-1.5-1-2.8-0.2-4.5c1.3-2.7,1.5-2.7,15.4-2.6l12.6,0.1L482.9,413.8z"/>
</g>
<g>
	<path class="st2" d="M71.3,464.4v-52.7h49.5v52.7v3h3h27.8h3v-3v-83.5v-1.5l-1.2-0.9l-55.5-41.8l-1.8-1.4l-1.8,1.4l-55.5,41.8
		l-1.2,0.9v1.5v83.5v3h3h27.8h3V464.4z M25,480V373.2l71-53.4l71,53.4V480H25z"/>
	<rect x="77" y="423" width="38" height="38"/>
</g>
<path d="M225.9,231.5c0.1,0.6,0.2,1.2,0.2,1.3c-0.1,0.1-0.5-2-0.5-2.2C225.6,230.3,225.8,230.8,225.9,231.5z"/>
<path d="M223.3,232.3c0,0.3,0,0.6-0.1,0.6c-0.2,0-0.2-1-0.1-1.1C223.2,231.8,223.3,232,223.3,232.3z"/>
<path d="M226.9,234.4c0.5,1,1.9,3.1,5,7.2c3.9,5.2,5.4,7.3,5.1,7.3c-0.1,0-0.2-0.2-0.4-0.6c-0.2-0.3-2.2-3.2-4.6-6.3
	c-3-4-4.6-6.3-5.1-7.4c-0.4-0.9-0.7-1.6-0.7-1.7C226.2,233,226.5,233.6,226.9,234.4z"/>
<path d="M248.2,237.3c0.1,0.5,0.2,1,0.2,1c-0.1,0.1-0.2-0.3-0.3-0.9c-0.1-0.5-0.2-1-0.2-1C248,236.4,248.1,236.8,248.2,237.3z"/>
<path d="M248.6,239.1c0,0.3,0,0.4-0.1,0.2c0-0.2,0-0.4,0-0.6C248.5,238.7,248.6,238.8,248.6,239.1z"/>
<path d="M249.3,239.5c0,0.3,0,0.4-0.1,0.2c0-0.2,0-0.4,0-0.6C249.3,239.1,249.3,239.2,249.3,239.5z"/>
<path d="M248.8,240.6c0,0.5,0,0.7-0.1,0.4c0-0.2,0-0.6,0-0.9C248.7,239.9,248.8,240.1,248.8,240.6z"/>
<path d="M248.9,242.7c0,0.6,0,0.8-0.1,0.5c0-0.3,0-0.7,0-1C248.9,241.8,248.9,242.1,248.9,242.7z"/>
<path d="M249.2,245.6c0,0.3,0,0.4-0.1,0.2c0-0.2,0-0.4,0-0.6C249.1,245.2,249.2,245.3,249.2,245.6z"/>
<path d="M250.1,247c0,0.8-0.1,1.7-0.1,2c-0.1,0.3-0.1-0.3-0.1-1.3C250,245.3,250.1,245,250.1,247z"/>
<path d="M248.9,247.3c0,0.5,0,0.7-0.1,0.4c0-0.3,0-0.7,0-1C248.9,246.6,248.9,246.8,248.9,247.3z"/>
<path d="M248.8,248.9c0,0.3,0,0.4-0.1,0.2c0-0.2,0-0.4,0-0.6C248.7,248.4,248.8,248.5,248.8,248.9z"/>
<path d="M237.4,249.9c0.2,0.4,0.3,1,0.3,1.2c0,0.2-0.1,0.1-0.2-0.4c-0.1-0.5-0.3-1-0.4-1.2c-0.1-0.2-0.1-0.3,0-0.3
	C237.1,249.2,237.3,249.5,237.4,249.9z"/>
<path d="M233.9,249.9c0,0.4,0,0.5-0.1,0.3c0-0.2,0-0.5,0-0.7C233.9,249.4,233.9,249.6,233.9,249.9z"/>
<path d="M252.5,250.3c-0.1,0.3-0.2,0.6-0.3,0.8c-0.1,0.2-0.1,0.1,0-0.2c0.1-0.3,0.2-0.6,0.3-0.8C252.6,249.9,252.6,250,252.5,250.3z
	"/>
<path d="M233.4,254.9c0.4,0.2,0.6,0.4,0.5,0.4c-0.1,0-0.5-0.2-0.9-0.4c-0.4-0.2-0.6-0.4-0.5-0.4C232.6,254.5,233,254.7,233.4,254.9z
	"/>
<path d="M249.3,253c0,0.3,0,0.4-0.1,0.2c0-0.1,0-0.3,0-0.5C249.3,252.6,249.3,252.7,249.3,253z"/>
<path d="M250.8,254.9c-0.1,0.3-0.2,0.6-0.3,0.8c-0.1,0.2-0.1,0.1,0-0.2c0.1-0.3,0.2-0.6,0.3-0.8
	C250.9,254.5,250.9,254.6,250.8,254.9z"/>
<path d="M258.1,256.6c0,0.6,0,0.8-0.1,0.5c0-0.3,0-0.7,0-1C258.1,255.8,258.1,256,258.1,256.6z"/>
<path d="M258.3,258.7c0,0.5,0,0.7-0.1,0.4c0-0.2,0-0.6,0-0.9C258.3,258,258.3,258.2,258.3,258.7z"/>
<path d="M261.1,260.5c0.1,0.4,0.1,0.7,0.1,0.8c-0.1,0.1-0.2-0.2-0.2-0.6c-0.1-0.4-0.1-0.7-0.1-0.8
	C260.9,259.9,261,260.1,261.1,260.5z"/>
<path d="M258.5,260.6c0,0.5,0,0.7-0.1,0.4c0-0.2,0-0.6,0-0.9C258.4,259.9,258.5,260.1,258.5,260.6z"/>
<path d="M261.4,262c0,0.3,0,0.4-0.1,0.2c0-0.2,0-0.4,0-0.6C261.3,261.6,261.4,261.7,261.4,262z"/>
<path d="M258.7,262.6c0,0.6,0,0.9-0.1,0.5c0-0.3,0-0.9,0-1.1C258.6,261.7,258.7,262,258.7,262.6z"/>
<path d="M261.6,263.2c0,0.3,0,0.4-0.1,0.2c0-0.2,0-0.4,0-0.6C261.5,262.7,261.6,262.8,261.6,263.2z"/>
<path d="M261.9,265.1c0.1,0.7,0.1,1.3,0.1,1.4c-0.1,0-0.2-0.5-0.2-1.2s-0.1-1.3,0-1.4C261.7,263.8,261.8,264.4,261.9,265.1z"/>
<path d="M258.9,265.3c0,0.7,0,1-0.1,0.6c0-0.4,0-1,0-1.3C258.8,264.2,258.9,264.5,258.9,265.3z"/>
<path d="M262.1,267.9c0,0.6,0,0.9-0.1,0.5c0-0.3,0-0.9,0-1.1C262.1,267,262.1,267.3,262.1,267.9z"/>
<path d="M259.1,268.9c0,0.5,0,0.7-0.1,0.4c0-0.3,0-0.7,0-1C259,268.1,259.1,268.4,259.1,268.9z"/>
<path d="M262.3,271.4c0,1,0,1.4-0.1,0.9c0-0.6,0-1.4,0-1.9C262.3,269.9,262.3,270.3,262.3,271.4z"/>
<path d="M262.1,274.4c0,0.5,0,0.7-0.1,0.4c0-0.3,0-0.7,0-1C262.1,273.7,262.1,273.9,262.1,274.4z"/>
<path d="M216.3,269.1c0.8,3,1.3,4.3,2.3,5.6c2.4,3.3,10.9,12.2,14.6,15.5c2.7,2.4,3.6,3,4.5,3c0.6,0,0.6,0,0.3,0.2
	c-0.9,0.4-2.5-0.7-6.8-4.6c-2.5-2.3-8.7-8.9-11.3-12.1c-1.5-1.9-2.3-2.9-2.6-3.8c-0.5-1.3-1.7-5.6-1.6-5.7
	C215.7,267.1,216,268,216.3,269.1z"/>
<circle class="st3" cx="256" cy="294" r="102.1"/>
<path d="M226.8,232.2c2.9,0.2,4.3,0.5,6.6,1.2c1.5,0.5,2.3,0.7,4.1,0.7c2.9,0.2,3.9,0.5,5.2,1.7c0.7,0.7,1.9,1.4,3.4,2.2
	c5.3,2.7,11.1,6.9,17.1,12.3c4,3.6,5.1,5.4,6.4,10.6c0.4,1.5,0.9,1.8,3.9,2.8c2.9,0.9,4.2,1.5,6.4,2.9c0.8,0.5,1.6,0.9,2,0.9
	c0.7,0.1,1.8,0.8,3.9,2.4c1.4,1.1,10.7,10.5,12.5,12.6c1.8,2.2,2.5,3.8,2.8,6.9c0.3,2.8,0.3,2.9,0.9,3c1.9,0.5,4.1,2.3,5,4.2
	c1.1,2.1,2.9,8.4,3.7,12.8c0.3,1.5,0.3,2,0.1,3.2c-0.3,1.5-0.8,2.5-1.7,3.4l-0.6,0.5l0.8,0.7c0.5,0.4,1,1,1.2,1.4
	c0.2,0.3,0.9,1,1.5,1.4c3.2,2.2,5.6,7.2,6.6,13.6c0.4,2.6,0.2,3.6-0.6,4.5c-0.7,0.7-0.6,0.6-15.2,4c-17.6,4.1-17.2,4-18.8,4
	c-1.6,0-4.2-0.3-11.7-1.6c-4.9-0.8-6.1-1.1-7.5-1.9c-0.8-0.4-1-0.5-1.6-0.3c-1.5,0.5-2.4,0.1-3-1.4c-0.4-0.9-0.4-0.9-1.9-0.7
	l-0.9,0.1v0.8c0,1.4-0.3,1.6-4.2,2.2l-3.4,0.5l-14.2-3.6c-27.8-7-27.6-7-28.2-7.8c-0.3-0.5-0.4,0,0.7-5.8c0.5-2.6,0.8-3.4,1.5-3.9
	c0.5-0.3,3.9-1.2,7.3-2c0.8-0.2,1.5-0.4,1.5-0.5c0-0.1-0.2-0.3-0.4-0.5c-0.7-0.6-3-3.5-4.6-5.5c-8.3-11.2-14.5-27.2-17.5-46
	c-1.1-7-1.2-10.4-0.2-16.2c1-5.6,3.6-14.4,5.1-16.8c0.5-0.8,1.8-1.5,3.7-1.9c0.9-0.2,2.1-0.5,2.5-0.6c0.5-0.1,1.7-0.3,2.7-0.5
	c1-0.1,2.2-0.3,2.6-0.5C213.5,232,223.5,232,226.8,232.2z M212.1,232.9c-0.5,0.4-0.4,0.7,0.5,1.8l0.8,1l0.7-0.7c1-1,2.3-1.2,6.9-1.1
	c1.9,0.1,5.6,0.2,8.3,0.2c4.5,0.1,4.8,0.1,4.2-0.2c-2.3-1.1-5.8-1.4-14.6-1.3C213.7,232.6,212.3,232.7,212.1,232.9z M208.9,233.3
	c-1.7,0.3-1.8,0.4-1,1.8c0.5,0.9,0.7,1.1,0.8,0.8c0.2-0.5,1.1-0.9,2.3-1l1.1-0.1l-0.4-0.5c-0.2-0.2-0.4-0.6-0.4-0.8
	C211.4,233,210.8,233,208.9,233.3z M204.9,234.2c-1.6,0.4-3.1,1.1-3.3,1.7c-0.3,0.7,0,1.2,2.3,3.2c5.1,4.5,12.3,12.6,14.5,16.3
	c1.3,2.2,1.5,2.9,1.5,6.7v3.4l0.6-0.3c0.3-0.1,1.1-0.3,1.6-0.4c0.6-0.1,1-0.2,1-0.4c0-0.1-0.1-1.5-0.1-3c-0.1-3.8-0.5-5.2-2.5-7.9
	c-2.4-3.3-6.9-8.6-11.8-13.6c-2-2-2.6-2.9-2.6-3.6c0-0.4,0.5-1,1-1.3c0.2-0.1,0.3-0.3,0.2-0.7C207,233.8,206.7,233.7,204.9,234.2z
	 M219.1,234.7c0,0.6,0,0.6-0.1,0.1c-0.1-0.5-0.1-0.5-1.2-0.5h-1.1l0,1.2l0,1.2l-0.1-1.2c-0.1-1.2-0.1-1.2-0.6-1.1
	c-0.8,0.2-0.8,0.2-0.8,1.3c0,1,0,1,0.6,1.2l0.6,0.2l-0.6-0.1l-0.6-0.1v1.6v1.6l0.8,0.2c0.4,0.1,0.8,0.2,0.8,0.3c0,0.1-0.2,0-0.4,0
	c-0.2-0.1-0.6-0.2-0.8-0.2c-0.2-0.1-0.3,0-0.4,0.4c0,0.3-0.1-0.5-0.2-1.7l-0.1-2.3l-0.6-0.1c-0.6-0.1-0.6,0-0.6,0.5
	c0,1.2,0.4,2.5,0.8,2.7c0.4,0.2,0.4,0.2,0.1,0.2c-0.2,0-0.3,0.1-0.3,0.2c0.1,0.1,0.2,0.7,0.4,1.3c0.3,0.9,0.4,1,0.5,0.6
	c0.1-0.4,0.1-0.3,0.2,0.3c0,0.4,0.1,1,0.2,1.3c0.2,0.4,0.2,0.5,0.7,0.3c0.8-0.3,1.4-0.2,2,0.4c0.3,0.3,0.7,0.6,0.9,0.8
	c0.2,0.1,0.2,0.2,0.1,0.2c-0.2,0-0.2,0.1,0.1,0.6c0.2,0.3,0.3,0.6,0.4,0.6c0,0,0.1-0.6,0.1-1.4c0-1.3,0-1.4-0.8-2.6
	c-0.5-0.8-1.1-1.4-1.5-1.5c-0.3-0.2-0.4-0.2-0.2-0.2c0.5,0.1,0.5,0.2,0.1-1c-0.2-0.5-0.4-1.1-0.4-1.3c0-0.2,0.2,0.2,0.4,0.9
	c0.2,0.7,1,2,1.8,3.2c1.4,2,2,2.7,4.8,6c2.1,2.4,4.7,6,5.3,7.4c0.5,1.2,0.6,1.2,1.2,1.1c0.3-0.1,0.9-0.1,1.2-0.1
	c0.4,0,2.4-0.1,4.5-0.3c2.1-0.2,4.1-0.3,4.5-0.3c0.5,0,0.6-0.1,1-1c0.2-0.5,0.4-0.9,0.4-0.7c0,0.1-0.1,0.5-0.3,0.9
	c-0.2,0.4-0.2,0.7-0.2,0.8c0,0.1,0.4-0.2,0.8-0.6c0.4-0.4,0.7-0.6,0.7-0.5s-0.1,0.2-0.2,0.4c-0.4,0.4,0,0.5,0.8,0
	c1-0.6,1.7-1.5,1.7-2.5c0-0.6-0.2-1-0.9-2.1c-0.6-0.9-0.9-1.2-1-1c-0.1,0.2-0.2-0.1-0.1-0.7c0-0.5,0.1-0.7,0.1-0.5
	c0.1,0.5,1.8,3.1,1.9,2.9c0-0.1,0-0.8-0.1-1.8c-0.2-1.6-0.2-1.7-0.9-2.4c-0.4-0.4-0.8-0.7-0.9-0.7c-0.1,0-0.2,0.3-0.2,0.6
	c0,0.5-0.1,0.5-0.2-0.2c-0.1-0.5-0.1-1.2-0.1-1.5l0-0.7l0.1,0.6c0.1,0.5,0.3,0.8,1,1.4l1,0.8l-0.1-1.3c-0.2-2.3-0.3-2.5-1.4-3.6
	l-1-1.1l0.1,1l0.1,1l-0.3-1.2c-0.2-0.7-0.2-1.3-0.1-1.3c0.1-0.1,0.3-0.5,0.5-0.9l0.3-0.8l-1.7-1.8c-1.1-1.1-1.7-1.7-1.9-1.6
	c-0.2,0.1,0,0.4,0.5,1c0.8,1,1.8,2.7,2,3.4c0.1,0.3-0.2-0.2-0.7-1.1c-0.6-1.2-1.2-2-2.5-3.2c-0.9-0.9-1.5-1.6-1.3-1.5
	c0.2,0.1,0.6,0.4,0.9,0.8c0.5,0.6,1.1,0.8,1.1,0.4c0-0.1-0.3-0.4-0.7-0.8c-0.4-0.3-0.6-0.6-0.5-0.6c0.1,0,0.5,0.3,0.8,0.7
	c0.4,0.4,0.8,0.6,0.9,0.5c0.2-0.1,0-0.3-0.5-0.7c-0.6-0.5-0.9-0.6-1.9-0.6l-1.1,0l1,0.8c1.4,1.1,3,3.2,3.5,4.5
	c0.2,0.6,0.4,1.1,0.3,1.1c0,0-0.2-0.2-0.3-0.6c-0.5-1.6-2-3.6-3.8-5.1l-1-0.8l-4.1,0c-3.2,0-9.6-0.3-12.5-0.5
	C219.2,234.1,219.1,234.2,219.1,234.7z M241.1,236.4c1.1,1.1,2.2,1.9,3.5,2.7c3,1.8,6.5,4,6.4,4.1c0,0.1-0.7-0.3-1.5-0.8
	c-1.9-1.3-6.1-3.8-6.3-3.8c-0.1,0,0.2,0.5,0.7,1.2c0.5,0.7,1.2,1.9,1.6,2.7c0.8,1.5,0.8,1.5,1,1c0.3-0.7,1.1-1.2,1.7-1.1
	c0.3,0.1,0.8,0.4,1.1,0.8c0.6,0.6,0.7,0.6,1.3,0.4c0.5-0.2,0.8-0.2,1.1-0.1c0.3,0.1,0.8,0.2,1.1,0.2c1.4,0,2.6,0.9,3.9,3
	c0.4,0.7,0.9,1.3,1.1,1.5c0.7,0.4,4.5,3.8,5.2,4.6c2,2.4,2.8,4.2,3.3,7.4c0.2,1,0.4,2.1,0.6,2.3c0.4,0.7,1.3,1.1,2.7,1.4
	c3.2,0.6,5.2,1.4,8.3,3.2c1.4,0.8,1.4,0.8,2.2,0.6c0.5-0.2,0.5-0.2-0.9-1.1c-1.9-1.2-2.9-1.6-6-2.6c-3.4-1.1-3.7-1.4-4.4-4.2
	c-1-4.1-2.4-6.1-6.7-9.9c-6-5.3-12.2-9.6-17.2-12c-1.1-0.5-1.9-1.1-2.4-1.5c-0.6-0.7-2.2-1.6-2.8-1.6
	C239.6,234.8,240.2,235.5,241.1,236.4z M214.2,235.2c-0.2,0.2-0.3,0.6-0.4,0.8c-0.1,0.4-0.1,0.4,0.5,0.4c0.7,0,0.7,0,0.7-0.8
	C215,234.7,214.6,234.5,214.2,235.2z M209.4,235.7c-0.7,0.5-0.9,1.3-0.6,2.6c0.3,1.6,0.6,2.1,2.5,4.1l1.7,1.8l0.6-0.3
	c0.6-0.3,0.6-0.3,1.2,0.2c0.7,0.5,0.7,0.6-0.3-2c-0.7-1.8-1.2-4.2-1.2-5.3c0-0.5-0.1-0.9-0.4-1.2c-0.4-0.4-0.5-0.4-1.7-0.4
	C210.3,235.3,209.7,235.4,209.4,235.7z M206.8,235.6c-0.9,0.7-0.7,1.5,1,3.1c0.9,0.9,0.9,0.9,0.8,0.4c-0.1-0.3-0.2-1-0.2-1.5
	c0-0.8-0.6-2.4-0.9-2.4C207.4,235.2,207.1,235.4,206.8,235.6z M239.9,236.3c0,0.1,0.8,0.9,1.7,1.9c0.9,0.9,1.8,1.9,1.9,2.1
	c0.2,0.3,0.3,0.4,0.3,0.1c0-0.2-0.2-0.5-0.3-0.7c-0.2-0.2-0.5-0.6-0.6-0.8c-0.6-0.9-2.5-2.8-2.7-2.8
	C240,236.1,239.9,236.2,239.9,236.3z M200.5,238.1c-2.1,5-4.1,13.1-4.6,18.5c-0.3,3.1-0.2,5.2,0.2,8.3c2.7,20.8,9.7,39.1,19.6,51.5
	c2.1,2.6,4.1,4.8,5.1,5.5c4.7,3.4,28.8,12.4,34.9,13.1c3.1,0.3,3.6-0.1,4.2-3.4c0.3-1.9,0.9-10.5,0.9-14v-2.3l-1.9-0.1
	c-3.2-0.2-4-0.5-8.9-2.9c-6-3-11.1-6.3-15.7-10.1c-1.2-1-2.4-1.9-2.6-1.9c-2.1,0-17.8-15.1-21.4-20.7c-1.4-2.1-4.1-8.2-4.7-10.7
	c-0.3-1-0.1-1.6,0.6-1.8c1.3-0.3,11.7-1.6,12.6-1.6c0.6,0,0.7-0.1,0.8-0.6c0.2-1,0.1-5.4-0.1-6.4c-0.5-2.4-2.7-5.5-7.4-10.8
	c-1.3-1.5-3.7-3.9-5.3-5.5c-1.6-1.6-3.5-3.4-4.2-4.2c-0.7-0.7-1.4-1.3-1.5-1.4C201.1,236.7,200.8,237.3,200.5,238.1z M243.4,242.6
	l1,1l-0.2-0.9c-0.1-0.5-0.2-1-0.2-1.2c0-0.2-0.2-0.6-0.5-0.9L243,240l-0.4,0.8l-0.3,0.8L243.4,242.6z M244.7,243.1
	c0.2,1.4,0.9,2.8,1.2,2.4c0.1-0.2,0.1-0.2,0.1,0.1c-0.1,0.2,0.2,0.8,0.7,1.6c0.4,0.7,0.7,1.2,0.7,1c0-0.2-0.3-0.9-0.5-1.7
	c-0.3-0.9-0.5-1.4-0.6-1.3c-0.1,0.1-0.2,0-0.1-0.2c0.1-0.2-0.1-0.7-0.2-1.1c-0.4-0.8-1.2-2.1-1.2-2
	C244.5,241.9,244.5,242.5,244.7,243.1z M247,243.2c-0.4,0.6-0.4,1.1,0.1,1c0.2-0.1,0.6,0,0.9,0.3l0.5,0.4l0.5-0.4
	c0.5-0.4,0.5-0.4,0.2-0.8C248.5,242.7,247.5,242.5,247,243.2z M249.9,244.3c-1,0.5-2.6,2.1-2.6,2.6c0,0.2,0.1,0.7,0.3,1.2
	c0.1,0.5,0.5,1.9,0.7,3.1c0.4,2.1,0.6,2.5,2.3,5.9c2.2,4.4,3.2,5.9,4.7,7.4l1.2,1.2l0.5-0.3c1.1-0.6,2.2-1.9,2.5-2.9
	c0.5-1.4,0.3-3.8-0.4-5.7c-1.3-3.7-4.1-9.5-5.5-11.4c-0.7-0.9-0.8-1.2-0.3-0.8c0.8,0.7,3.7,6.3,5.2,9.9c1.2,2.9,1.5,4.4,1.5,6.1
	c0,2.1-0.9,3.7-2.9,5c-0.4,0.3-0.4,0.3-0.2,0.4c0.4,0.2,2.5-1.3,3.4-2.4c0.8-1,1.3-2.5,1.2-3.7c-0.4-2.9-4.3-12.2-6.1-14.4
	c-0.8-1-1.6-1.4-2.3-1.3c-0.3,0.1-0.6,0-0.8-0.1C251.9,243.8,250.7,243.9,249.9,244.3z M219.9,244.8c0,0.7,0.1,0.8,0.8,1
	c0.4,0.2,0.7,0.2,0.7,0.2c-0.1-0.2-1.4-1.9-1.4-1.9C219.9,244.1,219.9,244.4,219.9,244.8z M213.5,244.3c-0.2,0.2,0.3,0.8,1.7,2.4
	c1,1.2,2.6,3,3.4,4c0.8,1,1.5,1.8,1.5,1.7c0-0.3-1.4-2.6-2.5-4.3C215.2,244.5,214.1,243.6,213.5,244.3z M246.7,244.6
	c-0.2,0.3,0.1,1.6,0.3,1.6c0.1,0,0.4-0.2,0.7-0.6c0.5-0.5,0.5-0.6,0.2-0.9C247.5,244.2,247,244.1,246.7,244.6z M216.1,244.5
	c-0.3,0.1-0.6,0.2-0.6,0.3c0,0,0.8,1.3,1.8,2.8c1,1.5,2.2,3.4,2.6,4.3c0.4,0.9,1,2,1.3,2.5c0.3,0.5,0.8,1.4,1,1.9l0.4,0.9l-0.1-0.8
	c-0.3-2.1-2.5-8.2-3.8-10.5C217.9,244.2,217.5,244,216.1,244.5z M245.1,246.5l0.1,0.5l0.2-0.5c0.1-0.3,0.1-0.6-0.1-0.9l-0.2-0.5
	l-0.1,0.5C245,245.8,245,246.2,245.1,246.5z M219.9,246.5c0,0.9,0.7,2.6,1.2,3.1c0.2,0.2,0.3,0.3,0.2,0.4c-0.2,0.1,0.3,1,1.3,2.3
	c0.8,1,0.9,1,1,0.6c0.1-0.4,0.1-0.4,0.1,0.1c0,0.7,1.1,2,2.2,2.7c1.1,0.7,1.2,0.7,1.3,0.2c0.1-0.4,0.1-0.3,0.1,0.1
	c0,0.6,0.3,0.8,1.6,0.9c0.7,0.1,0.7,0.1,0.5-0.4c-0.3-0.8-1.4-2.6-1.7-2.5c-0.1,0-0.2-0.1-0.2-0.3c0-0.5-0.7-1.5-1.2-1.7
	c-0.2-0.1-0.3-0.2-0.2-0.2c0.1-0.1-0.3-0.7-1-1.6l-1.2-1.5v1v1l0.9,0.4c0.5,0.2,0.9,0.5,0.9,0.5c0,0.1-0.4-0.1-0.9-0.3
	c-0.9-0.5-0.9-0.5-1,0c-0.1,0.4-0.1,0.4-0.1-0.1c0-0.4-0.2-0.6-1.1-0.9c-0.6-0.2-1-0.5-1-0.5c0,0,0.5,0.1,1,0.3
	c0.5,0.2,0.9,0.4,1,0.4c0,0,0.1-0.5,0.1-1.1c0-1-0.1-1.1-0.8-2c-0.7-0.8-2.2-1.9-2.8-1.9C219.9,245.8,219.9,246.1,219.9,246.5z
	 M245.4,247.1c-0.3,1-0.2,1.3,0.9,2.7l0.9,1.2l0.2-0.6c0.2-0.5,0.1-1.7-0.2-1.7c-0.1,0-0.4-0.5-0.8-1.2c-0.4-0.7-0.7-1.2-0.8-1.2
	S245.5,246.7,245.4,247.1z M257.7,248.5c0,0.1,0.3,0.7,0.7,1.4c1.5,2.9,3.2,7.7,3.5,9.6c0.4,2.6-0.8,4.5-4.3,6.8
	c0,0,0.1,0.3,0.2,0.5l0.3,0.5l1.5-0.7c3.2-1.6,5.9-2,7.6-1.2c0.5,0.2,3,1.9,5.6,3.8c2.6,1.9,4.8,3.4,4.8,3.3c0,0,0.2-0.7,0.4-1.5
	c0.2-0.8,0.5-1.7,0.7-2.1c0.2-0.4,0.4-0.7,0.4-0.8c0-0.1-2.9-1.9-4.3-2.5c-1.3-0.7-2.6-1.1-4.8-1.5c-1.8-0.3-2.9-0.9-3.3-1.6
	c-0.2-0.3-0.4-1.5-0.6-2.7c-0.7-4.1-1.8-5.9-6-9.7C258.1,248.6,257.7,248.2,257.7,248.5z M245.5,250.7c0.1,1.2,0.2,1.9,0.5,2.3
	l0.3,0.5l0.4-1.1c0.2-0.6,0.4-1.1,0.4-1.2c0-0.2-1.5-2.3-1.6-2.3C245.4,249,245.4,249.8,245.5,250.7z M247.5,251.1
	c0,0.2,0.2,0.6,0.3,0.8c0.3,0.4,0.3,0.3,0.2-0.3c-0.1-0.3-0.1-0.8-0.1-0.9s-0.1-0.2-0.2-0.2C247.5,250.6,247.5,250.9,247.5,251.1z
	 M246.8,252.7l-0.3,1l1.1,1.6c0.6,0.9,1.1,1.6,1.2,1.5c0,0-0.1-0.9-0.2-1.9c-0.3-1.7-0.9-3.3-1.2-3.3
	C247.2,251.6,247,252.1,246.8,252.7z M222.2,253.4c0.4,1.2,0.4,1.2,1.4,1.6c0.6,0.2,1.1,0.4,1.1,0.4s-0.3-0.5-0.8-1
	c-0.5-0.5-1.2-1.3-1.5-1.7c-0.3-0.4-0.6-0.7-0.6-0.6C221.8,252.1,222,252.7,222.2,253.4z M245.1,254.6c-0.2,0.3-0.5,0.6-0.5,0.8
	c-0.1,0.2-0.1,0.4,0.3,0.7c0.3,0.2,0.5,0.5,0.5,0.6c0,0.2,2.3,2.9,2.5,2.9c0.1,0,0.2-0.2,0.3-0.5c0.2-0.5,0.2-0.5,0.1,0
	c-0.1,0.3-0.2,0.6-0.2,0.7c0,0.1,0.2,0.5,0.5,0.9l0.6,0.7l-0.1-1.6c-0.1-1.7-0.2-1.9-0.5-1.5c-0.2,0.4-0.2,0.2,0-0.4
	c0.2-0.4,0-0.7-1-2.1c-1.1-1.5-1.2-1.6-1.4-1.3c-0.2,0.3-0.3,0.3-0.2-0.2c0.1-0.3,0-0.7-0.1-0.9l-0.2-0.4l-0.1,0.6
	C245.5,253.8,245.3,254.3,245.1,254.6z M249,255.7c0.1,0.5,0.3,2.7,0.5,4.9l0.3,4l-0.4,0.7c-0.5,0.9-0.6,2.7-0.1,4.1
	c0.3,1,5.6,10.6,5.8,10.7c0.1,0,0.2,0.2,0.2,0.3c0,0.1,1.1,2.2,2.4,4.6c1.8,3.3,2.5,4.4,2.7,4.3c0.4-0.1,2.8-0.4,5.7-0.6
	c1.2-0.1,2.3-0.2,2.3-0.3c0.1-0.1-0.7-1.2-1.6-2.4c-2.5-3.3-4.6-6.6-5.5-8.4c-0.4-0.9-1-2.7-1.5-4.4c-1.3-5-1.5-5.5-4-7.7
	c-1.3-1.2-1.7-1.5-1.7-1.2c0,0.2-0.1,0.1-0.2-0.2c-0.1-0.3-0.6-1.3-1.2-2.2c-0.6-0.9-1.1-1.8-1.2-2c-0.1-0.4-0.2-0.4-0.3,0.1
	c-0.1,0.4-0.1,0.4-0.2-0.1c0-0.5-2.1-5.1-2.2-4.9C248.8,254.7,248.9,255.2,249,255.7z M222.9,256.5c0.1,0.8,0.3,1.6,0.4,1.7
	c0.1,0.1,0.7,0.4,1.3,0.6c0.6,0.2,1.1,0.5,1,0.5c0,0-0.6-0.1-1.2-0.4c-0.6-0.3-1.2-0.5-1.2-0.5c0,0-0.1,0.6,0,1.3l0,1.3l2,2.1
	c1.6,1.7,2.2,2.1,2.6,2.1c1,0,4.1,0.6,5.6,1.1c0.9,0.3,1.6,0.5,1.6,0.4c0-0.3-1.9-3.4-2.3-3.8c-0.2-0.2-1.5-0.9-2.8-1.6
	c-1.3-0.7-2.3-1.2-2.2-1.2c0.1,0,1.1,0.5,2.3,1.1c1.2,0.6,2.2,1.1,2.2,1.1c0.2,0-1.1-1.8-2.6-3.5c-1.1-1.3-1.5-1.6-2.2-1.9
	c-0.5-0.2-1.2-0.5-1.6-0.8c-0.6-0.4-3-1.4-3.1-1.3C222.7,254.9,222.8,255.6,222.9,256.5z M242.6,256.5c0,0,0.3,0.5,0.9,1.1
	c0.9,1.1,0.9,1.1,1.2,0.6l0.3-0.4l-0.1,0.5c-0.1,0.3-0.1,0.5-0.2,0.6c0,0.1,0.5,0.8,1.2,1.8l1.2,1.6l0.3-0.8
	c0.1-0.4,0.3-0.7,0.3-0.7c0,0-0.1,0.4-0.2,0.9l-0.3,0.8l0.9,1.3c0.5,0.7,1,1.3,1.1,1.2c0.3-0.1,0.4-1.1,0.2-2.3
	c-0.2-1.3-1.2-2.8-1.5-2.3c-0.1,0.2-0.2,0.2-0.1-0.1c0.1-0.2-0.3-0.8-1.2-1.9c-1.2-1.5-1.3-1.5-1.5-1.1c-0.2,0.4-0.2,0.4-0.1-0.1
	c0.1-0.4,0-0.7-0.3-1.1l-0.4-0.5l-0.8,0.4C243,256.2,242.6,256.4,242.6,256.5z M234.7,257.1c-2.8,0.2-5.4,0.3-5.6,0.3
	c-0.5-0.1-0.4,0,0.8,1.4c1.8,2.2,3.3,4.3,4.5,6.4c1,1.7,1.1,1.8,2.1,2.2l1,0.4l3.2-0.4c1.8-0.2,3.3-0.5,3.4-0.6
	c0.2-0.1,0.1-0.7-0.2-2.1c-0.2-1.1-0.4-2.1-0.3-2.2c0-0.1,0.3,0.8,0.5,2.1c0.5,2.5,0.5,2.5,1.3,1.1l0.5-0.8l-0.6-0.8
	c-1-1.5-1.7-2.3-1.8-2c0,0.1-0.2-0.6-0.4-1.6c-0.2-1-0.3-1.9-0.3-1.9c0.1,0,0.2,0.6,0.3,1.3c0.2,1,0.3,1.4,0.4,1.2
	c0.1-0.2,0.2-0.2,0.1,0.1c-0.1,0.2,0.3,0.8,1.1,1.9c1.1,1.4,1.2,1.6,1.4,1.3c0.2-0.3,0.2-0.2,0.1,0.2c-0.1,0.6,0.5,1.9,1,1.9
	c0.4,0,1.5-0.7,1.5-1c0-0.1-0.4-0.8-0.9-1.5l-0.9-1.3l-0.3,0.7c-0.4,0.9-0.5,0.7-0.1-0.2l0.3-0.7l-1.1-1.4c-0.6-0.8-1.2-1.6-1.3-1.7
	c-0.1-0.2-0.6-0.7-1-1.3c-0.5-0.7-0.8-0.9-0.9-0.8c-0.1,0.2-0.2,0.1-0.2-0.2c0-0.4,0-0.4-1.3-0.3
	C240.4,256.7,237.5,256.9,234.7,257.1z M223.2,263.6c0.1,0.4,0.2,0.9,0.4,1.1c0.3,0.2,2.9,0.5,2.9,0.3c0,0-0.7-0.8-1.7-1.8l-1.6-1.7
	l-0.1,0.6C223.1,262.6,223.1,263.2,223.2,263.6z M220.7,265.4l-0.9,0.3l-0.2,1.5c-0.1,0.8-0.3,2.5-0.4,3.7l-0.1,2.2l1.7,0.2
	c3.3,0.4,7.6,1.7,10.4,3.1c2,1,6.1,3.8,10.3,6.9c2.5,1.9,5.9,4.2,7.7,5.3c2.8,1.7,5,2.2,8.5,2.1c1.9-0.1,1.9,0,1.2-1.9
	c-2.2-5.6-9.2-12.8-17.4-18.2c-5.4-3.5-9.2-4.8-15.1-5.3c-1.3-0.1-2.5-0.2-2.7-0.4C223.2,264.8,222,265,220.7,265.4z M263,265.6
	c-1.5,0.4-4.6,1.7-4.6,2c0,0.1,0.2,0.7,0.5,1.3c0.3,0.6,0.7,2.3,1.1,3.6l0.6,2.4l0.8,0.4c0.8,0.4,0.9,0.4,1.5,0.1
	c0.4-0.2,1.6-0.5,2.7-0.7c1.1-0.2,2-0.5,2.1-0.5c0-0.1-1-0.9-2.3-1.8c-2.5-1.8-2.9-2.3-2.7-3.1c0.2-0.6,1-1,4.2-1.6l2.5-0.5l-1-0.8
	C266.4,265.1,265.5,265,263,265.6z M245.3,266.1c-0.4,0.7-0.5,0.9-0.2,0.8c0.2-0.1,0.5-0.1,0.7-0.1c0.8,0,1-0.3,0.6-0.9
	c-0.2-0.3-0.4-0.6-0.5-0.6S245.6,265.6,245.3,266.1z M215.5,266.3c-5.5,0.7-9.4,1.3-9.6,1.5c-0.4,0.3-0.3,0.7,0.3,2.5
	c1.6,4.7,3.4,8.2,5.2,10.6c4.1,5.3,11.6,12.9,18,17.9c2.1,1.6,2.5,1.7,3.4,0.5c0.5-0.6,0.5-0.7,0.2-1.2c-0.2-0.4-0.4-0.5-0.7-0.4
	c-0.3,0.1-0.3,0.1-0.1-0.1c0.2-0.2,0.2-0.2-0.1-0.3c-0.4-0.1-2.6-2.9-5.6-7c-5.9-8.1-8.6-14.4-8.1-19.5l0.1-1.6l-1.6,0.1
	c-0.9,0.1-3,0.2-4.7,0.3c-1.7,0.1-3.1,0.2-3.2,0.2c0,0,0,0.4,0.1,0.9c0.1,0.5,0.2,0.9,0.1,0.9c0,0-0.2-0.5-0.4-1.2
	c-0.2-0.7-0.3-1.3-0.2-1.3c0,0,2.3-0.2,5.1-0.4c2.8-0.2,5.2-0.4,5.2-0.4c0.1-0.1,0.2-0.7,0.3-1.3l0.1-1.2l-0.7,0.1
	C218.2,265.9,216.9,266.1,215.5,266.3z M246.7,266.9c-0.5,0.1-1.1,0.2-1.5,0.3c-0.3,0-0.7,0.1-0.8,0.2c-0.1,0.1,0.3,0.5,0.8,1
	c0.5,0.5,1,0.8,1,0.8c0,0-0.1-0.4-0.2-0.8c-0.2-0.4-0.3-0.7-0.2-0.8c0-0.1,0.3,0.5,0.6,1.3c1.1,3.1,4.5,8.6,6.8,11.2
	c0.8,0.9,1.9,2.2,2.4,2.9c0.8,1,1.3,1.5,1,1c-1.3-2.2-7.4-13.4-7.6-13.9c-0.2-0.4-0.4-1.4-0.4-2.3l-0.1-1.5l-0.5,0.2
	C247.8,266.6,247.2,266.8,246.7,266.9z M241.6,267.8c0,0,0.1,0.4,0.3,0.8c0.4,0.7,1.6,1.9,1.8,1.7c0,0,0.2-0.6,0.3-1.2l0.2-1.1
	l-0.1,1.1c-0.2,1.7-0.2,2.4-0.3,2.5c-0.1,0-0.1-0.2-0.1-0.5c0-0.4-0.1-0.7-0.5-0.9c-0.3-0.2-0.5-0.3-0.5-0.2c0,0.3,1.1,1.8,1.5,2.2
	c0.3,0.2,0.9,0.6,1.2,0.9c0.6,0.4,0.6,0.4,0.7,0.1c0.1-0.3-0.1-0.6-1-1.3c-0.6-0.5-1.1-0.9-1-1c0,0,0.5,0.3,1,0.7
	c0.5,0.4,1,0.8,1.1,0.8s0.1-0.7,0.1-1.5v-1.5l-1.2-1.1l-1.2-1.1l-1.1,0.2C242.2,267.6,241.7,267.7,241.6,267.8z M266.3,268.2
	c-2.2,0.5-3.3,0.9-3.5,1.3c-0.2,0.5,1.5,1.8,6,4.9c11.3,7.7,11.1,7.6,12.4,7.6c1.1,0,2.8-0.4,4.6-1.2l1.5-0.6l-1.5-1.2
	c-0.8-0.6-4.3-3.2-7.8-5.7c-3.5-2.5-6.8-4.8-7.3-5.2C269.7,267.4,270.1,267.4,266.3,268.2z M238.2,268.2c0,0.1,0.6,0.4,1.3,0.8
	c0.7,0.4,1.8,1,2.3,1.4c0.6,0.4,1.2,0.8,1.3,0.8c0.2,0.1-0.1-0.5-0.5-1.3c-1.3-2.5-1-2.3-2.8-2.1C238.9,268,238.2,268.2,238.2,268.2
	z M279.7,268.2c-0.6,0.2-1.6,2.9-1.6,4.2c0,0.6,0.1,0.8,2,2.1c1.1,0.8,2.1,1.4,2.1,1.5c0.1,0,0.3-0.6,0.4-1.3c0.5-1.9,1.1-2.9,2-3.1
	c1-0.3,1.2-0.3,2.2,0.2c0.8,0.4,0.8,0.4,0.5,0.1c-0.4-0.5-4.1-3.2-4.9-3.6C282,267.9,280.6,267.9,279.7,268.2z M213.4,268.9
	c-2.2,0.2-4.1,0.3-4.3,0.3c-0.2,0-0.3,0.1-0.2,0.2c0.2,0.2,9.5-0.3,9.8-0.6C218.9,268.6,218.2,268.6,213.4,268.9z M218.5,270.7
	c-0.4,5.3,2.5,11.9,9,20.6c2.1,2.8,4.5,5.8,4.6,5.7c0.1-0.1-0.4-0.7-1-1.5c-8.8-10.8-12.7-18.8-12.2-25c0.1-1.1,0.1-1.6-0.1-1.5
	C218.7,269.1,218.6,269.9,218.5,270.7z M246.7,272.8c0.1,0.2,0.7,0.7,1.3,1.1c0.6,0.5,1,0.8,0.9,0.9c0,0.1-0.6-0.3-1.2-0.9
	c-0.6-0.5-1.2-1-1.2-1c-0.1,0-0.1,0.2-0.1,0.4c0,0.2,0.5,0.8,1.4,1.5c0.7,0.6,1.5,1.3,1.7,1.5c0.2,0.2,0.7,0.7,1.1,1l0.7,0.6l-0.6-1
	c-0.3-0.5-0.8-1.2-1.1-1.5c-0.3-0.3-0.5-0.6-0.5-0.7c0.1-0.1-0.3-0.8-0.7-1.6c-0.5-0.8-1-1.9-1.3-2.4l-0.4-0.9l-0.1,1.3
	C246.4,272.1,246.5,272.6,246.7,272.8z M284.2,272.1c-0.5,0.3-1.2,2-1.4,3.3l-0.1,0.9l1.1,0.8c3.6,2.6,7,5.9,8.4,7.8
	c0.7,1,1.3,2.7,1.3,3.5c0,0.3-0.1,0.7-0.3,0.8c-0.3,0.3-0.2,0.3,0.5,0.5c0.8,0.1,1,0.4,0.4,0.6c-0.3,0.2-0.3,0.2,0.1,0.3
	c0.2,0.1,0.4,0.2,0.3,0.4c-0.1,0.2,0.3,0.3,1.2,0.4c0.8,0.1,1.5,0.2,1.7,0.2c0.3,0.1,0.4,0,0.2-1.9c-0.1-2.5-0.6-4-1.8-5.8
	c-1.2-1.8-5.7-6.7-8.4-9.1c-3.2-2.8-3.2-2.9-2.8-2.6c1.1,0.5,8.3,7.6,10.3,10.1c2.1,2.6,3,5,3,8v1.3l1.3,0.2
	c0.7,0.1,1.4,0.2,1.4,0.2c0.1-0.1-0.5-4.4-0.8-5.3c-0.6-2.2-2.8-4.9-8.7-10.7c-3.6-3.5-4.8-4.4-6-4.3
	C285,271.8,284.5,271.9,284.2,272.1z M219.3,274.4c0.2,1.4,1.3,4.5,2.3,6.7c1.9,4,5.3,8.9,10.7,15.7c1.4,1.7,2.3,2.7,3.8,3.8
	c4.3,3.4,9.6,6.3,16.4,9.2c3,1.2,4.2,1.5,6.5,1.6l1.7,0.1l0.1-4.5c0.1-6.6-0.3-12.5-1.1-15.4l-0.2-0.7l-1.5,0.1
	c-2.7,0.2-5.6-0.3-7.7-1.3c-1.3-0.7-5.3-3.3-8-5.4c-7.1-5.3-10.1-7.3-13.1-8.5c-2.9-1.2-7.5-2.4-9.5-2.4
	C219.2,273.3,219.2,273.3,219.3,274.4z M266,275c-2.4,0.5-3.6,0.9-3.6,1.2c0,0.7,1.5,1.7,7.4,4.9c6.5,3.5,8.6,4.2,12.3,3.9
	c1.1-0.1,2.8-0.3,3.8-0.5c2-0.3,2.7-0.4,2.3-0.1c-0.7,0.4-4.7,0.9-7.3,0.9c-2.3,0-2.8-0.1-4-0.5c-1.9-0.7-4-1.6-7.8-3.7
	c-5.6-3.1-7.1-4.1-7.1-4.9c0-0.3-0.2-0.5-0.7-0.7c-0.4-0.2-0.7-0.2-0.7-0.1c0,0.1,0.4,1,0.8,1.9c0.9,1.8,3,5,5.6,8.7
	c1.5,2,1.7,2.2,2.3,2.3c0.8,0.1,3.1-0.1,4.7-0.4c2.5-0.5,4.7-0.8,6.4-0.9c4.2-0.2,11,1.1,11,2.1c0,0.2,0.1,0.3,0.3,0.2
	c1.2-0.3,1.2-0.3,1.2-1c0-1.6-1.3-3.7-3.9-6.3l-1.6-1.5l-1.3,0.5c-0.7,0.3-2.1,0.7-3.1,1c-2.9,0.8-2.7,0.8-9.2-3.6
	c-3.1-2.1-5.7-3.8-5.9-3.8C268.1,274.7,267,274.8,266,275z M278.6,287.5l-0.9,0.1l0.9,0.1c2.1,0.3,3.9,1.2,4.7,2.4
	c0.2,0.3,0.5,0.6,0.6,0.6c0.5,0,6.7-1.3,7-1.5c0.3-0.2,0.2-0.2-0.4-0.5c-0.9-0.4-3.5-1-5.1-1.2C283.9,287.3,279.8,287.3,278.6,287.5
	z M274.8,288.1c-0.6,0.1-0.5,0.2,0.4,0.2c0.6,0.1,1.3,0.3,1.7,0.4c0.8,0.4,1,0.2,0.4-0.3c-0.3-0.2-0.3-0.4-0.2-0.3
	c0.2,0,0.5,0.3,0.7,0.7c0.2,0.3,0.7,0.6,1.1,0.8c0.8,0.3,2.7,1.4,2.5,1.5c-0.1,0.1-0.3-0.1-0.7-0.3c-0.6-0.5-2.1-1.1-2.4-1.2
	c-0.2,0-0.2,0.1,0,1.5l0.1,0.7l1.5-0.3c0.8-0.2,1.5-0.3,1.6-0.4c0.1-0.1,0.1-0.7,0-1.3l-0.1-1.1l-0.9-0.3c-0.5-0.2-1.1-0.3-1.3-0.4
	C278.7,287.9,275.5,287.9,274.8,288.1z M274.3,289c0.2,0.3,0.8,0.7,1.2,0.9c0.5,0.2,1.2,0.6,1.7,1c1,0.7,1,0.8,0.9,0.3
	c0-0.2-0.1-0.6-0.2-1c-0.1-0.6-0.2-0.8-0.7-1c-0.9-0.5-1.4-0.6-2.5-0.6l-0.9,0L274.3,289z M271.9,288.6c0.9,0.4,2.4,0.7,2.4,0.6
	c0-0.3-1.2-0.7-2-0.7C271.7,288.5,271.6,288.5,271.9,288.6z M268,288.8c-0.3,0.1-0.2,0.2,0.7,0.4c0.6,0.1,1.3,0.4,1.7,0.5
	c0.6,0.3,0.6,0.2,0.5-0.2c-0.1-0.2-0.1-0.5-0.1-0.5C270.7,288.7,268.6,288.5,268,288.8z M281.8,290c0.1,0.6,0.2,1.1,0.4,1.1
	c0.6,0,1.4-0.2,1.4-0.4c0-0.2-1.7-1.9-1.8-1.8C281.7,288.9,281.7,289.5,281.8,290z M270.9,289c0,0.7,0.3,1.1,1.3,1.6
	c0.6,0.3,1.4,0.8,1.7,1l0.7,0.5l0.1-0.6c0.1-1.1-0.1-1.8-0.6-2C272,288.8,270.9,288.7,270.9,289z M267.6,289.8
	c0.2,0.4,0.7,0.8,1.3,1.1c0.6,0.3,1.3,0.8,1.7,1.2l0.6,0.7l-0.7-0.6c-0.7-0.6-2.2-1.5-2.3-1.3c0,0-0.1,0.6-0.1,1.2l-0.1,1.2l1.2-0.1
	c2-0.2,2.1-0.3,2.1-1.4c0-1.2-0.1-1.4-0.8-1.7c-0.7-0.3-3-0.9-3.1-0.8C267.3,289.2,267.4,289.4,267.6,289.8z M264,289.1
	c-0.2,0.1,0.4,0.3,1.5,0.6c1,0.3,1.9,0.4,1.9,0.4c0-0.1-0.1-0.3-0.2-0.6c-0.3-0.5-0.4-0.5-1.6-0.5C264.9,289,264.2,289.1,264,289.1z
	 M259.5,289.5c0.2,0.2,0.2,0.2,0.1-0.1c-0.1-0.2-0.2-0.3-0.2-0.2C259.3,289.2,259.4,289.3,259.5,289.5z M260.9,289.5
	c0,0.1,0.5,0.2,1,0.4c0.5,0.2,1.2,0.4,1.4,0.6c0.5,0.3,0.7,0.3,0.7-0.1c0-0.7-0.6-1-1.8-1C261.4,289.4,260.9,289.4,260.9,289.5z
	 M286.5,290.6c-5.3,1.1-8.8,1.7-13.4,2.3c-3.3,0.4-11.8,1.4-12.2,1.4c-0.1,0-0.2,0.1-0.2,0.3c0,0.2,0.2,0.3,0.5,0.3
	c1.5,0,6.9-0.7,11.5-1.4c2.9-0.5,6.7-1,8.5-1.2c5.2-0.6,10.6-1.5,11.9-1.9l0.7-0.2l-0.9-0.2C291.7,289.5,291.5,289.6,286.5,290.6z
	 M264,290.2c0,0.4,0,0.6,0.1,0.6c0,0,0.2,0.1,0.5,0.3c0.2,0.2,1,0.7,1.7,1.2c0.9,0.6,1.4,0.8,1.5,0.6c0.2-0.3,0.2-1.9,0-2.2
	c-0.2-0.2-2.8-1.1-3.5-1.1C264,289.6,264,289.9,264,290.2z M274.8,291l0.1,1.2l1.2-0.1c0.6-0.1,1.4-0.2,1.6-0.2
	c0.4-0.1,0.4-0.1-0.2-0.6c-0.5-0.5-2.3-1.5-2.6-1.5C274.8,289.8,274.8,290.3,274.8,291z M259.8,290.2c0,0.2,0.2,1.2,0.4,2.1
	c0.4,1.9,0.1,1.8,3.1,1.5c2-0.2,2.1-0.3,1.6-1.3c-0.7-1.4-2.9-2.6-4.6-2.7C259.8,289.8,259.7,289.8,259.8,290.2z M271.4,291.6
	c0.1,1.2,0.1,1.2,0.5,1.2c0.2-0.1,0.9-0.2,1.5-0.2c0.9-0.1,1.1-0.2,0.9-0.4c-0.2-0.2-2.6-1.8-2.8-1.8
	C271.4,290.3,271.4,290.9,271.4,291.6z M289.9,291.2c-3.7,0.6-6.2,1-9.3,1.3c-1.4,0.2-4.9,0.7-7.7,1.1c-2.8,0.5-6.6,1-8.5,1.2
	c-3.3,0.3-4.1,0.5-3.4,0.8c0.6,0.2,7-0.5,12.2-1.3c2.8-0.5,6.2-1,7.7-1.1c5.5-0.6,13.1-1.9,12.9-2.2
	C293.7,290.6,292.8,290.7,289.9,291.2z M288.7,292.3c-2.2,0.4-5.5,0.8-7.3,1.1c-1.9,0.2-5.7,0.8-8.5,1.2c-4.3,0.7-10.2,1.4-11.7,1.4
	c-0.9,0,0.1,0.3,1.7,0.5c2.8,0.4,4.9,0.9,5.7,1.4c1,0.6,2.3,2.1,3,3.5c2.3,4.4,4.5,16.5,3.4,18.7c-0.3,0.6-1.5,1.7-1.9,1.8
	c-0.1,0-0.5,0.2-0.9,0.4l-0.8,0.4l1.6-0.1c3.4-0.2,5.2-1.1,6-2.9c0.4-0.9,0.5-1.3,0.5-3c0-2.2-0.3-4.1-1.4-8.1
	c-1.5-5.8-2.8-8.9-4.2-10.3c-1.1-1.1-2.8-1.9-4.6-2.2c-0.8-0.1-1.4-0.3-1.2-0.3s1.4-0.2,2.7-0.4c1.3-0.2,3.7-0.5,5.3-0.7l2.8-0.4
	l2.1,0.4c4.8,0.9,7.1,3.1,8.7,8c2.3,6.9,2.7,12.8,1.1,15.6c-0.4,0.6-0.4,0.7-0.1,0.9c0.3,0.2,0.7,0.2,3.2-0.1
	c1.2-0.2,1.4-0.3,1.9-0.8c0.8-0.9,1.1-1.9,1.1-4.6c0-5.8-2.6-14.1-5.3-17.1c-0.9-1-2.6-2-4.5-2.6c-0.7-0.2-1.4-0.5-1.4-0.6
	c0-0.1,0.4-0.2,1-0.3c0.6-0.1,2.2-0.3,3.5-0.5c2.8-0.4,4.5-0.5,7.1-0.1c3.4,0.5,5.3,1.5,6.8,3.6c2.5,3.8,4.5,12.1,3.8,16.7
	c-0.1,0.9-0.3,2-0.5,2.4c-0.5,1.3,0.3,1.4,1.4,0.2c1.9-2.1,2-3.8,0.3-10.6c-1.3-5.2-2.5-8.3-3.8-9.7c-1.5-1.7-3.6-2.6-7.6-3.1
	c-1.3-0.2-2.5-0.3-2.6-0.4C294.5,291.4,292.6,291.6,288.7,292.3z M265.2,292.6c0.4,0.7,0.5,0.8,1.1,0.8c0.4,0,0.8-0.1,0.8-0.2
	c0-0.2-2.1-1.6-2.2-1.5C264.8,291.8,265,292.2,265.2,292.6z M288.6,293.1l-2.2,0.3l1.2,0.3c1.3,0.4,1.2,0.4,5-0.3
	c1.8-0.3,2.9-0.4,4.3-0.1c3.6,0.7,6.4,3.5,8.1,8.1c0.9,2.4,1.6,6.3,1.7,8.5l0.1,1.8l-0.2-1.7c-0.5-5.2-2.1-10.3-4.2-13
	c-1.6-2.1-3.9-3.4-6.6-3.6c-1.2-0.1-3.6,0.1-3.9,0.4c-0.1,0,0,0.4,0.1,0.8c0.2,0.5,0.4,0.9,0.9,1.2c1.8,1.1,3.3,4.4,4.8,10.4
	c1,4.2,1.1,8.6,0.2,11c-0.1,0.2,0.2,0.5,0.9,0.8c1,0.6,1,0.6,2.7,0.3c2.3-0.3,3.5-0.9,4.2-2c0.6-0.9,1-2.3,1-3.5
	c0-0.4,0.1-0.8,0.2-0.8c0.2-0.1-0.1,2.5-0.3,3.2c-0.2,0.6-0.1,0.9,0.3,0.4c0.4-0.6,0.8-2.8,0.8-4.4c0-2.9-0.7-6.9-1.7-10.1
	c-2.2-6.8-4.9-8.6-12.4-8.4C292,292.8,289.8,292.9,288.6,293.1z M290.1,294.1c-0.2,0-0.3,0.1-0.2,0.1c0.2,0.2,2.1,0.8,2.2,0.7
	c0,0,0-0.3-0.1-0.6c-0.1-0.5-0.2-0.5-0.8-0.4C290.7,294.1,290.3,294.1,290.1,294.1z M290.2,295c1.5,0.9,2.4,2.1,3.5,4.3
	c1.5,3.2,2.8,7.2,3.3,11c0.2,1.4,0.2,6,0,6.7c0,0.2,0.1,0.3,0.3,0.3c0.7,0.1,1.1-1.3,1.2-4.4c0.1-2.3,0-2.9-0.4-5
	c-0.3-1.3-0.8-3.4-1.1-4.5c-1.6-5.6-2.9-7.2-6.1-8.5C289.5,294.3,289.2,294.4,290.2,295z M275.4,295.1c-1.4,0.2-3.2,0.5-4,0.6
	l-1.4,0.2l0.9,0.3c0.9,0.3,1.8,0.2,4.1-0.1c0.5-0.1,0.8-0.1,0.6,0c-0.4,0.3,0,1.7,0.5,2.1c1.9,1.5,5.1,12.6,5.1,17.7
	c0,1.5-0.4,3.4-0.8,3.8c-0.3,0.3-0.2,0.4,0.2,0.6c0.2,0.1,0.8,0.4,1.2,0.8l0.9,0.7l1.3-0.2c4.2-0.6,5.8-3.3,5.6-9.4
	c-0.3-6.4-2.5-12.6-5.1-14.4c-1.5-1.1-3.2-1.5-6.4-1.7l-2.3-0.1l1.7,0c3-0.1,5.9,0.7,7.4,1.9c2.2,1.9,4,6.3,4.7,11.7
	c0.4,2.9,0.3,6.4-0.2,7.9c-0.4,1.1-0.4,1.1,0,1.3c0.5,0.3,0.8,0,1.3-1.3c0.4-1,0.4-1.4,0.4-4.2c0-3.5-0.3-5.1-1.5-9.2
	c-1.6-5.2-3.4-7.5-6.9-8.6C280.1,294.6,278.9,294.6,275.4,295.1z M273.5,296.6c-0.2,0.1,0,0.2,0.8,0.6l1.1,0.5v-0.4
	c0-0.9-0.2-1-0.9-0.9C274.1,296.4,273.7,296.5,273.5,296.6z M261.1,301.4c0.1,3.4,0.1,7.4,0,12.6c-0.1,4.2-0.1,7.6,0,7.7
	c0.2,0.1,7.1,0.6,9,0.6c1.4,0,1.7-0.1,2.8-0.7c0.7-0.4,1.5-0.9,1.7-1.2c0.9-1.2,0.7-4.6-0.3-9.9c-1.1-5.6-2.1-8.4-3.8-10.6
	c-1.2-1.6-2.4-2.3-4.6-2.8c-1.6-0.3-4.9-0.8-4.9-0.8C260.9,296.5,261,298.7,261.1,301.4z M273,297.1c1.8,1.2,2.7,2.7,3.9,6.3
	c0.9,2.5,2.2,7.5,2.6,9.9c0.3,1.9,0.4,4.5,0.1,5.7c-0.1,0.5-0.1,0.8,0.1,0.9c0.4,0.3,0.5,0.2,0.9-0.8c0.6-1.3,0.7-3.9,0.1-6.8
	c-1-5.6-3-12.1-4.2-13.4c-0.6-0.7-1.4-1.2-2.6-1.7C272.7,296.7,272.3,296.6,273,297.1z M233,299.5c-0.6,0.8-0.6,0.8-0.3,1.2
	c4.2,3.6,8,6.3,12.9,9.2c2.8,1.6,7.5,3.9,9.1,4.5c1.1,0.4,5.7,0.9,5.9,0.7c0.1-0.1,0.2-0.8,0.2-1.7l0.1-1.6l-1.7-0.1
	c-2.5-0.2-3.5-0.4-6.1-1.5c-4.5-1.8-9.5-4.3-12.9-6.6c-1.7-1.1-5.3-3.8-5.9-4.4c-0.3-0.3-0.5-0.5-0.6-0.5
	C233.6,298.7,233.3,299,233,299.5z M305.6,316.9c-0.7,0.8-2.1,1.4-4,1.7l-1.5,0.2l1,1.1c1.3,1.4,2.6,3.4,3.6,5.5l0.7,1.6l1.5,0.2
	c2.4,0.4,5,1.4,5,2c0,0.2,0.1,0.3,0.2,0.3c0.2,0,0.2-0.7,0.1-2.6c-0.2-3.6-0.8-6-2.4-8.1c-0.6-0.8-2.3-2.2-2.9-2.4
	C306.3,316.2,306.2,316.2,305.6,316.9z M296,318.5c-0.2,0.3-0.4,0.6-0.4,0.6c0,0,0.5,0.2,1,0.4c2.5,0.9,4.8,3.4,7.6,8.3
	c0.6,1,1.2,2.1,1.5,2.5l0.4,0.6v-0.7c0-1.9-1.8-6.2-3.8-8.8c-1.2-1.7-2.3-2.6-3.6-3.3c-1.3-0.7-1.8-0.8-2-0.4
	C296.6,317.8,296.3,318.2,296,318.5z M288.2,319.7c-1.1,1.2-2.1,1.7-4.6,2.1l-0.7,0.1l0.6,0.9c0.3,0.5,1.2,2,1.9,3.3l1.3,2.5l2,0.6
	c1.1,0.3,2.4,0.7,2.8,0.9c1.7,0.7,2.9,1.9,2.6,2.7c-0.1,0.3,0.4,0.7,0.6,0.5c0.2-0.2,0.6-2.2,0.7-3.4c0.3-3-1.1-7.3-2.9-9
	c-0.8-0.8-2.9-2.1-3.5-2.1C289.1,318.9,288.6,319.2,288.2,319.7z M292.1,319.6c-0.4,0-0.3,0.2,0.7,1.1c0.9,0.9,1.2,1.4,1.7,2.6
	c0.3,0.8,0.7,1.7,0.8,1.9c0.8,1.4,1.5,3.1,1.8,4c0.4,1.6,0.4,3.5-0.1,4.4c-0.5,1-1.7,2-3,2.5c-0.8,0.3-1,0.5-0.9,0.7
	c0.3,0.9,0.7,2.8,0.7,4.2c0,0.9,0.1,1.7,0.2,1.7c0.1,0,12.8-2.9,17.9-4.1c0.5-0.1,0.5-0.1,0.3-2c-0.1-1.1-0.2-2.4-0.4-3
	c-0.2-1-0.3-1-0.8-1c-0.3,0-1.2,0.1-1.9,0.1c-2.2,0.1-2.9-0.5-5.3-4.7c-2-3.6-3.6-5.6-5-6.7c-2-1.5-3.6-2-5.3-1.8
	C292.9,319.5,292.3,319.6,292.1,319.6z M278.4,321c-0.6,0.6-1.3,1.1-1.7,1.2l-0.7,0.2l1.4,0.6c2.7,1.2,3.2,1.6,6.7,6.8
	c0.9,1.2,1.9,2.6,2.2,3.1c0.6,0.7,0.7,0.8,0.9,0.5c0.5-1-0.4-4.4-2.1-7.6c-1.2-2.3-1.9-3.2-2.8-4.2c-0.6-0.6-2.4-1.7-2.8-1.7
	C279.5,320,279,320.4,278.4,321z M311.8,321.3c0.2,0.6,0.7,1.5,1,2c1.1,1.7,1.9,4.5,1.6,6.1c-0.2,1-0.9,2-2,2.5
	c-0.4,0.2-0.7,0.4-0.7,0.4c0,0,0.1,0.5,0.3,1.1c0.2,0.6,0.3,1.9,0.4,3l0.1,2l2.7-0.6c1.5-0.3,2.8-0.7,2.9-0.7c0.2-0.2,0-3.5-0.3-5.2
	c-1.1-5-3.2-9.1-5.6-11.1c-0.4-0.3-0.7-0.5-0.7-0.5C311.4,320.2,311.5,320.7,311.8,321.3z M215,322.1c-2.2,0.5-4.3,1.1-4.5,1.2
	c-0.4,0.2-0.4,0.2,0.7,0.4c2,0.2,4.6,0.9,7.1,1.7c2.1,0.7,2.4,0.8,2.7,0.5c0.2-0.2,0.7-0.4,1.2-0.5c0.6-0.2,0.9-0.3,1-0.7
	c0.3-0.9,0.2-1.1-0.9-1.7c-0.6-0.3-1.5-0.9-2-1.3c-0.5-0.4-1-0.7-1-0.7C219.1,321.1,217.2,321.6,215,322.1z M260.9,322.5
	c0,0.4,0.1,0.5,1.4,0.6c0.8,0.1,2.6,0.2,4.1,0.3c3.4,0.3,5.8,0.6,7.3,1.2c3.3,1.1,6.7,4.9,8.2,9.1c0.5,1.6,1.5,6,2.2,9.4
	c0.2,1.2,0.4,1.8,0.5,1.8c0.1,0,2.2-0.5,4.6-1.1c3.8-0.9,4.4-1.1,4.5-1.4c0.1-0.5-0.2-3.8-0.5-4.9l-0.2-0.9l-1.5,0
	c-1.1,0-1.7-0.1-2.2-0.3c-1.3-0.7-2.9-2.6-6.2-7.4c-2.4-3.5-3.2-4.3-5.1-5.3l-1.6-0.8l-4.1-0.1c-2.2-0.1-5.1-0.2-6.3-0.3
	c-1.2-0.1-2.7-0.2-3.2-0.3c-0.5,0-1.1-0.1-1.4-0.1C261,322.1,260.9,322.2,260.9,322.5z M260.8,323.8c-0.1,0.6,0.5,11,0.7,13.3
	c0.2,2.7,1,3.8,3.6,5c2,1,3.2,1.3,11.7,2.5c7.5,1.1,7.3,1.1,7.3,0.6c0-1.3-1.6-9.1-2.3-11.2c-1.5-4.3-4.7-8-8.2-9.3
	c-1.7-0.6-5.8-1.1-12.1-1.5C261,323.2,260.9,323.3,260.8,323.8z M312.6,324.9c0.1,0.7,0.2,2,0.2,3c0,1.8,0,1.8,0.5,2
	c0.3,0.1,0.5,0.2,0.6,0.1c0.2-0.2,0.3-1.9,0.1-3c-0.2-1.2-1.2-3.7-1.4-3.5C312.5,323.7,312.5,324.2,312.6,324.9z M209.3,324.8
	c-0.4,1.3-1.5,7.2-1.4,7.5c0.1,0.2,0.4,0.4,0.7,0.6c0.8,0.4,9.3,2.6,9.5,2.5c0.1-0.1,0.2-0.8,0.3-1.7c0.2-2,0.4-2.8,1.1-4.1
	c0.5-1,0.9-2.4,0.9-3.1c0-0.7-8-2.9-10.2-2.8C209.6,323.9,209.6,323.9,209.3,324.8z M223.3,324.7c-0.3,1.1-1,1.7-1.9,1.7
	c-0.7,0-0.7,0-0.9,1.1c-0.1,0.6-0.5,1.7-0.9,2.4c-0.8,1.6-1.5,5.4-1.1,5.7c0.2,0.1,30.9,7.8,31.1,7.8c0.1,0,0.2-0.5,0.3-1
	c0.1-0.5,0.4-1.5,0.7-2l0.5-1.1l-13.2-3.5c-7.3-1.9-13.4-3.6-13.5-3.6c-0.4-0.2-0.3-0.2,13.9,3.5l13,3.4l0.7-0.5
	c1.2-0.9,2.1-1.8,2.4-2.6c0.2-0.5,0.3-0.9,0.2-0.9c0,0-0.9-0.2-1.9-0.5c-5.4-1.3-20.7-6.9-27-9.9c-1-0.5-1.9-0.9-2-0.9
	C223.6,324,223.4,324.3,223.3,324.7z M221.9,325.7c-0.1,0-0.4,0.1-0.6,0.3c-0.3,0.3-0.3,0.3,0.1,0.3c0.3,0,0.7-0.2,0.9-0.4
	c0.4-0.3,0.4-0.4,0.1-0.3C222.3,325.6,222,325.7,221.9,325.7z M295.7,328.2c0.1,1.5,0,2.6-0.6,4.8c-0.1,0.4-0.1,0.5,0.5,0.7
	c0.8,0.3,0.7,0.3,1-0.3c0.7-1.3,0.5-3.2-0.4-5.6c-0.3-0.7-0.5-1.3-0.5-1.3C295.6,326.6,295.7,327.3,295.7,328.2z M305.7,327.6
	c0.1,0.2,0.2,0.9,0.3,1.5l0.2,1.1l1,0.2c1.5,0.3,4.2-0.3,4.5-1.1c0.2-0.5-1.7-1.4-4.1-1.9C305.8,327.1,305.6,327.1,305.7,327.6z
	 M260,332.9c-0.3,1.3-0.9,2.1-1.9,2.4l-0.7,0.2v2.2c0,2.5-0.1,2.3,1.7,2.1l0.9-0.1l0-0.9c0-1,0.3-1.9,0.8-2.4
	c0.4-0.4,0.4-0.5,0.2-3.7c-0.1-1.8-0.2-3.6-0.2-3.9c0-0.3-0.1,0.2-0.3,1.3C260.3,330.9,260.1,332.3,260,332.9z M286.8,329.2
	c0.5,1.2,0.7,2.7,0.6,3.9l-0.1,1.3l0.9,0.8c1.2,1.1,2.1,1.3,3.8,1.1c1.7-0.3,3.9-1.4,3.9-2c0-0.1-0.5-0.4-1.1-0.6
	c-1-0.4-1.1-0.4-1.9-0.1c-1.5,0.6-3.9,0.9-4.8,0.6c-0.4-0.1-0.7-0.3-0.7-0.3c0-0.1,0.4,0,0.8,0.1c1.3,0.4,5.4-0.5,5.7-1.3
	c0.4-1-1.4-2.2-4.8-3.2C286.9,328.8,286.7,328.8,286.8,329.2z M311.2,330c-1.2,0.6-3.1,0.8-4.1,0.6c-0.9-0.2-1-0.2-0.8,0.4
	c0.2,0.6,1.2,1.3,2.2,1.4c1.6,0.2,4.9-1,5-1.8c0-0.2-0.8-0.8-1.5-0.9C312,329.6,311.6,329.8,311.2,330z M254.5,336.2
	c-0.3,0.9-1,1.7-2.6,3c-0.5,0.4-1.1,1.1-1.2,1.5c-0.5,1-0.7,2.8-0.4,2.8c0.8,0,6.2-1,6.4-1.2c0.2-0.2,0.3-1.2,0.4-3.5l0.1-3.2
	l-0.5-0.1c-0.2,0-0.8-0.1-1.1-0.1C254.9,335.3,254.9,335.3,254.5,336.2z M260.3,338.1c-0.2,0.8-0.2,1.1,0.1,2
	c0.2,0.6,0.5,1.3,0.8,1.5c0.5,0.5,1.4,0.6,1.8,0.2c0.2-0.2,0.1-0.4-0.5-1.1c-0.8-0.8-1-1.5-1.3-3.5c-0.1-0.7-0.1-0.8-0.4-0.5
	C260.6,336.9,260.4,337.5,260.3,338.1z M301.1,341.2c-8.9,2-16.3,3.7-16.5,3.8c-0.5,0.1-0.2,0.7,0.3,0.5c2.4-0.5,6-1.3,16.4-3.7
	c15.5-3.6,15.9-3.7,16.3-4.2l0.4-0.4l-0.4,0.1C317.4,337.5,310,339.2,301.1,341.2z"/>
</svg>
