<svg width="512" height="512" viewBox="0 0 512 512" fill="none" xmlns="http://www.w3.org/2000/svg">
<rect width="512" height="512" fill="white"/>
<path d="M194.844 32.3655C194.844 32.5476 192.356 45.1691 189.322 60.3999L183.8 88.0702L173.849 112.464C168.387 125.874 163.897 137.585 163.897 138.496C163.897 140.377 165.535 143.411 175.002 159.37C185.924 177.695 197.575 194.625 201.337 197.598C202.368 198.387 203.643 198.812 204.796 198.691C206.616 198.509 206.677 198.448 206.677 195.171C206.677 193.351 206.434 191.166 206.131 190.317C205.706 189.103 205.767 188.921 206.434 189.528C207.526 190.62 210.318 190.499 211.288 189.346C213.716 186.373 210.5 173.508 203.703 159.066L200.245 151.785L201.883 148.447C203.218 145.899 203.582 144.2 203.582 141.166C203.643 138.981 203.4 136.615 203.157 135.826C202.126 133.034 204.553 134.551 210.135 140.134C213.23 143.229 217.296 147.476 219.177 149.479C224.031 154.879 227.551 155.304 230.524 150.874C232.527 147.901 232.041 144.928 228.886 140.619C222.332 131.578 213.837 118.592 212.017 114.77C209.225 108.884 208.436 104.029 209.347 98.4466C210.014 94.381 214.444 83.1551 228.461 50.2056C230.646 45.0477 232.466 40.4967 232.466 40.1326C232.466 39.7079 225.184 37.9481 214.383 35.7029C195.694 31.8194 194.844 31.698 194.844 32.3655ZM228.825 147.112C228.825 148.326 225.973 150.874 224.638 150.874C223.546 150.874 219.116 146.445 219.116 145.353C219.116 145.11 220.269 144.078 221.725 143.047L224.274 141.226L226.519 143.775C227.794 145.171 228.825 146.688 228.825 147.112Z" fill="black"/>
<path d="M303.159 35.6425C293.814 37.5843 285.865 39.344 285.44 39.4654C284.955 39.7081 285.44 41.4072 287.018 45.1087C299.094 72.9003 307.71 94.5633 308.317 98.4468C309.955 108.823 307.71 113.678 289.203 140.134C285.38 145.535 285.016 147.659 287.261 150.935C290.113 155.183 293.693 154.819 298.244 149.843C299.943 147.962 304.009 143.714 307.346 140.438C313.232 134.552 315.599 133.035 314.567 135.826C314.324 136.615 314.082 138.981 314.082 141.166C314.082 144.261 314.446 145.838 315.781 148.569L317.48 152.028L315.113 156.761C307.407 172.113 303.827 186.009 306.618 189.528C307.407 190.56 310.259 190.56 311.29 189.528C312.018 188.921 312.079 189.043 311.715 190.014C310.805 192.562 310.38 196.203 310.805 197.477C311.412 199.116 314.082 199.298 316.084 197.902C319.057 195.778 329.859 180.548 339.082 165.438C347.213 152.088 353.342 141.045 353.645 139.163C353.888 137.646 351.764 131.882 343.876 112.525L333.742 87.7671L328.22 59.854C323.002 33.3973 322.638 31.941 321.424 32.0017C320.756 32.0624 312.504 33.7007 303.159 35.6425ZM297.759 146.506C297.273 147.416 296.181 148.812 295.331 149.6C293.996 150.875 293.45 150.996 292.115 150.511C291.205 150.207 290.052 149.236 289.567 148.387C288.717 146.87 288.778 146.627 290.962 144.018L293.268 141.166L295.938 143.047C298.547 144.807 298.608 144.928 297.759 146.506Z" fill="black"/>
<path d="M250.549 119.321C246.362 120.049 241.811 121.627 237.321 123.872C233.012 126.057 225.791 131.214 225.791 132.125C225.791 132.489 227.976 135.766 230.585 139.528C233.194 143.29 235.682 147.477 236.107 148.873C237.988 155.123 233.437 161.797 227.248 161.797C223.789 161.797 219.966 159.188 215.84 154.03C213.959 151.664 212.199 149.601 211.956 149.419C211.653 149.237 210.561 150.936 209.529 153.059L207.527 157.064L210.803 164.71C218.692 183.036 219.905 192.744 214.808 196.507C213.595 197.417 213.049 198.327 213.049 199.601C213.049 203.182 210.925 205.427 207.466 205.487C204.311 205.487 202.611 204.699 200.063 202.029L197.878 199.723V201.847C197.878 202.999 198.182 207.126 198.485 210.949C202.126 251.726 225.973 282.37 255.525 284.19C285.562 286.01 311.654 257.066 317.116 215.864C317.601 212.344 318.026 207.672 318.026 205.548V201.665L316.691 202.939C311.836 207.429 305.04 205.912 304.251 200.148C304.009 198.327 303.341 196.992 301.945 195.596C299.275 192.927 298.79 189.71 300.125 183.339C301.217 178.12 304.191 169.625 307.407 162.647L309.348 158.399L307.285 154.273C306.132 152.028 304.979 150.268 304.737 150.39C304.433 150.511 302.856 152.271 301.157 154.334C296.909 159.431 294.36 161.251 290.902 161.676C287.503 162.04 284.955 160.827 282.952 157.914C279.372 152.695 280.1 148.933 286.351 140.135C288.778 136.736 290.902 133.581 291.023 133.096C291.508 132.003 283.256 125.935 277.734 123.326C275.367 122.173 271.727 120.777 269.785 120.231C265.537 119.078 254.675 118.532 250.549 119.321Z" fill="#FFC107"/>
<path d="M215.476 276.908C215.476 284.19 214.323 293.049 212.381 300.452C207.587 319.02 197.15 331.945 182.466 337.467C175.487 340.076 168.388 340.865 143.266 341.715C111.651 342.807 100.547 345.78 91.4449 355.368C85.0734 362.164 81.3112 371.752 79.6122 385.405C77.4883 402.941 81.2505 464.168 85.3768 477.882C86.2263 480.734 87.1972 481.644 88.2895 480.552C88.5322 480.248 110.62 480.188 137.38 480.37C164.14 480.552 217.296 480.673 255.525 480.673C293.754 480.673 346.91 480.552 373.67 480.37C400.43 480.188 422.518 480.248 422.76 480.552C423.853 481.644 424.823 480.734 425.673 477.882C429.799 464.168 433.561 402.941 431.438 385.405C428.768 363.62 420.212 351.06 404.495 346.023C396.668 343.535 386.837 342.382 367.784 341.715C342.662 340.865 335.562 340.076 328.584 337.467C309.288 330.185 297.516 310.222 295.695 281.641L295.271 275.33L291.387 278.364C272.03 293.413 248.486 294.384 228.583 281.034C225.852 279.275 222.029 276.119 220.027 274.117C218.024 272.054 216.204 270.415 215.961 270.415C215.718 270.415 215.476 273.328 215.476 276.908Z" fill="#FFC107"/>
</svg>
